<svg width="50" height="50" viewBox="0 0 50 50" fill="none" xmlns="http://www.w3.org/2000/svg"><circle cx="25" cy="25" r="25" fill="url(#paint0_linear)"/><path d="M19.687 26.224c-1.168 0-2.112-.424-2.832-1.272-.72-.848-1.08-1.952-1.08-3.312 0-1.36.36-2.464 1.08-3.312.72-.848 1.664-1.272 2.832-1.272s2.104.424 2.808 1.272c.72.832 1.08 1.936 1.08 3.312s-.36 2.488-1.08 3.336c-.704.832-1.64 1.248-2.808 1.248zM29.815 17.2h1.848L20.19 34h-1.848l11.472-16.8zm-10.128 7.656c.736 0 1.312-.28 1.728-.84.416-.576.624-1.368.624-2.376 0-1.008-.208-1.792-.624-2.352-.416-.576-.992-.864-1.728-.864-.72 0-1.296.288-1.728.864-.416.576-.624 1.36-.624 2.352 0 .992.208 1.776.624 2.352.432.576 1.008.864 1.728.864zm10.632 9.288c-1.168 0-2.112-.416-2.832-1.248-.704-.848-1.056-1.96-1.056-3.336s.352-2.48 1.056-3.312c.72-.848 1.664-1.272 2.832-1.272s2.112.424 2.832 1.272c.72.848 1.08 1.952 1.08 3.312 0 1.36-.36 2.464-1.08 3.312-.72.848-1.664 1.272-2.832 1.272zm0-1.368c.72 0 1.288-.288 1.704-.864.432-.576.648-1.36.648-2.352 0-.992-.216-1.776-.648-2.352-.416-.576-.984-.864-1.704-.864-.736 0-1.312.288-1.728.864-.416.56-.624 1.344-.624 2.352 0 1.008.208 1.8.624 2.376.416.56.992.84 1.728.84z" fill="#fff"/><defs><linearGradient id="paint0_linear" x1="75" y1="25" x2="25" y2="-25" gradientUnits="userSpaceOnUse"><stop stop-color="#00AEEF"/><stop offset="1" stop-color="#72BF44"/></linearGradient></defs></svg>
