<svg width="24" height="24" fill="none" xmlns="http://www.w3.org/2000/svg"><path fill-rule="evenodd" clip-rule="evenodd" d="M19.78 4.223a.75.75 0 00-1.063 0L4.225 18.715a.75.75 0 101.062 1.062L19.779 5.285a.75.75 0 000-1.062zM4 7.575c0-1.967 1.6-3.567 3.567-3.567s3.567 1.6 3.567 3.567-1.6 3.567-3.567 3.567A3.571 3.571 0 014 7.575zm1.502 0c0 1.139.926 2.065 2.065 2.065a2.067 2.067 0 002.065-2.065A2.067 2.067 0 007.567 5.51a2.068 2.068 0 00-2.065 2.065zm10.931 5.287a3.571 3.571 0 00-3.567 3.567c0 1.967 1.6 3.567 3.567 3.567S20 18.396 20 16.43c0-1.966-1.6-3.567-3.567-3.567zm0 5.632a2.068 2.068 0 01-2.065-2.065c0-1.138.926-2.065 2.065-2.065 1.139 0 2.065.927 2.065 2.065a2.067 2.067 0 01-2.065 2.065z" fill="#B4C0CD"/></svg>
