<svg width="210" height="68" viewBox="0 0 210 68" fill="none" xmlns="http://www.w3.org/2000/svg">
<path d="M209.469 1.17222L209.642 0.702814L208.703 0.358377L208.531 0.827782L209.469 1.17222ZM153.154 51.1527L153.331 51.6203L153.154 51.1527ZM0 63.7797L4.78877 67.0048L5.18737 61.245L0 63.7797ZM208.531 0.827782C200.355 23.1123 181.875 39.7437 152.977 50.6851L153.331 51.6203C182.415 40.6086 201.166 23.8049 209.469 1.17222L208.531 0.827782ZM152.977 50.6851C129.319 59.6422 97.1915 63.1878 68.4554 64.3314C39.732 65.4744 14.452 64.2163 4.51768 63.5911L4.45488 64.5892C14.4073 65.2154 39.7247 66.4755 68.4951 65.3306C97.2529 64.1861 129.515 60.6372 153.331 51.6203L152.977 50.6851Z" fill="#A6B6C6"/>
</svg>
