<svg width="24" height="24" viewBox="0 0 24 24" fill="none" xmlns="http://www.w3.org/2000/svg"><path d="M3.5 12.131c0-.48.376-.867.836-.867.46 0 .836.386.836.867v2.017l4.505-4.612a1.648 1.648 0 012.379-.006l2.323 2.388c.003.003.008.005.017.005.005 0 .01-.002.013-.005l4.666-4.767a.815.815 0 011.177 0 .89.89 0 010 1.233l-4.638 4.767c-.317.327-.748.51-1.19.506a1.652 1.652 0 01-1.194-.505l-2.34-2.406c-.007-.007-.02-.007-.026 0l-4.496 4.62H8.32c.46 0 .836.386.836.867 0 .48-.376.867-.836.867H4.336c-.46 0-.836-.386-.836-.867V12.13z" fill="#FB2F59"/></svg>
