<svg width="24" height="24" viewBox="0 0 24 24" fill="none" xmlns="http://www.w3.org/2000/svg"><path d="M20.5 11.869c0 .48-.376.867-.836.867-.46 0-.836-.386-.836-.867V9.852l-4.505 4.612c-.657.678-1.72.68-2.379.006l-2.323-2.388c-.003-.003-.008-.005-.017-.005a.018.018 0 00-.013.005l-4.666 4.767a.815.815 0 01-1.177 0 .89.89 0 010-1.233l4.638-4.767c.317-.327.748-.51 1.19-.506.447-.002.876.18 1.194.505l2.34 2.407c.007.006.02.006.026 0l4.496-4.621H15.68c-.46 0-.836-.386-.836-.867 0-.48.376-.867.836-.867h3.984c.46 0 .836.386.836.867V11.87z" fill="#2BAB72"/></svg>
