<svg width="1024" height="1024" viewBox="0 0 1024 1024" fill="none" xmlns="http://www.w3.org/2000/svg">
<rect width="1024" height="1024" rx="230" fill="url(#paint0_linear_1214_7918)"/>
<path d="M826.77 778.353C810.6 750.839 783.875 733.829 753.933 730.575C744.213 728.158 734.511 724.924 725.609 720.053C679.48 693.338 663.292 635.056 689.182 588.914C690.033 588.023 690.597 586.896 690.798 585.679V584.861C700.519 567.869 706.187 549.242 708.603 528.996V527.379V525.762C708.603 510.387 696.467 498.247 681.896 498.247H579.936C564.566 498.247 552.43 510.387 552.43 525.762C552.43 541.155 564.566 553.276 579.936 553.276H647.123C631.734 584.861 599.358 606.724 562.131 606.724C537.237 606.704 513.368 596.802 495.767 579.193C478.165 561.583 468.271 537.705 468.256 512.804C468.276 487.906 478.172 464.033 495.773 446.427C513.374 428.821 537.24 418.922 562.131 418.902C578.577 418.831 594.745 423.144 608.971 431.398C623.197 439.651 634.967 451.548 643.071 465.862C647.922 473.949 656.824 479.619 666.544 479.619C681.915 479.619 694.051 467.48 694.051 452.105C694.051 446.416 692.434 441.564 690.018 437.511C664.11 391.369 680.298 333.088 726.445 306.373C735.348 301.521 745.049 297.449 754.77 295.85C769.785 294.088 784.183 288.853 796.825 280.56C809.467 272.268 820.006 261.145 827.606 248.072C854.313 201.93 838.126 142.849 791.996 116.115C745.867 89.4006 686.784 105.593 660.077 151.735C652.374 164.724 647.91 179.378 647.062 194.457C646.214 209.535 649.008 224.597 655.207 238.368C658.441 248.072 660.077 257.795 660.077 268.318C660.095 293.811 650.088 318.289 632.219 336.467C614.349 354.644 590.049 365.063 564.566 365.473H561.332C535.849 365.063 511.549 354.644 493.679 336.467C475.809 318.289 465.803 293.811 465.821 268.318C465.821 257.795 467.438 248.072 470.672 238.368C476.482 224.505 479.067 209.503 478.229 194.495C477.392 179.487 473.156 164.865 465.84 151.735C439.077 105.593 379.994 89.4006 333.864 116.115C287.754 142.83 271.566 201.93 298.273 248.091C314.443 275.605 341.169 292.616 371.128 295.869C380.83 298.286 390.532 301.521 399.434 306.391C444.764 332.288 460.952 390.589 436.679 435.913C435.862 437.53 434.245 439.147 433.427 441.583C405.92 486.108 347.636 500.701 302.325 474.786C292.605 469.116 284.52 462.628 278.034 454.522C260.229 431.879 232.722 416.485 201.146 416.485C146.932 416.467 103.219 459.374 103.219 512.822C103.219 566.252 146.932 609.178 199.529 609.178C214.424 609.276 229.136 605.885 242.487 599.277C255.838 592.669 267.458 583.027 276.417 571.123C282.903 563.017 290.988 556.548 300.708 550.878C346.019 524.163 404.303 539.537 431.81 584.062C432.628 585.698 433.427 587.315 435.044 589.732C459.335 635.874 443.147 693.357 397.817 719.272C388.915 724.124 379.213 728.177 369.493 729.794C354.475 731.554 340.072 736.788 327.427 745.081C314.781 753.373 304.24 764.498 296.638 777.573C269.949 823.696 286.137 882.796 332.266 909.511C378.395 936.244 437.478 920.052 464.186 873.891C471.886 860.9 476.347 846.246 477.191 831.167C478.035 816.088 475.238 801.028 469.037 787.258C465.798 777.613 464.166 767.502 464.204 757.327C464.204 704.697 506.282 660.972 559.697 660.172H562.93C588.414 660.582 612.713 671.001 630.583 689.178C648.453 707.356 658.459 731.834 658.441 757.327C658.441 767.85 656.806 777.554 653.572 787.258C647.767 801.124 645.189 816.127 646.033 831.136C646.876 846.144 651.119 860.764 658.441 873.891C685.148 920.052 744.232 936.244 790.361 909.511C838.107 883.614 853.477 824.514 826.788 778.372L826.77 778.353Z" fill="white"/>
<defs>
<linearGradient id="paint0_linear_1214_7918" x1="0.89045" y1="1024.89" x2="1024.89" y2="0.89045" gradientUnits="userSpaceOnUse">
<stop stop-color="#00AEEF"/>
<stop offset="1" stop-color="#72BF44"/>
</linearGradient>
</defs>
</svg>
