<svg id="Layer_1" data-name="Layer 1" xmlns="http://www.w3.org/2000/svg" viewBox="0 0 25 25" width="25" height="25">
  <path fill="currentColor" d="m21.33,3.67C18.99,1.32,15.81,0,12.5,0h0c-2.47,0-4.89.73-6.94,2.11S1.9,5.43.95,7.72C0,10-.24,12.51.24,14.94c.48,2.42,1.67,4.65,3.42,6.4,1.75,1.75,3.98,2.94,6.4,3.42,2.42.48,4.94.23,7.22-.71,2.28-.95,4.24-2.55,5.61-4.6s2.11-4.47,2.11-6.94h0c0-3.31-1.32-6.49-3.67-8.83Zm-2.96,17.65h0Zm3.8-5.96c-.42,1.43-1.17,2.73-2.16,3.84-.29-1.11-.8-2.16-1.54-3.04h0s0-.02,0-.02c-.21-.23-.5-.37-.81-.39-.31-.02-.62.08-.85.28-.24.2-.39.48-.42.79-.03.31.05.62.24.87l.4-.3h0s-.4.3-.4.3h0s0,.02,0,.02c.78.94,1.21,2.12,1.23,3.34-1.61,1.02-3.47,1.56-5.37,1.56s-3.76-.55-5.37-1.56c.02-1.39.58-2.72,1.57-3.71l-.35-.35h0l.35.35h0c1.01-1.01,2.37-1.57,3.8-1.57h0c1.32,0,2.59-.46,3.59-1.31,1.01-.85,1.68-2.02,1.9-3.32s-.03-2.63-.7-3.76c-.67-1.13-1.72-1.99-2.96-2.42-1.24-.43-2.6-.41-3.83.07-1.23.47-2.25,1.37-2.88,2.52s-.83,2.5-.56,3.78c.24,1.16.86,2.19,1.73,2.98-.96.52-1.8,1.23-2.46,2.1-.63.83-1.08,1.78-1.34,2.79-1.65-1.83-2.57-4.21-2.57-6.68h0c0-1.66.4-3.29,1.18-4.75.78-1.46,1.9-2.71,3.28-3.64s2.96-1.5,4.6-1.66c1.65-.17,3.31.07,4.85.7,1.53.63,2.89,1.62,3.95,2.9,1.06,1.28,1.79,2.79,2.12,4.41.33,1.62.26,3.3-.21,4.89Zm-4.25,5.81h0,0Zm-11.31.16h0,0Zm2.25-11.12h.03-.03Zm6.53,1.2c-.24.57-.64,1.06-1.15,1.41-.51.34-1.12.53-1.74.53-.83,0-1.63-.33-2.22-.92-.59-.59-.92-1.38-.92-2.22,0-.62.18-1.22.53-1.74.34-.51.83-.92,1.41-1.15.57-.24,1.2-.3,1.81-.18.61.12,1.17.42,1.6.86.44.44.74,1,.86,1.6.12.61.06,1.24-.18,1.81Zm-2.89,2.4v.03h0v-.03Zm5.77,7.57h0s0,0,0,0h0Zm.11-.19h-.09s0,0,0,0h.09Zm-.12-.05h0s.12,0,.12,0h-.12Z"/>
</svg>