<svg width="35" height="35" viewBox="0 0 35 35" fill="none" xmlns="http://www.w3.org/2000/svg">
<path d="M31.4022 33.15H31.5522V33.141C31.9593 33.1059 32.3432 32.9289 32.6351 32.6384C32.9626 32.3124 33.1477 31.87 33.15 31.4079V31.4071V3.59807C33.15 2.63452 32.3686 1.85 31.4022 1.85L10.5138 1.8526L10.5138 1.8526C10.0621 1.85273 9.62814 2.02798 9.303 2.3415C9.30298 2.34152 9.30295 2.34154 9.30293 2.34157L5.7776 5.72978L5.77755 5.72982L2.39073 8.98214C2.39056 8.9823 2.39039 8.98246 2.39022 8.98262C2.04302 9.31023 1.85 9.76548 1.85 10.2424V31.4019C1.85 31.8655 2.03414 32.3102 2.36191 32.638C2.68969 32.9658 3.13425 33.15 3.5978 33.15H31.4022ZM30.4858 4.7667V30.4334L4.80002 30.4386V10.9812L8.03514 7.81978L8.0362 7.81877L11.2184 4.76927L30.4858 4.7667Z" fill="currentColor" stroke="currentColor" stroke-width="0.3"/>
<path d="M19.0522 10.2988L19.0526 10.2988L19.0509 10.2874C18.9185 9.3759 18.2157 8.85 17.5 8.85C16.7032 8.85 15.9248 9.50079 15.9248 10.6008V15.9248H10.6008C9.5006 15.9248 8.85 16.7062 8.85 17.5C8.85 18.2971 9.50117 19.0723 10.6008 19.0723H10.6009L15.9249 19.0696L15.9277 24.3992C15.9277 24.3992 15.9277 24.3992 15.9277 24.3992C15.9277 25.496 16.7057 26.15 17.5 26.15C18.2971 26.15 19.0723 25.4988 19.0723 24.3992V19.0696L24.3991 19.0723L24.3991 19.0727L24.4093 19.072L24.7012 19.0522L24.7012 19.0526L24.7126 19.0509C25.6243 18.9185 26.15 18.2127 26.15 17.5C26.15 16.7032 25.4992 15.9248 24.3992 15.9248H19.0723V10.6008H19.0727L19.072 10.5907L19.0522 10.2988Z" fill="currentColor" stroke="currentColor" stroke-width="0.3"/>
</svg>