<svg width="200" height="200" viewBox="0 0 200 200" fill="none" xmlns="http://www.w3.org/2000/svg">
<g clipPath="url(#clip0_844_22524)">
<path d="M100 0C45 0 0 45 0 100C0 155 45 200 100 200C155 200 200 155 200 100C200 45 155 0 100 0ZM100 185C53 185 15 147 15 100C15 53 53 15 100 15C147 15 185 53 185 100C185 147 147 185 100 185ZM152 72C152 74 151 76 150 77L94 133C93 134 91 135 89 135C87 135 85 134 84 133L52 101C50 99.2308 48.4615 97.3846 48.4615 95.3846C48.4615 91.3846 51.1538 87.6923 56.1538 87.6923C58.4615 88.0769 60 90 61 91L88 118L139 67C140 66 142 65 144 65C148 64 152 68 152 72Z" fill="url(#paint0_linear_844_22524)"/>
</g>
<defs>
<linearGradient id="paint0_linear_844_22524" x1="38.8586" y1="176.952" x2="191.862" y2="6.4913" gradientUnits="userSpaceOnUse">
<stop stop-color="#00AEEF"/>
<stop offset="1" stop-color="#72BF44"/>
</linearGradient>
<clipPath id="clip0_844_22524">
<rect width="200" height="200" fill="white"/>
</clipPath>
</defs>
</svg>