<svg xmlns="http://www.w3.org/2000/svg" width="37.5" height="37.5" viewBox="0 0 30 30" fill="none">
  <path d="M29.0625 30.9375C29.0625 30.9375 29.0625 29.0039 28.9014 27.9932C28.7695 27.1948 27.6636 26.1401 22.9614 24.4116C18.3325 22.7124 18.6182 23.54 18.6182 20.4126C18.6182 18.3838 19.6509 19.563 20.3101 15.7104C20.5664 14.1943 20.7715 15.2051 21.3281 12.7734C21.6211 11.499 21.1304 11.4038 21.189 10.7959C21.2476 10.188 21.3062 9.646 21.416 8.40088C21.5479 6.86279 20.1196 2.8125 15 2.8125C9.88037 2.8125 8.45215 6.86279 8.59131 8.4082C8.70117 9.646 8.75977 10.1953 8.81836 10.8032C8.87695 11.4111 8.38623 11.5063 8.6792 12.7808C9.23584 15.2051 9.44092 14.1943 9.69727 15.7178C10.3564 19.5703 11.3892 18.3911 11.3892 20.4199C11.3892 23.5547 11.6748 22.7271 7.0459 24.4189C2.34375 26.1401 1.23047 27.2021 1.10596 28.0005C0.9375 29.0039 0.9375 30.9375 0.9375 30.9375H15H29.0625Z" fill="#285E69"/>
</svg>