<svg width="16" height="15" viewBox="0 0 16 15" fill="none" xmlns="http://www.w3.org/2000/svg">
    <path d="M1.67783 1.17783C1.79169 1.06397 1.94612 1 2.10714 1H10.6786C10.7583 1 10.8373 1.0157 10.9109 1.04622C10.9846 1.07673 11.0515 1.12145 11.1079 1.17783C11.1643 1.23421 11.209 1.30114 11.2395 1.3748C11.27 1.44846 11.2857 1.52741 11.2857 1.60714V10.1786C11.2857 10.2583 11.27 10.3373 11.2395 10.4109C11.209 10.4846 11.1643 10.5515 11.1079 10.6079C11.0515 10.6643 10.9846 10.709 10.9109 10.7395C10.8373 10.77 10.7583 10.7857 10.6786 10.7857H2.10714C2.02741 10.7857 1.94846 10.77 1.8748 10.7395C1.80114 10.709 1.73421 10.6643 1.67783 10.6079C1.62145 10.5515 1.57673 10.4846 1.54622 10.4109C1.5157 10.3373 1.5 10.2583 1.5 10.1786V1.60714C1.5 1.44612 1.56397 1.29169 1.67783 1.17783Z" stroke="#2BAB72" stroke-width="2" stroke-linejoin="round"/>
</svg>
