<svg width="24" height="24" fill="none" xmlns="http://www.w3.org/2000/svg"><path fill-rule="evenodd" clip-rule="evenodd" d="M6.568 19.129l-.319-2.256a.587.587 0 10-1.163.165l.072.505a8.827 8.827 0 01-1.431-2.525C1.347 8.512 7.094 1.95 13.796 3.378a.587.587 0 00.245-1.148C6.473.616-.09 8.002 2.623 15.422c.38 1.04.929 2.004 1.618 2.856l-.567-.109a.587.587 0 10-.222 1.153l2.373.456a.59.59 0 00.742-.65zM21.364 8.56a10.002 10.002 0 00-1.618-2.856l.568.11a.587.587 0 00.221-1.154l-2.373-.456a.589.589 0 00-.742.65l.32 2.255a.587.587 0 101.162-.165l-.071-.505a8.828 8.828 0 011.43 2.525c1.667 4.557-.677 9.623-5.225 11.292a8.743 8.743 0 01-4.843.347.587.587 0 00-.245 1.149c1.83.39 3.729.254 5.493-.394 5.167-1.897 7.817-7.62 5.923-12.798zm-3.284 3.462c0-3.361-2.73-6.096-6.086-6.096-3.356 0-6.086 2.735-6.086 6.096s2.73 6.096 6.086 6.096c3.356 0 6.086-2.735 6.086-6.096zm-10.997 0c0-2.714 2.203-4.922 4.911-4.922 2.709 0 4.912 2.208 4.912 4.922 0 2.714-2.203 4.922-4.912 4.922-2.708 0-4.911-2.208-4.911-4.922z" fill="#2BAB72"/></svg>
