<svg width="505" height="562" viewBox="0 0 505 562" fill="none" xmlns="http://www.w3.org/2000/svg">
<path d="M495.246 462.382C484.185 443.537 465.906 431.888 445.426 429.66C438.776 428.005 432.142 425.79 426.051 422.453C394.5 404.157 383.428 364.242 401.137 332.639C401.718 332.03 402.104 331.258 402.242 330.425V329.864C408.89 318.228 412.768 305.469 414.42 291.604V290.496V289.389C414.42 278.858 406.12 270.545 396.153 270.545H326.413C315.898 270.545 307.599 278.858 307.599 289.389C307.599 299.931 315.898 308.231 326.413 308.231H372.368C361.842 329.864 339.696 344.838 314.234 344.838C297.205 344.824 280.88 338.042 268.841 325.982C256.802 313.922 250.035 297.569 250.025 280.513C250.039 263.462 256.807 247.112 268.845 235.054C280.885 222.996 297.209 216.216 314.234 216.204C325.482 216.154 336.542 219.108 346.271 224.76C356.004 230.415 364.053 238.561 369.596 248.365C372.914 253.903 379.004 257.787 385.652 257.787C396.166 257.787 404.466 249.473 404.466 238.943C404.466 235.048 403.361 231.723 401.708 228.949C383.986 197.347 395.06 157.431 426.624 139.134C432.713 135.811 439.35 133.023 445.998 131.928C456.268 130.721 466.116 127.136 474.762 121.456C483.41 115.777 490.619 108.159 495.817 99.2061C514.085 67.6047 503.013 27.1413 471.461 8.83232C439.909 -9.464 399.495 1.62583 381.228 33.2273C375.96 42.1234 372.905 52.159 372.325 62.4862C371.748 72.8132 373.658 83.1286 377.897 92.5599C380.11 99.2061 381.228 105.865 381.228 113.072C381.241 130.532 374.396 147.296 362.174 159.746C349.949 172.195 333.33 179.331 315.898 179.611H313.688C296.257 179.331 279.637 172.195 267.413 159.746C255.19 147.296 248.345 130.532 248.359 113.072C248.359 105.865 249.465 99.2061 251.676 92.5599C255.65 83.0658 257.418 72.7911 256.846 62.5123C256.273 52.2337 253.374 42.2198 248.372 33.2273C230.066 1.62583 189.654 -9.464 158.1 8.83232C126.562 27.1287 115.489 67.6047 133.757 99.2189C144.816 118.063 163.097 129.713 183.589 131.941C190.225 133.596 196.862 135.811 202.95 139.147C233.955 156.883 245.027 196.813 228.426 227.854C227.867 228.961 226.759 230.069 226.202 231.736C207.387 262.23 167.521 272.225 136.528 254.477C129.88 250.594 124.35 246.15 119.913 240.598C107.735 225.091 88.9203 214.548 67.3219 214.548C30.24 214.535 0.340576 243.921 0.340576 280.527C0.340576 317.118 30.24 346.517 66.216 346.517C76.4047 346.586 86.4674 344.263 95.5994 339.737C104.732 335.213 112.679 328.608 118.807 320.457C123.244 314.903 128.773 310.474 135.422 306.59C166.415 288.294 206.281 298.823 225.095 329.316C225.655 330.437 226.202 331.545 227.307 333.2C243.921 364.801 232.85 404.171 201.844 421.918C195.755 425.242 189.12 428.018 182.469 429.126C172.199 430.331 162.347 433.915 153.698 439.595C145.048 445.274 137.838 452.893 132.639 461.848C114.383 493.435 125.456 533.913 157.007 552.209C188.56 570.517 228.973 559.428 247.24 527.814C252.507 518.917 255.559 508.879 256.135 498.554C256.714 488.225 254.8 477.911 250.558 468.481C248.343 461.874 247.227 454.95 247.252 447.981C247.252 411.936 276.032 381.991 312.569 381.443H314.781C332.211 381.723 348.832 388.859 361.054 401.308C373.278 413.757 380.121 430.522 380.11 447.981C380.11 455.189 378.991 461.834 376.778 468.481C372.808 477.976 371.044 488.253 371.623 498.531C372.199 508.81 375.101 518.823 380.11 527.814C398.378 559.428 438.79 570.517 470.341 552.209C502.999 534.473 513.514 493.995 495.257 462.395L495.246 462.382Z" fill="#DCDCD9"/>
</svg>
