<svg width="20" height="16" viewBox="0 0 20 16" fill="none" xmlns="http://www.w3.org/2000/svg">
<path d="M1.64288 13.1581C1.64288 13.4987 1.77799 13.8253 2.01855 14.0664C2.25911 14.3074 2.58548 14.4432 2.92603 14.4439H17.074C17.4146 14.4432 17.7409 14.3074 17.9815 14.0664C18.2221 13.8253 18.3572 13.4987 18.3572 13.1581V10.543C17.802 10.3925 17.3119 10.0634 16.9624 9.60651C16.613 9.14966 16.4236 8.59047 16.4236 8.01529C16.4236 7.4401 16.613 6.88091 16.9624 6.42406C17.3119 5.96721 17.802 5.63811 18.3572 5.48757V2.87243C18.3572 2.53188 18.2221 2.20524 17.9815 1.9642C17.7409 1.72316 17.4146 1.5874 17.074 1.58672H2.92603C2.58548 1.5874 2.25911 1.72316 2.01855 1.9642C1.77799 2.20524 1.64288 2.53188 1.64288 2.87243V5.48243C2.20245 5.6296 2.69753 5.95794 3.05082 6.41616C3.4041 6.87438 3.5957 7.43669 3.5957 8.01529C3.5957 8.59389 3.4041 9.1562 3.05082 9.61442C2.69753 10.0726 2.20245 10.401 1.64288 10.5481V13.1581Z" stroke="#285E69" stroke-width="2" stroke-linecap="round" stroke-linejoin="round"/>
<path d="M6.81146 11.2296L13.24 4.80099" stroke="#285E69" stroke-width="2" stroke-linecap="round" stroke-linejoin="round"/>
<path d="M7.45432 6.08671C7.62482 6.08671 7.78833 6.01898 7.90889 5.89842C8.02945 5.77786 8.09718 5.61435 8.09718 5.44385C8.09718 5.27336 8.02945 5.10984 7.90889 4.98928C7.78833 4.86872 7.62482 4.80099 7.45432 4.80099C7.28382 4.80099 7.12031 4.86872 6.99975 4.98928C6.87919 5.10984 6.81146 5.27336 6.81146 5.44385C6.81146 5.61435 6.87919 5.77786 6.99975 5.89842C7.12031 6.01898 7.28382 6.08671 7.45432 6.08671Z" stroke="#285E69" stroke-width="2" stroke-linecap="round" stroke-linejoin="round"/>
<path d="M12.5971 11.2296C12.6816 11.2296 12.7652 11.2129 12.8432 11.1806C12.9211 11.1483 12.992 11.101 13.0517 11.0413C13.1114 10.9816 13.1588 10.9107 13.1911 10.8327C13.2234 10.7547 13.24 10.6711 13.24 10.5867C13.24 10.5023 13.2234 10.4187 13.1911 10.3407C13.1588 10.2627 13.1114 10.1918 13.0517 10.1322C12.992 10.0725 12.9211 10.0251 12.8432 9.9928C12.7652 9.96049 12.6816 9.94386 12.5971 9.94386C12.4266 9.94386 12.2631 10.0116 12.1426 10.1322C12.022 10.2527 11.9543 10.4162 11.9543 10.5867C11.9543 10.7572 12.022 10.9207 12.1426 11.0413C12.2631 11.1618 12.4266 11.2296 12.5971 11.2296Z" stroke="#285E69" stroke-width="2" stroke-linecap="round" stroke-linejoin="round"/>
</svg>
