<svg xmlns="http://www.w3.org/2000/svg" width="18" height="18" viewBox="0 0 18 18" fill="none">
  <path d="M16.0703 0H1.92676C0.863948 0 0 0.582585 0 1.29829V16.7009C0 17.4162 0.863948 17.9996 1.92676 17.9996H16.0703C17.1355 17.9996 17.9994 17.4162 17.9994 16.7009V1.29829C17.9994 0.582585 17.1355 0 16.0703 0ZM16.8985 16.7009C16.8985 17.008 16.5263 17.257 16.0703 17.257H1.92676C1.47068 17.257 1.09973 17.008 1.09973 16.7009V14.7439H16.8979L16.8985 16.7009ZM16.8985 14.0021H1.10033V2.85318H16.8985V14.0021ZM16.8985 2.11182H1.10033V1.29829C1.10033 0.990355 1.47127 0.741363 1.92736 0.741363H16.0703C16.5263 0.741363 16.8985 0.990355 16.8985 1.29829V2.11182ZM7.20691 16.3501H9.94582C10.2495 16.3501 10.4972 16.1845 10.4972 15.9792C10.4972 15.7747 10.2495 15.6095 9.94582 15.6095H7.20691C6.90325 15.6095 6.65555 15.7747 6.65555 15.9792C6.65555 16.1845 6.90325 16.3501 7.20691 16.3501ZM9.01042 11.0647C10.992 11.0647 12.6234 10.0563 12.8389 8.76043C12.8413 8.74239 12.8425 8.72434 12.8425 8.7055C12.8425 8.44448 12.5299 8.23117 12.1411 8.22957L9.46055 8.22917C9.06996 8.22917 8.75261 8.44207 8.75261 8.7055C8.75261 8.96933 9.06996 9.18344 9.46055 9.18344H11.2087C10.8133 9.73274 9.97857 10.1136 9.01102 10.1136C7.663 10.1136 6.56981 9.3775 6.56981 8.46894C6.56981 7.56118 7.663 6.82503 9.01102 6.82503C9.89938 6.82503 10.6764 7.14579 11.1045 7.62413C11.223 7.77449 11.4582 7.87633 11.7291 7.87633C12.1197 7.87633 12.437 7.66342 12.437 7.39999C12.437 7.29094 12.3834 7.1923 12.2906 7.11011C11.6136 6.36914 10.3983 5.87357 9.01102 5.87357C6.88181 5.87357 5.15689 7.03553 5.15689 8.46854C5.1563 9.90235 6.88122 11.0647 9.01042 11.0647Z" fill="#285E69"/>
</svg>