<?xml version="1.0" encoding="utf-8"?>
<!-- Generator: Adobe Illustrator 24.0.2, SVG Export Plug-In . SVG Version: 6.00 Build 0)  -->
<svg version="1.1" id="Layer_1" xmlns="http://www.w3.org/2000/svg" xmlns:xlink="http://www.w3.org/1999/xlink" x="0px" y="0px"
	 viewBox="0 0 375 375" style="enable-background:new 0 0 375 375;" xml:space="preserve">
<style type="text/css">
	.st0{fill:#0033AD;}
</style>
<g id="Layer_2_1_">
	<g id="Layer_1-2">
		<path class="st0" d="M102.8,187c-0.8,13.9,9.9,25.8,23.8,26.6c0.5,0,1,0,1.5,0c14,0,25.3-11.3,25.2-25.3c0-14-11.3-25.3-25.3-25.2
			C114.6,163.1,103.5,173.6,102.8,187z"/>
		<path class="st0" d="M8.6,180.5c-4.5-0.3-8.4,3.2-8.6,7.7s3.2,8.4,7.7,8.6c4.5,0.3,8.3-3.2,8.6-7.7
			C16.6,184.6,13.1,180.8,8.6,180.5L8.6,180.5z"/>
		<path class="st0" d="M101.2,40.4c4-2,5.6-7,3.6-11s-7-5.6-11-3.6s-5.6,6.9-3.6,10.9C92.2,40.8,97.1,42.5,101.2,40.4
			C101.1,40.4,101.2,40.4,101.2,40.4z"/>
		<path class="st0" d="M126.8,85.1c6.2-3.1,8.7-10.7,5.6-16.9s-10.7-8.7-16.9-5.6c-6.2,3.1-8.7,10.7-5.6,16.9
			C113,85.7,120.6,88.2,126.8,85.1z"/>
		<path class="st0" d="M40.6,115.8c4.8,3.1,11.2,1.8,14.4-3c3.1-4.8,1.8-11.2-3-14.4c-4.8-3.1-11.2-1.8-14.4,3l0,0
			C34.4,106.2,35.8,112.7,40.6,115.8z"/>
		<path class="st0" d="M55.9,176c-7-0.4-12.9,4.9-13.3,11.9s4.9,12.9,11.9,13.3c7,0.4,12.9-4.9,13.3-11.9l0,0
			C68.2,182.4,62.9,176.4,55.9,176z"/>
		<path class="st0" d="M42,260.7c-5.1,2.6-7.2,8.8-4.6,14c2.6,5.1,8.8,7.2,14,4.6c5.1-2.6,7.2-8.8,4.6-14l0,0
			C53.4,260.2,47.1,258.1,42,260.7L42,260.7z"/>
		<path class="st0" d="M91,149.9c6.9,4.5,16.1,2.6,20.5-4.3c4.5-6.9,2.6-16.1-4.3-20.5c-6.9-4.5-16.1-2.6-20.5,4.3
			C82.2,136.2,84.1,145.4,91,149.9L91,149.9z"/>
		<path class="st0" d="M246.5,84.1c5.8,3.8,13.7,2.2,17.5-3.6s2.2-13.7-3.6-17.5c-5.8-3.8-13.7-2.2-17.5,3.6l0,0
			C239,72.5,240.6,80.3,246.5,84.1L246.5,84.1z"/>
		<path class="st0" d="M272.3,39.6c3.8,2.5,8.8,1.4,11.3-2.4s1.4-8.8-2.4-11.3s-8.8-1.4-11.3,2.3C267.5,32,268.6,37.1,272.3,39.6
			L272.3,39.6z"/>
		<path class="st0" d="M248.4,162.9c-13.9-0.8-25.9,9.9-26.6,23.8c-0.8,13.9,9.9,25.9,23.8,26.6c0.5,0,1,0,1.4,0
			c13.9,0,25.2-11.3,25.2-25.3C272.3,174.7,261.8,163.6,248.4,162.9L248.4,162.9z"/>
		<path class="st0" d="M135.1,148.1c4.3,8.5,13,13.9,22.6,13.9c13.9,0,25.2-11.3,25.2-25.3c0-3.9-0.9-7.8-2.7-11.4
			c-6.3-12.5-21.5-17.5-33.9-11.2C133.8,120.5,128.8,135.7,135.1,148.1L135.1,148.1z"/>
		<path class="st0" d="M333,115.8c5.1-2.6,7.1-8.9,4.5-14s-8.9-7.1-14-4.5s-7.1,8.8-4.6,13.9C321.6,116.3,327.8,118.4,333,115.8
			L333,115.8z"/>
		<path class="st0" d="M269,123.8c-7.3,3.7-10.3,12.6-6.6,19.9c3.7,7.3,12.6,10.3,19.9,6.6s10.3-12.6,6.6-19.9
			C285.2,123.1,276.3,120.2,269,123.8z"/>
		<path class="st0" d="M186.5,35.8c5.7,0.3,10.6-4.1,11-9.8s-4.1-10.6-9.8-11c-5.7-0.3-10.6,4-11,9.7
			C176.4,30.5,180.8,35.4,186.5,35.8L186.5,35.8z"/>
		<path class="st0" d="M186.4,101.1c8.2,0.5,15.2-5.8,15.6-14c0.5-8.2-5.8-15.2-14-15.6c-8.2-0.5-15.2,5.8-15.6,14
			C172,93.7,178.2,100.7,186.4,101.1L186.4,101.1z"/>
		<path class="st0" d="M106,252.7c7.3-3.7,10.3-12.6,6.6-19.9c-3.7-7.3-12.6-10.3-19.9-6.6s-10.3,12.6-6.6,19.9
			C89.8,253.4,98.7,256.4,106,252.7z"/>
		<path class="st0" d="M196,122.8c-7.6,11.7-4.4,27.3,7.3,34.9s27.3,4.4,34.9-7.3s4.4-27.3-7.3-34.9c-4.1-2.7-8.9-4.1-13.8-4.1
			C208.6,111.4,200.7,115.7,196,122.8z"/>
		<path class="st0" d="M239.9,228.4c-6.3-12.5-21.5-17.5-33.9-11.2c-12.5,6.3-17.5,21.5-11.2,33.9c6.3,12.5,21.5,17.5,33.9,11.2l0,0
			c12.4-6.2,17.5-21.2,11.3-33.7C240,228.5,240,228.5,239.9,228.4z"/>
		<path class="st0" d="M284,226.6c-6.9-4.5-16.1-2.6-20.5,4.3c-4.5,6.9-2.6,16.1,4.3,20.5c6.9,4.5,16.1,2.6,20.5-4.3
			C292.8,240.3,290.9,231.1,284,226.6L284,226.6z"/>
		<path class="st0" d="M332.4,188.7c0.4-7-4.9-12.9-11.9-13.3c-7-0.4-12.9,4.9-13.3,11.9s4.9,12.9,11.9,13.3l0,0
			C326,201,332,195.6,332.4,188.7z"/>
		<path class="st0" d="M367.3,179.7c-4.5-0.3-8.4,3.2-8.6,7.7s3.2,8.4,7.7,8.6c4.5,0.3,8.3-3.2,8.6-7.7
			C375.2,183.8,371.8,180,367.3,179.7z"/>
		<path class="st0" d="M334.4,260.7c-4.8-3.1-11.2-1.8-14.4,3c-3.1,4.8-1.8,11.2,3,14.4c4.8,3.1,11.2,1.8,14.4-3
			C340.6,270.3,339.2,263.8,334.4,260.7L334.4,260.7z"/>
		<path class="st0" d="M102.6,336.9c-3.8-2.5-8.8-1.4-11.3,2.3c-2.5,3.8-1.4,8.8,2.3,11.3c3.8,2.5,8.8,1.4,11.3-2.3l0,0
			C107.5,344.5,106.4,339.4,102.6,336.9z"/>
		<path class="st0" d="M273.8,336.1c-4,2-5.6,7-3.6,11s7,5.6,11,3.6s5.6-6.9,3.6-10.9C282.8,335.7,277.9,334,273.8,336.1
			C273.9,336.1,273.8,336.1,273.8,336.1z"/>
		<path class="st0" d="M179,253.7c7.6-11.7,4.4-27.3-7.3-35c-11.7-7.6-27.3-4.4-35,7.3s-4.4,27.3,7.3,35c4.1,2.7,8.9,4.1,13.8,4.1
			C166.4,265.2,174.3,260.9,179,253.7z"/>
		<path class="st0" d="M128.5,292.4c-5.8-3.8-13.7-2.2-17.5,3.6c-3.8,5.8-2.2,13.7,3.6,17.5s13.7,2.2,17.5-3.6l0,0
			C136,304.1,134.4,296.2,128.5,292.4z"/>
		<path class="st0" d="M187.4,340.7c-5.7-0.3-10.6,4.1-11,9.8s4.1,10.6,9.8,11c5.7,0.3,10.6-4,11-9.7
			C197.5,346,193.1,341.1,187.4,340.7L187.4,340.7z"/>
		<path class="st0" d="M187.5,275.4c-8.2-0.5-15.2,5.8-15.6,14c-0.5,8.2,5.8,15.2,14,15.6s15.2-5.8,15.6-14
			C202,282.9,195.7,275.8,187.5,275.4L187.5,275.4z"/>
		<path class="st0" d="M248.2,291.4c-6.2,3.2-8.7,10.8-5.5,17s10.8,8.7,17,5.5c6.2-3.1,8.7-10.7,5.6-16.9
			C262.1,290.8,254.5,288.2,248.2,291.4L248.2,291.4z"/>
	</g>
</g>
</svg>
