<svg width="14" height="14" viewBox="0 0 14 14" fill="none" xmlns="http://www.w3.org/2000/svg">
    <path fill-rule="evenodd" clip-rule="evenodd"
          d="M2.28587 11.714C4.88935 14.3175 9.11047 14.3175 11.714 11.714C14.3175 9.11056 14.3175 4.88945 11.714 2.28595C9.11048 -0.317546 4.88937 -0.317546 2.28587 2.28595C-0.317622 4.88943 -0.317622 9.11054 2.28587 11.714ZM2.82885 11.1711C0.525236 8.86744 0.525236 5.13252 2.82885 2.82892C5.13247 0.525305 8.86738 0.525305 11.171 2.82892C13.4746 5.13254 13.4746 8.86745 11.171 11.1711C8.86737 13.4747 5.13245 13.4747 2.82885 11.1711ZM6.33325 4.33333C6.33325 3.96514 6.63173 3.66666 6.99992 3.66666C7.36811 3.66666 7.66659 3.96514 7.66659 4.33333V8C7.66659 8.36819 7.36811 8.66666 6.99992 8.66666C6.63173 8.66666 6.33325 8.36819 6.33325 8V4.33333ZM6.49708 10.5584C6.77479 10.8361 7.22504 10.8361 7.50275 10.5584C7.78045 10.2807 7.78045 9.83045 7.50275 9.55275C7.22504 9.27504 6.77479 9.27504 6.49708 9.55274C6.21938 9.83045 6.21938 10.2807 6.49708 10.5584Z"
          fill="currentColor"/>
</svg>
