<svg width="20" height="20" viewBox="0 0 20 20" fill="none" xmlns="http://www.w3.org/2000/svg">
<path fill-rule="evenodd" clip-rule="evenodd" d="M10 20C15.5228 20 20 15.5228 20 10C20 4.47715 15.5228 0 10 0C4.47715 0 0 4.47715 0 10C0 15.5228 4.47715 20 10 20ZM9.99428 5.0005C10.6247 5.0005 11.1358 5.50184 11.1358 6.12027C11.1358 6.30368 11.1364 6.44743 11.1369 6.56807C11.1375 6.73609 11.138 6.8593 11.1366 6.98249C11.1325 7.32127 11.1136 7.65988 11.0427 8.92958C11.0143 9.43705 10.9777 10.0933 10.9304 10.9576C10.9304 11.474 10.5036 11.8926 9.97715 11.8926C9.45072 11.8926 9.02396 11.474 9.02396 10.9576C8.97508 10.0718 8.93759 9.40747 8.90887 8.89872C8.84127 7.7008 8.82233 7.3652 8.81794 7.02941C8.81624 6.89872 8.81674 6.768 8.81743 6.5864C8.81791 6.46091 8.81848 6.31112 8.81848 6.12027V6.12015C8.81826 5.50172 9.32917 5.00021 9.95964 5C9.97123 5 9.98281 5.00017 9.9944 5.00051L9.99428 5.0005ZM9.99428 15C9.30393 14.9969 8.74685 14.4454 8.75001 13.7682C8.75317 13.0911 9.31537 12.5446 10.0057 12.5477C10.6916 12.5508 11.2468 13.0955 11.25 13.7682V13.7683C11.2531 14.4454 10.6961 14.9969 10.0057 15H9.99428Z" fill="#FC9A17"/>
</svg>
