<svg width="30" height="30" viewBox="0 0 30 30" fill="none" xmlns="http://www.w3.org/2000/svg">
<path fill-rule="evenodd" clip-rule="evenodd" d="M4.98257 25.0173C10.515 30.5498 19.4848 30.5498 25.0173 25.0173C30.5497 19.485 30.5497 10.5151 25.0173 4.98266C19.4849 -0.549774 10.515 -0.549774 4.98257 4.98266C-0.549855 10.515 -0.549855 19.4849 4.98257 25.0173ZM6.13641 23.8635C1.24122 18.9683 1.24122 11.0316 6.1364 6.13649C11.0316 1.2413 18.9683 1.2413 23.8634 6.13649C28.7586 11.0317 28.7586 18.9684 23.8634 23.8635C18.9682 28.7587 11.0316 28.7587 6.13641 23.8635ZM13.5833 9.33333C13.5833 8.55093 14.2175 7.91667 14.9999 7.91667C15.7823 7.91667 16.4166 8.55093 16.4166 9.33333V17.125C16.4166 17.9074 15.7823 18.5417 14.9999 18.5417C14.2175 18.5417 13.5833 17.9074 13.5833 17.125V9.33333ZM13.9314 22.5616C14.5215 23.1517 15.4783 23.1517 16.0684 22.5616C16.6586 21.9715 16.6586 21.0147 16.0684 20.4245C15.4783 19.8344 14.5215 19.8344 13.9314 20.4245C13.3413 21.0147 13.3413 21.9714 13.9314 22.5616Z" fill="#EB5454"/>
</svg>
