<svg width="24" height="24" viewBox="0 0 24 24" fill="none" xmlns="http://www.w3.org/2000/svg"><path d="M13.987 10.257v4.902c0 1.077-.893 1.951-1.995 1.951-1.101 0-1.994-.873-1.994-1.95l.004-4.903c0-1.076.893-1.948 1.993-1.948s1.992.872 1.992 1.948z" fill="#3A3A3A"/><path d="M11.002 10.257l-.004 4.902c0 .538.445.973.994.973.55 0 .995-.436.995-.973v-4.902a.981.981 0 00-.992-.97.983.983 0 00-.993.97z" fill="#fff"/><path d="M7.988 10.257v4.902c0 1.077-.893 1.951-1.995 1.951-1.101 0-1.994-.873-1.994-1.95l.004-4.903c0-1.076.893-1.948 1.993-1.948s1.992.872 1.992 1.948z" fill="#3A3A3A"/><path d="M5.003 10.257l-.004 4.902c0 .538.445.973.994.973.55 0 .995-.436.995-.973v-4.902a.981.981 0 00-.992-.97.983.983 0 00-.993.97z" fill="#fff"/><path d="M19.986 10.257v4.902c0 1.077-.893 1.951-1.995 1.951-1.101 0-1.994-.873-1.994-1.95l.004-4.903c0-1.076.893-1.948 1.993-1.948s1.992.872 1.992 1.948z" fill="#3A3A3A"/><path d="M17 10.257l-.003 4.902c0 .538.445.973.994.973.55 0 .995-.436.995-.973v-4.902a.981.981 0 00-.992-.97.983.983 0 00-.993.97z" fill="#fff"/><path d="M21.997 19.552l.001.582a1.48 1.48 0 01-1.358 1.464 93.013 93.013 0 01-17.282 0 1.48 1.48 0 01-1.357-1.458L2 19.558c-.002-.81.668-1.468 1.497-1.47h17c.827 0 1.498.655 1.5 1.464z" fill="#3A3A3A"/><path d="M20.497 19.066H3.5a.495.495 0 00-.5.49l.001.582c0 .252.196.462.453.486a91.978 91.978 0 0017.092 0 .493.493 0 00.452-.488v-.582a.495.495 0 00-.5-.488z" fill="#fff"/><path d="M22 6.097v.016c0 .675-.559 1.222-1.249 1.222a9148.137 9148.137 0 00-17.493 0c-.692 0-1.254-.548-1.255-1.226v-.022c0-.64.424-1.206 1.049-1.399l8.493-2.62c.294-.09.61-.09.903 0l8.504 2.63A1.47 1.47 0 0122 6.097z" fill="#3A3A3A"/><path d="M21 6.097a.49.49 0 00-.35-.467L12.148 3a.51.51 0 00-.301 0L3.352 5.62a.49.49 0 00-.35.467v.021c.001.138.115.249.255.249a9099.462 9099.462 0 0117.494 0c.138 0 .25-.11.25-.244v-.016z" fill="#fff"/></svg>
