<svg width="24" height="24" viewBox="0 0 24 24" fill="none" xmlns="http://www.w3.org/2000/svg"><path fill-rule="evenodd" clip-rule="evenodd" d="M19.213 3.35h-1.14v-.756a.594.594 0 00-1.19 0v.756H8.117v-.756a.594.594 0 00-1.19 0v.756h-1.14A2.789 2.789 0 003 6.136v13.082A2.789 2.789 0 005.786 22h13.427A2.788 2.788 0 0022 19.216V6.135a2.788 2.788 0 00-2.787-2.785zm1.598 15.866a1.599 1.599 0 01-1.598 1.596H5.786a1.598 1.598 0 01-1.597-1.595V9.097h16.622v10.119zM4.189 7.909h16.622V6.134a1.599 1.599 0 00-1.597-1.595h-1.14v.683a.594.594 0 01-1.19 0v-.683H8.117v.683a.594.594 0 01-1.19 0v-.683h-1.14a1.598 1.598 0 00-1.598 1.596v1.774zm2.18 4.805a1.238 1.238 0 112.477.001 1.238 1.238 0 01-2.477-.001zm6.131-1.238a1.238 1.238 0 10-.001 2.477 1.238 1.238 0 00.001-2.477zm3.653 1.238a1.238 1.238 0 112.476.001 1.238 1.238 0 01-2.476-.001zm-8.545 2.8a1.238 1.238 0 10-.001 2.478 1.238 1.238 0 00.001-2.477zm3.653 1.239a1.238 1.238 0 111.241 1.235H12.5a1.238 1.238 0 01-1.239-1.235zm6.13-1.238a1.238 1.238 0 100 2.476 1.238 1.238 0 000-2.476z" fill="#B4C0CD"/></svg>
