<svg width="18" height="18" viewBox="0 0 18 18" fill="none" xmlns="http://www.w3.org/2000/svg">
<path d="M15 15.75H3C1.725 15.75 0.75 14.775 0.75 13.5V4.5C0.75 3.225 1.725 2.25 3 2.25H15C16.275 2.25 17.25 3.225 17.25 4.5V13.5C17.25 14.775 16.275 15.75 15 15.75ZM3 3.75C2.55 3.75 2.25 4.05 2.25 4.5V13.5C2.25 13.95 2.55 14.25 3 14.25H9H15C15.45 14.25 15.75 13.95 15.75 13.5V4.5C15.75 4.05 15.45 3.75 15 3.75H3Z" fill="#3A5E66"/>
<path d="M16.4999 7.50015H1.49994C1.04994 7.50015 0.749939 7.20015 0.749939 6.75015C0.749939 6.30015 1.04994 6.00015 1.49994 6.00015H16.4999C16.9499 6.00015 17.2499 6.30015 17.2499 6.75015C17.2499 7.20015 16.9499 7.50015 16.4999 7.50015ZM13.4999 11.2502H10.4999C10.0499 11.2502 9.74994 10.9502 9.74994 10.5002C9.74994 10.0502 10.0499 9.75015 10.4999 9.75015H13.4999C13.9499 9.75015 14.2499 10.0502 14.2499 10.5002C14.2499 10.9502 13.9499 11.2502 13.4999 11.2502Z" fill="#3A5E66"/>
</svg>
