<svg width="17" height="20" viewBox="0 0 17 20" fill="none" xmlns="http://www.w3.org/2000/svg">
<path fill-rule="evenodd" clip-rule="evenodd" d="M16.9142 5.96858C16.9714 6.98759 17 7.89178 17 8.68153C17 10.8533 16.9324 12.8177 16.7971 14.575C16.6748 16.1633 15.3131 17.3913 13.6742 17.3913H9.82879H5.81579C4.08627 17.3913 2.68422 16.0287 2.68422 14.3478V2.40681C2.68422 1.29276 3.55077 0.359015 4.69099 0.244428C6.31291 0.0814336 8.02993 0 9.84212 0H10.847C11.1747 5.23914e-06 11.4911 0.116552 11.7365 0.327662C12.6235 1.0907 13.4685 1.87413 14.2716 2.67796C15.0832 3.49033 15.8617 4.33335 16.6072 5.20701C16.7909 5.42231 16.8985 5.6893 16.9142 5.96859L16.9142 5.96858ZM15.9184 5.76209C15.9797 5.83386 16.0155 5.92285 16.0208 6.01594L16.0207 6.01591C16.0221 6.04085 16.0235 6.06571 16.0249 6.0905L12.9733 6.08696C11.7386 6.08602 10.7382 5.113 10.7382 3.91358C10.7371 3.0506 10.7369 2.35314 10.7368 0.869563H10.8469C10.9562 0.869564 11.0616 0.908415 11.1434 0.978785C11.3076 1.12004 11.4704 1.26199 11.6316 1.40464C11.6317 2.53477 11.632 3.16095 11.633 3.91304C11.633 4.63302 12.2332 5.21683 12.9742 5.21739L15.4482 5.22027C15.6064 5.39952 15.7632 5.58012 15.9184 5.76209ZM15.4482 5.22027L16.3057 5.22126C16.5528 5.22155 16.7529 5.41644 16.7526 5.65656C16.7523 5.89669 16.5517 6.09111 16.3047 6.09083L16.0249 6.0905C16.0785 7.06409 16.1052 7.92787 16.1052 8.6815C16.1052 10.8326 16.0384 12.7756 15.9048 14.5101C15.8175 15.6446 14.8448 16.5217 13.6742 16.5217H9.82877H5.81578C4.5804 16.5217 3.57893 15.5484 3.57893 14.3478V2.40681C3.57894 1.73838 4.09887 1.17813 4.783 1.10938C6.3735 0.949544 8.05989 0.869563 9.84211 0.869563H10.7368C10.7368 0.805591 10.7368 0.740158 10.7368 0.673186C10.7368 0.433062 10.9371 0.238403 11.1842 0.238403C11.4313 0.238403 11.6316 0.433062 11.6316 0.673186C11.6316 0.939778 11.6316 1.18199 11.6316 1.40464C12.3249 2.01803 12.9909 2.64438 13.6296 3.2837C14.2559 3.91058 14.8621 4.5561 15.4482 5.22027ZM12.5263 19.5652C12.5263 19.3251 12.326 19.1304 12.0789 19.1304H4.92105C2.69738 19.1304 0.894737 17.3785 0.894737 15.2174V4.40503C0.894737 4.16491 0.694443 3.97025 0.447368 3.97025C0.200294 3.97025 0 4.16491 0 4.40503V15.2174C0 17.8587 2.20323 20 4.92105 20H12.0789C12.326 20 12.5263 19.8053 12.5263 19.5652Z" fill="#3A3A3A"/>
</svg>
