<svg width="24" height="24" viewBox="0 0 24 24" fill="none" xmlns="http://www.w3.org/2000/svg"><path fill-rule="evenodd" clip-rule="evenodd" d="M20.431 14.53h.918a.39.39 0 01.39.39v.893c0 .859-.698 1.557-1.556 1.557h-3.876a1.558 1.558 0 01-1.557-1.557v-.893a.39.39 0 01.39-.39h.869l1.638-5.008h-4.503v9.304h3.878c.994 0 1.803.809 1.803 1.803v.956a.39.39 0 01-.391.39h-4.889a.39.39 0 010-.78h4.498v-.566c0-.563-.458-1.021-1.021-1.021H6.57c-.564 0-1.022.458-1.022 1.021v.566h4.561a.39.39 0 110 .78H5.159a.39.39 0 01-.39-.39v-.956c0-.994.809-1.803 1.803-1.803h3.896V9.522H5.989l1.7 5.008h.918a.39.39 0 01.39.39v.894c0 .858-.698 1.556-1.556 1.556H3.565a1.558 1.558 0 01-1.557-1.556v-.894a.39.39 0 01.39-.39h.869l1.661-5.08a1.888 1.888 0 01-1.357-1.774A1.884 1.884 0 015.36 5.78c.684-.03 1.337.32 1.69.906.184.306.555.449.897.35l2.52-.727v-.75l-.218-.477a1.507 1.507 0 01.182-1.558l1.067-1.372a.39.39 0 01.617 0l1.067 1.372c.348.446.417 1.043.181 1.558l-.218.476v.75l2.521.728c.074.022.14.033.199.034a.793.793 0 00.698-.384 1.88 1.88 0 011.604-.908c1.02 0 1.865.839 1.874 1.858a1.89 1.89 0 01-1.336 1.809l1.727 5.086zM18.12 6.56a1.102 1.102 0 00-1.043 1.09c0 .601.49 1.091 1.091 1.091.588 0 1.083-.487 1.091-1.075a1.103 1.103 0 00-1.14-1.107zm-7.073-2.558l.76-.975.759.975a.728.728 0 01.087.753l-.15.326h-1.394l-.15-.326a.728.728 0 01.088-.753zM4.353 7.697a1.093 1.093 0 001.09 1.044c.602 0 1.092-.49 1.092-1.092 0-.616-.534-1.12-1.148-1.09-.59.03-1.06.549-1.034 1.138zm3.863 8.117a.776.776 0 01-.775.775H3.565a.776.776 0 01-.776-.775v-.503h5.427v.503zM5.45 10.367L4.09 14.53h2.775L5.45 10.367zM6.964 8.74c.195-.271.32-.596.346-.948.28.078.573.074.852-.007l2.305-.665v1.62H6.964zm4.284-2.878v12.963h1.115V5.863h-1.115zm1.896 1.258l2.304.665c.14.04.27.061.397.064.156.004.31-.016.455-.057.027.352.152.677.347.948h-3.503v-1.62zm6.462 7.409l-1.414-4.163-1.361 4.163h2.775zm1.352 1.284a.776.776 0 01-.775.775h-3.876a.776.776 0 01-.776-.775v-.503h5.427v.503zm-9.513 5.63c.13-.315.59-.316.721 0a.394.394 0 01-.16.484.395.395 0 01-.456-.04.394.394 0 01-.105-.445z" fill="#3A3A3A"/></svg>
