<svg width="24" height="24" fill="none" xmlns="http://www.w3.org/2000/svg"><path d="M12.294 19.992a.43.43 0 11-.86 0 .43.43 0 01.86 0z" fill="#B4C0CD"/><path fill-rule="evenodd" clip-rule="evenodd" d="M7.1 16.728c.237-1.833 1.217-3.548 2.647-4.62a5.932 5.932 0 001.52-1.686c-1.131-.406-1.902.398-2.278.79-.07.072-.125.13-.167.165a1.713 1.713 0 01-2.4-.024L5.37 10.302a1.289 1.289 0 010-1.824l1.84-1.84a2.998 2.998 0 012.549-2.782V1.43a.43.43 0 01.43-.43h2.18c2.977 0 6.514 2.694 7.432 6.363.786 3.147.254 5.33-.306 7.128a.43.43 0 01-.41.302h-2.286c-.198.642-.263 1.258-.122 1.937a1.29 1.29 0 011.203 1.286v1.671a2.994 2.994 0 012.148 2.883.43.43 0 01-.43.43H4.13a.43.43 0 01-.43-.43c0-1.352.884-2.51 2.149-2.883v-1.671a1.29 1.29 0 011.25-1.288zm9.92 2.834v-1.546a.43.43 0 00-.43-.43H7.139a.43.43 0 00-.43.43v1.547h3.438a.43.43 0 010 .859H6.707a2.14 2.14 0 00-2.106 1.719h14.524a2.14 2.14 0 00-2.106-1.72h-3.437a.43.43 0 010-.858h3.437zm1.947-11.99c.69 2.764.307 4.673-.2 6.362H17.07c.534-1.688.986-3.339.332-5.956-.452-1.811-2.045-3.522-4.206-4.033V2.714c0-.293-.073-.568-.203-.81 2.473.349 5.223 2.665 5.974 5.668zm-4.724 2.853c-.564.278-1.302.55-2.169.317a6.795 6.795 0 01-1.812 2.053c-1.218.914-2.062 2.368-2.295 3.932h7.835c-.164-.994.019-1.695.271-2.495l.047-.147c.62-1.959 1.074-3.394.448-5.9-.398-1.593-1.88-3.124-3.874-3.466a.43.43 0 01-.357-.423V2.714a.854.854 0 00-.852-.855h-.867v2.396a.43.43 0 01-.43.43 2.134 2.134 0 00-2.125 2.137.43.43 0 01-.126.304l-1.96 1.96a.43.43 0 000 .608l1.053 1.052a.853.853 0 001.208 0l.124-.127c.28-.287.64-.656 1.19-.915.753-.355 1.568-.335 2.357.06.692.343 1.274.226 1.953-.11a.43.43 0 11.38.771z" fill="#B4C0CD"/><path d="M10.575 6.844h-.86a.43.43 0 100 .86h.86a.43.43 0 100-.86z" fill="#B4C0CD"/></svg>
