<svg width="24" height="24" fill="none" xmlns="http://www.w3.org/2000/svg"><path fill-rule="evenodd" clip-rule="evenodd" d="M2.938 20.738h18.7c.172 0 .312.14.312.312v.313c0 .172-.14.312-.313.312H2.312A.312.312 0 012 21.363V3.337c0-.173.14-.313.313-.313h.312c.173 0 .313.14.313.313v17.4zm1.706-2.261a.313.313 0 01-.133-.422l.84-1.617h-1.08v-.125h1.146l1.72-3.307v-2.193H4.27v-.125h2.866v-5.5H4.27v-.125h2.866v-.895h.125v.895h5.5v-.895h.125v.895h5.5v-.895h.125v.895h2.165v.125H18.51v3.338l.974-.007h.003a.313.313 0 01.312.31l.011 1.578a.312.312 0 01-.174.281h1.039v.125H18.51v5.5h2.165v.125H18.51v3.188h-.125v-3.188h-5.5v3.188h-.125v-3.188h-4.34l-1.16.797v2.39h-.125v-2.304l-1.944 1.337a.312.312 0 01-.434-.08l-.045-.065-.07-.036zm2.122-2.039h-.358l-.199.383.557-.383zm2.101-4.728h3.894v1.452h-1.133a.313.313 0 00-.177.055l-4.19 2.88v-1.3l1.606-3.088zm-1.92 4.603l.19-.13v-1.145l-.664 1.275h.475zm8.083-3.15h-2.144v-1.454h1.136a.313.313 0 00.28-.171l.364-.725h2.445l-2.081 2.35zm-3.208.937l-3.22 2.213h4.16V14.1h-.94zm6.564 2.213h-5.5V14.1h2.425c.09 0 .175-.038.234-.105l2.818-3.182h.023v5.5zm.125-5.667v.042h.533a.312.312 0 01-.17-.275l-.001-.175-.362.408zm-.125-5.458v3.339l-.479.003a.312.312 0 00-.31.315l.003.312c0 .173.142.31.314.31l.391-.002-1.083 1.223h-2.493l1.88-3.736.135.326c.066.16.249.235.408.17l.289-.12a.313.313 0 00.169-.409l-.604-1.458a.313.313 0 00-.408-.169l-1.458.604a.312.312 0 00-.17.409l.12.288c.067.16.25.235.409.17l.197-.082-2.017 4.007h-.793v-5.5h5.5zm-5.625 0h-5.5v5.5h5.5v-5.5zm-5.5 5.625h1.073a.312.312 0 00-.124.127l-.949 1.826v-1.953z" fill="#2BB673"/></svg>
