<svg width="24" height="24" fill="none" xmlns="http://www.w3.org/2000/svg"><path fill-rule="evenodd" clip-rule="evenodd" d="M13.818 18.75v-.607c.708.103 1.482.157 2.273.157 3.262 0 5.909-.873 5.909-2.25V5.163a.446.446 0 00-.029-.158C21.676 3.77 19.155 3 16.091 3c-2.988 0-5.46.733-5.854 1.914a.445.445 0 00-.076.249V8.55A16.08 16.08 0 007.909 8.4c-3.044 0-5.552.76-5.874 1.98a.445.445 0 00-.035.174v8.196C2 20.127 4.647 21 7.91 21c3.261 0 5.908-.873 5.908-2.25zm2.273-1.35c-.798 0-1.575-.058-2.273-.167v-1.791c.71.104 1.48.158 2.273.158 2.105 0 3.953-.364 5-.991v1.441c0 .223-.44.566-1.287.846-.966.319-2.293.504-3.713.504zm5-5.491v1.441c0-.248.203-.45.454-.45.252 0 .455.201.455.45 0 .489-.333.914-.91 1.259V13.35c0 .223-.44.565-1.286.845-.966.319-2.293.504-3.713.504-.8 0-1.573-.058-2.273-.169v-1.787c.708.102 1.483.156 2.273.156 2.105 0 3.953-.364 5-.991zm0-2.7c.576-.345.909-.77.909-1.259a.452.452 0 00-.455-.45.452.452 0 00-.454.45V6.509c-1.047.627-2.895.991-5 .991-2.119 0-3.978-.368-5.021-1.004v1.318a.454.454 0 00-.434-.314.452.452 0 00-.454.45c0 1.003 1.406 1.74 3.431 2.065a1.128 1.128 0 01.205.616v1.203c-.126-.02-.249-.041-.369-.064a.454.454 0 00-.54.434v-.295c-1.047.627-2.895.991-5 .991s-3.953-.364-5-.991v1.44a.452.452 0 00-.454-.449.452.452 0 00-.455.45c0 .489.333.914.91 1.259v1.44a.452.452 0 00-.455-.449.452.452 0 00-.455.45c0 .488.333.914.91 1.259v1.441c0 .224.438.566 1.286.846.966.319 2.293.504 3.713.504s2.747-.185 3.713-.504c.848-.28 1.287-.622 1.287-.846v-1.441c.576-.345.91-.77.91-1.259a.452.452 0 00-.455-.45.452.452 0 00-.455.45v.001-1.442c.576-.345.91-.77.91-1.259a.452.452 0 00-.455-.45.452.452 0 00-.455.45v.001-1.13a.452.452 0 00.37.433c.174.033.354.063.54.09v-.91A15.01 15.01 0 0016.09 12c1.42 0 2.746-.185 3.713-.504.848-.28 1.287-.622 1.287-.846v1.259c.576-.345.909-.77.909-1.259a.452.452 0 00-.455-.45c-.25 0-.454.2-.454.449v-1.44zm-8.182 4.142c-.001.224-.44.566-1.287.845-.966.319-2.293.504-3.713.504s-2.747-.185-3.713-.504c-.848-.28-1.287-.622-1.287-.846v-.002 1.26c1.047.628 2.895.992 5 .992s3.953-.364 5-.991V13.35zm0 2.7v1.258c-1.047.627-2.895.991-5 .991s-3.953-.364-5-.991v-1.26.001c0 .224.44.566 1.287.846.966.319 2.293.504 3.713.504s2.747-.185 3.713-.504c.847-.28 1.286-.621 1.287-.845zm0-3.847v0zm.704-2.19c.754.122 1.593.186 2.478.186 2.105 0 3.953-.364 5-.991V7.95c-.001.223-.44.565-1.287.845-.966.319-2.293.504-3.713.504s-2.747-.185-3.713-.504c-.848-.28-1.287-.622-1.287-.846a.447.447 0 00-.021-.136v.902c1.23.276 2.153.722 2.543 1.299zm.205 4.517v.91a12.692 12.692 0 01-.535-.089.45.45 0 11.172-.884c.118.023.24.044.363.063zm5.986-8.435c-.966.319-2.293.504-3.713.504s-2.747-.185-3.713-.504c-.848-.28-1.287-.622-1.287-.846 0-.224.439-.566 1.287-.846.966-.319 2.293-.504 3.713-.504s2.746.185 3.713.504c.848.28 1.287.622 1.287.846 0 .224-.44.566-1.287.846zM7.91 12c1.42 0 2.747-.185 3.713-.504.848-.28 1.287-.622 1.287-.846 0-.223-.439-.566-1.287-.846C10.656 9.485 9.33 9.3 7.91 9.3s-2.747.185-3.713.504c-.848.28-1.287.623-1.287.846 0 .224.44.566 1.287.846.966.319 2.293.504 3.713.504z" fill="#2BB673"/></svg>
