<svg width="24" height="24" fill="none" xmlns="http://www.w3.org/2000/svg"><path fill-rule="evenodd" clip-rule="evenodd" d="M21.865 2.726c-.049-.356-.238-.538-.499-.58-3.24-.525-6.897.144-12.182 5.713L5.392 5.63a.587.587 0 00-.712.09L2.555 7.847a.586.586 0 000 .83l4.107 4.103c-.902.453-1.8 1.11-2.596 1.905-2.414 2.412-2.048 6.561-2.03 6.737.026.28.247.501.527.528 2.169.207 5.08-.37 6.742-2.03.796-.795 1.453-1.693 1.906-2.594l4.107 4.105c.23.229.6.229.83 0l2.125-2.124a.586.586 0 00.09-.712l-2.226-3.786c5.486-5.197 6.192-8.714 5.728-12.082zm-5.637 1.127c1.354-.578 3.057-.724 4.514-.598.073.85.131 2.792-.599 4.51l-3.915-3.912zM8.377 8.745L5.189 6.872 3.799 8.26l2.783 2.781a26.027 26.027 0 011.795-2.296zm.098 10.345c-1.574 1.572-4.193 1.722-5.292 1.712-.012-1.098.14-3.716 1.712-5.288.817-.817 1.746-1.465 2.649-1.853l.977.976-2.174 2.172a.586.586 0 10.83.83l2.174-2.172.009.008.968.969c-.388.902-1.036 1.83-1.853 2.646zm4.476-1.684l2.782 2.78 1.389-1.388-1.872-3.183a25.968 25.968 0 01-2.3 1.79zm-.845-.845l-1.75-1.748-2.93-2.928c1.821-2.718 4.77-5.615 7.724-7.45l4.412 4.409c-1.777 2.862-4.575 5.774-7.456 7.717zm-.048-7.616a2.111 2.111 0 000 2.989 2.118 2.118 0 002.99 0 2.111 2.111 0 000-2.99 2.118 2.118 0 00-2.99 0zm2.16 2.16a.943.943 0 01-1.33 0 .94.94 0 010-1.33.943.943 0 011.33 0 .94.94 0 010 1.33z" fill="#2BB673"/></svg>
