<svg width="32" height="14" viewBox="0 0 32 14" fill="none" xmlns="http://www.w3.org/2000/svg">
<path fill-rule="evenodd" clip-rule="evenodd" d="M12.8333 9.91666V11.6667C12.8333 12.6583 12.075 13.4167 11.0833 13.4167H2.91667C1.925 13.4167 1.16667 12.6583 1.16667 11.6667V9.91666C1.16667 9.56666 1.4 9.33333 1.75 9.33333C2.1 9.33333 2.33333 9.56666 2.33333 9.91666V11.6667C2.33333 12.0167 2.56667 12.25 2.91667 12.25H11.0833C11.4333 12.25 11.6667 12.0167 11.6667 11.6667V9.91666C11.6667 9.56666 11.9 9.33333 12.25 9.33333C12.6 9.33333 12.8333 9.56666 12.8333 9.91666ZM6.59167 9.74166C6.65 9.8 6.70833 9.85833 6.76667 9.85833C6.825 9.91666 6.94167 9.91666 7 9.91666C7.05834 9.91666 7.175 9.91666 7.23334 9.85833C7.29167 9.8 7.35 9.8 7.40834 9.74166L9.74167 7.40833C9.975 7.175 9.975 6.825 9.74167 6.59166C9.50834 6.35833 9.15834 6.35833 8.925 6.59166L7.58333 7.93333V1.16666C7.58333 0.816662 7.35 0.583328 7 0.583328C6.65 0.583328 6.41667 0.816662 6.41667 1.16666V7.93333L5.075 6.59166C4.84167 6.35833 4.49167 6.35833 4.25833 6.59166C4.025 6.825 4.025 7.175 4.25833 7.40833L6.59167 9.74166Z" fill="#3A3A3A"/>
<mask id="mask0_1_180" style="mask-type:luminance" maskUnits="userSpaceOnUse" x="1" y="0" width="12" height="14">
<path fill-rule="evenodd" clip-rule="evenodd" d="M12.8333 9.91666V11.6667C12.8333 12.6583 12.075 13.4167 11.0833 13.4167H2.91667C1.925 13.4167 1.16667 12.6583 1.16667 11.6667V9.91666C1.16667 9.56666 1.4 9.33333 1.75 9.33333C2.1 9.33333 2.33333 9.56666 2.33333 9.91666V11.6667C2.33333 12.0167 2.56667 12.25 2.91667 12.25H11.0833C11.4333 12.25 11.6667 12.0167 11.6667 11.6667V9.91666C11.6667 9.56666 11.9 9.33333 12.25 9.33333C12.6 9.33333 12.8333 9.56666 12.8333 9.91666ZM6.59167 9.74166C6.65 9.8 6.70833 9.85833 6.76667 9.85833C6.825 9.91666 6.94167 9.91666 7 9.91666C7.05834 9.91666 7.175 9.91666 7.23334 9.85833C7.29167 9.8 7.35 9.8 7.40834 9.74166L9.74167 7.40833C9.975 7.175 9.975 6.825 9.74167 6.59166C9.50834 6.35833 9.15834 6.35833 8.925 6.59166L7.58333 7.93333V1.16666C7.58333 0.816662 7.35 0.583328 7 0.583328C6.65 0.583328 6.41667 0.816662 6.41667 1.16666V7.93333L5.075 6.59166C4.84167 6.35833 4.49167 6.35833 4.25833 6.59166C4.025 6.825 4.025 7.175 4.25833 7.40833L6.59167 9.74166Z" fill="white"/>
</mask>
<g mask="url(#mask0_1_180)">
</g>
<path fill-rule="evenodd" clip-rule="evenodd" d="M30.8333 9.91666V11.6667C30.8333 12.6583 30.075 13.4167 29.0833 13.4167H20.9167C19.925 13.4167 19.1667 12.6583 19.1667 11.6667V9.91666C19.1667 9.56666 19.4 9.33333 19.75 9.33333C20.1 9.33333 20.3333 9.56666 20.3333 9.91666V11.6667C20.3333 12.0167 20.5667 12.25 20.9167 12.25H29.0833C29.4333 12.25 29.6667 12.0167 29.6667 11.6667V9.91666C29.6667 9.56666 29.9 9.33333 30.25 9.33333C30.6 9.33333 30.8333 9.56666 30.8333 9.91666ZM25.4083 0.758328C25.35 0.699995 25.2917 0.641662 25.2333 0.641662C25.175 0.583328 25.0583 0.583328 25 0.583328C24.9417 0.583328 24.825 0.583328 24.7667 0.641662C24.7083 0.699995 24.65 0.699995 24.5917 0.758328L22.2583 3.09166C22.025 3.325 22.025 3.67499 22.2583 3.90833C22.4917 4.14166 22.8417 4.14166 23.075 3.90833L24.4167 2.56666V9.33333C24.4167 9.68333 24.65 9.91666 25 9.91666C25.35 9.91666 25.5833 9.68333 25.5833 9.33333V2.56666L26.925 3.90833C27.1583 4.14166 27.5083 4.14166 27.7417 3.90833C27.975 3.67499 27.975 3.325 27.7417 3.09166L25.4083 0.758328Z" fill="#3A3A3A"/>
<mask id="mask1_1_180" style="mask-type:luminance" maskUnits="userSpaceOnUse" x="19" y="0" width="12" height="14">
<path fill-rule="evenodd" clip-rule="evenodd" d="M30.8333 9.91666V11.6667C30.8333 12.6583 30.075 13.4167 29.0833 13.4167H20.9167C19.925 13.4167 19.1667 12.6583 19.1667 11.6667V9.91666C19.1667 9.56666 19.4 9.33333 19.75 9.33333C20.1 9.33333 20.3333 9.56666 20.3333 9.91666V11.6667C20.3333 12.0167 20.5667 12.25 20.9167 12.25H29.0833C29.4333 12.25 29.6667 12.0167 29.6667 11.6667V9.91666C29.6667 9.56666 29.9 9.33333 30.25 9.33333C30.6 9.33333 30.8333 9.56666 30.8333 9.91666ZM24.5917 9.74166C24.65 9.8 24.7083 9.85833 24.7667 9.85833C24.825 9.91666 24.9417 9.91666 25 9.91666C25.0583 9.91666 25.175 9.91666 25.2333 9.85833C25.2917 9.8 25.35 9.8 25.4083 9.74166L27.7417 7.40833C27.975 7.175 27.975 6.825 27.7417 6.59166C27.5083 6.35833 27.1583 6.35833 26.925 6.59166L25.5833 7.93333V1.16666C25.5833 0.816662 25.35 0.583328 25 0.583328C24.65 0.583328 24.4167 0.816662 24.4167 1.16666V7.93333L23.075 6.59166C22.8417 6.35833 22.4917 6.35833 22.2583 6.59166C22.025 6.825 22.025 7.175 22.2583 7.40833L24.5917 9.74166Z" fill="white"/>
</mask>
<g mask="url(#mask1_1_180)">
</g>
</svg>
