<svg width="14" height="14" viewBox="0 0 14 14" fill="none" xmlns="http://www.w3.org/2000/svg">
<path fill-rule="evenodd" clip-rule="evenodd" d="M12.8333 9.91666V11.6667C12.8333 12.6583 12.075 13.4167 11.0833 13.4167H2.91667C1.925 13.4167 1.16667 12.6583 1.16667 11.6667V9.91666C1.16667 9.56666 1.4 9.33333 1.75 9.33333C2.1 9.33333 2.33333 9.56666 2.33333 9.91666V11.6667C2.33333 12.0167 2.56667 12.25 2.91667 12.25H11.0833C11.4333 12.25 11.6667 12.0167 11.6667 11.6667V9.91666C11.6667 9.56666 11.9 9.33333 12.25 9.33333C12.6 9.33333 12.8333 9.56666 12.8333 9.91666ZM6.59167 9.74166C6.65 9.8 6.70833 9.85833 6.76667 9.85833C6.825 9.91666 6.94167 9.91666 7 9.91666C7.05834 9.91666 7.175 9.91666 7.23334 9.85833C7.29167 9.8 7.35 9.8 7.40834 9.74166L9.74167 7.40833C9.975 7.175 9.975 6.825 9.74167 6.59166C9.50834 6.35833 9.15834 6.35833 8.925 6.59166L7.58333 7.93333V1.16666C7.58333 0.816662 7.35 0.583328 7 0.583328C6.65 0.583328 6.41667 0.816662 6.41667 1.16666V7.93333L5.075 6.59166C4.84167 6.35833 4.49167 6.35833 4.25833 6.59166C4.025 6.825 4.025 7.175 4.25833 7.40833L6.59167 9.74166Z" fill="#3A3A3A"/>
<mask id="mask0_1_180" style="mask-type:luminance" maskUnits="userSpaceOnUse" x="1" y="0" width="12" height="14">
<path fill-rule="evenodd" clip-rule="evenodd" d="M12.8333 9.91666V11.6667C12.8333 12.6583 12.075 13.4167 11.0833 13.4167H2.91667C1.925 13.4167 1.16667 12.6583 1.16667 11.6667V9.91666C1.16667 9.56666 1.4 9.33333 1.75 9.33333C2.1 9.33333 2.33333 9.56666 2.33333 9.91666V11.6667C2.33333 12.0167 2.56667 12.25 2.91667 12.25H11.0833C11.4333 12.25 11.6667 12.0167 11.6667 11.6667V9.91666C11.6667 9.56666 11.9 9.33333 12.25 9.33333C12.6 9.33333 12.8333 9.56666 12.8333 9.91666ZM6.59167 9.74166C6.65 9.8 6.70833 9.85833 6.76667 9.85833C6.825 9.91666 6.94167 9.91666 7 9.91666C7.05834 9.91666 7.175 9.91666 7.23334 9.85833C7.29167 9.8 7.35 9.8 7.40834 9.74166L9.74167 7.40833C9.975 7.175 9.975 6.825 9.74167 6.59166C9.50834 6.35833 9.15834 6.35833 8.925 6.59166L7.58333 7.93333V1.16666C7.58333 0.816662 7.35 0.583328 7 0.583328C6.65 0.583328 6.41667 0.816662 6.41667 1.16666V7.93333L5.075 6.59166C4.84167 6.35833 4.49167 6.35833 4.25833 6.59166C4.025 6.825 4.025 7.175 4.25833 7.40833L6.59167 9.74166Z" fill="white"/>
</mask>
<g mask="url(#mask0_1_180)">
</g>
</svg>
