<svg width="20" height="15" viewBox="0 0 20 15" fill="none" xmlns="http://www.w3.org/2000/svg">
<path fill-rule="evenodd" clip-rule="evenodd" d="M9.98524 0C7.85997 0 5.3103 0.116521 2.33529 0.349381L2.33526 0.349359C1.2475 0.434498 0.371829 1.30465 0.248995 2.42248C0.0828886 3.93404 0 5.62638 0 7.49999C0 9.02888 0.0551945 10.437 0.165744 11.7246C0.303585 13.3302 1.55177 14.5947 3.11083 14.7083C5.77785 14.9027 8.08376 15 10.0294 15C11.97 15 14.2568 14.9032 16.8906 14.7099C18.449 14.5955 19.6962 13.3313 19.8341 11.7265C19.9448 10.4383 20 9.0296 20 7.49999C20 5.62667 19.9171 3.93454 19.7511 2.42314C19.6282 1.305 18.7521 0.434711 17.6641 0.34992C14.6715 0.116701 12.1122 0 9.98524 0ZM1.58562 1.65001C1.80471 1.44276 2.08963 1.30881 2.4041 1.28419L2.40412 1.28418C5.3578 1.05299 7.88518 0.93749 9.98529 0.93749C12.0871 0.93749 14.6242 1.05318 17.5956 1.28474C17.9105 1.30929 18.1959 1.44351 18.4152 1.65119L18.4521 1.70757L18.4597 1.71919C18.4709 1.73645 18.4822 1.75375 18.4771 1.74393C18.6963 2.16319 18.5444 2.68632 18.1379 2.91238L10.6699 7.33553C10.4816 7.44002 10.2315 7.50003 10 7.50003C10.2511 7.50003 10.4546 7.7099 10.4546 7.96878C10.4546 8.22767 10.2511 8.43753 10 8.43753C9.74898 8.43753 9.54547 8.22767 9.54547 7.96878C9.54547 7.7101 9.74866 7.50036 9.99942 7.50003C9.74118 7.49996 9.51633 7.44851 9.31946 7.33905L1.8732 2.91872C1.45561 2.68632 1.30373 2.16318 1.52294 1.74393C1.51782 1.75373 1.52904 1.7365 1.54068 1.71863L1.54869 1.70636C1.5638 1.68344 1.57592 1.66499 1.58562 1.65001ZM1.06237 3.46413C1.08892 3.14432 1.11891 2.8323 1.15234 2.52806C1.19053 2.18052 1.35 1.87288 1.58562 1.65001C1.59575 1.63436 1.60324 1.62248 1.60875 1.6132C1.73982 1.39241 1.67252 1.10384 1.45842 0.968667C1.24432 0.833495 0.964494 0.902903 0.833417 1.12369C0.834457 1.12194 0.830444 1.12806 0.80785 1.16253L0.807819 1.16258L0.794714 1.18257C0.750647 1.24981 0.73867 1.26855 0.722755 1.29899C0.339119 2.03274 0.500074 2.91893 1.06237 3.46413ZM6.1763 6.55469L1.43071 3.73757C1.29374 3.66141 1.17062 3.56909 1.06237 3.46413C0.960262 4.6943 0.909126 6.03967 0.909126 7.50001C0.909126 8.78996 0.949025 9.99026 1.02872 11.1007C0.493793 11.6482 0.3469 12.5134 0.722768 13.2323C0.738683 13.2628 0.750659 13.2815 0.795571 13.35L0.808258 13.3694C0.83044 13.4032 0.834471 13.4094 0.83343 13.4076C0.964507 13.6284 1.24433 13.6978 1.45843 13.5627C1.64439 13.4453 1.71961 13.2121 1.65028 13.0082C2.03251 13.4434 2.57109 13.7292 3.17496 13.7732C5.82201 13.9661 8.10709 14.0625 10.0295 14.0625C11.9466 14.0625 14.2124 13.9667 16.8261 13.7748C17.4292 13.7305 17.967 13.4452 18.3489 13.0107C18.2811 13.214 18.3564 13.4457 18.5416 13.5627C18.7557 13.6978 19.0355 13.6284 19.1666 13.4076C19.1656 13.4094 19.1695 13.4033 19.1918 13.3694L19.1923 13.3686L19.2053 13.3488C19.2494 13.2815 19.2614 13.2628 19.2773 13.2323L19.2773 13.2323C19.6531 12.5135 19.5062 11.6483 18.9714 11.1008C19.0511 9.99031 19.091 8.78999 19.091 7.50001C19.091 6.04056 19.0399 4.69593 18.9379 3.46637C19.4988 2.92533 19.6623 2.03539 19.2773 1.299C19.2613 1.26856 19.2494 1.24981 19.2045 1.18129L19.1919 1.16208C19.1696 1.12811 19.1656 1.12194 19.1666 1.1237C19.0355 0.902906 18.7557 0.833498 18.5416 0.968672C18.3275 1.10385 18.2602 1.39241 18.3913 1.6132C18.3969 1.62269 18.4046 1.63487 18.4152 1.65119C18.6504 1.87402 18.8097 2.18143 18.8478 2.52867C18.8813 2.83342 18.9113 3.14599 18.9379 3.46637C18.8323 3.56821 18.7127 3.65769 18.58 3.73145L13.8196 6.55096L13.466 6.23625C13.276 6.06709 12.989 6.08882 12.8249 6.28479C12.6609 6.48076 12.682 6.77676 12.872 6.94592L12.9842 7.04576L11.112 8.1546C10.775 8.34197 10.3768 8.43754 10 8.43753C9.59882 8.43753 9.22645 8.35242 8.87698 8.1579L7.01095 7.05017L7.12805 6.94592C7.31808 6.77675 7.33916 6.48075 7.17512 6.28478C7.01108 6.08881 6.72405 6.06708 6.53402 6.23625L6.1763 6.55469ZM12.9842 7.04576L18.0566 11.5612L18.1379 11.619C18.5444 11.845 18.6963 12.3681 18.4771 12.7874C18.4822 12.7776 18.471 12.7948 18.4594 12.8127L18.4513 12.825C18.4205 12.8718 18.4021 12.9 18.3913 12.9181C18.3736 12.9479 18.3595 12.979 18.3489 13.0107C18.672 12.6432 18.8835 12.169 18.9286 11.6437C18.9439 11.4652 18.9582 11.2842 18.9714 11.1008C18.8672 10.9942 18.7484 10.8996 18.6158 10.8206L13.8196 6.55096L12.9842 7.04576ZM7.01095 7.05017L6.1763 6.55469L1.38425 10.8206L1.38423 10.8205C1.25168 10.8996 1.13285 10.9942 1.02872 11.1007C1.04185 11.2836 1.05605 11.464 1.07133 11.642C1.1164 12.1669 1.32763 12.6408 1.65028 13.0082C1.63979 12.9773 1.62599 12.9471 1.60876 12.9181C1.59797 12.9 1.57959 12.8718 1.54791 12.8238C1.54552 12.8201 1.54293 12.8161 1.54033 12.8122C1.52909 12.7949 1.51782 12.7776 1.52295 12.7874C1.30375 12.3681 1.45562 11.845 1.86217 11.619L1.94347 11.5612L7.01095 7.05017Z" fill="#2BAB72"/>
</svg>
