<svg width="50" height="50" viewBox="0 0 50 50" fill="none" xmlns="http://www.w3.org/2000/svg"><path fill-rule="evenodd" clip-rule="evenodd" d="M25 50c13.807 0 25-11.193 25-25S38.807 0 25 0C14.056 0 4.754 7.033 1.367 16.826h8.789A16.99 16.99 0 0125.04 8.052c6.13 0 11.479 3.24 14.476 8.087.399.52.641 1.17.641 1.875a3.125 3.125 0 01-3.126 3.118 3.13 3.13 0 01-2.761-1.647 10.74 10.74 0 00-9.23-5.214c-5.937 0-10.758 4.804-10.758 10.73 0 5.931 4.82 10.735 10.758 10.735 4.276 0 7.96-2.481 9.698-6.076h-7.711a3.115 3.115 0 010-6.229h11.828v.007a3.114 3.114 0 013.073 3.462c-.944 8.465-8.143 15.048-16.888 15.048a16.99 16.99 0 01-14.883-8.768H1.37C4.757 42.97 14.057 50 25 50zM.075 26.951h8.088a17.087 17.087 0 010-3.897H.075a25.348 25.348 0 000 3.897z" fill="url(#paint0_linear)"/><defs><linearGradient id="paint0_linear" x1="75" y1="25" x2="25" y2="-25" gradientUnits="userSpaceOnUse"><stop stop-color="#00AEEF"/><stop offset="1" stop-color="#72BF44"/></linearGradient></defs></svg>
