<svg width="49" height="49" viewBox="0 0 49 49" fill="none" xmlns="http://www.w3.org/2000/svg">
<path fill-rule="evenodd" clip-rule="evenodd" d="M24.4901 0.960567C37.485 0.960567 48.0196 11.4951 48.0196 24.49C48.0196 37.4849 37.485 48.0194 24.4901 48.0194C11.4952 48.0194 0.960693 37.4849 0.960693 24.49C0.960693 11.4951 11.4952 0.960567 24.4901 0.960567Z" fill="#00AEEF"/>
<path fill-rule="evenodd" clip-rule="evenodd" d="M28 18V15L38.8131 19C38.8131 19.2536 28 23 28 23V20H12C11.4477 20 11 19.5523 11 19C11 18.4477 11.4477 18 12 18H28Z" fill="white"/>
<path fill-rule="evenodd" clip-rule="evenodd" d="M21.8129 31V34L10.9998 30C10.9998 29.7464 21.8129 26 21.8129 26V29H38C38.5523 29 39 29.4477 39 30C39 30.5523 38.5523 31 38 31H21.8129Z" fill="white"/>
</svg>
