<svg width="22" height="24" viewBox="0 0 22 24" fill="none" xmlns="http://www.w3.org/2000/svg">
    <path fill-rule="evenodd" clip-rule="evenodd" d="M16.8293 8.99579C16.9002 8.92496 16.971 8.85413 16.971 8.78329C17.0418 8.71246 17.0418 8.57079 17.0418 8.49996C17.0418 8.42913 17.0418 8.28746 16.971 8.21663C16.9002 8.14579 16.9002 8.07496 16.8293 8.00413L13.996 5.17079C13.7127 4.88746 13.2877 4.88746 13.0043 5.17079C12.721 5.45413 12.721 5.87913 13.0043 6.16246L14.6335 7.79163L6.41683 7.79163C5.99183 7.79163 5.7085 8.07496 5.7085 8.49996C5.7085 8.92496 5.99183 9.20829 6.41683 9.20829H14.6335L13.0043 10.8375C12.721 11.1208 12.721 11.5458 13.0043 11.8291C13.2877 12.1125 13.7127 12.1125 13.996 11.8291L16.8293 8.99579Z" fill="#FC9A17"/>
    <mask id="mask0_20_5378" style="mask-type:luminance" maskUnits="userSpaceOnUse" x="5" y="1" width="17" height="15">
        <path fill-rule="evenodd" clip-rule="evenodd" d="M17.0418 1.41671H19.1668C20.371 1.41671 21.2918 2.33754 21.2918 3.54171V13.4584C21.2918 14.6625 20.371 15.5834 19.1668 15.5834H17.0418C16.6168 15.5834 16.3335 15.3 16.3335 14.875C16.3335 14.45 16.6168 14.1667 17.0418 14.1667H19.1668C19.5918 14.1667 19.8752 13.8834 19.8752 13.4584V3.54171C19.8752 3.11671 19.5918 2.83337 19.1668 2.83337H17.0418C16.6168 2.83337 16.3335 2.55004 16.3335 2.12504C16.3335 1.70004 16.6168 1.41671 17.0418 1.41671ZM16.8293 8.99587C16.9002 8.92504 16.971 8.85421 16.971 8.78337C17.0418 8.71254 17.0418 8.57087 17.0418 8.50004C17.0418 8.42921 17.0418 8.28754 16.971 8.21671C16.9002 8.14587 16.9002 8.07504 16.8293 8.00421L13.996 5.17087C13.7127 4.88754 13.2877 4.88754 13.0043 5.17087C12.721 5.45421 12.721 5.87921 13.0043 6.16254L14.6335 7.79171L6.41683 7.79171C5.99183 7.79171 5.7085 8.07504 5.7085 8.50004C5.7085 8.92504 5.99183 9.20837 6.41683 9.20837H14.6335L13.0043 10.8375C12.721 11.1209 12.721 11.5459 13.0043 11.8292C13.2877 12.1125 13.7127 12.1125 13.996 11.8292L16.8293 8.99587Z" fill="white"/>
    </mask>
    <g mask="url(#mask0_20_5378)">
    </g>
    <path fill-rule="evenodd" clip-rule="evenodd" d="M5.17067 15.0042C5.09984 15.075 5.029 15.1459 5.029 15.2167C4.95817 15.2875 4.95817 15.4292 4.95817 15.5C4.95817 15.5709 4.95817 15.7125 5.029 15.7834C5.09984 15.8542 5.09984 15.925 5.17067 15.9959L8.004 18.8292C8.28734 19.1125 8.71234 19.1125 8.99567 18.8292C9.279 18.5459 9.279 18.1209 8.99567 17.8375L7.3665 16.2084H15.5832C16.0082 16.2084 16.2915 15.925 16.2915 15.5C16.2915 15.075 16.0082 14.7917 15.5832 14.7917H7.3665L8.99567 13.1625C9.279 12.8792 9.279 12.4542 8.99567 12.1709C8.71234 11.8875 8.28734 11.8875 8.004 12.1709L5.17067 15.0042Z" fill="#FC9A17"/>
    <mask id="mask1_20_5378" style="mask-type:luminance" maskUnits="userSpaceOnUse" x="0" y="8" width="17" height="15">
        <path fill-rule="evenodd" clip-rule="evenodd" d="M4.95817 22.5833H2.83317C1.629 22.5833 0.70817 21.6625 0.70817 20.4583L0.70817 10.5416C0.70817 9.33746 1.629 8.41663 2.83317 8.41663H4.95817C5.38317 8.41663 5.6665 8.69996 5.6665 9.12496C5.6665 9.54996 5.38317 9.83329 4.95817 9.83329L2.83317 9.83329C2.40817 9.83329 2.12484 10.1166 2.12484 10.5416L2.12484 20.4583C2.12484 20.8833 2.40817 21.1666 2.83317 21.1666H4.95817C5.38317 21.1666 5.6665 21.45 5.6665 21.875C5.6665 22.3 5.38317 22.5833 4.95817 22.5833ZM5.17067 15.0041C5.09984 15.075 5.029 15.1458 5.029 15.2166C4.95817 15.2875 4.95817 15.4291 4.95817 15.5C4.95817 15.5708 4.95817 15.7125 5.029 15.7833C5.09984 15.8541 5.09984 15.925 5.17067 15.9958L8.004 18.8291C8.28734 19.1125 8.71234 19.1125 8.99567 18.8291C9.279 18.5458 9.279 18.1208 8.99567 17.8375L7.3665 16.2083H15.5832C16.0082 16.2083 16.2915 15.925 16.2915 15.5C16.2915 15.075 16.0082 14.7916 15.5832 14.7916L7.3665 14.7916L8.99567 13.1625C9.279 12.8791 9.279 12.4541 8.99567 12.1708C8.71234 11.8875 8.28734 11.8875 8.004 12.1708L5.17067 15.0041Z" fill="white"/>
    </mask>
    <g mask="url(#mask1_20_5378)">
    </g>
</svg>
