<svg width="100" height="33" viewBox="0 0 100 33" fill="none" xmlns="http://www.w3.org/2000/svg">
<mask id="mask0_2066_10424" style="mask-type:luminance" maskUnits="userSpaceOnUse" x="0" y="0" width="100" height="33">
<path d="M0 0H100V32.2476H0V0Z" fill="white"/>
</mask>
<g mask="url(#mask0_2066_10424)">
<path d="M28.4168 26.5553C27.7817 25.4744 26.7321 24.8062 25.5562 24.6784C25.1745 24.5835 24.7934 24.4564 24.4438 24.2651C22.6321 23.2157 21.9963 20.9262 23.0131 19.1136C23.0466 19.0786 23.0687 19.0343 23.0766 18.9865V18.9544C23.4584 18.2869 23.681 17.5551 23.7759 16.7599V16.6963V16.6328C23.7759 16.0288 23.2993 15.552 22.727 15.552H18.7226C18.119 15.552 17.6423 16.0288 17.6423 16.6328C17.6423 17.2375 18.119 17.7136 18.7226 17.7136H21.3613C20.7569 18.9544 19.4854 19.8132 18.0234 19.8132C17.0457 19.8124 16.1082 19.4235 15.4169 18.7317C14.7257 18.0399 14.3371 17.102 14.3365 16.1238C14.3373 15.1457 14.726 14.2079 15.4172 13.5163C16.1085 12.8247 17.0458 12.4358 18.0234 12.4351C18.6692 12.4323 19.3042 12.6017 19.8629 12.9259C20.4216 13.2502 20.8839 13.7175 21.2022 14.2798C21.3927 14.5975 21.7423 14.8202 22.1241 14.8202C22.7277 14.8202 23.2044 14.3433 23.2044 13.7394C23.2044 13.5159 23.1409 13.3253 23.046 13.1661C22.0285 11.3535 22.6642 9.06403 24.4766 8.0146C24.8263 7.82399 25.2073 7.66406 25.589 7.60125C26.1787 7.53202 26.7442 7.32638 27.2407 7.00062C27.7373 6.67486 28.1511 6.23792 28.4496 5.7244C29.4985 3.91181 28.8628 1.59094 27.0511 0.540779C25.2394 -0.508652 22.919 0.127433 21.8701 1.94002C21.5675 2.45027 21.3922 3.02589 21.3589 3.61823C21.3256 4.21057 21.4354 4.80222 21.6788 5.34319C21.8058 5.7244 21.8701 6.10634 21.8701 6.51969C21.8708 7.52115 21.4778 8.48271 20.776 9.19677C20.0742 9.91083 19.1198 10.3201 18.119 10.3362H17.992C16.9911 10.3201 16.0368 9.91083 15.335 9.19677C14.6332 8.48271 14.2402 7.52115 14.2409 6.51969C14.2409 6.10634 14.3044 5.7244 14.4314 5.34319C14.6596 4.79863 14.7611 4.2093 14.7282 3.61974C14.6953 3.03018 14.5289 2.4558 14.2416 1.94002C13.1905 0.127433 10.8701 -0.508652 9.05839 0.540779C7.24744 1.59021 6.61168 3.91181 7.66058 5.72513C8.29562 6.80596 9.34525 7.47418 10.5219 7.60198C10.9029 7.69692 11.2839 7.82399 11.6336 8.01533C13.4139 9.03263 14.0496 11.3228 13.0963 13.1033C13.0642 13.1668 13.0007 13.2304 12.9686 13.326C11.8883 15.0751 9.59927 15.6484 7.81971 14.6303C7.43796 14.4076 7.12044 14.1527 6.86569 13.8343C6.16642 12.9448 5.08613 12.3401 3.84599 12.3401C1.71679 12.3394 0 14.0249 0 16.1245C0 18.2234 1.71679 19.9096 3.78248 19.9096C4.3675 19.9135 4.94529 19.7803 5.46964 19.5207C5.99399 19.2611 6.45034 18.8823 6.80219 18.4147C7.05693 18.0963 7.37445 17.8422 7.7562 17.6194C9.53577 16.57 11.8248 17.1739 12.9051 18.923C12.9372 18.9873 12.9686 19.0508 13.0321 19.1457C13.9861 20.9583 13.3504 23.2164 11.5701 24.2344C11.2204 24.425 10.8394 24.5842 10.4577 24.6478C9.86784 24.7169 9.3022 24.9225 8.80556 25.2482C8.30891 25.574 7.89491 26.011 7.59635 26.5246C6.54817 28.3365 7.18394 30.6581 8.99562 31.7075C10.8073 32.7577 13.1277 32.1216 14.1766 30.3083C14.4791 29.7979 14.6542 29.2223 14.6874 28.63C14.7206 28.0376 14.6107 27.446 14.3672 26.9051C14.24 26.5262 14.1759 26.129 14.1774 25.7293C14.1774 23.6619 15.8299 21.9442 17.9277 21.9128H18.0547C19.0556 21.9289 20.0099 22.3382 20.7117 23.0522C21.4136 23.7663 21.8065 24.7279 21.8058 25.7293C21.8058 26.1427 21.7416 26.5239 21.6146 26.9051C21.3866 27.4498 21.2854 28.0391 21.3185 28.6287C21.3516 29.2183 21.5183 29.7926 21.8058 30.3083C22.8547 32.1216 25.1752 32.7577 26.9869 31.7075C28.862 30.6902 29.4657 28.3686 28.4175 26.556L28.4168 26.5553Z" fill="url(#paint0_linear_2066_10424)"/>
<path d="M41.3857 11.8304C41.3857 11.0351 41.7667 10.4626 42.6251 10.4626H46.5346C47.2974 10.4626 47.647 11.003 47.647 11.5434C47.647 12.0846 47.266 12.625 46.5346 12.625H43.7697V14.9152H46.3441C47.1069 14.9152 47.4886 15.4556 47.4886 15.996C47.4886 16.5364 47.1069 17.0776 46.3441 17.0776H43.7697V19.4627H46.6616C47.4251 19.4627 47.7748 20.0031 47.7748 20.5435C47.7748 21.0847 47.393 21.6251 46.6624 21.6251H42.593C41.8937 21.6251 41.3857 21.1482 41.3857 20.4486V11.8304ZM49.5864 11.512C49.5864 10.8767 50.0631 10.3355 50.7624 10.3355C51.4302 10.3355 51.9383 10.781 51.9383 11.512V14.9152L55.8164 10.8124C55.9755 10.6218 56.293 10.3669 56.7383 10.3669C57.3419 10.3669 57.9142 10.8124 57.9142 11.512C57.9142 11.9254 57.6602 12.2438 57.1514 12.7842L54.1952 15.7097L57.8193 19.4948C58.1689 19.8761 58.4864 20.2259 58.4864 20.7027C58.4864 21.4345 57.9142 21.7836 57.247 21.7836C56.8018 21.7836 56.4843 21.5294 56.039 21.0533L51.9704 16.6642V20.6713C51.9704 21.2753 51.4937 21.8157 50.7945 21.8157C50.1266 21.8157 49.6178 21.3702 49.6178 20.6713V11.512H49.5864ZM60.2667 11.512C60.2667 10.8767 60.7434 10.3355 61.4427 10.3355C62.1098 10.3355 62.6186 10.781 62.6186 11.512V14.9152L66.4967 10.8124C66.6558 10.6218 66.9733 10.3669 67.4186 10.3669C68.0222 10.3669 68.5945 10.8124 68.5945 11.512C68.5945 11.9254 68.3405 12.2438 67.8317 12.7842L64.8755 15.7097L68.4996 19.4948C68.8492 19.8761 69.1667 20.2259 69.1667 20.7027C69.1667 21.4345 68.5945 21.7836 67.9273 21.7836C67.4821 21.7836 67.1646 21.5294 66.7193 21.0533L62.6186 16.6007V20.6078C62.6186 21.2118 62.1419 21.7522 61.4427 21.7522C60.7755 21.7522 60.2667 21.3067 60.2667 20.6078V11.512ZM39.5733 16.6328C39.5733 16.0281 39.0967 15.552 38.5244 15.552H34.4558C33.8521 15.552 33.3755 16.0281 33.3755 16.6328C33.3755 17.2368 33.8521 17.7137 34.4558 17.7137H37.0945C36.4901 18.9544 35.2186 19.8133 33.7565 19.8133C32.7788 19.8125 31.8414 19.4235 31.1501 18.7317C30.4588 18.04 30.0702 17.102 30.0697 16.1238C30.0702 15.1456 30.4588 14.2076 31.1501 13.5159C31.8414 12.8241 32.7788 12.4351 33.7565 12.4344C35.0923 12.4344 36.2675 13.1661 36.9354 14.2477C37.1259 14.5975 37.4755 14.8202 37.8886 14.8202C38.493 14.8202 38.9697 14.3426 38.9697 13.7387C38.9697 13.4845 38.8748 13.2618 38.747 13.1026C37.7302 11.4492 35.8857 10.3041 33.7886 10.3041C30.5784 10.3041 27.9397 12.9113 27.9397 16.1559C27.9083 19.3356 30.5142 21.9435 33.7573 21.9435C36.7448 21.9435 39.2244 19.6855 39.5733 16.7599C39.5419 16.7278 39.5733 16.6964 39.5733 16.6328ZM73.3945 11.5755C73.6485 10.8445 74.2843 10.272 75.0791 10.272C75.9054 10.272 76.4777 10.8124 76.7638 11.5755L79.847 20.1309C79.9426 20.3851 79.974 20.6078 79.974 20.7035C79.974 21.3074 79.4653 21.7522 78.893 21.7522C78.2259 21.7522 77.9083 21.4024 77.7492 20.9255L77.2726 19.4627H72.9178L72.4405 20.9255C72.2821 21.4031 71.9638 21.7529 71.2967 21.7529C70.6609 21.7529 70.12 21.2753 70.12 20.6392C70.12 20.3851 70.1843 20.1937 70.2156 20.1309L73.3945 11.5755ZM73.585 17.2682H76.5733L75.1105 12.7206H75.0791L73.585 17.2682ZM81.3412 11.7033C81.3412 10.9395 81.7543 10.4626 82.5485 10.4626H85.3142C87.7302 10.4626 89.2237 11.5434 89.2237 14.0242C89.2237 15.7419 87.9208 16.7278 86.3317 16.9819L89.0018 19.8447C89.2237 20.0674 89.3193 20.3215 89.3193 20.5443C89.3193 21.1482 88.8427 21.7522 88.1434 21.7522C87.8573 21.7522 87.4755 21.6572 87.2215 21.3388L83.7251 17.1097H83.693V20.5129C83.693 21.3074 83.1843 21.7208 82.5171 21.7208C81.8492 21.7208 81.3412 21.2753 81.3412 20.5121V11.7033ZM83.693 15.4242H85.3142C86.1726 15.4242 86.7762 14.9152 86.7762 14.0249C86.7762 13.134 86.1726 12.6571 85.3142 12.6571H83.693V15.4242ZM90.6864 11.6712C90.6864 10.9395 91.1945 10.4626 91.8937 10.4626H94.5003C98.0288 10.4626 100.032 12.7206 100.032 16.2187C100.032 19.527 97.9018 21.6572 94.6594 21.6572H91.9259C91.4171 21.6572 90.6864 21.371 90.6864 20.4807V11.6712ZM93.0383 19.4948H94.6273C96.6624 19.4948 97.5835 17.9999 97.5835 16.1238C97.5835 14.1199 96.6302 12.6571 94.4689 12.6571H93.0383V19.4948Z" fill="#29354C"/>
</g>
<defs>
<linearGradient id="paint0_linear_2066_10424" x1="5.21862" y1="27.2916" x2="27.3756" y2="1.20959" gradientUnits="userSpaceOnUse">
<stop stop-color="#29354C"/>
<stop offset="1" stop-color="#29354C"/>
</linearGradient>
</defs>
</svg>
