<svg width="24" height="24" viewbox="0 0 24 24" fill="none" xmlns="http://www.w3.org/2000/svg"><path fill-rule="evenodd" clip-rule="evenodd" d="M4.914 5.274C7.798 5.092 10.155 5 11.986 5c1.833 0 4.2.092 7.1.275a2.917 2.917 0 012.722 2.664 53.917 53.917 0 010 9.123 2.917 2.917 0 01-2.722 2.664c-2.873.183-5.226.274-7.059.274-1.837 0-4.207-.092-7.112-.275a2.917 2.917 0 01-2.723-2.664 53.903 53.903 0 010-9.122 2.917 2.917 0 012.722-2.665zm.053.832A2.083 2.083 0 003.023 8.01a53.07 53.07 0 000 8.981 2.083 2.083 0 001.944 1.903c2.89.183 5.243.274 7.06.274 1.813 0 4.15-.091 7.007-.273a2.083 2.083 0 001.943-1.903 53.067 53.067 0 000-8.981 2.083 2.083 0 00-1.944-1.903c-2.884-.183-5.234-.274-7.047-.274-1.81 0-4.151.091-7.02.273zm5.729 10.278c-.662.187-1.477.283-2.446.283-.969 0-1.784-.096-2.446-.283a.763.763 0 01-.5-1.016l.122-.306a1.25 1.25 0 01.953-.77c.491-.083 1.115-.125 1.871-.125s1.38.042 1.87.124c.431.073.793.365.954.77l.122.307a.761.761 0 01-.5 1.016zM8.25 17.5c-1.04 0-1.931-.104-2.673-.315A1.596 1.596 0 014.53 15.06l.121-.305a2.083 2.083 0 011.59-1.284c.542-.092 1.21-.137 2.009-.137.798 0 1.467.045 2.009.136.718.121 1.32.608 1.59 1.285l.121.306a1.596 1.596 0 01-1.047 2.126c-.742.21-1.632.314-2.673.314zm0-5.833a1.251 1.251 0 010-2.5 1.251 1.251 0 010 2.5zm-2.083-1.25a2.085 2.085 0 014.166 0 2.085 2.085 0 01-4.166 0zm7.083 0c0 .23.187.416.417.416h5a.417.417 0 100-.833h-5a.417.417 0 00-.417.417zm.417 2.083a.417.417 0 110-.833h5a.417.417 0 010 .833h-5zm-.417 1.25c0 .23.187.417.417.417h2.5a.417.417 0 100-.834h-2.5a.417.417 0 00-.417.417z" fill="#3A3A3A"/></svg>
