<svg width="24" height="24" viewBox="0 0 24 24" fill="none" xmlns="http://www.w3.org/2000/svg"><path fill-rule="evenodd" clip-rule="evenodd" d="M16.476 4.495h.831c.918 0 1.664.746 1.664 1.664v14.139c0 .917-.746 1.663-1.664 1.663H5.663A1.665 1.665 0 014 20.298V6.158a1.66 1.66 0 011.574-1.654l8.867-2.452c.132-.033.243-.05.371-.052.895-.01 1.664.727 1.664 1.636v.86zm-.832-.86c0-.51-.504-.903-.99-.779l-5.927 1.64h6.917v-.86zm2.495 16.663a.833.833 0 01-.832.831H5.663a.833.833 0 01-.831-.831V6.158c0-.458.373-.831.831-.831h11.644c.459 0 .832.373.832.832v14.139zM11.485 6.99a4.58 4.58 0 00-4.574 4.575 4.58 4.58 0 004.574 4.574 4.58 4.58 0 004.575-4.574 4.58 4.58 0 00-4.575-4.575zm-3.7 4.99h1.63c.046 1.133.28 2.26.686 3.055a3.735 3.735 0 01-2.316-3.054zm0-.831h1.63c.046-1.133.28-2.26.686-3.054a3.735 3.735 0 00-2.316 3.054zm3.7 4.159c-.476 0-1.146-1.289-1.23-3.327h2.461c-.084 2.038-.754 3.326-1.23 3.326zm0-7.486c-.476 0-1.146 1.288-1.23 3.327h2.461c-.084-2.039-.754-3.327-1.23-3.327zm1.385 7.213c.406-.795.64-1.922.686-3.054h1.63a3.735 3.735 0 01-2.316 3.054zm0-6.94c.406.795.64 1.921.686 3.054h1.63a3.735 3.735 0 00-2.316-3.054zm-5.639 8.898l8.318.001a.416.416 0 110 .832l-8.318-.002a.416.416 0 010-.831zm1.663 1.664h4.99a.416.416 0 110 .832h-4.99a.416.416 0 110-.832z" fill="#3A3A3A"/></svg>
