<svg id="Слой_1" data-name="Слой 1" xmlns="http://www.w3.org/2000/svg" viewBox="0 0 49 48.27"><path d="M24.5,0A24.32,24.32,0,0,1,49,24.13,24.32,24.32,0,0,1,24.5,48.27,24.32,24.32,0,0,1,0,24.13,24.32,24.32,0,0,1,24.5,0Z" transform="translate(0 0)" style="fill:#f7931a;fill-rule:evenodd"/><path d="M15.53,22.11c.55,0,1,.31,1,.7v12.6c0,.39-.45.7-1,.7s-1-.31-1-.7V22.81C14.53,22.42,15,22.11,15.53,22.11Z" transform="translate(0 0)" style="fill:#fff"/><path d="M19.28,17.11a1,1,0,0,1,.95.95v17.1a.95.95,0,1,1-1.9,0V18.06A1,1,0,0,1,19.28,17.11Z" transform="translate(0 0)" style="fill:#fff"/><path d="M23.48,15.11a1,1,0,0,1,1.05,1.05v18.9a1,1,0,1,1-2.1,0V16.16A1,1,0,0,1,23.48,15.11Z" transform="translate(0 0)" style="fill:#fff"/><path d="M27.58,18.11a.9.9,0,0,1,.9.9v16.2a.9.9,0,0,1-1.8,0V19A.9.9,0,0,1,27.58,18.11Z" transform="translate(0 0)" style="fill:#fff"/><path d="M31.41,13.36a1.12,1.12,0,0,1,1.12,1.13V34.74a1.13,1.13,0,0,1-2.25,0V14.49A1.13,1.13,0,0,1,31.41,13.36Z" transform="translate(0 0)" style="fill:#fff"/></svg>