<svg xmlns="http://www.w3.org/2000/svg" width="18" height="18" viewBox="0 0 18 18" fill="none">
  <path d="M11.6272 13.3507C11.6272 13.3507 11.1464 13.8994 10.4251 13.3507C9.70377 12.802 7.22013 10.2203 7.22013 10.2203C7.22013 10.2203 6.63255 9.55904 5.96463 10.2203C5.29672 10.8815 3.2404 13.7246 3.2404 13.7246C3.2404 13.7246 2.59941 14.7474 1.66441 13.7246C0.859745 12.8435 0.174734 13.221 -4.47416e-05 13.3423L0.0517051 15.8324C0.0517051 16.4936 0.62561 17.0295 1.33369 17.0295H16.7176C17.4257 17.0295 17.9996 16.4936 17.9996 15.8324L17.9478 6.65522C17.8991 6.6636 17.8483 6.68196 17.7966 6.7067L11.6272 13.3507ZM2.28621 10.5343C3.11224 10.5343 3.78187 9.90901 3.78187 9.13766C3.78187 8.93973 3.73658 8.75219 3.65709 8.5818L6.27919 5.55786C6.42704 5.60375 6.58216 5.63448 6.74669 5.63448C6.97103 5.63448 7.18213 5.585 7.37272 5.5024L9.66621 7.64405C9.61749 7.78172 9.58501 7.92617 9.58501 8.07861C9.58501 8.84995 10.2542 9.47525 11.0807 9.47525C11.9067 9.47525 12.5763 8.84995 12.5763 8.07861C12.5763 7.90662 12.5383 7.74381 12.4776 7.59178L16.0509 3.69155C16.1945 3.73425 16.3449 3.76378 16.5043 3.76378C17.3304 3.76378 18 3.13848 18 2.36713C18 1.59579 17.3304 0.97049 16.5043 0.97049C15.6779 0.97049 15.0087 1.59579 15.0087 2.36713C15.0087 2.5463 15.048 2.71589 15.1138 2.87312L11.5524 6.75977C11.4033 6.71308 11.2465 6.68196 11.0807 6.68196C10.8935 6.68196 10.7157 6.71787 10.5508 6.77653L8.19363 4.57542C8.22268 4.46688 8.24277 4.35475 8.24277 4.23783C8.24277 3.46649 7.57314 2.84119 6.74711 2.84119C5.92108 2.84119 5.25145 3.46649 5.25145 4.23783C5.25145 4.41062 5.28949 4.57383 5.35059 4.72666L2.68704 7.79808C2.55885 7.76456 2.42637 7.74102 2.28621 7.74102C1.46018 7.74102 0.790549 8.36631 0.790549 9.13766C0.790549 9.90901 1.46018 10.5343 2.28621 10.5343Z" fill="#285E69"/>
</svg>