<svg width="48" height="48" viewBox="0 0 48 48" fill="none" xmlns="http://www.w3.org/2000/svg">
<path fill-rule="evenodd" clip-rule="evenodd" d="M43.6875 22.1771V14.8854C43.6875 12.3725 41.6431 10.3281 39.1302 10.3281H34.026V3.40103C34.026 1.89321 32.7995 0.666656 31.2917 0.666656H14.3385C12.8307 0.666656 11.6042 1.89321 11.6042 3.40103V6.68228H8.86978C7.36196 6.68228 6.13541 7.90883 6.13541 9.41666V10.3281H5.22395C2.71103 10.3281 0.666656 12.3725 0.666656 14.8854V42.776C0.666656 45.2889 2.71103 47.3333 5.22395 47.3333H33.1146C35.3152 47.3333 37.1567 45.7653 37.58 43.6875H39.1302C41.6431 43.6875 43.6875 41.6431 43.6875 39.1302V36.7604H44.5989C46.1068 36.7604 47.3333 35.5339 47.3333 34.026V25.8229C47.3333 23.8127 45.6977 22.1771 43.6875 22.1771ZM45.5104 25.8229C45.5104 26.8298 44.6944 27.6458 43.6875 27.6458V24C44.6926 24 45.5104 24.8178 45.5104 25.8229ZM41.8646 14.8854C41.8646 13.3776 40.638 12.151 39.1302 12.151H34.026V17.7116C36.1039 18.135 37.6719 19.9764 37.6719 22.1771V27.6458H41.8646V14.8854ZM13.4271 3.40103C13.4271 2.89831 13.8358 2.48957 14.3385 2.48957H31.2917C31.7944 2.48957 32.2031 2.89831 32.2031 3.40103V17.6198H28.0104V9.41666C28.0104 7.90883 26.7839 6.68228 25.276 6.68228H13.4271V3.40103ZM22.5417 8.5052V17.6198H26.1875V9.41666C26.1875 8.91393 25.7788 8.5052 25.276 8.5052H22.5417ZM17.0729 17.6198V8.5052H20.7187V17.6198H17.0729ZM8.86978 8.5052C8.36705 8.5052 7.95832 8.91393 7.95832 9.41666V17.6198H15.25V8.5052H8.86978ZM5.22395 12.151H6.13541V17.6198H5.41906C3.91266 17.6198 2.48957 16.5289 2.48957 14.8854C2.48957 13.3776 3.71613 12.151 5.22395 12.151ZM5.22395 45.5104H33.1146C34.6224 45.5104 35.8489 44.2839 35.8489 42.776V36.7604H29.4687C27.9609 36.7604 26.7344 35.5339 26.7344 34.026V30.3802C26.7344 28.8724 27.9609 27.6458 29.4687 27.6458H35.8489V22.1771C35.8489 20.6693 34.6224 19.4427 33.1146 19.4427H5.41906C4.32816 19.4427 3.30455 19.082 2.48957 18.475V42.776C2.48957 44.2839 3.71613 45.5104 5.22395 45.5104ZM41.8646 39.1302C41.8646 40.638 40.638 41.8646 39.1302 41.8646H37.6719V36.7604H41.8646V39.1302ZM29.4687 34.9375H44.5989C45.1017 34.9375 45.5104 34.5288 45.5104 34.026V28.9806C44.9621 29.2986 44.338 29.4687 43.6875 29.4687H29.4687C28.966 29.4687 28.5573 29.8775 28.5573 30.3802V34.026C28.5573 34.5288 28.966 34.9375 29.4687 34.9375ZM12.5156 14.8854C12.5156 15.3888 12.1076 15.7969 11.6042 15.7969C11.1007 15.7969 10.6927 15.3888 10.6927 14.8854V11.2396C10.6927 10.7361 11.1007 10.3281 11.6042 10.3281C12.1076 10.3281 12.5156 10.7361 12.5156 11.2396V14.8854ZM30.3802 32.2031C30.3802 31.7 30.7886 31.2917 31.2917 31.2917C31.7947 31.2917 32.2031 31.7 32.2031 32.2031C32.2031 32.7062 31.7947 33.1146 31.2917 33.1146C30.7886 33.1146 30.3802 32.7062 30.3802 32.2031ZM34.9375 31.2917H39.1302C39.6336 31.2917 40.0417 31.6997 40.0417 32.2031C40.0417 32.7066 39.6336 33.1146 39.1302 33.1146H34.9375C34.4341 33.1146 34.026 32.7066 34.026 32.2031C34.026 31.6997 34.4341 31.2917 34.9375 31.2917Z" fill="#2ECD81"/>
</svg>
