<svg width="32" height="32" fill="none" xmlns="http://www.w3.org/2000/svg"><path fill-rule="evenodd" clip-rule="evenodd" d="M19.86 21.78a.63.63 0 00-.67.6L18.98 25a3.19 3.19 0 01-2.91 2.88 49.4 49.4 0 01-4.43.19c-1.63 0-3.13-.07-4.5-.2A3.19 3.19 0 014.24 25c-.2-2.36-.3-5.12-.3-8.28 0-3.2.1-6.01.3-8.42a3.2 3.2 0 012.97-2.9 63.1 63.1 0 014.43-.12c1.71 0 3.16.04 4.36.12a3.2 3.2 0 012.97 2.9c.13 1.43.2 2.35.22 2.73a.63.63 0 001.27-.07c-.02-.4-.1-1.32-.22-2.78a4.46 4.46 0 00-4.15-4.04C14.86 4.04 13.38 4 11.64 4c-1.77 0-3.28.04-4.52.13a4.46 4.46 0 00-4.14 4.05 102 102 0 00-.31 8.53c0 3.2.1 5.99.3 8.38a4.46 4.46 0 004.05 4.05c1.42.13 2.96.2 4.62.2 1.64 0 3.15-.07 4.54-.2a4.46 4.46 0 004.06-4.03c.12-1.4.2-2.29.22-2.67a.63.63 0 00-.6-.66zM27.79 16l.03.03H12.2a.63.63 0 100 1.27h15.62a.93.93 0 01-.04.04l-4.6 4.58a.63.63 0 000 .9c.26.24.66.24.9 0l4.6-4.58c.87-.87.87-2.27 0-3.14l-4.58-4.58a.64.64 0 00-.9 0 .63.63 0 000 .9L27.79 16z" fill="#B4C0CD"/></svg>
