<svg xmlns="http://www.w3.org/2000/svg" width="20" height="20" viewBox="0 0 20 20" fill="none">
  <path d="M12.25 14.5V16.75C12.25 17.3467 12.0525 17.919 11.7008 18.341C11.3492 18.7629 10.8723 19 10.375 19H2.875C2.37772 19 1.90081 18.7629 1.54917 18.341C1.19754 17.919 1 17.3467 1 16.75V3.25C1 2.65326 1.19754 2.08097 1.54917 1.65901C1.90081 1.23705 2.37772 1 2.875 1H10C11.0355 1 12.25 2.00744 12.25 3.25V5.5M15.25 14.5L19 10L15.25 5.5M6.25 10H18.25" stroke="#285E69" stroke-width="2" stroke-linecap="round" stroke-linejoin="round"/>
</svg>