<svg width="16" height="10" viewBox="0 0 16 10" fill="none" xmlns="http://www.w3.org/2000/svg">
<path fill-rule="evenodd" clip-rule="evenodd" d="M6.30758 4.85501C6.30758 3.32599 7.02635 1.96523 8.14727 1.08452C7.32112 0.434674 6.27773 0.0462341 5.14143 0.0462341C2.46604 0.0462341 0.297119 2.19945 0.297119 4.85501C0.297119 7.51027 2.46604 9.66288 5.14143 9.66288C6.27773 9.66288 7.32112 9.27413 8.14727 8.6249C7.02635 7.7445 6.30758 6.38312 6.30758 4.85501Z" fill="#E01F26"/>
<path fill-rule="evenodd" clip-rule="evenodd" d="M6.30762 4.85501C6.30762 6.38312 7.02639 7.7445 8.14731 8.6249C9.267 7.7445 9.987 6.38312 9.987 4.85501C9.987 3.32599 9.267 1.96523 8.14731 1.08452C7.02639 1.96523 6.30762 3.32599 6.30762 4.85501Z" fill="#E86224"/>
<path fill-rule="evenodd" clip-rule="evenodd" d="M11.1519 0.0462341C10.0168 0.0462341 8.97313 0.434674 8.14697 1.08452C9.26697 1.96523 9.98667 3.32599 9.98667 4.85501C9.98667 6.38312 9.26697 7.7445 8.14697 8.6249C8.97313 9.27413 10.0168 9.66288 11.1519 9.66288C13.8276 9.66288 15.9965 7.51027 15.9965 4.85501C15.9965 2.19945 13.8276 0.0462341 11.1519 0.0462341Z" fill="#F39E1E"/>
</svg>
