<svg width="20" height="20" fill="none" xmlns="http://www.w3.org/2000/svg"><path fill-rule="evenodd" clip-rule="evenodd" d="M12.03 2.5H2.65a.99.99 0 00-.98 1c0 .55.44.99.98.99h9.38c.54 0 .98-.44.98-1 0-.55-.44-.99-.98-.99zM2.65 6.84a.99.99 0 00-.98 1c0 .54.44.99.98.99h14.7c.54 0 .98-.45.98-1s-.44-1-.98-1H2.65zm-.98 5.33c0-.55.44-1 .98-1h9.38c.54 0 .98.45.98 1s-.44 1-.98 1H2.65a.99.99 0 01-.98-1zm15.68 5.33c.54 0 .98-.44.98-1 0-.55-.44-.99-.98-.99H2.65a.99.99 0 00-.98 1c0 .55.44.99.98.99h14.7z" fill="#3A3A3A"/></svg>
