<svg width="49" height="50" viewBox="0 0 49 50" fill="none" xmlns="http://www.w3.org/2000/svg"><g filter="url(#filter0_d)"><path fill-rule="evenodd" clip-rule="evenodd" d="M24.49.96c12.995 0 23.53 10.535 23.53 23.53 0 12.995-10.535 23.53-23.53 23.53C11.495 48.02.96 37.484.96 24.49.96 11.495 11.496.96 24.49.96z" fill="#2BB673"/></g><path fill-rule="evenodd" clip-rule="evenodd" d="M25 15a1 1 0 10-2 0v8h-8a1 1 0 100 2h8v8a1 1 0 102 0v-8h8a1 1 0 100-2h-8v-8z" fill="#fff"/><defs><filter id="filter0_d" x=".961" y=".961" width="47.059" height="48.059" filterUnits="userSpaceOnUse" color-interpolation-filters="sRGB"><feFlood flood-opacity="0" result="BackgroundImageFix"/><feColorMatrix in="SourceAlpha" values="0 0 0 0 0 0 0 0 0 0 0 0 0 0 0 0 0 0 127 0"/><feOffset dy="1"/><feColorMatrix values="0 0 0 0 0.941176 0 0 0 0 0.952941 0 0 0 0 0.972549 0 0 0 1 0"/><feBlend in2="BackgroundImageFix" result="effect1_dropShadow"/><feBlend in="SourceGraphic" in2="effect1_dropShadow" result="shape"/></filter></defs></svg>
