<svg xmlns="http://www.w3.org/2000/svg" width="28" height="27" viewBox="0 0 28 27" fill="none">
  <path d="M24.3124 23.5034H22.9374V10.034C22.9374 7.93883 21.8374 7.04078 21.15 6.89104L16.7501 5.39443V3.7483C16.7501 3.44881 16.6126 3.29928 16.4752 3.14953C16.3375 3 16.0624 3 15.925 3L6.71234 5.84346C6.71234 5.84346 5.06243 6.29248 5.06243 8.68691V23.5032H3.68762C3.27488 23.5034 3 23.8027 3 24.2517C3 24.7007 3.27488 25 3.68762 25L14 27.5L24.3126 25C24.7251 25 25 24.7005 25 24.2517C25 23.8029 24.7249 23.5034 24.3124 23.5034ZM15.375 23.5034H6.43746V8.68713C6.43746 7.63955 6.98743 7.34027 7.12508 7.34027L15.375 4.79588V23.5034ZM21.5623 23.5034H16.7498V6.89125L20.7373 8.38785H20.8749C21.0124 8.38785 21.5623 8.5376 21.5623 10.0342V23.5034ZM14 6.89125L8 8.68691V22H14V6.89125ZM18.5374 12.2789H19.9124V10.7823H18.5374V12.2789ZM18.5374 14.8231H19.9124V13.3265H18.5374V14.8231ZM18.5374 17.3672H19.9124V15.8706H18.5374V17.3672ZM18.5374 19.7619H19.9124V18.2653H18.5374V19.7619ZM18.5374 22.3061H19.9124V20.8095H18.5374V22.3061Z" fill="#3A5E66"/>
</svg>