<svg width="24" height="24" viewBox="0 0 24 24" fill="none" xmlns="http://www.w3.org/2000/svg"><path fill-rule="evenodd" clip-rule="evenodd" d="M17.488 8.09l-2.917-.003c-1.183-.001-2.141-.974-2.141-2.173l-.001-3.044h-1.715c-1.818 0-3.623.09-5.415.272-.615.062-1.099.56-1.153 1.184a84.888 84.888 0 00-.289 7.267c0 2.307.075 4.457.226 6.449a2.159 2.159 0 001.955 2c1.7.146 3.255.219 4.663.219l.461-.003c.237-.002.43.19.433.43a.432.432 0 01-.424.44l-.47.003a55.64 55.64 0 01-4.735-.223c-1.466-.126-2.626-1.312-2.738-2.8A86.862 86.862 0 013 11.593c0-2.636.097-5.084.292-7.343a2.159 2.159 0 011.922-1.973 54.541 54.541 0 015.5-.277h1.82c.314 0 .617.117.852.328a43.141 43.141 0 014.66 4.872c.181.221.285.497.296.784.058 1.568.087 2.756.087 3.567 0 .24-.192.435-.429.435a.432.432 0 01-.429-.435c0-.785-.027-1.94-.083-3.46zm-.546-.87a42.239 42.239 0 00-3.656-3.815l.001 2.508c0 .72.575 1.304 1.285 1.304l2.37.003zm-.656 13.91c-2.13 0-3.857-1.751-3.857-3.913 0-2.16 1.726-3.913 3.857-3.913 2.13 0 3.857 1.752 3.857 3.913 0 2.162-1.727 3.913-3.857 3.913zm-4.715-3.913c0-2.641 2.11-4.782 4.715-4.782 2.604 0 4.714 2.14 4.714 4.782S18.89 22 16.286 22c-2.604 0-4.715-2.14-4.715-4.783zm6.126-1.611l-1.84 1.866-.982-.997c-.405-.41-1.01.205-.607.615l1.286 1.304a.4.4 0 00.509.076.435.435 0 00.097-.076l2.143-2.173c.404-.41-.202-1.025-.606-.615z" fill="#3A3A3A"/></svg>
