<svg xmlns="http://www.w3.org/2000/svg" width="18" height="18" viewBox="0 0 18 18" fill="none">
  <g clipPath="url(#clip0_397_1520)">
    <path fill-rule="evenodd" clip-rule="evenodd" d="M7.06911 13.3412H7.52747L9.0002 15.8972L10.4399 13.3412H10.9305C12.011 13.3412 12.8943 14.287 12.8943 15.4418V17.9992H5.10534V15.4418C5.10534 14.287 5.98937 13.3412 7.06911 13.3412ZM9.0002 8.43839C10.1784 8.43839 11.1274 9.45417 11.1274 10.7143C11.1274 11.9757 10.1784 12.9906 9.0002 12.9906C7.82201 12.9906 6.87301 11.9757 6.87301 10.7143C6.87301 9.45417 7.82201 8.43839 9.0002 8.43839ZM3.89447 0C5.03997 0 6.02166 1.01535 6.02166 2.27675C6.02166 3.53647 5.03997 4.55224 3.89447 4.55224C2.71628 4.55224 1.73499 3.53647 1.73499 2.27675C1.73459 1.01535 2.71589 0 3.89447 0ZM1.9307 4.90193H2.42134L3.89407 7.45843L5.33452 4.90193H5.82516C6.87261 4.90193 7.72317 5.8128 7.78854 6.89809C6.64343 7.31898 5.7598 8.33391 5.39949 9.5595H0V7.003C0 5.84819 0.850955 4.90193 1.9307 4.90193ZM14.1055 0C15.2841 0 16.2327 1.01535 16.2327 2.27675C16.2327 3.53647 15.2841 4.55224 14.1055 4.55224C12.9273 4.55224 11.9783 3.53647 11.9783 2.27675C11.9783 1.01535 12.9273 0 14.1055 0ZM12.1748 4.90193H12.6659L14.1055 7.45843L15.5783 4.90193H16.0689C17.1171 4.90193 18 5.84819 18 7.003V9.5595H12.6005C12.2406 8.33391 11.357 7.31898 10.2111 6.89809C10.2768 5.8128 11.1278 4.90193 12.1748 4.90193Z" fill="#285E69"/>
  </g>
  <defs>
    <clipPath id="clip0_397_1520">
      <rect width="18" height="18" fill="white"/>
    </clipPath>
  </defs>
</svg>