<svg width="22" height="18" viewBox="0 0 22 18" fill="none" xmlns="http://www.w3.org/2000/svg">
<path fill-rule="evenodd" clip-rule="evenodd" d="M3.20544 1.10183C6.37816 0.90065 8.97086 0.799988 10.9851 0.799988C13.0013 0.799988 15.6038 0.900852 18.7939 1.10243C20.3802 1.20267 21.654 2.44926 21.7884 4.03303C21.9295 5.69484 22 7.36718 22 9.04998C22 10.7332 21.9294 12.4059 21.7883 14.0681C21.6539 15.6514 20.3808 16.8978 18.795 16.9986C15.6343 17.1995 13.0464 17.3 11.0297 17.3C9.00891 17.3 6.40166 17.1991 3.20629 16.9974C1.6199 16.8972 0.345999 15.6506 0.211566 14.0668C0.0705201 12.405 0 10.7327 0 9.04999C0 7.36695 0.0705448 5.6944 0.21164 4.03235C0.346065 2.44886 1.61945 1.2024 3.20545 1.10183L3.20544 1.10183ZM3.26345 2.01665C2.13059 2.08849 1.22103 2.97882 1.12502 4.10988C0.986115 5.74608 0.916661 7.39277 0.916661 9.04997C0.916661 10.7069 0.98609 12.3533 1.12494 13.9892C1.22097 15.1205 2.1309 16.011 3.26404 16.0825C6.44169 16.2831 9.03074 16.3833 11.0297 16.3833C13.0245 16.3833 15.594 16.2835 18.7369 16.0837C19.8696 16.0117 20.7789 15.1215 20.875 13.9905C21.0139 12.3542 21.0834 10.7073 21.0834 9.04995C21.0834 7.39296 21.0139 5.7465 20.8751 4.11054C20.779 2.97928 19.8692 2.08886 18.7361 2.01726C15.5637 1.81679 12.9795 1.71664 10.9851 1.71664C8.99281 1.71664 6.41841 1.81659 3.26347 2.01664L3.26345 2.01665ZM9.56534 13.3219C8.83779 13.5285 7.94044 13.6333 6.87499 13.6333C5.80955 13.6333 4.91221 13.5285 4.18465 13.3219C4.15716 13.3141 4.1301 13.3049 4.10355 13.2944C3.67296 13.123 3.46281 12.635 3.63418 12.2044L3.76813 11.8679C3.94578 11.4215 4.34353 11.1002 4.81729 11.0204C5.35709 10.9295 6.04388 10.8833 6.875 10.8833C7.70611 10.8833 8.39289 10.9295 8.93269 11.0204C9.40645 11.1002 9.80421 11.4215 9.98186 11.8678L10.1158 12.2044C10.1264 12.231 10.1356 12.258 10.1434 12.2855C10.27 12.7313 10.0112 13.1954 9.56534 13.3219ZM6.87499 14.55C5.73042 14.55 4.75074 14.4356 3.93428 14.2038C3.87677 14.1874 3.82014 14.1682 3.76459 14.1461C2.86362 13.7875 2.42391 12.7664 2.78248 11.8655L2.91643 11.5289C3.21251 10.7849 3.87543 10.2494 4.66504 10.1164C5.26088 10.0161 5.99665 9.96662 6.87499 9.96662C7.75333 9.96662 8.4891 10.0161 9.08494 10.1164C9.87455 10.2494 10.5375 10.7849 10.8336 11.5289L10.9675 11.8655C10.9896 11.921 11.0089 11.9776 11.0252 12.0352C11.29 12.968 10.7485 13.9389 9.8157 14.2037C8.99926 14.4355 8.01958 14.55 6.87499 14.55ZM6.87499 8.13329C6.11639 8.13329 5.49999 7.51642 5.49999 6.7583C5.49999 5.99969 6.11687 5.3833 6.87499 5.3833C7.6336 5.3833 8.24999 6.00017 8.24999 6.7583C8.24999 7.5169 7.63312 8.13329 6.87499 8.13329ZM4.58333 6.7583C4.58333 5.49327 5.61077 4.46663 6.87499 4.46663C8.14002 4.46663 9.16666 5.49407 9.16666 6.7583C9.16666 8.02332 8.13922 9.04996 6.87499 9.04996C5.60997 9.04996 4.58333 8.02252 4.58333 6.7583ZM12.375 6.7583C12.375 7.01143 12.5802 7.21663 12.8333 7.21663H18.3333C18.5865 7.21663 18.7917 7.01143 18.7917 6.7583C18.7917 6.50517 18.5865 6.29996 18.3333 6.29996H12.8333C12.5802 6.29996 12.375 6.50517 12.375 6.7583ZM12.8333 9.04996C12.5802 9.04996 12.375 8.84476 12.375 8.59163C12.375 8.3385 12.5802 8.13329 12.8333 8.13329H18.3333C18.5865 8.13329 18.7917 8.3385 18.7917 8.59163C18.7917 8.84476 18.5865 9.04996 18.3333 9.04996H12.8333ZM12.375 10.425C12.375 10.6781 12.5802 10.8833 12.8333 10.8833H15.5827C15.8358 10.8833 16.041 10.6781 16.041 10.425C16.041 10.1718 15.8358 9.96663 15.5827 9.96663H12.8333C12.5802 9.96663 12.375 10.1718 12.375 10.425Z" fill="#2BB673"/>
</svg>
