<svg width="24" height="24" viewBox="0 0 24 24" fill="none" xmlns="http://www.w3.org/2000/svg">
<path d="M12 2C6.486 2 2 6.486 2 12C2 17.514 6.486 22 12 22C17.514 22 22 17.514 22 12C22 6.486 17.514 2 12 2Z" stroke="#2BB673"/>
<path d="M6.35354 13.5071C5.6072 13.5071 5 12.8999 5 12.1535C5 11.4072 5.6072 10.8 6.35354 10.8C7.09987 10.8 7.70707 11.4072 7.70707 12.1535C7.70707 12.8999 7.09987 13.5071 6.35354 13.5071Z" fill="#2BB673"/>
<path d="M11.8181 13.5071C11.0718 13.5071 10.4646 12.8999 10.4646 12.1535C10.4646 11.4072 11.0718 10.8 11.8181 10.8C12.5645 10.8 13.1717 11.4072 13.1717 12.1535C13.1717 12.8999 12.5645 13.5071 11.8181 13.5071Z" fill="#2BB673"/>
<path d="M17.2829 13.5071C16.5365 13.5071 15.9293 12.8999 15.9293 12.1535C15.9293 11.4072 16.5365 10.8 17.2829 10.8C18.0292 10.8 18.6364 11.4072 18.6364 12.1535C18.6364 12.8999 18.0292 13.5071 17.2829 13.5071Z" fill="#2BB673"/>
</svg>
