<svg width="40" height="40" viewBox="0 0 40 40" fill="none" xmlns="http://www.w3.org/2000/svg">
<path d="M18.7297 24.4569L26.9213 12.225C27.4224 11.4768 28.4376 11.2748 29.1888 11.7738C29.9401 12.2728 30.1429 13.2838 29.6419 14.032L20.4382 27.775C19.898 28.5816 18.7742 28.7423 18.028 28.1198L10.6686 21.9805C9.97641 21.403 9.88532 20.376 10.4652 19.6866C11.0451 18.9972 12.0763 18.9065 12.7685 19.484L18.7297 24.4569Z" fill="#2ECD81"/>
<path fill-rule="evenodd" clip-rule="evenodd" d="M5.85787 34.1421C13.6683 41.9526 26.3316 41.9526 34.1421 34.1421C41.9526 26.3317 41.9526 13.6684 34.1421 5.85787C26.3317 -1.95262 13.6684 -1.95262 5.85787 5.85787C-1.95262 13.6683 -1.95262 26.3316 5.85787 34.1421ZM7.48681 32.5132C0.575953 25.6023 0.575953 14.3976 7.4868 7.48681C14.3977 0.575953 25.6024 0.575953 32.5132 7.4868C39.424 14.3977 39.424 25.6024 32.5132 32.5132C25.6023 39.424 14.3976 39.424 7.48681 32.5132Z" fill="#2ECD81"/>
</svg>
