<svg xmlns="http://www.w3.org/2000/svg" width="20" height="20" viewBox="0 0 20 20" fill="none">
  <mask id="path-1-outside-1_397_1450" maskUnits="userSpaceOnUse" x="0" y="0" width="20" height="20" fill="black">
    <rect fill="white" width="20" height="20"/>
    <path d="M7.97926 15.5654C8.17599 15.4248 8.22158 15.1514 8.08101 14.9547C7.94049 14.7579 7.66705 14.7123 7.47025 14.8528L7.97926 15.5654ZM5.20999 17.0054H4.77215C4.77215 17.1694 4.86381 17.3196 5.00964 17.3947C5.15547 17.4697 5.33101 17.457 5.46448 17.3617L5.20999 17.0054ZM5.20999 13.4129H5.64782C5.64782 13.171 5.4518 12.9751 5.20999 12.9751V13.4129ZM18.1243 6.20539C18.1243 6.4472 18.3204 6.64323 18.5622 6.64323C18.804 6.64323 19 6.4472 19 6.20539H18.1243ZM7.47025 14.8528L4.9555 16.6491L5.46448 17.3617L7.97926 15.5654L7.47025 14.8528ZM5.64782 17.0054V13.4129H4.77215V17.0054H5.64782ZM5.20999 12.9751H2.69522V13.8507H5.20999V12.9751ZM2.69522 12.9751C2.47116 12.9751 2.26031 12.8901 2.10808 12.745L1.50416 13.3792C1.82353 13.6834 2.25232 13.8507 2.69522 13.8507V12.9751ZM2.10808 12.745C1.95656 12.6008 1.87568 12.4098 1.87568 12.2154H1C1 12.6562 1.18406 13.0743 1.50416 13.3792L2.10808 12.745ZM1.87568 12.2154V2.63534H1V12.2154H1.87568ZM1.87568 2.63534C1.87568 2.44095 1.95656 2.24993 2.10808 2.10563L1.50416 1.47152C1.18406 1.77637 1 2.19454 1 2.63534H1.87568ZM2.10808 2.10563C2.26031 1.96065 2.47116 1.87568 2.69522 1.87568V1C2.25232 1 1.82353 1.16736 1.50416 1.47152L2.10808 2.10563ZM2.69522 1.87568H17.3048V1H2.69522V1.87568ZM17.3048 1.87568C17.5289 1.87568 17.7397 1.96065 17.892 2.10563L18.4958 1.47152C18.1765 1.16736 17.7477 1 17.3048 1V1.87568ZM17.892 2.10563C18.0435 2.24993 18.1243 2.44095 18.1243 2.63534H19C19 2.19453 18.8159 1.77637 18.4958 1.47152L17.892 2.10563ZM18.1243 2.63534V6.20539H19V2.63534H18.1243Z"/>
    <path d="M16.6162 16.4865V16.0486C16.3744 16.0486 16.1784 16.2447 16.1784 16.4865H16.6162ZM16.6162 18.5622L16.3625 18.919C16.496 19.0139 16.6714 19.0264 16.817 18.9513C16.9626 18.8761 17.0541 18.726 17.0541 18.5622H16.6162ZM13.6973 16.4865L13.9511 16.1297C13.8769 16.077 13.7883 16.0486 13.6973 16.0486V16.4865ZM17.7838 16.0486H16.6162V16.9243H17.7838V16.0486ZM16.1784 16.4865V18.5622H17.0541V16.4865H16.1784ZM16.87 18.2054L13.9511 16.1297L13.4436 16.8433L16.3625 18.919L16.87 18.2054ZM13.6973 16.0486H11.5567V16.9243H13.6973V16.0486ZM11.2162 15.7081V11.5568H10.3406V15.7081H11.2162ZM11.5567 11.2162H17.7838V10.3405H11.5567V11.2162ZM18.1243 11.5568V15.7081H19V11.5568H18.1243ZM17.7838 11.2162C17.9719 11.2162 18.1243 11.3687 18.1243 11.5568H19C19 10.8851 18.4555 10.3405 17.7838 10.3405V11.2162ZM11.5567 16.0486C11.3687 16.0486 11.2162 15.8962 11.2162 15.7081H10.3406C10.3406 16.3798 10.885 16.9243 11.5567 16.9243V16.0486ZM11.2162 11.5568C11.2162 11.3687 11.3687 11.2162 11.5567 11.2162V10.3405C10.885 10.3405 10.3406 10.8851 10.3406 11.5568H11.2162ZM17.7838 16.9243C18.4555 16.9243 19 16.3798 19 15.7081H18.1243C18.1243 15.8962 17.9719 16.0486 17.7838 16.0486V16.9243Z"/>
  </mask>
  <path d="M7.97926 15.5654C8.17599 15.4248 8.22158 15.1514 8.08101 14.9547C7.94049 14.7579 7.66705 14.7123 7.47025 14.8528L7.97926 15.5654ZM5.20999 17.0054H4.77215C4.77215 17.1694 4.86381 17.3196 5.00964 17.3947C5.15547 17.4697 5.33101 17.457 5.46448 17.3617L5.20999 17.0054ZM5.20999 13.4129H5.64782C5.64782 13.171 5.4518 12.9751 5.20999 12.9751V13.4129ZM18.1243 6.20539C18.1243 6.4472 18.3204 6.64323 18.5622 6.64323C18.804 6.64323 19 6.4472 19 6.20539H18.1243ZM7.47025 14.8528L4.9555 16.6491L5.46448 17.3617L7.97926 15.5654L7.47025 14.8528ZM5.64782 17.0054V13.4129H4.77215V17.0054H5.64782ZM5.20999 12.9751H2.69522V13.8507H5.20999V12.9751ZM2.69522 12.9751C2.47116 12.9751 2.26031 12.8901 2.10808 12.745L1.50416 13.3792C1.82353 13.6834 2.25232 13.8507 2.69522 13.8507V12.9751ZM2.10808 12.745C1.95656 12.6008 1.87568 12.4098 1.87568 12.2154H1C1 12.6562 1.18406 13.0743 1.50416 13.3792L2.10808 12.745ZM1.87568 12.2154V2.63534H1V12.2154H1.87568ZM1.87568 2.63534C1.87568 2.44095 1.95656 2.24993 2.10808 2.10563L1.50416 1.47152C1.18406 1.77637 1 2.19454 1 2.63534H1.87568ZM2.10808 2.10563C2.26031 1.96065 2.47116 1.87568 2.69522 1.87568V1C2.25232 1 1.82353 1.16736 1.50416 1.47152L2.10808 2.10563ZM2.69522 1.87568H17.3048V1H2.69522V1.87568ZM17.3048 1.87568C17.5289 1.87568 17.7397 1.96065 17.892 2.10563L18.4958 1.47152C18.1765 1.16736 17.7477 1 17.3048 1V1.87568ZM17.892 2.10563C18.0435 2.24993 18.1243 2.44095 18.1243 2.63534H19C19 2.19453 18.8159 1.77637 18.4958 1.47152L17.892 2.10563ZM18.1243 2.63534V6.20539H19V2.63534H18.1243Z" fill="#3A5E66"/>
  <path d="M16.6162 16.4865V16.0486C16.3744 16.0486 16.1784 16.2447 16.1784 16.4865H16.6162ZM16.6162 18.5622L16.3625 18.919C16.496 19.0139 16.6714 19.0264 16.817 18.9513C16.9626 18.8761 17.0541 18.726 17.0541 18.5622H16.6162ZM13.6973 16.4865L13.9511 16.1297C13.8769 16.077 13.7883 16.0486 13.6973 16.0486V16.4865ZM17.7838 16.0486H16.6162V16.9243H17.7838V16.0486ZM16.1784 16.4865V18.5622H17.0541V16.4865H16.1784ZM16.87 18.2054L13.9511 16.1297L13.4436 16.8433L16.3625 18.919L16.87 18.2054ZM13.6973 16.0486H11.5567V16.9243H13.6973V16.0486ZM11.2162 15.7081V11.5568H10.3406V15.7081H11.2162ZM11.5567 11.2162H17.7838V10.3405H11.5567V11.2162ZM18.1243 11.5568V15.7081H19V11.5568H18.1243ZM17.7838 11.2162C17.9719 11.2162 18.1243 11.3687 18.1243 11.5568H19C19 10.8851 18.4555 10.3405 17.7838 10.3405V11.2162ZM11.5567 16.0486C11.3687 16.0486 11.2162 15.8962 11.2162 15.7081H10.3406C10.3406 16.3798 10.885 16.9243 11.5567 16.9243V16.0486ZM11.2162 11.5568C11.2162 11.3687 11.3687 11.2162 11.5567 11.2162V10.3405C10.885 10.3405 10.3406 10.8851 10.3406 11.5568H11.2162ZM17.7838 16.9243C18.4555 16.9243 19 16.3798 19 15.7081H18.1243C18.1243 15.8962 17.9719 16.0486 17.7838 16.0486V16.9243Z" fill="#3A5E66"/>
  <path d="M7.26682 14.9982L7.77583 15.7107L8.18269 15.4201L7.67368 14.7075L7.26682 14.9982ZM2.44522 13.4129V13.8507H2.94522V13.4129H2.44522ZM1.43784 11.9654H1V12.4654H1.43784V11.9654ZM1.43784 2.38534H1V2.88534H1.43784V2.38534ZM2.94522 1.43784V1H2.44522V1.43784H2.94522ZM17.5548 1.43784V1H17.0548V1.43784H17.5548ZM19 5.95539H18.1243V6.45539H19V5.95539ZM2.44522 12.9751V13.8507H2.94522V12.9751H2.44522ZM1.92704 12.5726L1.32312 13.2068L1.6852 13.5516L2.28912 12.9175L1.92704 12.5726ZM1.87568 11.9654H1V12.4654H1.87568V11.9654ZM1.87568 2.38534H1V2.88534H1.87568V2.38534ZM2.28911 1.93322L1.68519 1.29911L1.32312 1.64394L1.92704 2.27805L2.28911 1.93322ZM2.94522 1.87568V1H2.44522V1.87568H2.94522ZM17.5548 1.87568V1H17.0548V1.87568H17.5548ZM18.073 2.27804L18.6769 1.64393L18.3148 1.29912L17.7109 1.93323L18.073 2.27804ZM18.1243 2.88534H19V2.38534H18.1243V2.88534ZM18.0338 16.9243V16.0486H17.5338V16.9243H18.0338ZM11.3067 16.0486V16.9243H11.8067V16.0486H11.3067ZM11.2162 11.3068H10.3406V11.8068H11.2162V11.3068ZM10.3406 15.9581H11.2162V15.4581H10.3406V15.9581ZM18.0338 11.2162V10.3405H17.5338V11.2162H18.0338ZM11.3067 10.3405V11.2162H11.8067V10.3405H11.3067ZM18.1243 15.9581H19V15.4581H18.1243V15.9581ZM19 11.3068H18.1243V11.8068H19V11.3068ZM7.97926 15.5654L8.26987 15.9723L8.26994 15.9722L7.97926 15.5654ZM8.08101 14.9547L7.67409 15.2452L7.67419 15.2453L8.08101 14.9547ZM7.47025 14.8528L7.76087 15.2597L7.76088 15.2597L7.47025 14.8528ZM5.20999 17.0054L5.61685 16.7148L5.4673 16.5054H5.20999V17.0054ZM5.00964 17.3947L4.78078 17.8392L4.78092 17.8393L5.00964 17.3947ZM5.20999 13.4129H4.70999V13.9129H5.20999V13.4129ZM4.9555 16.6491L4.66488 16.2422L4.25801 16.5328L4.54863 16.9397L4.9555 16.6491ZM5.64782 17.0054V17.5054H6.14782V17.0054H5.64782ZM4.77215 13.4129V12.9129H4.27215V13.4129H4.77215ZM5.20999 13.8507V14.3507H5.70999V13.8507H5.20999ZM2.10808 12.745L2.45294 12.383L2.45284 12.3829L2.10808 12.745ZM1.50416 13.3792L1.1593 13.7412L1.15934 13.7413L1.50416 13.3792ZM2.10808 2.10563L2.4529 2.46771L2.45291 2.4677L2.10808 2.10563ZM1.50416 1.47152L1.84898 1.83359L1.84899 1.83359L1.50416 1.47152ZM17.892 2.10563L18.2368 1.74358L18.2368 1.74355L17.892 2.10563ZM18.4958 1.47152L18.151 1.83357L18.151 1.83359L18.4958 1.47152ZM16.6162 16.4865V16.9865H17.1162V16.4865H16.6162ZM16.6162 18.5622V18.0622H16.3582L16.2087 18.2724L16.6162 18.5622ZM16.3625 18.919L16.0728 19.3265L16.0728 19.3265L16.3625 18.919ZM13.6973 16.4865H13.1973V18.0522L14.1048 16.7763L13.6973 16.4865ZM13.9511 16.1297L14.2408 15.7222L14.2408 15.7222L13.9511 16.1297ZM16.6162 16.9243H16.1162V17.4243H16.6162V16.9243ZM16.1784 18.5622H15.6784V19.0622H16.1784V18.5622ZM17.0541 16.4865H17.5541V15.9865H17.0541V16.4865ZM16.87 18.2054L17.2775 18.4951L17.5673 18.0877L17.1598 17.7979L16.87 18.2054ZM13.4436 16.8433L13.0361 16.5535L12.7464 16.961L13.1538 17.2508L13.4436 16.8433ZM13.6973 16.9243V17.4243H14.1973V16.9243H13.6973ZM8.26994 15.9722C8.69125 15.6712 8.78903 15.0855 8.48783 14.664L7.67419 15.2453C7.65414 15.2173 7.66074 15.1785 7.68857 15.1586L8.26994 15.9722ZM8.48793 14.6641C8.1869 14.2425 7.60113 14.1449 7.17962 14.446L7.76088 15.2597C7.73297 15.2797 7.69408 15.2732 7.67409 15.2452L8.48793 14.6641ZM5.20999 16.5054H4.77215V17.5054H5.20999V16.5054ZM4.27215 17.0054C4.27215 17.3567 4.46849 17.6785 4.78078 17.8392L5.2385 16.9501C5.25913 16.9608 5.27215 16.9821 5.27215 17.0054H4.27215ZM4.78092 17.8393C5.09321 18 5.46919 17.9727 5.75509 17.7685L5.17386 16.9548C5.19283 16.9412 5.21772 16.9395 5.23836 16.9501L4.78092 17.8393ZM5.87134 17.071L5.61685 16.7148L4.80312 17.296L5.05761 17.6523L5.87134 17.071ZM5.20999 13.9129H5.64782V12.9129H5.20999V13.9129ZM6.14782 13.4129C6.14782 12.8948 5.7279 12.4751 5.20999 12.4751V13.4751C5.17569 13.4751 5.14782 13.4472 5.14782 13.4129H6.14782ZM4.70999 12.9751V13.4129H5.70999V12.9751H4.70999ZM17.6243 6.20539C17.6243 6.72335 18.0442 7.14323 18.5622 7.14323V6.14323C18.5965 6.14323 18.6243 6.17106 18.6243 6.20539H17.6243ZM18.5622 7.14323C19.0802 7.14323 19.5 6.72331 19.5 6.20539H18.5C18.5 6.1711 18.5278 6.14323 18.5622 6.14323V7.14323ZM7.17964 14.446L4.66488 16.2422L5.24612 17.056L7.76087 15.2597L7.17964 14.446ZM4.54863 16.9397L5.05761 17.6523L5.87134 17.071L5.36236 16.3585L4.54863 16.9397ZM5.75509 17.7685L8.26987 15.9723L7.68864 15.1585L5.17386 16.9548L5.75509 17.7685ZM6.14782 17.0054V13.4129H5.14782V17.0054H6.14782ZM5.64782 12.9129H4.77215V13.9129H5.64782V12.9129ZM4.27215 13.4129V17.0054H5.27215V13.4129H4.27215ZM4.77215 17.5054H5.64782V16.5054H4.77215V17.5054ZM5.20999 12.4751H2.69522V13.4751H5.20999V12.4751ZM2.69522 14.3507H5.20999V13.3507H2.69522V14.3507ZM5.70999 13.8507V12.9751H4.70999V13.8507H5.70999ZM2.69522 12.4751C2.59626 12.4751 2.50983 12.4372 2.45294 12.383L1.76322 13.1071C2.01079 13.3429 2.34606 13.4751 2.69522 13.4751V12.4751ZM1.15934 13.7413C1.57417 14.1363 2.12742 14.3507 2.69522 14.3507V13.3507C2.37723 13.3507 2.07289 13.2304 1.84898 13.0171L1.15934 13.7413ZM2.45284 12.3829C2.39777 12.3305 2.37568 12.2692 2.37568 12.2154H1.37568C1.37568 12.5503 1.51536 12.8711 1.76331 13.1072L2.45284 12.3829ZM0.5 12.2154C0.5 12.797 0.743042 13.3447 1.1593 13.7412L1.84902 13.0172C1.62508 12.8039 1.5 12.5154 1.5 12.2154H0.5ZM2.37568 12.2154V2.63534H1.37568V12.2154H2.37568ZM0.5 2.63534V12.2154H1.5V2.63534H0.5ZM2.37568 2.63534C2.37568 2.58149 2.39776 2.52022 2.4529 2.46771L1.76326 1.74356C1.51536 1.97964 1.37568 2.3004 1.37568 2.63534H2.37568ZM1.15933 1.10945C0.743024 1.50593 0.5 2.05377 0.5 2.63534H1.5C1.5 2.3353 1.6251 2.04682 1.84898 1.83359L1.15933 1.10945ZM2.45291 2.4677C2.50978 2.41353 2.59621 2.37568 2.69522 2.37568V1.37568C2.3461 1.37568 2.01084 1.50776 1.76324 1.74357L2.45291 2.4677ZM2.69522 0.5C2.12742 0.5 1.57417 0.714371 1.15933 1.10945L1.84899 1.83359C2.07289 1.62035 2.37722 1.5 2.69522 1.5V0.5ZM2.69522 2.37568H17.3048V1.37568H2.69522V2.37568ZM17.3048 0.5H2.69522V1.5H17.3048V0.5ZM17.3048 2.37568C17.4038 2.37568 17.4903 2.41354 17.5472 2.46772L18.2368 1.74355C17.9892 1.50776 17.6539 1.37568 17.3048 1.37568V2.37568ZM18.8407 1.10948C18.4259 0.714367 17.8726 0.5 17.3048 0.5V1.5C17.6228 1.5 17.9271 1.62036 18.151 1.83357L18.8407 1.10948ZM17.5471 2.46768C17.6022 2.52016 17.6243 2.58144 17.6243 2.63534H18.6243C18.6243 2.30045 18.4847 1.97969 18.2368 1.74358L17.5471 2.46768ZM19.5 2.63534C19.5 2.05376 19.257 1.50593 18.8407 1.10946L18.151 1.83359C18.3749 2.04682 18.5 2.3353 18.5 2.63534H19.5ZM17.6243 2.63534V6.20539H18.6243V2.63534H17.6243ZM19.5 6.20539V2.63534H18.5V6.20539H19.5ZM17.1162 16.4865V16.0486H16.1162V16.4865H17.1162ZM16.6162 15.5486C16.0983 15.5486 15.6784 15.9685 15.6784 16.4865H16.6784C16.6784 16.5208 16.6506 16.5486 16.6162 16.5486V15.5486ZM16.1784 16.9865H16.6162V15.9865H16.1784V16.9865ZM16.2087 18.2724L15.955 18.6292L16.77 19.2087L17.0237 18.8519L16.2087 18.2724ZM16.0728 19.3265C16.3587 19.5298 16.7343 19.5566 17.0463 19.3956L16.5877 18.5069C16.6085 18.4962 16.6334 18.4981 16.6522 18.5115L16.0728 19.3265ZM17.0463 19.3956C17.3581 19.2347 17.5541 18.9131 17.5541 18.5622H16.5541C16.5541 18.5389 16.5671 18.5176 16.5877 18.5069L17.0463 19.3956ZM17.0541 18.0622H16.6162V19.0622H17.0541V18.0622ZM14.1048 16.7763L14.3585 16.4195L13.5436 15.8399L13.2899 16.1967L14.1048 16.7763ZM14.2408 15.7222C14.0821 15.6093 13.8921 15.5486 13.6973 15.5486V16.5486C13.6844 16.5486 13.6718 16.5446 13.6613 16.5372L14.2408 15.7222ZM13.1973 16.0486V16.4865H14.1973V16.0486H13.1973ZM17.7838 15.5486H16.6162V16.5486H17.7838V15.5486ZM16.1162 16.0486V16.9243H17.1162V16.0486H16.1162ZM16.6162 17.4243H17.7838V16.4243H16.6162V17.4243ZM15.6784 16.4865V18.5622H16.6784V16.4865H15.6784ZM16.1784 19.0622H17.0541V18.0622H16.1784V19.0622ZM17.5541 18.5622V16.4865H16.5541V18.5622H17.5541ZM17.0541 15.9865H16.1784V16.9865H17.0541V15.9865ZM17.1598 17.7979L14.2408 15.7222L13.6613 16.5371L16.5802 18.6128L17.1598 17.7979ZM13.5436 15.8399L13.0361 16.5535L13.8511 17.1331L14.3586 16.4194L13.5436 15.8399ZM13.1538 17.2508L16.0728 19.3265L16.6523 18.5115L13.7334 16.4358L13.1538 17.2508ZM16.77 19.2088L17.2775 18.4951L16.4625 17.9156L15.955 18.6292L16.77 19.2088ZM13.6973 15.5486H11.5567V16.5486H13.6973V15.5486ZM11.5567 17.4243H13.6973V16.4243H11.5567V17.4243ZM14.1973 16.9243V16.0486H13.1973V16.9243H14.1973ZM11.7162 15.7081V11.5568H10.7162V15.7081H11.7162ZM9.84055 11.5568V15.7081H10.8406V11.5568H9.84055ZM11.5567 11.7162H17.7838V10.7162H11.5567V11.7162ZM17.7838 9.84053H11.5567V10.8405H17.7838V9.84053ZM17.6243 11.5568V15.7081H18.6243V11.5568H17.6243ZM19.5 15.7081V11.5568H18.5V15.7081H19.5ZM17.7838 11.7162C17.6956 11.7162 17.6243 11.6447 17.6243 11.5568H18.6243C18.6243 11.0927 18.2481 10.7162 17.7838 10.7162V11.7162ZM19.5 11.5568C19.5 10.609 18.7317 9.84053 17.7838 9.84053V10.8405C18.1793 10.8405 18.5 11.1612 18.5 11.5568H19.5ZM11.5567 15.5486C11.6449 15.5486 11.7162 15.62 11.7162 15.7081H10.7162C10.7162 16.1723 11.0926 16.5486 11.5567 16.5486V15.5486ZM9.84055 15.7081C9.84055 16.656 10.6089 17.4243 11.5567 17.4243V16.4243C11.1612 16.4243 10.8406 16.1037 10.8406 15.7081H9.84055ZM11.7162 11.5568C11.7162 11.6448 11.6449 11.7162 11.5567 11.7162V10.7162C11.0925 10.7162 10.7162 11.0926 10.7162 11.5568H11.7162ZM11.5567 9.84053C10.6089 9.84053 9.84055 10.609 9.84055 11.5568H10.8406C10.8406 11.1612 11.1612 10.8405 11.5567 10.8405V9.84053ZM17.7838 17.4243C18.7316 17.4243 19.5 16.656 19.5 15.7081H18.5C18.5 16.1037 18.1794 16.4243 17.7838 16.4243V17.4243ZM17.6243 15.7081C17.6243 15.6201 17.6957 15.5486 17.7838 15.5486V16.5486C18.2481 16.5486 18.6243 16.1722 18.6243 15.7081H17.6243Z" fill="#1F3446" mask="url(#path-1-outside-1_397_1450)"/>
</svg>