<svg width="22" height="20" viewBox="0 0 22 20" fill="none" xmlns="http://www.w3.org/2000/svg">
<path fill-rule="evenodd" clip-rule="evenodd" d="M7.79167 0H21.5417C21.7947 0 22 0.2112 22 0.471429V10.8429C22 11.1031 21.7947 11.3143 21.5417 11.3143H20.1667V14.6143C20.1667 14.8047 20.0548 14.9773 19.8834 15.0499C19.8266 15.0735 19.767 15.0857 19.7083 15.0857C19.5892 15.0857 19.4718 15.0376 19.3848 14.9481L15.8519 11.3143H14.6667V15.5571C14.6667 15.8174 14.4613 16.0286 14.2083 16.0286H6.14808L2.61617 19.6623C2.52817 19.7519 2.41083 19.8 2.29167 19.8C2.233 19.8 2.17342 19.7877 2.11658 19.7642C1.94517 19.6916 1.83333 19.519 1.83333 19.3286V16.0286H0.458333C0.205333 16.0286 0 15.8174 0 15.5571V5.18571C0 4.92549 0.205333 4.71429 0.458333 4.71429H7.33333V0.471429C7.33333 0.2112 7.53867 0 7.79167 0ZM18.9815 6.32384C19.3395 5.95563 19.3395 5.35865 18.9815 4.99044C18.6235 4.62223 18.0431 4.62223 17.6852 4.99044C17.3272 5.35864 17.3272 5.95563 17.6852 6.32384C18.0431 6.69205 18.6235 6.69205 18.9815 6.32384ZM15.3148 4.99044C15.6728 5.35865 15.6728 5.95563 15.3148 6.32384C14.9569 6.69205 14.3765 6.69205 14.0185 6.32384C13.6605 5.95563 13.6605 5.35864 14.0185 4.99044C14.3765 4.62223 14.9569 4.62223 15.3148 4.99044ZM5.95833 15.0857H13.75V11.3143H7.79167C7.53867 11.3143 7.33333 11.1031 7.33333 10.8429V5.65714H0.916667V15.0857H2.29167C2.54467 15.0857 2.75 15.2969 2.75 15.5571V18.1905L5.63383 15.2234C5.72 15.1357 5.83642 15.0857 5.95833 15.0857ZM11.6482 4.99044C12.0062 5.35865 12.0062 5.95563 11.6482 6.32384C11.2902 6.69205 10.7098 6.69205 10.3518 6.32384C9.99384 5.95563 9.99384 5.35864 10.3518 4.99044C10.7098 4.62223 11.2902 4.62223 11.6482 4.99044ZM19.7083 10.3714H21.0833V0.942857H8.25V10.3714H16.0417C16.1636 10.3714 16.28 10.4214 16.3662 10.51L19.25 13.4763V10.8429C19.25 10.5826 19.4553 10.3714 19.7083 10.3714Z" fill="#2BB673"/>
</svg>
