<svg width="24" height="24" viewBox="0 0 24 24" fill="none" xmlns="http://www.w3.org/2000/svg"><path fill-rule="evenodd" clip-rule="evenodd" d="M20.914 7.969A49 49 0 0121 10.68c0 2.172-.068 4.137-.203 5.894-.122 1.588-1.484 2.816-3.123 2.816H9.816c-1.73 0-3.132-1.362-3.132-3.043V4.407c0-1.114.867-2.048 2.007-2.163A51.583 51.583 0 0113.842 2h1.005c.328 0 .644.117.89.328a45.826 45.826 0 012.535 2.35 43.84 43.84 0 012.335 2.529c.184.215.291.482.307.762zm-.996-.207c.062.072.098.16.103.254l.004.075-3.052-.004c-1.234-.001-2.235-.974-2.235-2.173l-.001-3.044h.11c.11 0 .215.038.296.109.165.141.327.283.489.426l.001 2.508c0 .72.6 1.304 1.341 1.304l2.474.003c.158.18.315.36.47.542zm-.47-.542l.858.001c.247 0 .447.195.447.436 0 .24-.201.434-.448.434h-.28c.053.973.08 1.837.08 2.59 0 2.152-.067 4.095-.2 5.83-.088 1.134-1.06 2.01-2.23 2.01H9.815c-1.236 0-2.237-.973-2.237-2.173V4.407c0-.669.52-1.229 1.204-1.298 1.59-.16 3.277-.24 5.06-.24h.894v-.196c0-.24.2-.435.447-.435s.448.195.448.435v.732a42.915 42.915 0 013.817 3.816zm-2.922 14.345c0-.24-.2-.435-.447-.435H8.92c-2.224 0-4.026-1.752-4.026-3.913V6.405c0-.24-.2-.435-.448-.435A.441.441 0 004 6.405v10.812C4 19.86 6.203 22 8.921 22h7.158a.441.441 0 00.447-.435z" fill="#3A3A3A"/><path fill-rule="evenodd" clip-rule="evenodd" d="M17.945 12.262l1.19 1.7a.357.357 0 11-.585.41l-1.04-1.487-1.041 1.486a.357.357 0 11-.585-.41l1.19-1.7-1.19-1.699a.357.357 0 11.585-.41l1.04 1.487 1.041-1.487a.357.357 0 11.585.41l-1.19 1.7zM11.605 10H8.557a.357.357 0 000 .714h1.167v3.453a.357.357 0 00.714 0v-3.453h1.167a.357.357 0 100-.714zm2.709.526l1.061 3.538a.357.357 0 11-.684.205l-.152-.507h-2.06l-.151.507a.357.357 0 01-.684-.205l1.06-3.538a.734.734 0 01.708-.526h.195c.328 0 .613.211.707.526zm-.925.205l-.695 2.317h1.63l-.694-2.317a.024.024 0 00-.023-.017h-.195c-.01 0-.02.007-.023.017z" fill="#3A3A3A"/></svg>
