<svg width="15" height="15" viewBox="0 0 15 15" fill="none" xmlns="http://www.w3.org/2000/svg">
    <path fill-rule="evenodd" clip-rule="evenodd" d="M8.93073 0.540019C8.09863 -0.180332 6.90137 -0.180332 6.06927 0.540019C5.40746 1.11304 4.45696 1.98006 3.2188 3.21855C1.9803 4.45672 1.11362 5.40688 0.540263 6.0687C-0.180088 6.90079 -0.180088 8.09839 0.540263 8.93048C1.11329 9.5923 1.9803 10.5425 3.2188 11.7806C4.45696 13.0191 5.40712 13.8861 6.06894 14.4595C6.90104 15.1798 8.09863 15.1798 8.93073 14.4595C9.59254 13.8861 10.543 13.0195 11.7812 11.781C13.0197 10.5425 13.8864 9.59263 14.4597 8.93048C15.1801 8.09839 15.1801 6.90079 14.4597 6.0687C13.8864 5.40688 13.0197 4.45672 11.7812 3.21855C10.543 1.98006 9.59254 1.11337 8.93073 0.540019ZM6.21627 4.55217C6.18567 4.12116 6.37923 3.69679 6.79827 3.5917C7.02798 3.5352 7.26378 3.50727 7.50033 3.50856C7.7777 3.50856 8.01183 3.54381 8.20206 3.5917C8.62143 3.69679 8.81499 4.12082 8.78406 4.55217C8.72087 5.44878 8.59982 7.00589 8.46878 7.87889C8.42555 8.16656 8.25261 8.414 7.96593 8.46222C7.84321 8.48284 7.6899 8.49747 7.50033 8.49747C7.31077 8.49747 7.15745 8.48284 7.03473 8.46222C6.74805 8.414 6.57478 8.16623 6.53188 7.87889C6.40085 7.00589 6.27979 5.44878 6.21627 4.55217ZM7.5 11.8232C7.65286 11.8232 7.80422 11.7931 7.94544 11.7346C8.08667 11.6761 8.21499 11.5904 8.32307 11.4823C8.43116 11.3742 8.5169 11.2459 8.5754 11.1046C8.6339 10.9634 8.664 10.8121 8.664 10.6592C8.664 10.5063 8.6339 10.355 8.5754 10.2137C8.5169 10.0725 8.43116 9.9442 8.32307 9.83612C8.21499 9.72803 8.08667 9.64229 7.94544 9.58379C7.80422 9.5253 7.65286 9.49519 7.5 9.49519C7.19129 9.49519 6.89522 9.61782 6.67693 9.83612C6.45863 10.0544 6.336 10.3505 6.336 10.6592C6.336 10.9679 6.45863 11.264 6.67693 11.4823C6.89522 11.7006 7.19129 11.8232 7.5 11.8232Z" fill="#2BAB72"/>
</svg>
