<svg width="24" height="24" viewBox="0 0 24 24" fill="none" xmlns="http://www.w3.org/2000/svg"><path fill-rule="evenodd" clip-rule="evenodd" d="M13.791 2.574l7.652 6.787c.233.2.3.532.2.798-.1.3-.366.466-.699.466H19.68v9.315h.332c.1 0 .167.033.233.1.067.066.1.133.1.233v1.33c0 .233-.166.366-.332.366H4.708c-.2 0-.333-.133-.333-.332v-1.331c0-.2.133-.333.333-.333h.333v-9.315H3.778c-.3 0-.6-.2-.699-.466a.783.783 0 01.2-.831l1.763-1.53V4.003h-.333c-.2 0-.333-.133-.333-.332V2.34c0-.2.133-.333.333-.333h3.992c.2 0 .333.133.333.333v1.33c0 .2-.133.333-.333.333H8.37v.899l2.561-2.33a2.07 2.07 0 012.861 0zm7.153 7.419s.033 0 .067-.034c.033-.033 0-.066-.034-.066l-7.651-6.787c-.566-.532-1.398-.532-1.93 0L8.269 5.967c-.1.1-.233.1-.366.067a.46.46 0 01-.2-.366V3.672c0-.2.133-.333.333-.333h.333v-.665H5.042v.665h.332c.2 0 .333.133.333.333v4.325c0 .1-.033.2-.1.266L3.744 9.86c-.033.033-.033.066-.033.1 0 .033.033.033.067.033h1.596c.2 0 .333.133.333.332v9.98c0 .2-.133.334-.333.334h-.332v.665H19.68v-.665h-.333c-.2 0-.332-.133-.332-.333v-9.98c0-.2.133-.333.332-.333h1.597zm-7.918 1.33h1.33a2.314 2.314 0 012.33 2.33v2.328c0 .2-.133.333-.333.333h-1.996c-.2 0-.333-.133-.333-.333v-1.863a.143.143 0 00-.133-.133H8.036c-.2 0-.333-.133-.333-.333v-1.996c0-.2.133-.333.333-.333h4.325v-1.33h-.998c-.2 0-.333-.133-.333-.333s.133-.333.333-.333h2.661c.2 0 .333.133.333.333s-.133.333-.333.333h-.998v1.33zm1.664 4.325h1.33v-1.996c0-.931-.732-1.663-1.663-1.663H8.369v1.33h5.522a.81.81 0 01.799.799v1.53zm.898 1.43a.322.322 0 00-.466 0l-.665.666a1.265 1.265 0 00.898 2.163c.333 0 .665-.1.898-.366.5-.5.5-1.298 0-1.797l-.665-.665zm.2 1.997a.623.623 0 01-.866 0 .623.623 0 010-.865l.433-.433.432.433a.623.623 0 010 .865z" fill="#3A3A3A"/></svg>
