<svg width="20" height="20" viewBox="0 0 20 20" fill="none" xmlns="http://www.w3.org/2000/svg">
<path d="M2.37779 16.0203L2.45988 15.7756L2.30795 15.5669C1.16951 14.0035 0.5 12.0785 0.5 10C0.5 4.76102 4.76001 0.5 9.9975 0.5H10.0025C15.2399 0.5 19.5 4.76223 19.5 10C19.5 15.2378 15.2399 19.5 10.0025 19.5C8.06975 19.5 6.27911 18.9255 4.77738 17.9307L4.57744 17.7982L4.349 17.8712L1.44548 18.7994L2.37779 16.0203Z" fill="white" stroke="#2BB673"/>
<path d="M15.8213 14.1212C15.58 14.8025 14.6225 15.3675 13.8588 15.5325C13.3363 15.6437 12.6538 15.7325 10.3563 14.78C7.4175 13.5625 5.525 10.5763 5.3775 10.3825C5.23625 10.1888 4.19 8.80126 4.19 7.36626C4.19 5.93126 4.91875 5.23251 5.2125 4.93251C5.45375 4.68626 5.8525 4.57376 6.235 4.57376C6.35875 4.57376 6.47 4.58001 6.57 4.58501C6.86375 4.59751 7.01125 4.61501 7.205 5.07876C7.44625 5.66001 8.03375 7.09501 8.10375 7.24251C8.175 7.39001 8.24625 7.59001 8.14625 7.78376C8.0525 7.98376 7.97 8.07251 7.8225 8.24251C7.675 8.41251 7.535 8.54251 7.3875 8.72501C7.2525 8.88376 7.1 9.05376 7.27 9.34751C7.44 9.635 8.0275 10.5938 8.8925 11.3638C10.0088 12.3575 10.9138 12.675 11.2375 12.81C11.4788 12.91 11.7663 12.8863 11.9425 12.6988C12.1663 12.4575 12.4425 12.0575 12.7238 11.6638C12.9238 11.3813 13.1763 11.3463 13.4413 11.4463C13.7113 11.54 15.14 12.2463 15.4338 12.3925C15.7275 12.54 15.9213 12.61 15.9925 12.7338C16.0625 12.8575 16.0625 13.4387 15.8213 14.1212Z" fill="white" stroke="#2BB673"/>
</svg>
