<?xml version="1.0" encoding="UTF-8"?>
<svg xmlns="http://www.w3.org/2000/svg" xmlns:xlink="http://www.w3.org/1999/xlink" width="40px" height="30px" viewBox="0 0 40 30" version="1.1">
<defs>
<radialGradient id="radial0" gradientUnits="userSpaceOnUse" cx="0" cy="0" fx="0" fy="0" r="1" gradientTransform="matrix(30.73176,28.4972,-28.41622,30.64443,24.025,70.69)">
<stop offset="0" style="stop-color:rgb(91.372549%,87.843137%,57.647059%);stop-opacity:1;"/>
<stop offset="1" style="stop-color:rgb(87.843137%,45.490196%,0%);stop-opacity:1;"/>
</radialGradient>
<radialGradient id="radial1" gradientUnits="userSpaceOnUse" cx="0" cy="0" fx="0" fy="0" r="1" gradientTransform="matrix(8.24454,23.66646,-14.70459,5.12255,35.863,73.181)">
<stop offset="0" style="stop-color:rgb(91.372549%,87.843137%,57.647059%);stop-opacity:1;"/>
<stop offset="1" style="stop-color:rgb(87.843137%,45.490196%,0%);stop-opacity:1;"/>
</radialGradient>
</defs>
<g id="surface1">
<path style="fill-rule:nonzero;fill:url(#radial0);stroke-width:1;stroke-linecap:butt;stroke-linejoin:miter;stroke:rgb(3.921569%,4.313725%,3.529412%);stroke-opacity:1;stroke-miterlimit:4;" d="M 55.558496 97.64974 C 55.558496 98.909115 54.61748 99.930339 53.454102 99.930339 L 26.129199 99.930339 C 24.969043 99.930339 24.024805 98.909115 24.024805 97.64974 L 24.024805 72.970833 C 24.024805 71.711458 24.969043 70.690234 26.129199 70.690234 L 53.454102 70.690234 C 54.61748 70.690234 55.558496 71.711458 55.558496 72.970833 Z M 55.558496 97.64974 " transform="matrix(1.212121,0,0,0.967742,-27.878788,-67.741935)"/>
<path style="fill-rule:nonzero;fill:url(#radial1);stroke-width:1;stroke-linecap:butt;stroke-linejoin:miter;stroke:rgb(90.980392%,85.490196%,63.529412%);stroke-opacity:1;stroke-miterlimit:4;" d="M 44.324316 80.684505 C 44.324316 76.539062 42.429395 73.180729 40.092969 73.180729 C 37.756543 73.180729 35.861621 76.539062 35.861621 80.684505 C 35.861621 82.436328 36.87998 83.792578 36.767187 85.322396 C 36.654395 86.852214 35.861621 88.208464 35.861621 89.960286 C 35.861621 94.105729 37.756543 97.468099 40.092969 97.468099 C 42.429395 97.468099 44.324316 94.105729 44.324316 89.960286 C 44.324316 88.208464 43.41875 87.429427 43.41875 85.322396 C 43.41875 83.219401 44.324316 82.436328 44.324316 80.684505 Z M 44.324316 80.684505 " transform="matrix(1.212121,0,0,0.967742,-27.878788,-67.741935)"/>
<path style="fill:none;stroke-width:1;stroke-linecap:butt;stroke-linejoin:miter;stroke:rgb(90.980392%,85.490196%,63.529412%);stroke-opacity:1;stroke-miterlimit:4;" d="M 55.597168 80.640104 L 44.488672 80.640104 M 55.597168 90.105599 L 44.488672 90.105599 M 35.732715 80.640104 L 24.324512 80.640104 M 35.732715 90.105599 L 24.324512 90.105599 " transform="matrix(1.212121,0,0,0.967742,-27.878788,-67.741935)"/>
<path style="fill:none;stroke-width:1;stroke-linecap:butt;stroke-linejoin:miter;stroke:rgb(3.921569%,4.313725%,3.529412%);stroke-opacity:1;stroke-miterlimit:4;" d="M 44.024609 80.361589 C 44.024609 76.212109 42.129688 72.853776 39.793262 72.853776 C 37.456836 72.853776 35.558691 76.212109 35.558691 80.361589 C 35.558691 82.109375 36.580273 83.465625 36.46748 84.999479 C 36.354687 86.529297 35.558691 87.885547 35.558691 89.633333 C 35.558691 93.778776 37.456836 97.141146 39.793262 97.141146 C 42.129688 97.141146 44.024609 93.778776 44.024609 89.633333 C 44.024609 87.885547 43.119043 87.102474 43.119043 84.999479 C 43.119043 82.896484 44.024609 82.109375 44.024609 80.361589 Z M 44.024609 80.361589 " transform="matrix(1.212121,0,0,0.967742,-27.878788,-67.741935)"/>
<path style="fill:none;stroke-width:1;stroke-linecap:butt;stroke-linejoin:miter;stroke:rgb(3.921569%,4.313725%,3.529412%);stroke-opacity:1;stroke-miterlimit:4;" d="M 55.597168 80.309115 L 44.188965 80.309115 M 55.597168 89.778646 L 44.188965 89.778646 M 35.433008 80.309115 L 24.024805 80.309115 M 35.433008 89.778646 L 24.024805 89.778646 " transform="matrix(1.212121,0,0,0.967742,-27.878788,-67.741935)"/>
<path style="fill:none;stroke-width:1;stroke-linecap:butt;stroke-linejoin:miter;stroke:rgb(90.980392%,85.490196%,63.529412%);stroke-opacity:1;stroke-miterlimit:4;" d="M 25.68125 71.178646 L 53.006152 71.178646 C 54.166309 71.178646 55.110547 72.19987 55.110547 73.459245 L 55.110547 98.134115 " transform="matrix(1.212121,0,0,0.967742,-27.878788,-67.741935)"/>
<path style="fill:none;stroke-width:1;stroke-linecap:butt;stroke-linejoin:miter;stroke:rgb(3.921569%,4.313725%,3.529412%);stroke-opacity:1;stroke-miterlimit:4;" d="M 55.558496 97.64974 C 55.558496 98.909115 54.61748 99.930339 53.454102 99.930339 L 26.129199 99.930339 C 24.969043 99.930339 24.024805 98.909115 24.024805 97.64974 L 24.024805 72.970833 C 24.024805 71.711458 24.969043 70.690234 26.129199 70.690234 L 53.454102 70.690234 C 54.61748 70.690234 55.558496 71.711458 55.558496 72.970833 Z M 55.558496 97.64974 " transform="matrix(1.212121,0,0,0.967742,-27.878788,-67.741935)"/>
</g>
</svg>
