<svg
    xmlns="http://www.w3.org/2000/svg"
    width="18"
    height="20"
    fill="none"
    viewBox="0 0 18 20"
>
    <g transform="translate(-269, -75)">
        <path
            fill="#FEFEFE"
            fillRule="evenodd"
            d="M281.365 76.562a16.857 16.857 0 012.204 8.36c0 3.046-.802 5.893-2.204 8.357a1.048 1.048 0 00.389 1.427c.505.285 1.139.11 1.427-.393a18.935 18.935 0 002.478-9.391c0-3.412-.902-6.624-2.478-9.393a1.046 1.046 0 00-1.427-.392 1.05 1.05 0 00-.389 1.425m-3.784 1.995a12.56 12.56 0 011.714 6.365c0 2.327-.621 4.496-1.715 6.365a1.047 1.047 0 001.806 1.058c1.27-2.18 2-4.72 2-7.423 0-2.702-.73-5.243-2-7.422a1.045 1.045 0 10-1.805 1.057m-3.795 1.984a8.291 8.291 0 011.239 4.38 8.306 8.306 0 01-1.239 4.384 1.042 1.042 0 00.341 1.435c.491.3 1.137.147 1.439-.341a10.409 10.409 0 001.549-5.477c0-2.006-.567-3.885-1.549-5.478a1.046 1.046 0 00-1.78 1.097m-3.579 1.95c.251.342.454.718.587 1.127.139.409.214.843.214 1.304 0 .458-.075.893-.214 1.302a4.057 4.057 0 01-.587 1.13 1.042 1.042 0 00.216 1.462 1.047 1.047 0 001.461-.217 6.056 6.056 0 00.888-1.707 6.06 6.06 0 00.324-1.97 6.163 6.163 0 00-1.212-3.677 1.037 1.037 0 00-1.459-.213 1.04 1.04 0 00-.218 1.46"
            clipRule="evenodd"
        ></path>
    </g>
</svg>
