<svg
    xmlns="http://www.w3.org/2000/svg"
    width="51"
    height="32"
    fill="none"
    viewBox="0 0 51 32"
>
    <g transform="translate(-243, -16)">
        <path
            fill="#E01F26"
            fillRule="evenodd"
            d="M262.501 31.898c0-5.007 2.336-9.463 5.979-12.347a15.668 15.668 0 00-9.769-3.4c-8.695 0-15.744 7.051-15.744 15.747 0 8.695 7.049 15.744 15.744 15.744a15.68 15.68 0 009.769-3.399 15.705 15.705 0 01-5.979-12.345"
            clipRule="evenodd"
        ></path>
        <path
            fill="#E86224"
            fillRule="evenodd"
            d="M262.5 31.898c0 5.005 2.336 9.463 5.979 12.345 3.639-2.883 5.979-7.34 5.979-12.345 0-5.006-2.34-9.462-5.979-12.346-3.643 2.884-5.979 7.34-5.979 12.346"
            clipRule="evenodd"
        ></path>
        <path
            fill="#F39E1E"
            fillRule="evenodd"
            d="M278.245 16.151a15.668 15.668 0 00-9.766 3.4c3.64 2.884 5.979 7.34 5.979 12.347 0 5.004-2.339 9.462-5.979 12.345a15.68 15.68 0 009.766 3.4c8.696 0 15.745-7.05 15.745-15.745 0-8.696-7.049-15.747-15.745-15.747"
            clipRule="evenodd"
        ></path>
    </g>
</svg>
