<svg
    xmlns="http://www.w3.org/2000/svg"
    width="310"
    height="195"
    fill="none"
    viewBox="0 0 310 195"
>
    <mask
        id="a"
        width="310"
        height="195"
        x="0"
        y="0"
        maskUnits="userSpaceOnUse"
    >
        <rect width="310" height="195" fill="#fff" rx="4"></rect>
    </mask>
    <g mask="url(#a)">
        <path
            fill="#FFFFFE"
            fillRule="evenodd"
            d="M281.365 76.562a16.857 16.857 0 012.204 8.36c0 3.046-.802 5.893-2.204 8.357a1.048 1.048 0 00.389 1.427c.505.285 1.139.11 1.427-.393a18.935 18.935 0 002.478-9.391c0-3.412-.902-6.624-2.478-9.393a1.046 1.046 0 00-1.427-.392 1.05 1.05 0 00-.389 1.425m-3.784 1.995a12.56 12.56 0 011.714 6.365c0 2.327-.621 4.496-1.715 6.365a1.047 1.047 0 001.806 1.058c1.27-2.18 2-4.72 2-7.423 0-2.702-.73-5.243-2-7.422a1.045 1.045 0 10-1.805 1.057m-3.795 1.984a8.291 8.291 0 011.239 4.38 8.306 8.306 0 01-1.239 4.384 1.042 1.042 0 00.341 1.435c.491.3 1.137.147 1.439-.341a10.409 10.409 0 001.549-5.477c0-2.006-.567-3.885-1.549-5.478a1.046 1.046 0 00-1.78 1.097m-3.579 1.95c.251.342.454.718.587 1.127.139.409.214.843.214 1.304 0 .458-.075.893-.214 1.302a4.057 4.057 0 01-.587 1.13 1.042 1.042 0 00.216 1.462 1.047 1.047 0 001.461-.217 6.056 6.056 0 00.888-1.707 6.06 6.06 0 00.324-1.97 6.163 6.163 0 00-1.212-3.677 1.037 1.037 0 00-1.459-.213 1.04 1.04 0 00-.218 1.46"
            clipRule="evenodd"
        ></path>
        <path
            fill="url(#paint1_radial)"
            fillRule="evenodd"
            stroke="#0A0B09"
            strokeWidth="1.138"
            d="M55.56 97.648c0 1.263-.943 2.283-2.105 2.283H26.13c-1.162 0-2.105-1.02-2.105-2.283V72.972c0-1.26.943-2.283 2.105-2.283h27.325c1.162 0 2.105 1.022 2.105 2.283v24.676z"
            clipRule="evenodd"
        ></path>
        <path
            fill="url(#paint2_radial)"
            fillRule="evenodd"
            stroke="#E8DAA2"
            strokeWidth="1.138"
            d="M44.323 80.686c0-4.146-1.893-7.505-4.23-7.505-2.337 0-4.23 3.36-4.23 7.505 0 1.75 1.017 3.108.905 4.637-.112 1.53-.905 2.886-.905 4.637 0 4.147 1.893 7.507 4.23 7.507 2.337 0 4.23-3.36 4.23-7.507 0-1.751-.905-2.532-.905-4.636 0-2.105.905-2.888.905-4.638z"
            clipRule="evenodd"
        ></path>
        <path
            stroke="#E8DAA2"
            strokeWidth="1.138"
            d="M55.596 80.639H44.488m11.108 9.466H44.488m-8.755-9.466H24.326m11.407 9.466H24.326"
        ></path>
        <path
            stroke="#0A0B09"
            strokeWidth="1.138"
            d="M44.023 80.36c0-4.146-1.893-7.506-4.23-7.506-2.337 0-4.233 3.36-4.233 7.506 0 1.75 1.02 3.107.908 4.638-.112 1.53-.908 2.887-.908 4.637 0 4.145 1.896 7.506 4.233 7.506 2.337 0 4.23-3.361 4.23-7.506 0-1.75-.905-2.534-.905-4.637 0-2.103.905-2.887.905-4.638z"
            clipRule="evenodd"
        ></path>
        <path
            stroke="#0A0B09"
            strokeWidth="1.138"
            d="M55.596 80.311H44.188m11.408 9.466H44.188m-8.756-9.466H24.025m11.407 9.466H24.025"
        ></path>
        <path
            stroke="#E8DAA2"
            strokeWidth="1.138"
            d="M25.68 71.178h27.325c1.162 0 2.105 1.022 2.105 2.283v24.675"
        ></path>
        <path
            stroke="#0A0B09"
            strokeWidth="1.138"
            d="M55.56 97.648c0 1.263-.943 2.283-2.105 2.283H26.13c-1.162 0-2.105-1.02-2.105-2.283V72.972c0-1.26.943-2.283 2.105-2.283h27.325c1.162 0 2.105 1.022 2.105 2.283v24.676z"
            clipRule="evenodd"
        ></path>
        <mask
            id="b"
            width="26"
            height="30"
            x="16"
            y="16"
            maskUnits="userSpaceOnUse"
        >
            <path
                fill="#fff"
                fillRule="evenodd"
                d="M35.315 18.633a3.332 3.332 0 00-.175 2.982 3.34 3.34 0 01-3.125 4.366l-.053-.002c-.022 0-.042 0-.064.002a3.34 3.34 0 01-3.277-3.341c0-.358.057-.702.16-1.025a3.329 3.329 0 00-4.718-4.199 3.326 3.326 0 00-1.215 4.544 3.316 3.316 0 002.494 1.641 3.34 3.34 0 012.244 4.841c-.036.06-.07.12-.104.182a3.34 3.34 0 01-4.512 1.137 3.39 3.39 0 01-.837-.687 3.326 3.326 0 00-5.965 2.02 3.325 3.325 0 003.328 3.325 3.32 3.32 0 002.639-1.302c.233-.267.511-.502.835-.689a3.338 3.338 0 014.512 1.138c.034.061.068.123.104.182a3.34 3.34 0 01-1.276 4.466c-.309.18-.637.303-.968.375a3.325 3.325 0 00-1.279 6.183 3.326 3.326 0 004.544-1.217 3.313 3.313 0 00.174-2.979 3.341 3.341 0 013.117-4.37 3.342 3.342 0 013.404 3.339c0 .361-.056.707-.162 1.031a3.324 3.324 0 004.716 4.196 3.327 3.327 0 001.221-4.544 3.327 3.327 0 00-2.495-1.639 3.34 3.34 0 01-2.226-4.88c.023-.039.043-.076.066-.113l.009-.016h-.002a5.043 5.043 0 00.614-1.908l.002-.021c.002-.014.006-.027.006-.038h-.004c.002-.018.004-.034.004-.052a.942.942 0 00-.932-.94h-3.562a.94.94 0 00-.938.94c0 .52.42.939.938.939h2.321a3.24 3.24 0 01-6.157-1.406 3.24 3.24 0 013.241-3.24 3.24 3.24 0 012.796 1.608.94.94 0 001.75-.475.928.928 0 00-.15-.505 3.34 3.34 0 011.254-4.507c.309-.18.637-.303.97-.374a3.327 3.327 0 001.274-6.185 3.325 3.325 0 00-4.541 1.217"
                clipRule="evenodd"
            ></path>
        </mask>
        <g mask="url(#b)">
            <path
                fill="url(#paint3_linear)"
                fillRule="evenodd"
                d="M35.315 18.633a3.332 3.332 0 00-.175 2.982 3.34 3.34 0 01-3.125 4.366l-.053-.002c-.022 0-.042 0-.064.002a3.34 3.34 0 01-3.277-3.341c0-.358.057-.702.16-1.025a3.329 3.329 0 00-4.718-4.199 3.326 3.326 0 00-1.215 4.544 3.316 3.316 0 002.494 1.641 3.34 3.34 0 012.244 4.841c-.036.06-.07.12-.104.182a3.34 3.34 0 01-4.512 1.137 3.39 3.39 0 01-.837-.687 3.326 3.326 0 00-5.965 2.02 3.325 3.325 0 003.328 3.325 3.32 3.32 0 002.639-1.302c.233-.267.511-.502.835-.689a3.338 3.338 0 014.512 1.138c.034.061.068.123.104.182a3.34 3.34 0 01-1.276 4.466c-.309.18-.637.303-.968.375a3.325 3.325 0 00-1.279 6.183 3.326 3.326 0 004.544-1.217 3.313 3.313 0 00.174-2.979 3.341 3.341 0 013.117-4.37 3.342 3.342 0 013.404 3.339c0 .361-.056.707-.162 1.031a3.324 3.324 0 004.716 4.196 3.327 3.327 0 001.221-4.544 3.327 3.327 0 00-2.495-1.639 3.34 3.34 0 01-2.226-4.88c.023-.039.043-.076.066-.113l.009-.016h-.002a5.043 5.043 0 00.614-1.908l.002-.021c.002-.014.006-.027.006-.038h-.004c.002-.018.004-.034.004-.052a.942.942 0 00-.932-.94h-3.562a.94.94 0 00-.938.94c0 .52.42.939.938.939h2.321a3.24 3.24 0 01-6.157-1.406 3.24 3.24 0 013.241-3.24 3.24 3.24 0 012.796 1.608.94.94 0 001.75-.475.928.928 0 00-.15-.505 3.34 3.34 0 011.254-4.507c.309-.18.637-.303.97-.374a3.327 3.327 0 001.274-6.185 3.325 3.325 0 00-4.541 1.217"
                clipRule="evenodd"
            ></path>
        </g>
        <path
            fill="#FEFEFE"
            fillRule="evenodd"
            d="M52.43 27.326c0-.69.343-1.198 1.073-1.198h3.412c.663 0 .979.469.979.95 0 .467-.33.948-.98.948h-2.418v2.01h2.255c.675 0 1.007.468 1.007.95 0 .467-.346.948-1.007.948h-2.255v2.094h2.545c.66 0 .977.468.977.949 0 .468-.332.95-.977.95h-3.55c-.607 0-1.061-.413-1.061-1.032v-7.57zm7.191-.263c0-.563.412-1.019 1.032-1.019.592 0 1.034.387 1.034 1.019v2.974l3.384-3.606c.152-.167.412-.387.8-.387.52 0 1.015.4 1.015.992 0 .358-.219.646-.673 1.1l-2.6 2.561 3.178 3.317c.316.332.58.634.58 1.046 0 .646-.512.95-1.075.95-.398 0-.66-.236-1.048-.648l-3.56-3.852v3.509c0 .537-.414.991-1.035.991-.59 0-1.032-.385-1.032-.991v-7.956zm9.349 0c0-.563.415-1.019 1.035-1.019.592 0 1.032.387 1.032 1.019v2.974l3.386-3.606c.15-.167.412-.387.795-.387.525 0 1.02.4 1.02.992 0 .358-.22.646-.675 1.1l-2.6 2.561 3.18 3.317c.316.332.577.634.577 1.046 0 .646-.51.95-1.072.95-.4 0-.663-.236-1.048-.648l-3.563-3.852v3.509c0 .537-.415.991-1.032.991-.594 0-1.034-.385-1.034-.991v-7.956zm-18.145 4.481a.939.939 0 00-.931-.939v-.002h-3.56a.939.939 0 00-.937.94c0 .52.42.94.937.94h2.321a3.237 3.237 0 01-6.157-1.405 3.24 3.24 0 016.016-1.665.942.942 0 001.772-.445.93.93 0 00-.193-.566 5.11 5.11 0 00-9.47 2.675 5.114 5.114 0 0010.196.573.946.946 0 00.006-.106m29.805.562h2.612l-1.278-3.985h-.028l-1.306 3.985zm-.15-4.99c.233-.633.77-1.142 1.47-1.142.728 0 1.237.482 1.472 1.142l2.693 7.478c.083.22.111.412.111.509 0 .537-.44.907-.949.907-.576 0-.866-.3-1.002-.716l-.413-1.292H80.04l-.412 1.279c-.139.429-.427.729-.99.729-.55 0-1.019-.411-1.019-.962 0-.22.071-.384.098-.454l2.763-7.478zm9.002 3.354h1.417c.755 0 1.276-.454 1.276-1.224 0-.783-.521-1.209-1.276-1.209h-1.417v2.433zm-2.062-3.257c0-.662.37-1.073 1.06-1.073h2.419c2.115 0 3.42.948 3.42 3.106 0 1.512-1.137 2.378-2.541 2.598l2.335 2.504c.193.205.276.412.276.603 0 .537-.426 1.06-1.03 1.06-.247 0-.578-.098-.797-.359l-3.053-3.698h-.027v2.983c0 .687-.44 1.073-1.03 1.073-.592 0-1.032-.386-1.032-1.073v-7.724zm10.253 6.817h1.387c1.774 0 2.585-1.305 2.585-2.955 0-1.76-.825-3.037-2.722-3.037h-1.25v5.992zm-2.062-6.832c0-.632.438-1.058 1.058-1.058h2.283c3.078 0 4.838 1.98 4.838 5.03 0 2.889-1.87 4.756-4.702 4.756h-2.392c-.453 0-1.085-.247-1.085-1.03v-7.698z"
            clipRule="evenodd"
        ></path>
        <path
            fill="#E01F26"
            fillRule="evenodd"
            d="M262.501 31.898c0-5.007 2.336-9.463 5.979-12.347a15.668 15.668 0 00-9.769-3.4c-8.695 0-15.744 7.051-15.744 15.747 0 8.695 7.049 15.744 15.744 15.744a15.68 15.68 0 009.769-3.399 15.705 15.705 0 01-5.979-12.345"
            clipRule="evenodd"
        ></path>
        <path
            fill="#E86224"
            fillRule="evenodd"
            d="M262.5 31.898c0 5.005 2.336 9.463 5.979 12.345 3.639-2.883 5.979-7.34 5.979-12.345 0-5.006-2.34-9.462-5.979-12.346-3.643 2.884-5.979 7.34-5.979 12.346"
            clipRule="evenodd"
        ></path>
        <path
            fill="#F39E1E"
            fillRule="evenodd"
            d="M278.245 16.151a15.668 15.668 0 00-9.766 3.4c3.64 2.884 5.979 7.34 5.979 12.347 0 5.004-2.339 9.462-5.979 12.345a15.68 15.68 0 009.766 3.4c8.696 0 15.745-7.05 15.745-15.745 0-8.696-7.049-15.747-15.745-15.747"
            clipRule="evenodd"
        ></path>
    </g>
    <defs>
        <radialGradient
            id="paint1_radial"
            cx="0"
            cy="0"
            r="1"
            gradientTransform="matrix(30.73176 28.4972 -28.41622 30.64443 24.025 70.69)"
            gradientUnits="userSpaceOnUse"
        >
            <stop stop-color="#E9E093"></stop>
            <stop offset="1" stop-color="#E07400"></stop>
        </radialGradient>
        <radialGradient
            id="paint2_radial"
            cx="0"
            cy="0"
            r="1"
            gradientTransform="matrix(8.24454 23.66646 -14.70459 5.12255 35.863 73.181)"
            gradientUnits="userSpaceOnUse"
        >
            <stop stop-color="#E9E093"></stop>
            <stop offset="1" stop-color="#E07400"></stop>
        </radialGradient>
        <linearGradient
            id="paint0_linear"
            x1="-64.307"
            x2="-63.045"
            y1="117.286"
            y2="138.356"
            gradientUnits="userSpaceOnUse"
        >
            <stop stop-color="#D8D8D8"></stop>
            <stop offset="1" stop-color="#969696"></stop>
        </linearGradient>
        <linearGradient
            id="paint3_linear"
            x1="54.199"
            x2="26.116"
            y1="31.095"
            y2="5.888"
            gradientUnits="userSpaceOnUse"
        >
            <stop stop-color="#00AEEF"></stop>
            <stop offset="1" stop-color="#72BF44"></stop>
        </linearGradient>
    </defs>
</svg>
