<svg width="90" height="90" viewBox="0 0 90 90" fill="none" xmlns="http://www.w3.org/2000/svg">
    <g clip-path="url(#clip0_1319_2170)">
    <path d="M30.9973 88.2116C14.769 88.2116 2.05686 80.832 2.05686 71.4102V62.3041C2.05686 62.1681 2.07386 62.0346 2.10543 61.9083C2.9699 52.9722 15.3494 46.1098 30.9997 46.1098C34.4503 46.1098 37.799 46.4473 40.9825 47.1175C41.5021 42.5912 43.3962 39.143 46.4947 37.2077L53.6436 32.7396C53.663 32.7274 53.6825 32.7153 53.7019 32.7032C53.7213 32.691 53.7407 32.6789 53.7602 32.6667L54.2167 32.3802C54.3333 32.3074 54.4522 32.2515 54.5761 32.2126C62.6113 28.2084 74.9932 35.0659 83.2883 48.339C87.2998 54.757 89.682 61.6849 90.0001 67.8503C90.3109 73.892 88.6135 78.5907 85.2018 81.2133C85.1119 81.308 85.0075 81.3905 84.8934 81.4634L84.4369 81.7499C84.4174 81.7621 84.398 81.7742 84.3786 81.7863C84.3616 81.7961 84.3397 81.8106 84.3227 81.8203L77.1738 86.2884C73.2133 88.7628 67.888 88.3889 62.1839 85.2345C59.9135 83.9791 57.6843 82.3376 55.562 80.3804C50.3363 85.237 41.1015 88.2068 31.0022 88.2068L30.9973 88.2116ZM5.31078 70.774V71.4102C5.31078 78.7534 17.0759 84.9577 30.9997 84.9577C40.1107 84.9577 48.6486 82.2914 53.2551 78.0832C52.4125 77.1799 51.5966 76.2255 50.8049 75.2275C45.4481 78.1269 38.4716 79.7126 30.9997 79.7126C19.6936 79.7126 10.0945 76.1308 5.31078 70.774ZM48.7579 39.6287L48.2188 39.9662C45.3048 41.7874 43.8503 45.697 44.1223 50.9737C44.4112 56.5976 46.6234 62.9743 50.346 68.9309C54.0686 74.8876 58.8305 79.6689 63.7575 82.3934C68.381 84.948 72.5309 85.3559 75.4473 83.5347L75.9864 83.1972C68.9079 81.9806 60.7828 75.7399 54.7898 66.1505C48.7992 56.5636 46.7472 46.525 48.7579 39.6287ZM55.3774 35.4909C49.2023 39.4198 50.1881 52.6468 57.5507 64.4264C64.9109 76.2037 76.37 82.8937 82.6083 79.0569L82.7006 78.9987C85.583 77.1653 87.023 73.2679 86.751 68.0179C86.4621 62.3964 84.2499 56.0197 80.5297 50.0631C73.1695 38.2858 61.7104 31.6007 55.4746 35.4301L55.3823 35.4884L55.3774 35.4909ZM5.31078 62.9112C5.31078 70.2544 17.0759 76.4587 30.9997 76.4587C37.6484 76.4587 44.0518 75.0575 48.8502 72.5807C48.4179 71.9517 47.9954 71.3082 47.585 70.6526C43.5735 64.2346 41.1913 57.3042 40.8732 51.1388C40.8611 50.896 40.8513 50.6531 40.8441 50.4152C37.7237 49.7158 34.4164 49.3613 30.9973 49.3613C17.0735 49.3613 5.30835 55.5656 5.30835 62.9112H5.31078ZM19.6644 42.6252C8.83909 42.6252 0.0340881 33.8202 0.0340881 22.9948C0.0340881 12.1695 8.83909 3.36447 19.6644 3.36447C30.4898 3.36447 39.2948 12.1695 39.2948 22.9948C39.2948 26.6956 38.2676 30.27 36.3177 33.3879L38.6829 39.9322C38.8966 40.5247 38.7484 41.1901 38.3041 41.6344C37.8573 42.0813 37.1895 42.227 36.6018 42.0133L30.0576 39.6481C26.9421 41.598 23.3676 42.6252 19.6644 42.6252ZM19.6644 6.61839C10.6336 6.61839 3.28801 13.964 3.28801 22.9948C3.28801 32.0257 10.636 39.3713 19.6644 39.3713C22.9888 39.3713 26.1917 38.3781 28.9235 36.501C29.3558 36.2023 29.9046 36.1343 30.3975 36.3116L34.4455 37.7759L32.9837 33.7279C32.8064 33.235 32.8768 32.6862 33.1731 32.2539C35.0501 29.5197 36.0433 26.3192 36.0433 22.9948C36.0433 13.964 28.6953 6.61839 19.6644 6.61839ZM24.8926 32.6206C22.4667 32.6206 20.4925 30.6464 20.4925 28.2205C20.4925 25.7947 22.4667 23.8205 24.8926 23.8205C27.3184 23.8205 29.2926 25.7947 29.2926 28.2205C29.2926 30.6464 27.3184 32.6206 24.8926 32.6206ZM24.8926 27.0719C24.2588 27.0719 23.744 27.5867 23.744 28.2205C23.744 28.8543 24.2588 29.3691 24.8926 29.3691C25.5264 29.3691 26.0412 28.8543 26.0412 28.2205C26.0412 27.5867 25.5264 27.0719 24.8926 27.0719ZM12.5471 31.7416C12.1319 31.7416 11.7142 31.5837 11.3961 31.2656C10.7599 30.6318 10.7599 29.5998 11.3961 28.966L25.6356 14.7265C26.2718 14.0903 27.3014 14.0903 27.9352 14.7265C28.5714 15.3603 28.5714 16.3923 27.9352 17.0261L13.6957 31.2656C13.3776 31.5837 12.9623 31.7416 12.5447 31.7416H12.5471ZM14.4387 22.1716C12.0129 22.1716 10.0387 20.1974 10.0387 17.7716C10.0387 15.3457 12.0129 13.3715 14.4387 13.3715C16.8646 13.3715 18.8388 15.3457 18.8388 17.7716C18.8388 20.1974 16.8646 22.1716 14.4387 22.1716ZM14.4387 16.623C13.805 16.623 13.2902 17.1378 13.2902 17.7716C13.2902 18.4053 13.805 18.9201 14.4387 18.9201C15.0725 18.9201 15.5873 18.4053 15.5873 17.7716C15.5873 17.1378 15.0725 16.623 14.4387 16.623ZM63.7575 66.1505C63.7575 66.1505 63.8765 65.9854 63.5584 65.9781C63.8279 65.3929 63.4096 66.2671 63.7957 65.9781C63.6853 66.0372 63.2402 65.9708 63.5584 65.9781C63.9566 66.1675 63.3808 65.647 63.7086 65.8656C64.0365 66.0866 63.4588 65.7499 63.7575 66.1505C63.699 65.9781 63.6791 65.6236 63.7957 65.9781C63.699 65.9781 63.7405 65.9077 63.7575 66.1505Z" fill="#3A5E66" fill-opacity="0.8"/>
    </g>
    <defs>
    <clipPath id="clip0_1319_2170">
    <rect width="90" height="90" fill="white"/>
    </clipPath>
    </defs>
</svg>
