<svg width="90" height="90" viewBox="0 0 90 90" fill="none" xmlns="http://www.w3.org/2000/svg">
    <path d="M17.234 61.2575C8.66968 61.2575 0 58.6269 0 53.5979C0 52.5399 0.856915 51.683 1.91489 51.683C2.97287 51.683 3.82979 52.5399 3.82979 53.5979C3.82979 54.7085 8.52606 57.4277 17.234 57.4277C18.8138 57.4277 20.3673 57.3343 21.8465 57.1476C22.8997 57.016 23.8524 57.7604 23.984 58.8088C24.1157 59.8572 23.3713 60.8146 22.3229 60.9463C20.6856 61.1521 18.9718 61.2551 17.234 61.2551V61.2575Z" fill="#3A5E66" fill-opacity="0.8"/>
    <path d="M40.2129 44.0234C39.6313 44.0234 39.0401 44.0114 38.4608 43.9875C37.4028 43.9444 36.5818 43.054 36.6249 41.996C36.668 40.938 37.5632 40.1146 38.6164 40.1601C39.1454 40.1816 39.6816 40.1936 40.2129 40.1936C48.9209 40.1936 53.6172 37.4744 53.6172 36.3638C53.6172 35.2532 54.4741 34.4489 55.5321 34.4489C56.5901 34.4489 57.447 35.3058 57.447 36.3638C57.447 41.3928 48.7773 44.0234 40.2129 44.0234Z" fill="#3A5E66" fill-opacity="0.8"/>
    <path d="M12.8035 70.5878C12.7316 70.5878 12.6598 70.583 12.5856 70.5758C6.50106 69.8864 0 67.5814 0 63.1724V44.0234C0 42.9654 0.856915 42.1085 1.91489 42.1085C2.97287 42.1085 3.82979 42.9654 3.82979 44.0234V63.1724C3.82979 63.9263 6.47234 66.0303 13.0165 66.77C14.0673 66.8896 14.8237 67.8375 14.704 68.8883C14.5939 69.8649 13.7657 70.5878 12.8035 70.5878Z" fill="#3A5E66" fill-opacity="0.8"/>
    <path d="M40.2129 24.8745C31.6486 24.8745 22.9789 22.2439 22.9789 17.2149C22.9789 12.1859 31.6486 9.55536 40.2129 9.55536C48.7773 9.55536 57.447 12.1859 57.447 17.2149C57.447 22.2439 48.7773 24.8745 40.2129 24.8745ZM40.2129 13.3851C31.5049 13.3851 26.8087 16.1043 26.8087 17.2149C26.8087 18.3256 31.5049 21.0447 40.2129 21.0447C48.9209 21.0447 53.6172 18.3256 53.6172 17.2149C53.6172 16.1043 48.9209 13.3851 40.2129 13.3851Z" fill="#3A5E66" fill-opacity="0.8"/>
    <path d="M40.2129 34.449C31.6486 34.449 22.9789 31.8184 22.9789 26.7894C22.9789 25.7314 23.8358 24.8745 24.8938 24.8745C25.9518 24.8745 26.8087 25.7314 26.8087 26.7894C26.8087 27.9 31.5049 30.6192 40.2129 30.6192C48.9209 30.6192 53.6172 27.9 53.6172 26.7894C53.6172 25.6788 54.4741 24.8745 55.5321 24.8745C56.5901 24.8745 57.447 25.7314 57.447 26.7894C57.447 31.8184 48.7773 34.449 40.2129 34.449Z" fill="#3A5E66" fill-opacity="0.8"/>
    <path d="M17.234 51.683C8.66968 51.683 0 49.0524 0 44.0234C0 38.9944 8.66968 36.3638 17.234 36.3638C25.7984 36.3638 34.4681 38.9944 34.4681 44.0234C34.4681 49.0524 25.7984 51.683 17.234 51.683ZM17.234 40.1936C8.52606 40.1936 3.82979 42.9128 3.82979 44.0234C3.82979 45.134 8.52606 47.8532 17.234 47.8532C25.942 47.8532 30.6383 45.134 30.6383 44.0234C30.6383 42.9128 25.942 40.1936 17.234 40.1936Z" fill="#3A5E66" fill-opacity="0.8"/>
    <path d="M24.8938 34.7696C23.8358 34.7696 22.9789 33.9127 22.9789 32.8547V17.2148C22.9789 16.1568 23.8358 15.2999 24.8938 15.2999C25.9518 15.2999 26.8087 16.1568 26.8087 17.2148V32.8523C26.8087 33.9103 25.9518 34.7672 24.8938 34.7672V34.7696Z" fill="#3A5E66" fill-opacity="0.8"/>
    <path d="M32.5534 54.9144C31.4954 54.9144 30.6385 54.0575 30.6385 52.9995V44.0234C30.6385 42.9654 31.4954 42.1085 32.5534 42.1085C33.6114 42.1085 34.4683 42.9654 34.4683 44.0234V52.9995C34.4683 54.0575 33.6114 54.9144 32.5534 54.9144Z" fill="#3A5E66" fill-opacity="0.8"/>
    <path d="M55.5323 47.0154C54.4743 47.0154 53.6174 46.1584 53.6174 45.1005V17.2148C53.6174 16.1568 54.4743 15.2999 55.5323 15.2999C56.5903 15.2999 57.4472 16.1568 57.4472 17.2148V45.1005C57.4472 46.1584 56.5903 47.0154 55.5323 47.0154Z" fill="#3A5E66" fill-opacity="0.8"/>
    <path d="M40.2127 89.9808C39.9733 89.9808 39.7339 89.9353 39.5042 89.8444L18.4403 81.4667C17.7127 81.1771 17.2339 80.471 17.2339 79.6883V67.0021C17.2339 66.3678 17.5475 65.7766 18.0717 65.4199C18.5959 65.0633 19.2613 64.9891 19.8502 65.2212L40.914 73.5199C41.6464 73.8071 42.1276 74.5157 42.1276 75.3008V88.0659C42.1276 88.7002 41.814 89.2939 41.2874 89.6505C40.9667 89.8683 40.5909 89.9808 40.2127 89.9808ZM21.0637 78.3885L38.2978 85.2439V76.6029L21.0637 69.8146V78.3885Z" fill="#3A5E66" fill-opacity="0.8"/>
    <path d="M40.2124 89.9833C39.4632 89.9833 38.7499 89.5405 38.4435 88.8056C38.0366 87.829 38.4985 86.7088 39.4751 86.3019L56.7092 79.121C57.6858 78.7141 58.806 79.1761 59.2129 80.1527C59.6198 81.1293 59.1579 82.2495 58.1813 82.6564L40.9472 89.8373C40.7055 89.9378 40.4565 89.9857 40.2124 89.9857V89.9833Z" fill="#3A5E66" fill-opacity="0.8"/>
    <path d="M72.7662 76.4186C72.017 76.4186 71.3037 75.9758 70.9973 75.241C70.5904 74.2644 71.0524 73.1442 72.029 72.7373L84.2556 67.6436V58.9907L72.2683 63.9838C71.2917 64.3907 70.1715 63.9287 69.7646 62.9521C69.3577 61.9755 69.8196 60.8553 70.7962 60.4484L85.4332 54.3495C86.0244 54.1029 86.6994 54.17 87.2308 54.5242C87.7646 54.8785 88.0829 55.4769 88.0829 56.1184V68.9194C88.0829 69.6926 87.6186 70.3891 86.9053 70.6859L73.501 76.2702C73.2593 76.3708 73.0103 76.4186 72.7662 76.4186Z" fill="#3A5E66" fill-opacity="0.8"/>
    <path d="M40.2124 77.1797C39.4632 77.1797 38.7499 76.7369 38.4435 76.0021C38.0366 75.0255 38.4985 73.9053 39.4751 73.4983L55.2443 66.9279C56.2209 66.5209 57.3411 66.9829 57.748 67.9595C58.1549 68.9361 57.693 70.0563 56.7164 70.4632L40.9472 77.0337C40.7055 77.1342 40.4565 77.1821 40.2124 77.1821V77.1797Z" fill="#3A5E66" fill-opacity="0.8"/>
    <path d="M86.17 58.0309C85.9402 58.0309 85.7032 57.9878 85.4758 57.8993L65.0559 49.9548L51.1154 55.7618C50.1388 56.1687 49.0186 55.7067 48.6117 54.7301C48.2048 53.7535 48.6668 52.6333 49.6433 52.2264L64.2947 46.1227C64.7519 45.9312 65.2641 45.9264 65.7261 46.1059L86.8641 54.3304C87.8503 54.7134 88.3386 55.824 87.9532 56.8102C87.6588 57.5665 86.9359 58.0309 86.1676 58.0309H86.17Z" fill="#3A5E66" fill-opacity="0.8"/>
    <path d="M19.149 68.9195C18.3998 68.9195 17.6865 68.4767 17.3801 67.7394C16.9732 66.7628 17.4352 65.6426 18.4118 65.2357L34.3102 58.6126C35.2868 58.2056 36.407 58.6676 36.8139 59.6442C37.2208 60.6208 36.7589 61.741 35.7823 62.1479L19.8839 68.7711C19.6445 68.8716 19.3932 68.9195 19.149 68.9195Z" fill="#3A5E66" fill-opacity="0.8"/>
    <path d="M57.4464 84.7149C57.0826 84.7149 56.7188 84.612 56.4052 84.4061C55.8594 84.0543 55.5315 83.4487 55.5315 82.8V70.5758L32.3805 61.3795C31.6576 61.0923 31.1789 60.3958 31.1717 59.6154C31.1645 58.8375 31.6313 58.1314 32.3493 57.8322L47.6613 51.4556C48.1185 51.2641 48.6307 51.2593 49.0903 51.4389L73.4573 60.908C74.1946 61.1952 74.6781 61.9037 74.6781 62.6936V75.9375C74.6781 76.6915 74.2352 77.3761 73.5459 77.6849L58.2267 84.5474C57.9778 84.6599 57.7097 84.7149 57.444 84.7149H57.4464ZM38.1682 59.558L58.1525 67.4952C58.8826 67.7849 59.3613 68.491 59.3613 69.2761V79.8439L70.8507 74.6976V64.003L48.4225 55.2878L38.1682 59.558Z" fill="#3A5E66" fill-opacity="0.8"/>
    <path d="M80.4252 47.8532C79.3672 47.8532 78.5103 46.9963 78.5103 45.9383V22.9596C78.5103 21.9016 79.3672 21.0447 80.4252 21.0447H84.5949L74.6877 5.47899L64.7662 21.0447H68.9335C69.9914 21.0447 70.8484 21.9016 70.8484 22.9596V32.534C70.8484 33.592 69.9914 34.4489 68.9335 34.4489C67.8755 34.4489 67.0186 33.592 67.0186 32.534V24.8745H61.2739C60.575 24.8745 59.9311 24.4939 59.596 23.8811C59.2609 23.2684 59.2848 22.5215 59.6606 21.9303L73.0744 0.885638C73.4263 0.335106 74.0343 0 74.6901 0C75.3436 0 75.9539 0.335106 76.3058 0.885638L89.7005 21.9303C90.0763 22.5191 90.1002 23.266 89.7627 23.8811C89.4276 24.4939 88.7837 24.8745 88.0848 24.8745H82.3401V45.9383C82.3401 46.9963 81.4832 47.8532 80.4252 47.8532Z" fill="#3A5E66" fill-opacity="0.8"/>
</svg>
