<svg width="94" height="90" viewBox="0 0 94 90" fill="none" xmlns="http://www.w3.org/2000/svg">
    <path d="M41.831 89.6963C33.1657 89.6963 24.7208 87.2759 17.4127 82.6965C10.3043 78.2435 4.5441 71.9399 0.751964 64.4732C0.164492 63.3158 0.625658 61.903 1.78298 61.3155C2.9403 60.728 4.35317 61.1892 4.94064 62.3465C12.0373 76.3195 26.1719 84.9994 41.828 84.9994C57.4841 84.9994 71.0283 76.6221 78.2542 63.1396C78.8446 62.0351 80.1988 61.5887 81.3296 62.1262L88.6907 65.604L83.1214 27.4977L50.1525 47.3983L58.3184 51.255C58.9558 51.5576 59.4257 52.1274 59.5961 52.8148C59.7665 53.4992 59.6196 54.2247 59.1966 54.7887C52.9107 63.1778 43.3202 67.9862 32.8867 67.9862C14.7544 67.9804 0 53.2289 0 35.0937C0 29.1896 1.58324 23.4 4.57641 18.3478C5.23731 17.2316 6.67956 16.8615 7.79576 17.5253C8.91195 18.1862 9.28206 19.6285 8.61822 20.7447C6.0539 25.0714 4.69684 30.0355 4.69684 35.0937C4.69684 50.6353 17.3422 63.2806 32.8838 63.2806C40.8469 63.2806 48.2403 60.0054 53.5716 54.2041L44.1779 49.7658C43.3936 49.3957 42.8796 48.6261 42.8355 47.7596C42.7915 46.896 43.2262 46.0765 43.9694 45.63L83.7177 21.6376C84.3904 21.2323 85.2246 21.1882 85.9354 21.526C86.6463 21.8609 87.1427 22.5306 87.2572 23.3119L93.975 69.2552C94.1013 70.1129 93.7429 70.9677 93.0468 71.4846C92.3506 71.9987 91.4283 72.0897 90.644 71.7196L81.2915 67.3018C72.9787 81.1721 58.0569 89.6963 41.8251 89.6963H41.831Z" fill="#3A5E66" fill-opacity="0.8"/>
    <path d="M26.9491 45.5438V27.2264C26.9491 24.7267 24.3348 23.0877 22.0848 24.1745L22.0731 24.1804C20.7924 24.7972 19.2532 24.3272 18.5365 23.0994C18.2486 22.6089 17.9696 22.1125 17.6993 21.6102C17.0267 20.3706 16.6918 19.2192 16.6918 18.1617C16.6918 17.1043 16.9062 16.2994 17.3322 15.7501C17.7581 15.2008 18.5835 14.5987 19.8054 13.9495L28.9024 9.18806C29.7572 8.74159 30.5885 8.37442 31.4051 8.08949C32.2187 7.80457 33.1763 7.66357 34.2749 7.66357C35.3734 7.66357 36.3721 7.79576 37.1447 8.06012C38.2432 8.43904 38.9776 9.47005 38.9776 10.6332V45.5467C38.9776 47.0506 37.7586 48.2667 36.2576 48.2667H29.6691C28.1651 48.2667 26.9491 47.0477 26.9491 45.5467V45.5438Z" fill="#3A5E66" fill-opacity="0.8"/>
    <path d="M65.042 14.9698C61.714 14.9698 59.0028 17.6781 59.0028 21.0091C59.0028 24.34 61.7111 27.0483 65.042 27.0483C68.373 27.0483 71.0812 24.34 71.0812 21.0091C71.0812 17.6781 68.373 14.9698 65.042 14.9698ZM65.042 22.5835C64.1726 22.5835 63.4676 21.8756 63.4676 21.0091C63.4676 20.1425 64.1755 19.4346 65.042 19.4346C65.9085 19.4346 66.6164 20.1425 66.6164 21.0091C66.6164 21.8756 65.9085 22.5835 65.042 22.5835Z" fill="#3A5E66" fill-opacity="0.8"/>
    <path d="M48.1021 25.841C47.5323 25.841 46.9595 25.6237 46.5247 25.186C45.6524 24.3136 45.6524 22.9007 46.5247 22.0313L66.0611 2.49487C66.9335 1.62248 68.3464 1.62248 69.2159 2.49487C70.0883 3.36727 70.0883 4.78014 69.2159 5.6496L49.6795 25.186C49.2447 25.6207 48.672 25.841 48.1021 25.841Z" fill="#3A5E66" fill-opacity="0.8"/>
    <path d="M50.6959 0.635498C47.3679 0.635498 44.6596 3.34668 44.6596 6.67471C44.6596 10.0027 47.3708 12.711 50.6989 12.711C54.0269 12.711 56.7351 9.9998 56.7351 6.67177C56.7351 3.34374 54.0269 0.635498 50.6959 0.635498ZM50.6959 8.24914C49.8265 8.24914 49.1215 7.54123 49.1215 6.67471C49.1215 5.80819 49.8294 5.10029 50.6959 5.10029C51.5624 5.10029 52.2703 5.80819 52.2703 6.67471C52.2703 7.54123 51.5624 8.24914 50.6959 8.24914Z" fill="#3A5E66" fill-opacity="0.8"/>
</svg>
