<svg width="94" height="90" viewBox="0 0 94 90" fill="none" xmlns="http://www.w3.org/2000/svg">
<path d="M41.831 89.6963C33.1657 89.6963 24.7208 87.2759 17.4127 82.6966C10.3043 78.2435 4.5441 71.94 0.751964 64.4732C0.164492 63.3159 0.625658 61.903 1.78298 61.3155C2.9403 60.728 4.35317 61.1892 4.94064 62.3465C12.0373 76.3196 26.1719 84.9995 41.828 84.9995C57.4841 84.9995 71.0283 76.6221 78.2542 63.1396C78.8446 62.0352 80.1988 61.5887 81.3296 62.1262L88.6907 65.6041L83.1214 27.4977L50.1525 47.3983L58.3184 51.2551C58.9558 51.5576 59.4257 52.1275 59.5961 52.8148C59.7665 53.4992 59.6196 54.2247 59.1966 54.7887C52.9107 63.1778 43.3202 67.9863 32.8867 67.9863C14.7544 67.9804 0 53.229 0 35.0937C0 29.1896 1.58324 23.4001 4.57641 18.3478C5.23731 17.2316 6.67956 16.8615 7.79576 17.5253C8.91195 18.1863 9.28206 19.6285 8.61822 20.7447C6.0539 25.0714 4.69684 30.0356 4.69684 35.0937C4.69684 50.6353 17.3422 63.2806 32.8838 63.2806C40.8469 63.2806 48.2403 60.0055 53.5716 54.2042L44.1779 49.7658C43.3936 49.3957 42.8796 48.6261 42.8355 47.7596C42.7915 46.896 43.2262 46.0765 43.9694 45.63L83.7177 21.6377C84.3904 21.2323 85.2246 21.1882 85.9354 21.526C86.6463 21.8609 87.1427 22.5306 87.2572 23.3119L93.975 69.2552C94.1013 70.1129 93.7429 70.9677 93.0468 71.4847C92.3506 71.9987 91.4283 72.0898 90.644 71.7197L81.2915 67.3019C72.9787 81.1721 58.0569 89.6963 41.8251 89.6963H41.831Z" fill="white"/>
<path d="M26.9492 45.5438V27.2264C26.9492 24.7267 24.3349 23.0877 22.0849 24.1745L22.0731 24.1804C20.7924 24.7972 19.2533 24.3272 18.5366 23.0994C18.2487 22.6089 17.9696 22.1125 17.6994 21.6102C17.0268 20.3706 16.6919 19.2192 16.6919 18.1617C16.6919 17.1043 16.9063 16.2994 17.3322 15.7501C17.7582 15.2009 18.5836 14.5987 19.8055 13.9495L28.9025 9.18808C29.7573 8.7416 30.5885 8.37443 31.4051 8.08951C32.2188 7.80458 33.1764 7.66359 34.2749 7.66359C35.3735 7.66359 36.3722 7.79577 37.1447 8.06013C38.2433 8.43905 38.9776 9.47007 38.9776 10.6333V45.5467C38.9776 47.0507 37.7586 48.2667 36.2577 48.2667H29.6692C28.1652 48.2667 26.9492 47.0477 26.9492 45.5467V45.5438Z" fill="white"/>
<path d="M65.0421 14.9698C61.7141 14.9698 59.0029 17.6781 59.0029 21.0091C59.0029 24.34 61.7112 27.0483 65.0421 27.0483C68.3731 27.0483 71.0814 24.34 71.0814 21.0091C71.0814 17.6781 68.3731 14.9698 65.0421 14.9698ZM65.0421 22.5835C64.1727 22.5835 63.4677 21.8756 63.4677 21.0091C63.4677 20.1425 64.1756 19.4346 65.0421 19.4346C65.9087 19.4346 66.6166 20.1425 66.6166 21.0091C66.6166 21.8756 65.9087 22.5835 65.0421 22.5835Z" fill="white"/>
<path d="M48.1023 25.841C47.5324 25.841 46.9596 25.6237 46.5249 25.186C45.6525 24.3136 45.6525 22.9007 46.5249 22.0313L66.0613 2.49487C66.9337 1.62248 68.3465 1.62248 69.216 2.49487C70.0884 3.36727 70.0884 4.78014 69.216 5.6496L49.6796 25.186C49.2449 25.6207 48.6721 25.841 48.1023 25.841Z" fill="white"/>
<path d="M50.6959 0.635513C47.3679 0.635513 44.6597 3.3467 44.6597 6.67473C44.6597 10.0028 47.3709 12.711 50.6989 12.711C54.0269 12.711 56.7352 9.99982 56.7352 6.67179C56.7352 3.34376 54.0269 0.635513 50.6959 0.635513ZM50.6959 8.24915C49.8265 8.24915 49.1215 7.54125 49.1215 6.67473C49.1215 5.80821 49.8294 5.1003 50.6959 5.1003C51.5625 5.1003 52.2704 5.80821 52.2704 6.67473C52.2704 7.54125 51.5625 8.24915 50.6959 8.24915Z" fill="white"/>
</svg>
