<svg width="1024" height="1024" viewBox="0 0 1024 1024" fill="none" xmlns="http://www.w3.org/2000/svg">
    <path
        d="M664.347 677.959C654.238 660.762 637.53 650.131 618.811 648.097C612.734 646.587 606.669 644.565 601.103 641.521C572.265 624.824 562.144 588.398 578.33 559.559C578.862 559.002 579.214 558.298 579.341 557.538V557.026C585.417 546.406 588.961 534.764 590.472 522.111V521.1V520.089C590.472 510.48 582.884 502.893 573.775 502.893H510.032C500.423 502.893 492.836 510.48 492.836 520.089C492.836 529.71 500.423 537.285 510.032 537.285H552.036C542.415 557.026 522.174 570.69 498.901 570.69C483.338 570.678 468.415 564.489 457.411 553.483C446.408 542.477 440.222 527.554 440.212 511.99C440.225 496.429 446.412 481.508 457.416 470.505C468.419 459.501 483.34 453.314 498.901 453.302C509.182 453.257 519.29 455.953 528.184 461.112C537.078 466.27 544.436 473.705 549.503 482.652C552.535 487.706 558.101 491.25 564.178 491.25C573.787 491.25 581.374 483.663 581.374 474.054C581.374 470.498 580.363 467.466 578.853 464.933C562.655 436.094 572.776 399.668 601.626 382.971C607.192 379.938 613.257 377.394 619.334 376.394C628.721 375.293 637.723 372.021 645.626 366.838C653.53 361.655 660.118 354.703 664.869 346.533C681.566 317.694 671.446 280.769 642.607 264.06C613.768 247.363 576.831 257.484 560.134 286.323C555.318 294.441 552.528 303.599 551.998 313.023C551.468 322.448 553.214 331.861 557.09 340.468C559.112 346.533 560.134 352.61 560.134 359.186C560.145 375.12 553.89 390.419 542.718 401.78C531.546 413.141 516.355 419.652 500.423 419.908H498.401C482.47 419.652 467.278 413.141 456.106 401.78C444.935 390.419 438.679 375.12 438.69 359.186C438.69 352.61 439.701 346.533 441.723 340.468C445.355 331.804 446.971 322.427 446.448 313.047C445.924 303.667 443.276 294.529 438.702 286.323C421.97 257.484 385.033 247.363 356.194 264.06C327.367 280.757 317.247 317.694 333.943 346.545C344.052 363.741 360.76 374.373 379.491 376.406C385.556 377.917 391.621 379.938 397.187 382.983C425.526 399.168 435.646 435.606 420.471 463.933C419.96 464.944 418.949 465.955 418.438 467.477C401.242 495.305 364.804 504.426 336.476 488.229C330.4 484.685 325.345 480.63 321.29 475.564C310.159 461.412 292.962 451.791 273.221 451.791C239.328 451.78 212 478.597 212 512.002C212 545.396 239.328 572.224 272.211 572.224C281.523 572.285 290.721 570.166 299.067 566.036C307.414 561.906 314.678 555.88 320.279 548.44C324.334 543.374 329.389 539.33 335.465 535.786C363.793 519.09 400.231 528.699 417.427 556.527C417.938 557.549 418.438 558.56 419.449 560.071C434.635 588.909 424.515 624.836 396.176 641.033C390.61 644.066 384.545 646.599 378.468 647.609C369.079 648.709 360.075 651.98 352.169 657.163C344.264 662.346 337.674 669.299 332.921 677.471C316.236 706.298 326.356 743.235 355.195 759.932C384.034 776.641 420.971 766.52 437.668 737.67C442.482 729.551 445.271 720.392 445.798 710.968C446.326 701.543 444.578 692.13 440.7 683.524C438.676 677.496 437.655 671.176 437.679 664.817C437.679 631.924 463.985 604.595 497.379 604.096H499.401C515.332 604.352 530.524 610.863 541.695 622.224C552.867 633.585 559.123 648.884 559.112 664.817C559.112 671.394 558.089 677.459 556.067 683.524C552.438 692.19 550.827 701.568 551.354 710.948C551.882 720.328 554.534 729.465 559.112 737.67C575.808 766.52 612.746 776.641 641.585 759.932C671.434 743.747 681.043 706.809 664.358 677.97L664.347 677.959Z"
        fill="url(#paint0)" />
    <path d="M921.2 511.724L716.4 866.448H306.8L102 511.724L306.8 157H716.4L921.2 511.724Z"
        stroke="url(#paint0)" stroke-width="3" />
    <defs>
        <linearGradient id="paint0" x1="351.43" y1="778.314" x2="641.91" y2="255.45"
            gradientUnits="userSpaceOnUse">
            <stop stop-color="#00AEEF" />
            <stop offset="1" stop-color="#72BF44" />
        </linearGradient>        
    </defs>
</svg>