<?xml version="1.0" standalone="no"?>
<!DOCTYPE svg PUBLIC "-//W3C//DTD SVG 20010904//EN"
 "http://www.w3.org/TR/2001/REC-SVG-20010904/DTD/svg10.dtd">
<svg version="1.0" xmlns="http://www.w3.org/2000/svg"
 width="192.000000pt" height="192.000000pt" viewBox="0 0 192.000000 192.000000"
 preserveAspectRatio="xMidYMid meet">
<metadata>
Created by potrace 1.14, written by Peter Selinger 2001-2017
</metadata>
<g transform="translate(0.000000,192.000000) scale(0.100000,-0.100000)"
fill="#000000" stroke="none">
<path d="M103 1901 c-26 -12 -52 -35 -70 -62 l-28 -43 -3 -814 c-2 -556 1
-826 8 -853 12 -45 49 -88 97 -112 28 -15 116 -17 848 -17 784 0 818 1 860 19
29 13 53 34 72 62 l28 43 3 813 c2 560 -1 827 -8 854 -12 45 -49 88 -97 112
-28 15 -116 17 -850 17 -783 0 -820 -1 -860 -19z"/>
</g>
</svg>
