<?xml version="1.0" encoding="utf-8"?>
<!-- Generator: Adobe Illustrator 24.0.2, SVG Export Plug-In . SVG Version: 6.00 Build 0)  -->
<svg version="1.1" id="Layer_1" xmlns="http://www.w3.org/2000/svg" xmlns:xlink="http://www.w3.org/1999/xlink" x="0px" y="0px"
	 viewBox="0 0 42.8 33.3" style="enable-background:new 0 0 42.8 33.3;" xml:space="preserve">
<style type="text/css">
	.st0{fillRule:evenodd;clipRule:evenodd;fill:var(--color-gray-600);}
</style>
<path class="st0" d="M42.8,9.7v13.9h-0.9v0H21.2c-0.4,1.2-1.5,2.2-2.9,2.2c-1.7,0-3-1.4-3-3c0-1.7,1.4-3,3-3c1.4,0,2.5,0.9,2.9,2.1
	H41V11.5H21.2c-0.4,1.2-1.5,2.2-2.9,2.2c-1.7,0-3-1.4-3-3c0-1.7,1.4-3,3-3c1.4,0,2.5,0.9,2.9,2.2H41l0,0L42.8,9.7L42.8,9.7z M0,0
	h36.9v7.9H34v-5H2.9v27.5H34v-5h2.9v7.9H0V0L0,0z M35.2,13.6c1.7,0,3,1.4,3,3s-1.4,3-3,3c-1.4,0-2.5-0.9-2.9-2.1h-17
	c-0.4,1.2-1.5,2.1-2.9,2.1c-1.7,0-3-1.4-3-3s1.4-3,3-3c1.4,0,2.5,0.9,2.9,2.1h17C32.7,14.5,33.8,13.6,35.2,13.6L35.2,13.6z
	 M35.2,15.4c0.7,0,1.3,0.6,1.3,1.3c0,0.7-0.6,1.3-1.3,1.3c-0.7,0-1.3-0.6-1.3-1.3C33.9,16,34.5,15.4,35.2,15.4L35.2,15.4z
	 M12.4,15.4c0.7,0,1.3,0.6,1.3,1.3c0,0.7-0.6,1.3-1.3,1.3c-0.7,0-1.3-0.6-1.3-1.3C11.1,16,11.7,15.4,12.4,15.4L12.4,15.4z M18.3,24
	c0.7,0,1.3-0.6,1.3-1.3c0-0.7-0.6-1.3-1.3-1.3c-0.7,0-1.3,0.6-1.3,1.3C17,23.5,17.6,24,18.3,24L18.3,24z M18.3,9.3
	c0.7,0,1.3,0.6,1.3,1.3s-0.6,1.3-1.3,1.3c-0.7,0-1.3-0.6-1.3-1.3S17.6,9.3,18.3,9.3L18.3,9.3z"/>
</svg>
