<svg width="38" height="35" viewBox="0 0 38 35" fill="none" xmlns="http://www.w3.org/2000/svg">
<path d="M2.0001 9.34333V29.6927C2.0001 30.6133 2.30824 31.3924 2.92793 32.0361C3.54932 32.6808 4.3018 33 5.18452 33H32.8118C33.6979 33 34.4512 32.6808 35.0718 32.0361C35.3724 31.7314 35.6098 31.366 35.7693 30.9624C35.9289 30.5587 36.0073 30.1255 35.9996 29.6892V12.0307C36.0046 11.5999 35.9249 11.1727 35.7654 10.775C35.6058 10.3774 35.3698 10.0178 35.0718 9.71828C34.7826 9.4073 34.4371 9.15895 34.055 8.98759C33.6729 8.81622 33.2619 8.72524 32.8458 8.71991H31.7843V4.30727C31.7843 3.38672 31.4694 2.60766 30.8378 1.96389C30.2062 1.32012 29.4605 1.00001 28.5965 1.00001L4.59122 5.96709C3.39695 6.31108 2.66661 6.86465 2.40017 7.62338C2.13374 8.37415 2.0001 8.95159 2.0001 9.34333ZM29.658 4.30727V8.72167H6.2494C5.83145 8.74555 5.55395 8.65093 5.42031 8.44489L5.22282 8.13716L28.6655 3.20455C28.9373 3.22038 29.193 3.34342 29.3805 3.54855C29.5657 3.75352 29.6655 4.02624 29.658 4.30727ZM4.1273 29.6919V9.82527C4.1273 10.1931 4.35543 10.4699 4.80828 10.6512C5.26113 10.8369 5.74462 10.928 6.25365 10.928H32.8118C33.0927 10.9245 33.3634 11.0429 33.5574 11.2561C33.6592 11.3559 33.7398 11.4767 33.7941 11.6106C33.8485 11.7446 33.8754 11.8889 33.8732 12.0342V29.6936C33.8766 29.9854 33.7626 30.2658 33.5574 30.4674C33.3634 30.6805 33.0935 30.7999 32.8118 30.7955H5.18962C4.90787 30.7999 4.63803 30.6805 4.44396 30.4683C4.23796 30.2658 4.1239 29.9854 4.12815 29.6927L4.1273 29.6919ZM29.6273 18.6541C29.0528 18.6541 28.5548 18.8716 28.1326 19.3102C27.7104 19.7453 27.501 20.267 27.501 20.8639C27.501 21.4838 27.7104 22.0056 28.1326 22.4327C28.3276 22.638 28.5605 22.8002 28.8174 22.9096C29.0742 23.019 29.3498 23.0734 29.6273 23.0694C30.2249 23.0694 30.7271 22.8554 31.1383 22.4327C31.3383 22.2285 31.4962 21.9841 31.6021 21.7143C31.7081 21.4446 31.76 21.1552 31.7545 20.8639C31.7545 20.267 31.5485 19.7497 31.1383 19.3102C30.9439 19.0982 30.7092 18.9303 30.4491 18.8174C30.189 18.7044 29.9092 18.6488 29.6273 18.6541Z" fill="#3A5E66"/>
<path fill-rule="evenodd" clip-rule="evenodd" d="M2.63994 32.3137C3.33625 33.0361 4.19248 33.4 5.18452 33.4H32.8118C33.806 33.4 34.6627 33.037 35.3582 32.3153C35.6963 31.9721 35.9625 31.5616 36.1413 31.1094C36.3199 30.6576 36.4077 30.1732 36.3996 29.6858V12.033C36.4049 11.5507 36.3155 11.0721 36.1366 10.6261C35.9582 10.1815 35.6943 9.77812 35.3601 9.44096C35.036 9.09365 34.6483 8.81529 34.2187 8.62262C33.787 8.42901 33.3221 8.32598 32.8509 8.31994L32.8458 8.31987L32.1843 8.31991V4.30727C32.1843 3.28425 31.8299 2.40393 31.1233 1.68376C30.42 0.966872 29.5728 0.600006 28.5965 0.600006H28.5556L4.4952 5.57849L4.4805 5.58272C3.23186 5.94238 2.35225 6.55426 2.0232 7.4896C1.75377 8.24883 1.6001 8.87907 1.6001 9.34245V29.6927C1.6001 30.7131 1.94603 31.5929 2.63994 32.3137ZM31.7843 8.71991H32.8458C33.2619 8.72524 33.6729 8.81622 34.055 8.98759C34.4371 9.15895 34.7826 9.4073 35.0718 9.71828C35.3698 10.0178 35.6058 10.3774 35.7654 10.775C35.9249 11.1727 36.0046 11.5999 35.9996 12.0307V29.6892C36.0073 30.1255 35.9289 30.5587 35.7693 30.9624C35.6098 31.366 35.3724 31.7314 35.0718 32.0361C34.4512 32.6808 33.6979 33 32.8118 33H5.18452C4.3018 33 3.54932 32.6808 2.92793 32.0361C2.30824 31.3924 2.0001 30.6133 2.0001 29.6927V9.34333C2.0001 8.95159 2.13374 8.37415 2.40017 7.62338C2.66661 6.86465 3.39695 6.31108 4.59122 5.96709L28.5965 1.00001C29.4605 1.00001 30.2062 1.32012 30.8378 1.96389C31.4694 2.60766 31.7843 3.38672 31.7843 4.30727V8.71991ZM29.258 4.30727V8.32167H6.28854L28.689 3.60836C28.837 3.62815 28.9771 3.70042 29.0845 3.81755C29.199 3.94472 29.2629 4.11671 29.2581 4.29664L29.258 4.30727ZM28.6655 3.20455L5.22282 8.13716L5.42031 8.44489C5.43197 8.46288 5.44474 8.48002 5.4586 8.4963C5.60347 8.66655 5.86794 8.74347 6.2494 8.72167H29.658V4.30727C29.6655 4.02624 29.5657 3.75352 29.3805 3.54855C29.193 3.34342 28.9373 3.22038 28.6655 3.20455ZM4.12815 29.6927C4.1239 29.9854 4.23796 30.2658 4.44396 30.4683C4.63803 30.6805 4.90787 30.7999 5.18962 30.7955H32.8118C33.0935 30.7999 33.3634 30.6805 33.5574 30.4674C33.7626 30.2658 33.8766 29.9854 33.8732 29.6936V12.0342C33.8754 11.8889 33.8485 11.7446 33.7941 11.6106C33.7398 11.4767 33.6592 11.3559 33.5574 11.2561C33.3634 11.0429 33.0927 10.9245 32.8118 10.928H6.25365C5.74462 10.928 5.26113 10.8369 4.80828 10.6512C4.7023 10.6088 4.60862 10.5611 4.5273 10.5083C4.26115 10.3354 4.1273 10.107 4.1273 9.82527V29.6919L4.12815 29.6927ZM4.5273 29.5304L4.53051 29.5337L4.52811 29.6986C4.52542 29.8838 4.59758 30.0584 4.72437 30.183L4.73196 30.1905L4.73914 30.1983C4.8588 30.3292 5.02019 30.3981 5.18335 30.3955L32.8118 30.3955L32.818 30.3955C32.9811 30.3981 33.1422 30.3293 33.2617 30.1981L33.2691 30.1899L33.2771 30.1821C33.4029 30.0584 33.4754 29.8835 33.4733 29.6983L33.4732 12.0342L33.4733 12.0282C33.4747 11.9361 33.4576 11.8451 33.4235 11.7611C33.3894 11.6771 33.3393 11.6025 33.2772 11.5415L33.2692 11.5337L33.2617 11.5254C33.1429 11.395 32.9809 11.3259 32.8168 11.328L6.25365 11.328C5.69653 11.328 5.16166 11.2282 4.65807 11.0219C4.61351 11.0041 4.56987 10.985 4.5273 10.9648V29.5304ZM27.845 19.0322C28.3371 18.5212 28.9359 18.255 29.6236 18.2541C29.6224 18.2541 29.6211 18.2541 29.6199 18.2541L29.6273 18.6541L29.6273 18.2541C29.6261 18.2541 29.6249 18.2541 29.6236 18.2541C29.9619 18.2483 30.2972 18.3153 30.6084 18.4505C30.9202 18.5859 31.2004 18.7864 31.4319 19.0386C31.9087 19.5499 32.1537 20.1627 32.1545 20.8602C32.1604 21.2025 32.0993 21.5428 31.9745 21.8606C31.8493 22.1791 31.6626 22.4688 31.425 22.7116C30.9393 23.2109 30.3347 23.4686 29.6303 23.4694C29.2975 23.4738 28.9677 23.4084 28.6606 23.2776C28.354 23.147 28.0769 22.954 27.8453 22.7111C27.348 22.2066 27.101 21.5835 27.101 20.8639C27.101 20.1634 27.3506 19.5419 27.845 19.0322ZM28.1326 22.4327C27.7104 22.0056 27.501 21.4838 27.501 20.8639C27.501 20.267 27.7104 19.7453 28.1326 19.3102C28.5548 18.8716 29.0528 18.6541 29.6273 18.6541C29.9092 18.6488 30.189 18.7044 30.4491 18.8174C30.7092 18.9303 30.9439 19.0982 31.1383 19.3102C31.5485 19.7497 31.7545 20.267 31.7545 20.8639C31.76 21.1552 31.7081 21.4446 31.6021 21.7143C31.4962 21.9841 31.3383 22.2285 31.1383 22.4327C30.7271 22.8554 30.2249 23.0694 29.6273 23.0694C29.3498 23.0734 29.0742 23.019 28.8174 22.9096C28.5605 22.8002 28.3276 22.638 28.1326 22.4327Z" fill="#3A5E66"/>
</svg>
