<svg width="27" height="27" viewBox="0 0 27 27" fill="none" xmlns="http://www.w3.org/2000/svg">
<path d="M20.393 20.2162C20.1535 18.9633 19.6009 17.7911 18.7861 16.8088L18.7863 16.8087L18.7785 16.8C18.6126 16.618 18.3828 16.5072 18.1371 16.4906C17.8913 16.474 17.6487 16.5529 17.4599 16.711C17.271 16.869 17.1505 17.0939 17.1235 17.3387C17.0966 17.5835 17.1652 17.8293 17.3151 18.0246L17.315 18.0248L17.3212 18.0323C18.1606 19.0417 18.6204 20.3129 18.6211 21.6256L18.6211 21.6348L18.6218 21.6439C18.6221 21.6479 18.6222 21.652 18.6223 21.656C18.6223 21.6615 18.6222 21.667 18.6218 21.6724L18.6212 21.6797C16.9467 22.7695 14.9916 23.3497 12.9935 23.3497C10.9954 23.3497 9.0404 22.7696 7.36586 21.6798V21.6288C7.36586 20.1371 7.95842 18.7065 9.0132 17.6518C10.0679 16.597 11.4984 16.0045 12.9899 16.0044C12.99 16.0044 12.9901 16.0044 12.9902 16.0044V15.7544C14.1873 15.7576 15.3467 15.3361 16.2623 14.5649C17.1779 13.7937 17.7903 12.7228 17.9907 11.5426C18.191 10.3624 17.9663 9.14935 17.3566 8.11921C16.7468 7.08907 15.7914 6.30857 14.6603 5.9165C13.5292 5.52442 12.2958 5.54619 11.1792 5.97792C10.0627 6.40965 9.13547 7.22336 8.56239 8.27437C7.98932 9.32539 7.80756 10.5456 8.04942 11.718C8.29129 12.8904 8.9411 13.939 9.88333 14.6775L9.95376 14.732L9.77193 14.8211L9.76997 14.8221L9.73871 14.8374C9.7385 14.8375 9.73829 14.8376 9.73808 14.8377C9.72668 14.8432 9.71529 14.8488 9.70391 14.8543C9.7123 14.861 9.7207 14.8676 9.72912 14.8742L9.73015 14.875L20.393 20.2162ZM20.393 20.2162C21.5711 19.0115 22.437 17.537 22.9152 15.9209C23.3969 14.293 23.4703 12.5716 23.1291 10.9086C22.7879 9.24561 22.0425 7.6922 20.9586 6.38555C19.8748 5.0789 18.4859 4.05921 16.9146 3.4165C15.3434 2.77379 13.638 2.52784 11.9491 2.70037C10.2603 2.8729 8.63988 3.4586 7.23101 4.40575C5.82214 5.3529 4.66815 6.63237 3.87092 8.13118C3.0737 9.63 2.65776 11.302 2.65985 12.9997L2.65985 13.0004C2.65602 15.6952 3.7154 18.2823 5.60709 20.2002M13.0003 0.75H13C10.5772 0.75 8.20877 1.46845 6.19427 2.8145C4.17977 4.16054 2.60965 6.07373 1.68248 8.31213C0.755308 10.5505 0.512717 13.0136 0.985386 15.3899C1.45805 17.7661 2.62475 19.9489 4.33795 21.6621C6.05114 23.3752 8.23388 24.5419 10.6101 25.0146C12.9864 25.4873 15.4495 25.2447 17.6879 24.3175C19.9263 23.3903 21.8395 21.8202 23.1855 19.8057C24.5316 17.7912 25.25 15.4228 25.25 13V12.9997C25.2456 9.7522 23.9536 6.63901 21.6573 4.34271C19.361 2.04641 16.2478 0.754407 13.0003 0.75Z" fill="#3A5E66" stroke="#3A5E66" stroke-width="0.5"/>
</svg>
