<svg width="35" height="35" viewBox="0 0 35 35" fill="none" xmlns="http://www.w3.org/2000/svg">
<g clip-path="url(#clip0_2371_12454)">
<path d="M29.2261 34.0541H5.77455C3.11211 34.0541 0.946289 31.8882 0.946289 29.2258V5.77422C0.946289 3.11178 3.11211 0.945953 5.77455 0.945953H29.2261C31.8886 0.945953 34.0544 3.11178 34.0544 5.77422V29.2258C34.0544 31.8882 31.8886 34.0541 29.2261 34.0541ZM5.77455 2.32546C4.86022 2.32655 3.98365 2.69026 3.33712 3.33679C2.69059 3.98332 2.32689 4.85989 2.32579 5.77422V29.2258C2.32579 31.1268 3.8736 32.6746 5.77455 32.6746H29.2261C31.1271 32.6746 32.6749 31.1268 32.6749 29.2258V5.77422C32.6749 3.87326 31.1271 2.32546 29.2261 2.32546H5.77455Z" fill="#3A5E66"/>
<path fill-rule="evenodd" clip-rule="evenodd" d="M29.2261 34.5541H5.77455C2.83597 34.5541 0.446289 32.1644 0.446289 29.2258V5.77422C0.446289 2.83563 2.83597 0.445953 5.77455 0.445953H29.2261C32.1647 0.445953 34.5544 2.83563 34.5544 5.77422V29.2258C34.5544 32.1644 32.1647 34.5541 29.2261 34.5541ZM5.77487 2.82546C4.99304 2.82647 4.24352 3.1375 3.69068 3.69034C3.13783 4.24318 2.82681 4.9927 2.82579 5.77453V29.2258C2.82579 30.8506 4.14974 32.1746 5.77455 32.1746H29.2261C30.8509 32.1746 32.1749 30.8506 32.1749 29.2258V5.77422C32.1749 4.1494 30.8509 2.82546 29.2261 2.82546H5.77487ZM5.77455 2.32546C4.86022 2.32655 3.98365 2.69026 3.33712 3.33679C2.69059 3.98332 2.32689 4.85989 2.32579 5.77422V29.2258C2.32579 31.1268 3.8736 32.6746 5.77455 32.6746H29.2261C31.1271 32.6746 32.6749 31.1268 32.6749 29.2258V5.77422C32.6749 3.87326 31.1271 2.32546 29.2261 2.32546H5.77455ZM5.77455 34.0541H29.2261C31.8886 34.0541 34.0544 31.8882 34.0544 29.2258V5.77422C34.0544 3.11178 31.8886 0.945953 29.2261 0.945953H5.77455C3.11211 0.945953 0.946289 3.11178 0.946289 5.77422V29.2258C0.946289 31.8882 3.11211 34.0541 5.77455 34.0541Z" fill="#3A5E66"/>
<path d="M25.2847 18.6036H10.1101C8.96929 18.6036 8.04088 17.6752 8.04088 16.5344V9.63683C8.04088 8.49598 8.96929 7.56757 10.1101 7.56757H25.2847C26.4255 7.56757 27.3539 8.49598 27.3539 9.63683V16.5344C27.3539 17.6752 26.4255 18.6036 25.2847 18.6036ZM10.1101 8.94708C10.0196 8.94708 9.92987 8.96492 9.84618 8.99958C9.7625 9.03425 9.68646 9.08505 9.62241 9.1491C9.55836 9.21315 9.50756 9.28919 9.47289 9.37288C9.43823 9.45656 9.42039 9.54625 9.42039 9.63683V16.5344C9.42039 16.7173 9.49306 16.8927 9.62241 17.0221C9.75177 17.1514 9.92721 17.2241 10.1101 17.2241H25.2847C25.3753 17.2241 25.465 17.2063 25.5486 17.1716C25.6323 17.1369 25.7084 17.0861 25.7724 17.0221C25.8365 16.958 25.8873 16.882 25.9219 16.7983C25.9566 16.7146 25.9744 16.6249 25.9744 16.5344V9.63683C25.9744 9.54625 25.9566 9.45656 25.9219 9.37288C25.8873 9.28919 25.8365 9.21315 25.7724 9.1491C25.7084 9.08505 25.6323 9.03425 25.5486 8.99958C25.465 8.96492 25.3753 8.94708 25.2847 8.94708H10.1101ZM11.4896 26.8806H10.1101C8.96929 26.8806 8.04088 25.9522 8.04088 24.8114V23.4319C8.04088 22.291 8.96929 21.3626 10.1101 21.3626H11.4896C12.6305 21.3626 13.5589 22.291 13.5589 23.4319V24.8114C13.5589 25.9522 12.6305 26.8806 11.4896 26.8806ZM10.1101 22.7421C10.0196 22.7421 9.92987 22.76 9.84618 22.7946C9.7625 22.8293 9.68646 22.8801 9.62241 22.9441C9.55836 23.0082 9.50756 23.0842 9.47289 23.1679C9.43823 23.2516 9.42039 23.3413 9.42039 23.4319V24.8114C9.42039 24.902 9.43823 24.9917 9.47289 25.0753C9.50756 25.159 9.55836 25.2351 9.62241 25.2991C9.68646 25.3632 9.7625 25.414 9.84618 25.4486C9.92987 25.4833 10.0196 25.5011 10.1101 25.5011H11.4896C11.5802 25.5011 11.6699 25.4833 11.7536 25.4486C11.8373 25.414 11.9133 25.3632 11.9774 25.2991C12.0414 25.2351 12.0922 25.159 12.1269 25.0753C12.1616 24.9917 12.1794 24.902 12.1794 24.8114V23.4319C12.1794 23.2489 12.1067 23.0735 11.9774 22.9441C11.848 22.8148 11.6726 22.7421 11.4896 22.7421H10.1101ZM18.3872 26.8806H17.0077C15.8668 26.8806 14.9384 25.9522 14.9384 24.8114V23.4319C14.9384 22.291 15.8668 21.3626 17.0077 21.3626H18.3872C19.528 21.3626 20.4564 22.291 20.4564 23.4319V24.8114C20.4564 25.9522 19.528 26.8806 18.3872 26.8806ZM17.0077 22.7421C16.9171 22.7421 16.8274 22.76 16.7437 22.7946C16.66 22.8293 16.584 22.8801 16.5199 22.9441C16.4559 23.0082 16.4051 23.0842 16.3704 23.1679C16.3358 23.2516 16.3179 23.3413 16.3179 23.4319V24.8114C16.3179 24.902 16.3358 24.9917 16.3704 25.0753C16.4051 25.159 16.4559 25.2351 16.5199 25.2991C16.584 25.3632 16.66 25.414 16.7437 25.4486C16.8274 25.4833 16.9171 25.5011 17.0077 25.5011H18.3872C18.4777 25.5011 18.5674 25.4833 18.6511 25.4486C18.7348 25.414 18.8108 25.3632 18.8749 25.2991C18.9389 25.2351 18.9898 25.159 19.0244 25.0753C19.0591 24.9917 19.0769 24.902 19.0769 24.8114V23.4319C19.0769 23.3413 19.0591 23.2516 19.0244 23.1679C18.9898 23.0842 18.9389 23.0082 18.8749 22.9441C18.8108 22.8801 18.7348 22.8293 18.6511 22.7946C18.5674 22.76 18.4777 22.7421 18.3872 22.7421H17.0077ZM25.2847 26.8806H23.9052C22.7643 26.8806 21.8359 25.9522 21.8359 24.8114V23.4319C21.8359 22.291 22.7643 21.3626 23.9052 21.3626H25.2847C26.4255 21.3626 27.3539 22.291 27.3539 23.4319V24.8114C27.3539 25.9522 26.4255 26.8806 25.2847 26.8806ZM23.9052 22.7421C23.7223 22.7421 23.5468 22.8148 23.4175 22.9441C23.2881 23.0735 23.2154 23.2489 23.2154 23.4319V24.8114C23.2154 24.902 23.2333 24.9917 23.2679 25.0753C23.3026 25.159 23.3534 25.2351 23.4175 25.2991C23.4815 25.3632 23.5575 25.414 23.6412 25.4486C23.7249 25.4833 23.8146 25.5011 23.9052 25.5011H25.2847C25.3753 25.5011 25.465 25.4833 25.5486 25.4486C25.6323 25.414 25.7084 25.3632 25.7724 25.2991C25.8365 25.2351 25.8873 25.159 25.9219 25.0753C25.9566 24.9917 25.9744 24.902 25.9744 24.8114V23.4319C25.9744 23.3413 25.9566 23.2516 25.9219 23.1679C25.8873 23.0842 25.8365 23.0082 25.7724 22.9441C25.7084 22.8801 25.6323 22.8293 25.5486 22.7946C25.465 22.76 25.3753 22.7421 25.2847 22.7421H23.9052Z" fill="#3A5E66"/>
<path fill-rule="evenodd" clip-rule="evenodd" d="M25.2847 18.9036H10.1101C8.8036 18.9036 7.74088 17.8409 7.74088 16.5344V9.63683C7.74088 8.3303 8.8036 7.26757 10.1101 7.26757H25.2847C26.5912 7.26757 27.6539 8.3303 27.6539 9.63683V16.5344C27.6539 17.8409 26.5912 18.9036 25.2847 18.9036ZM10.1101 9.24708C10.059 9.24708 10.0083 9.25716 9.96099 9.27675C9.9137 9.29633 9.87074 9.32504 9.83454 9.36123C9.79835 9.39743 9.76964 9.44039 9.75006 9.48768C9.73047 9.53497 9.72039 9.58565 9.72039 9.63683V16.5344C9.72039 16.6377 9.76145 16.7369 9.83454 16.81C9.90764 16.883 10.0068 16.9241 10.1101 16.9241H25.2847C25.3359 16.9241 25.3866 16.914 25.4338 16.8944C25.4811 16.8749 25.5241 16.8461 25.5603 16.81C25.5965 16.7738 25.6252 16.7308 25.6448 16.6835C25.6644 16.6362 25.6744 16.5855 25.6744 16.5344V9.63683C25.6744 9.58565 25.6644 9.53497 25.6448 9.48768C25.6252 9.4404 25.5965 9.39743 25.5603 9.36123C25.5241 9.32504 25.4811 9.29633 25.4338 9.27675C25.3866 9.25716 25.3359 9.24708 25.2847 9.24708H10.1101ZM11.4896 27.1806H10.1101C8.8036 27.1806 7.74088 26.1179 7.74088 24.8114V23.4319C7.74088 22.1253 8.8036 21.0626 10.1101 21.0626H11.4896C12.7962 21.0626 13.8589 22.1253 13.8589 23.4319V24.8114C13.8589 26.1179 12.7962 27.1806 11.4896 27.1806ZM10.1101 23.0421C10.059 23.0421 10.0083 23.0522 9.96099 23.0718C9.9137 23.0914 9.87073 23.1201 9.83454 23.1563C9.79835 23.1925 9.76964 23.2354 9.75006 23.2827C9.73047 23.33 9.72039 23.3807 9.72039 23.4319V24.8114C9.72039 24.8626 9.73047 24.9132 9.75006 24.9605C9.76964 25.0078 9.79835 25.0508 9.83454 25.087C9.87074 25.1232 9.91371 25.1519 9.96099 25.1715C10.0083 25.1911 10.059 25.2011 10.1101 25.2011H11.4896C11.5408 25.2011 11.5915 25.1911 11.6388 25.1715C11.6861 25.1519 11.729 25.1232 11.7652 25.087C11.8014 25.0508 11.8301 25.0078 11.8497 24.9605C11.8693 24.9132 11.8794 24.8626 11.8794 24.8114V23.4319C11.8794 23.3285 11.8383 23.2294 11.7652 23.1563C11.6922 23.0832 11.593 23.0421 11.4896 23.0421H10.1101ZM18.3872 27.1806H17.0077C15.7011 27.1806 14.6384 26.1179 14.6384 24.8114V23.4319C14.6384 22.1253 15.7011 21.0626 17.0077 21.0626H18.3872C19.6937 21.0626 20.7564 22.1253 20.7564 23.4319V24.8114C20.7564 26.1179 19.6937 27.1806 18.3872 27.1806ZM17.0077 23.0421C16.9565 23.0421 16.9058 23.0522 16.8585 23.0718C16.8112 23.0914 16.7683 23.1201 16.7321 23.1563C16.6959 23.1925 16.6672 23.2354 16.6476 23.2827C16.628 23.33 16.6179 23.3807 16.6179 23.4319V24.8114C16.6179 24.8626 16.628 24.9132 16.6476 24.9605C16.6672 25.0078 16.6959 25.0508 16.7321 25.087C16.7683 25.1232 16.8112 25.1519 16.8585 25.1715C16.9058 25.1911 16.9565 25.2011 17.0077 25.2011H18.3872C18.4384 25.2011 18.489 25.1911 18.5363 25.1715C18.5836 25.1519 18.6266 25.1232 18.6628 25.087C18.699 25.0508 18.7277 25.0078 18.7473 24.9605C18.7668 24.9132 18.7769 24.8626 18.7769 24.8114V23.4319C18.7769 23.3807 18.7668 23.33 18.7473 23.2827C18.7277 23.2354 18.699 23.1925 18.6628 23.1563C18.6266 23.1201 18.5836 23.0914 18.5363 23.0718C18.489 23.0522 18.4384 23.0421 18.3872 23.0421H17.0077ZM25.2847 27.1806H23.9052C22.5987 27.1806 21.5359 26.1179 21.5359 24.8114V23.4319C21.5359 22.1253 22.5987 21.0626 23.9052 21.0626H25.2847C26.5912 21.0626 27.6539 22.1253 27.6539 23.4319V24.8114C27.6539 26.1179 26.5912 27.1806 25.2847 27.1806ZM23.9052 23.0421C23.8018 23.0421 23.7027 23.0832 23.6296 23.1563C23.5565 23.2294 23.5154 23.3285 23.5154 23.4319V24.8114C23.5154 24.8626 23.5255 24.9132 23.5451 24.9605C23.5647 25.0078 23.5934 25.0508 23.6296 25.087C23.6658 25.1232 23.7087 25.1519 23.756 25.1715C23.8033 25.1911 23.854 25.2011 23.9052 25.2011H25.2847C25.3359 25.2011 25.3866 25.1911 25.4338 25.1715C25.4811 25.1519 25.5241 25.1232 25.5603 25.087C25.5965 25.0508 25.6252 25.0078 25.6448 24.9605C25.6644 24.9132 25.6744 24.8626 25.6744 24.8114V23.4319C25.6744 23.3807 25.6644 23.33 25.6448 23.2827C25.6252 23.2354 25.5965 23.1925 25.5603 23.1563C25.5241 23.1201 25.4811 23.0914 25.4338 23.0718C25.3866 23.0522 25.3359 23.0421 25.2847 23.0421H23.9052ZM10.1101 18.6036H25.2847C26.4255 18.6036 27.3539 17.6752 27.3539 16.5344V9.63683C27.3539 8.49598 26.4255 7.56757 25.2847 7.56757H10.1101C8.96929 7.56757 8.04088 8.49598 8.04088 9.63683V16.5344C8.04088 17.6752 8.96929 18.6036 10.1101 18.6036ZM9.84618 8.99958C9.92987 8.96492 10.0196 8.94708 10.1101 8.94708H25.2847C25.3753 8.94708 25.465 8.96492 25.5486 8.99958C25.6323 9.03425 25.7084 9.08505 25.7724 9.1491C25.8365 9.21315 25.8873 9.28919 25.9219 9.37288C25.9566 9.45656 25.9744 9.54625 25.9744 9.63683V16.5344C25.9744 16.6249 25.9566 16.7146 25.9219 16.7983C25.8873 16.882 25.8365 16.958 25.7724 17.0221C25.7084 17.0861 25.6323 17.1369 25.5486 17.1716C25.465 17.2063 25.3753 17.2241 25.2847 17.2241H10.1101C9.92721 17.2241 9.75177 17.1514 9.62241 17.0221C9.49306 16.8927 9.42039 16.7173 9.42039 16.5344V9.63683C9.42039 9.54625 9.43823 9.45656 9.47289 9.37288C9.50756 9.28919 9.55836 9.21315 9.62241 9.1491C9.68646 9.08505 9.7625 9.03425 9.84618 8.99958ZM10.1101 26.8806H11.4896C12.6305 26.8806 13.5589 25.9522 13.5589 24.8114V23.4319C13.5589 22.291 12.6305 21.3626 11.4896 21.3626H10.1101C8.96929 21.3626 8.04088 22.291 8.04088 23.4319V24.8114C8.04088 25.9522 8.96929 26.8806 10.1101 26.8806ZM9.84618 22.7946C9.92987 22.76 10.0196 22.7421 10.1101 22.7421H11.4896C11.6726 22.7421 11.848 22.8148 11.9774 22.9441C12.1067 23.0735 12.1794 23.2489 12.1794 23.4319V24.8114C12.1794 24.902 12.1616 24.9917 12.1269 25.0753C12.0922 25.159 12.0414 25.2351 11.9774 25.2991C11.9133 25.3632 11.8373 25.414 11.7536 25.4486C11.6699 25.4833 11.5802 25.5011 11.4896 25.5011H10.1101C10.0196 25.5011 9.92987 25.4833 9.84618 25.4486C9.7625 25.414 9.68646 25.3632 9.62241 25.2991C9.55836 25.2351 9.50756 25.159 9.47289 25.0753C9.43823 24.9917 9.42039 24.902 9.42039 24.8114V23.4319C9.42039 23.3413 9.43823 23.2516 9.47289 23.1679C9.50756 23.0842 9.55836 23.0082 9.62241 22.9441C9.68646 22.8801 9.7625 22.8293 9.84618 22.7946ZM17.0077 26.8806H18.3872C19.528 26.8806 20.4564 25.9522 20.4564 24.8114V23.4319C20.4564 22.291 19.528 21.3626 18.3872 21.3626H17.0077C15.8668 21.3626 14.9384 22.291 14.9384 23.4319V24.8114C14.9384 25.9522 15.8668 26.8806 17.0077 26.8806ZM16.7437 22.7946C16.8274 22.76 16.9171 22.7421 17.0077 22.7421H18.3872C18.4777 22.7421 18.5674 22.76 18.6511 22.7946C18.7348 22.8293 18.8108 22.8801 18.8749 22.9441C18.9389 23.0082 18.9898 23.0842 19.0244 23.1679C19.0591 23.2516 19.0769 23.3413 19.0769 23.4319V24.8114C19.0769 24.902 19.0591 24.9917 19.0244 25.0753C18.9898 25.159 18.9389 25.2351 18.8749 25.2991C18.8108 25.3632 18.7348 25.414 18.6511 25.4486C18.5674 25.4833 18.4777 25.5011 18.3872 25.5011H17.0077C16.9171 25.5011 16.8274 25.4833 16.7437 25.4486C16.66 25.414 16.584 25.3632 16.5199 25.2991C16.4559 25.2351 16.4051 25.159 16.3704 25.0753C16.3358 24.9917 16.3179 24.902 16.3179 24.8114V23.4319C16.3179 23.3413 16.3358 23.2516 16.3704 23.1679C16.4051 23.0842 16.4559 23.0082 16.5199 22.9441C16.584 22.8801 16.66 22.8293 16.7437 22.7946ZM23.9052 26.8806H25.2847C26.4255 26.8806 27.3539 25.9522 27.3539 24.8114V23.4319C27.3539 22.291 26.4255 21.3626 25.2847 21.3626H23.9052C22.7643 21.3626 21.8359 22.291 21.8359 23.4319V24.8114C21.8359 25.9522 22.7643 26.8806 23.9052 26.8806ZM23.4175 22.9441C23.5468 22.8148 23.7223 22.7421 23.9052 22.7421H25.2847C25.3753 22.7421 25.465 22.76 25.5486 22.7946C25.6323 22.8293 25.7084 22.8801 25.7724 22.9441C25.8365 23.0082 25.8873 23.0842 25.9219 23.1679C25.9566 23.2516 25.9744 23.3413 25.9744 23.4319V24.8114C25.9744 24.902 25.9566 24.9917 25.9219 25.0753C25.8873 25.159 25.8365 25.2351 25.7724 25.2991C25.7084 25.3632 25.6323 25.414 25.5486 25.4486C25.465 25.4833 25.3753 25.5011 25.2847 25.5011H23.9052C23.8146 25.5011 23.7249 25.4833 23.6412 25.4486C23.5575 25.414 23.4815 25.3632 23.4175 25.2991C23.3534 25.2351 23.3026 25.159 23.2679 25.0753C23.2333 24.9917 23.2154 24.902 23.2154 24.8114V23.4319C23.2154 23.2489 23.2881 23.0735 23.4175 22.9441Z" fill="#3A5E66"/>
</g>
<defs>
<clipPath id="clip0_2371_12454">
<rect width="35" height="35" fill="white"/>
</clipPath>
</defs>
</svg>
