<svg width="35" height="35" viewBox="0 0 35 35" fill="none" xmlns="http://www.w3.org/2000/svg">
<path d="M28.5 0H4.5C3.30653 0 2.16193 0.474106 1.31802 1.31802C0.474106 2.16193 0 3.30653 0 4.5V28.5C0 29.6935 0.474106 30.8381 1.31802 31.682C2.16193 32.5259 3.30653 33 4.5 33H28.5C29.6935 33 30.8381 32.5259 31.682 31.682C32.5259 30.8381 33 29.6935 33 28.5V4.5C33 3.30653 32.5259 2.16193 31.682 1.31802C30.8381 0.474106 29.6935 0 28.5 0ZM10.5 30H4.5C4.10218 30 3.72064 29.842 3.43934 29.5607C3.15804 29.2794 3 28.8978 3 28.5V26.73C3.48101 26.9046 3.98829 26.9959 4.5 27H10.5V30ZM10.5 24H4.5C4.10218 24 3.72064 23.842 3.43934 23.5607C3.15804 23.2794 3 22.8978 3 22.5V20.73C3.48101 20.9046 3.98829 20.9959 4.5 21H10.5V24ZM10.5 18H4.5C4.10218 18 3.72064 17.842 3.43934 17.5607C3.15804 17.2794 3 16.8978 3 16.5V4.5C3 4.10218 3.15804 3.72064 3.43934 3.43934C3.72064 3.15804 4.10218 3 4.5 3H10.5V18ZM19.5 30H13.5V21H19.5V30ZM19.5 18H13.5V3H19.5V18ZM30 28.5C30 28.8978 29.842 29.2794 29.5607 29.5607C29.2794 29.842 28.8978 30 28.5 30H22.5V27H28.5C29.0117 26.9959 29.519 26.9046 30 26.73V28.5ZM30 22.5C30 22.8978 29.842 23.2794 29.5607 23.5607C29.2794 23.842 28.8978 24 28.5 24H22.5V21H28.5C29.0117 20.9959 29.519 20.9046 30 20.73V22.5ZM30 16.5C30 16.8978 29.842 17.2794 29.5607 17.5607C29.2794 17.842 28.8978 18 28.5 18H22.5V3H28.5C28.8978 3 29.2794 3.15804 29.5607 3.43934C29.842 3.72064 30 4.10218 30 4.5V16.5ZM25.5 9C25.2033 9 24.9133 9.08797 24.6666 9.2528C24.42 9.41762 24.2277 9.65189 24.1142 9.92597C24.0006 10.2001 23.9709 10.5017 24.0288 10.7926C24.0867 11.0836 24.2296 11.3509 24.4393 11.5607C24.6491 11.7704 24.9164 11.9133 25.2074 11.9712C25.4983 12.0291 25.7999 11.9994 26.074 11.8858C26.3481 11.7723 26.5824 11.58 26.7472 11.3334C26.912 11.0867 27 10.7967 27 10.5C27 10.1022 26.842 9.72065 26.5607 9.43934C26.2794 9.15804 25.8978 9 25.5 9ZM7.5 12C7.79667 12 8.08668 11.912 8.33335 11.7472C8.58003 11.5824 8.77229 11.3481 8.88582 11.074C8.99935 10.7999 9.02905 10.4983 8.97118 10.2074C8.9133 9.91639 8.77044 9.64912 8.56066 9.43934C8.35088 9.22956 8.08361 9.0867 7.79264 9.02882C7.50166 8.97094 7.20006 9.00065 6.92597 9.11418C6.65189 9.22771 6.41762 9.41997 6.2528 9.66665C6.08797 9.91332 6 10.2033 6 10.5C6 10.8978 6.15804 11.2794 6.43934 11.5607C6.72064 11.842 7.10218 12 7.5 12Z" fill="#3A5E66"/>
</svg>
