<svg width="35" height="35" viewBox="0 0 35 35" fill="none" xmlns="http://www.w3.org/2000/svg">
<path d="M29.1668 30.625H5.8335C3.35433 30.625 1.4585 28.7292 1.4585 26.25V8.75C1.4585 6.27083 3.35433 4.375 5.8335 4.375H29.1668C31.646 4.375 33.5418 6.27083 33.5418 8.75V26.25C33.5418 28.7292 31.646 30.625 29.1668 30.625ZM5.8335 7.29167C4.9585 7.29167 4.37516 7.875 4.37516 8.75V26.25C4.37516 27.125 4.9585 27.7083 5.8335 27.7083H29.1668C30.0418 27.7083 30.6252 27.125 30.6252 26.25V8.75C30.6252 7.875 30.0418 7.29167 29.1668 7.29167H5.8335Z" fill="#3A5E66"/>
<path d="M32.0835 14.5833H2.91683C2.04183 14.5833 1.4585 14 1.4585 13.125C1.4585 12.25 2.04183 11.6667 2.91683 11.6667H32.0835C32.9585 11.6667 33.5418 12.25 33.5418 13.125C33.5418 14 32.9585 14.5833 32.0835 14.5833ZM26.2502 21.875H20.4168C19.5418 21.875 18.9585 21.2917 18.9585 20.4167C18.9585 19.5417 19.5418 18.9583 20.4168 18.9583H26.2502C27.1252 18.9583 27.7085 19.5417 27.7085 20.4167C27.7085 21.2917 27.1252 21.875 26.2502 21.875Z" fill="#3A5E66"/>
</svg>
