<svg width="25" height="25" viewBox="0 0 25 25" fill="none" xmlns="http://www.w3.org/2000/svg">
<g clip-path="url(#clip0_2370_12392)">
<path d="M4.21364 13.5417C4.15114 12.849 4.15114 12.151 4.21364 11.4583H2.08343C1.94662 11.4584 1.81115 11.4314 1.68475 11.3791C1.55835 11.3267 1.4435 11.25 1.34676 11.1533C1.25001 11.0566 1.17327 10.9417 1.12091 10.8153C1.06855 10.6889 1.0416 10.5535 1.0416 10.4167C1.0416 10.2799 1.06855 10.1444 1.12091 10.018C1.17327 9.89161 1.25001 9.77677 1.34676 9.68004C1.4435 9.58331 1.55835 9.50658 1.68475 9.45424C1.81115 9.4019 1.94662 9.37498 2.08343 9.375H4.59749C5.12636 7.49473 6.1288 5.78161 7.50895 4.39948C11.9668 -0.0776081 19.1964 -0.0776081 23.6548 4.39948C23.754 4.49578 23.8331 4.61089 23.8874 4.73809C23.9418 4.86529 23.9702 5.00203 23.9711 5.14033C23.972 5.27863 23.9453 5.41573 23.8927 5.54362C23.84 5.67152 23.7624 5.78764 23.6644 5.88523C23.5664 5.98282 23.45 6.05992 23.3219 6.11202C23.1938 6.16413 23.0565 6.1902 22.9182 6.18871C22.7799 6.18722 22.6433 6.15821 22.5164 6.10337C22.3894 6.04852 22.2746 5.96894 22.1787 5.86927C18.535 2.21041 12.6287 2.21041 8.98499 5.86927C7.99749 6.85833 7.24446 8.05632 6.78134 9.375H14.5834C14.7202 9.37498 14.8557 9.4019 14.9821 9.45424C15.1085 9.50658 15.2234 9.58331 15.3201 9.68004C15.4168 9.77677 15.4936 9.89161 15.5459 10.018C15.5983 10.1444 15.6253 10.2799 15.6253 10.4167C15.6253 10.5535 15.5983 10.6889 15.5459 10.8153C15.4936 10.9417 15.4168 11.0566 15.3201 11.1533C15.2234 11.25 15.1085 11.3267 14.9821 11.3791C14.8557 11.4314 14.7202 11.4584 14.5834 11.4583H6.30739C6.23081 12.1507 6.23081 12.8493 6.30739 13.5417H12.5001C12.6369 13.5416 12.7724 13.5686 12.8988 13.6209C13.0252 13.6732 13.14 13.75 13.2368 13.8467C13.3335 13.9434 13.4103 14.0583 13.4626 14.1847C13.515 14.3111 13.5419 14.4465 13.5419 14.5833C13.5419 14.7201 13.515 14.8556 13.4626 14.982C13.4103 15.1084 13.3335 15.2232 13.2368 15.32C13.14 15.4167 13.0252 15.4934 12.8988 15.5458C12.7724 15.5981 12.6369 15.625 12.5001 15.625H6.78134C7.24437 16.9434 7.99723 18.1412 8.98447 19.1302C12.6287 22.7896 18.535 22.7896 22.1787 19.1302C22.2753 19.0333 22.39 18.9563 22.5163 18.9037C22.6425 18.8511 22.7779 18.8239 22.9147 18.8237C23.0515 18.8234 23.187 18.8501 23.3135 18.9022C23.44 18.9543 23.555 19.0308 23.6519 19.1273C23.7488 19.2239 23.8258 19.3386 23.8784 19.4648C23.931 19.5911 23.9582 19.7265 23.9585 19.8633C23.9587 20.0001 23.932 20.1356 23.8799 20.2621C23.8278 20.3886 23.7513 20.5036 23.6548 20.6005C19.1964 25.0776 11.9668 25.0776 7.50895 20.6005C6.12861 19.2184 5.12599 17.5053 4.59697 15.625H2.08343C1.94662 15.625 1.81115 15.5981 1.68475 15.5458C1.55835 15.4934 1.4435 15.4167 1.34676 15.32C1.25001 15.2232 1.17327 15.1084 1.12091 14.982C1.06855 14.8556 1.0416 14.7201 1.0416 14.5833C1.0416 14.4465 1.06855 14.3111 1.12091 14.1847C1.17327 14.0583 1.25001 13.9434 1.34676 13.8467C1.4435 13.75 1.55835 13.6732 1.68475 13.6209C1.81115 13.5686 1.94662 13.5416 2.08343 13.5417H4.21364Z" fill="#3A5E66"/>
<path fill-rule="evenodd" clip-rule="evenodd" d="M9.26806 6.15189C8.45758 6.96364 7.81211 7.92243 7.3651 8.975H14.5834C14.5834 8.975 14.5833 8.975 14.5834 8.975C14.7727 8.97498 14.9602 9.01224 15.1351 9.08467C15.3101 9.15711 15.469 9.2633 15.6029 9.39717C15.7368 9.53105 15.843 9.68998 15.9155 9.86491C15.988 10.0398 16.0253 10.2273 16.0253 10.4167C16.0253 10.606 15.988 10.7935 15.9155 10.9684C15.843 11.1433 15.7368 11.3023 15.6029 11.4362C15.469 11.57 15.3101 11.6762 15.1351 11.7487C14.9602 11.8211 14.7727 11.8584 14.5834 11.8583C14.5834 11.8583 14.5834 11.8583 14.5834 11.8583H6.67267C6.64238 12.2856 6.64238 12.7144 6.67267 13.1417H12.5C12.5001 13.1417 12.5 13.1417 12.5 13.1417C12.6894 13.1416 12.8769 13.1789 13.0518 13.2513C13.2267 13.3238 13.3857 13.43 13.5196 13.5638C13.6535 13.6977 13.7597 13.8567 13.8322 14.0316C13.9046 14.2065 13.9419 14.394 13.9419 14.5833C13.9419 14.7727 13.9046 14.9602 13.8322 15.1351C13.7597 15.31 13.6535 15.4689 13.5196 15.6028C13.3857 15.7367 13.2267 15.8429 13.0518 15.9153C12.8769 15.9878 12.6894 16.025 12.5001 16.025C12.5001 16.025 12.5001 16.025 12.5001 16.025H7.3651C7.81202 17.0773 8.45732 18.036 9.26756 18.8476C12.7555 22.35 18.4079 22.3503 21.8953 18.848C22.0289 18.7138 22.1877 18.6073 22.3625 18.5345C22.5372 18.4617 22.7246 18.424 22.914 18.4237C23.1033 18.4233 23.2908 18.4602 23.4659 18.5323C23.6409 18.6044 23.8001 18.7103 23.9342 18.8439C24.0683 18.9776 24.1748 19.1363 24.2476 19.3111C24.3204 19.4858 24.3581 19.6732 24.3585 19.8626C24.3588 20.0519 24.3219 20.2394 24.2498 20.4145C24.1777 20.5895 24.0718 20.7486 23.9382 20.8828C19.3235 25.5168 11.8397 25.5169 7.2255 20.8827C5.86871 19.5241 4.86455 17.8564 4.29804 16.025H2.08349C2.08347 16.025 2.08351 16.025 2.08349 16.025C1.89417 16.025 1.70664 15.9878 1.53172 15.9153C1.35678 15.8429 1.19783 15.7367 1.06393 15.6028C0.930039 15.4689 0.823827 15.31 0.751363 15.1351C0.678899 14.9602 0.641602 14.7727 0.641602 14.5833C0.641602 14.394 0.678899 14.2065 0.751363 14.0316C0.823827 13.8567 0.930039 13.6977 1.06393 13.5638C1.19783 13.43 1.35678 13.3238 1.53172 13.2513C1.70664 13.1789 1.89411 13.1416 2.08343 13.1417C2.08345 13.1417 2.08341 13.1417 2.08343 13.1417H3.78393C3.76104 12.7143 3.76104 12.2857 3.78393 11.8583H2.08349C2.08347 11.8583 2.08351 11.8583 2.08349 11.8583C1.89417 11.8584 1.70664 11.8211 1.53172 11.7487C1.35678 11.6762 1.19783 11.57 1.06393 11.4362C0.93004 11.3023 0.823827 11.1433 0.751363 10.9684C0.678899 10.7935 0.641602 10.606 0.641602 10.4167C0.641602 10.2273 0.678899 10.0398 0.751363 9.86491C0.823827 9.68999 0.93004 9.53105 1.06393 9.39717C1.19783 9.2633 1.35678 9.15711 1.53172 9.08467C1.70664 9.01224 1.89411 8.97498 2.08343 8.975C2.08345 8.975 2.08341 8.975 2.08343 8.975H4.29854C4.86493 7.14352 5.86899 5.47576 7.2257 4.11704C11.8391 -0.516115 19.3212 -0.516782 23.936 4.11495C24.0721 4.24772 24.1806 4.40612 24.2553 4.58103C24.3305 4.75707 24.3698 4.94631 24.3711 5.13773C24.3723 5.32914 24.3354 5.51888 24.2626 5.69589C24.1897 5.87289 24.0823 6.03361 23.9467 6.16868C23.811 6.30374 23.6499 6.41044 23.4726 6.48255C23.2952 6.55466 23.1054 6.59074 22.9139 6.58869C22.7225 6.58663 22.5335 6.54648 22.3577 6.47057C22.1832 6.39517 22.0253 6.28598 21.8931 6.14931C18.4055 2.64966 12.7547 2.65076 9.26806 6.15189ZM22.1787 5.86927C22.2746 5.96894 22.3894 6.04852 22.5164 6.10337C22.6433 6.15821 22.7799 6.18722 22.9182 6.18871C23.0565 6.1902 23.1938 6.16413 23.3219 6.11202C23.45 6.05992 23.5664 5.98282 23.6644 5.88523C23.7624 5.78764 23.84 5.67152 23.8927 5.54362C23.9453 5.41573 23.972 5.27863 23.9711 5.14033C23.9702 5.00203 23.9418 4.86529 23.8874 4.73809C23.8331 4.61089 23.754 4.49578 23.6548 4.39948C19.1964 -0.0776081 11.9668 -0.0776081 7.50895 4.39948C6.1288 5.78161 5.12636 7.49473 4.59749 9.375H2.08343C1.94662 9.37498 1.81115 9.4019 1.68475 9.45424C1.55835 9.50658 1.4435 9.58331 1.34676 9.68004C1.25001 9.77677 1.17327 9.89161 1.12091 10.018C1.06855 10.1444 1.0416 10.2799 1.0416 10.4167C1.0416 10.5535 1.06855 10.6889 1.12091 10.8153C1.17327 10.9417 1.25001 11.0566 1.34676 11.1533C1.4435 11.25 1.55835 11.3267 1.68475 11.3791C1.81115 11.4314 1.94662 11.4584 2.08343 11.4583H4.21364C4.20162 11.5915 4.19192 11.7249 4.18452 11.8583C4.16084 12.2857 4.16084 12.7143 4.18452 13.1417C4.19192 13.2751 4.20162 13.4085 4.21364 13.5417H2.08343C1.94662 13.5416 1.81115 13.5686 1.68475 13.6209C1.55835 13.6732 1.4435 13.75 1.34676 13.8467C1.25001 13.9434 1.17327 14.0583 1.12091 14.1847C1.06855 14.3111 1.0416 14.4465 1.0416 14.5833C1.0416 14.7201 1.06855 14.8556 1.12091 14.982C1.17327 15.1084 1.25001 15.2232 1.34676 15.32C1.4435 15.4167 1.55835 15.4934 1.68475 15.5458C1.81115 15.5981 1.94662 15.625 2.08343 15.625H4.59697C5.12599 17.5053 6.12861 19.2184 7.50895 20.6005C11.9668 25.0776 19.1964 25.0776 23.6548 20.6005C23.7513 20.5036 23.8278 20.3886 23.8799 20.2621C23.932 20.1356 23.9587 20.0001 23.9585 19.8633C23.9582 19.7265 23.931 19.5911 23.8784 19.4648C23.8258 19.3386 23.7488 19.2239 23.6519 19.1273C23.555 19.0308 23.44 18.9543 23.3135 18.9022C23.187 18.8501 23.0515 18.8234 22.9147 18.8237C22.7779 18.8239 22.6425 18.8511 22.5163 18.9037C22.39 18.9563 22.2753 19.0333 22.1787 19.1302C18.535 22.7896 12.6287 22.7896 8.98447 19.1302C8.09803 18.2422 7.40056 17.1859 6.93219 16.025C6.87892 15.893 6.82862 15.7596 6.78134 15.625H12.5001C12.6369 15.625 12.7724 15.5981 12.8988 15.5458C13.0252 15.4934 13.14 15.4167 13.2368 15.32C13.3335 15.2232 13.4103 15.1084 13.4626 14.982C13.515 14.8556 13.5419 14.7201 13.5419 14.5833C13.5419 14.4465 13.515 14.3111 13.4626 14.1847C13.4103 14.0583 13.3335 13.9434 13.2368 13.8467C13.14 13.75 13.0252 13.6732 12.8988 13.6209C12.7724 13.5686 12.6369 13.5416 12.5001 13.5417H6.30739C6.23081 12.8493 6.23081 12.1507 6.30739 11.4583H14.5834C14.7202 11.4584 14.8557 11.4314 14.9821 11.3791C15.1085 11.3267 15.2234 11.25 15.3201 11.1533C15.4168 11.0566 15.4936 10.9417 15.5459 10.8153C15.5983 10.6889 15.6253 10.5535 15.6253 10.4167C15.6253 10.2799 15.5983 10.1444 15.5459 10.018C15.4936 9.89161 15.4168 9.77677 15.3201 9.68004C15.2234 9.58331 15.1085 9.50658 14.9821 9.45424C14.8557 9.4019 14.7202 9.37498 14.5834 9.375H6.78134C6.82862 9.24037 6.87892 9.10701 6.93219 8.975C7.40065 7.81389 8.09831 6.75735 8.98499 5.86927C12.6287 2.21041 18.535 2.21041 22.1787 5.86927Z" fill="#3A5E66"/>
</g>
<defs>
<clipPath id="clip0_2370_12392">
<rect width="25" height="25" fill="white"/>
</clipPath>
</defs>
</svg>
