<svg width="19" height="21" viewBox="0 0 19 21" fill="none" xmlns="http://www.w3.org/2000/svg">
<path d="M18.6655 17.2861C18.2565 16.5844 17.5512 16.1559 16.7979 16.0669C16.5496 16.0131 16.3034 15.922 16.0697 15.7895C14.8865 15.1127 14.4734 13.6224 15.1286 12.4405C15.1453 12.4136 15.162 12.3846 15.1766 12.3577C15.1787 12.3535 15.1807 12.3494 15.1828 12.3473C15.4249 11.9189 15.5856 11.4387 15.6419 10.9274C15.6419 10.9212 15.6419 10.917 15.6419 10.9108C15.6419 10.9005 15.644 10.8922 15.6461 10.8819C15.6461 10.8694 15.6461 10.857 15.6461 10.8446C15.6461 10.4617 15.3352 10.1491 14.9491 10.145H12.2823C11.8942 10.145 11.577 10.4575 11.577 10.8446C11.577 11.2317 11.8921 11.5442 12.2823 11.5442H14.0226C13.6303 12.3494 12.7977 12.9062 11.8358 12.9062C10.494 12.9062 9.40893 11.8278 9.40893 10.4989C9.40893 9.17007 10.4961 8.09166 11.8358 8.09166C12.7289 8.09166 13.5093 8.57187 13.9329 9.28598C14.0539 9.49297 14.2814 9.63165 14.5401 9.63165C14.9283 9.63165 15.2454 9.3191 15.2454 8.93203C15.2454 8.79335 15.2016 8.66502 15.1307 8.55738C14.4734 7.37548 14.8865 5.88517 16.0697 5.20832C16.3013 5.07585 16.5475 4.98271 16.7979 4.93096C17.5533 4.84195 18.2565 4.41556 18.6655 3.7118C19.3541 2.5299 18.9452 1.01682 17.7536 0.333762C16.5621 -0.349297 15.0368 0.0563988 14.3502 1.2383C13.9412 1.94206 13.9204 2.76173 14.2209 3.45307C14.3002 3.69317 14.3419 3.94984 14.3419 4.21685C14.3419 5.57469 13.2443 6.67794 11.8796 6.69863C11.8671 6.69863 11.8525 6.69863 11.8399 6.69863C11.8232 6.69863 11.8086 6.69863 11.794 6.69863C10.4335 6.6738 9.33798 5.57262 9.33798 4.21685C9.33798 3.94984 9.37972 3.69524 9.45901 3.45307C9.7595 2.75966 9.73863 1.93999 9.32964 1.2383C8.63477 0.054329 7.11148 -0.351367 5.91997 0.331692C4.72846 1.01475 4.31947 2.52576 5.00808 3.70973C5.41707 4.41349 6.12238 4.84195 6.87568 4.92889C7.12608 4.98271 7.37023 5.07378 7.60185 5.20625C8.77457 5.87896 9.19192 7.34858 8.55756 8.52634C8.53043 8.5698 8.5033 8.61534 8.47826 8.66088C7.76879 9.79931 6.27262 10.1802 5.09572 9.50746C4.85367 9.36878 4.645 9.19284 4.46971 8.9962C4.01481 8.40835 3.29699 8.02749 2.49152 8.02749C1.11638 8.02749 0 9.13488 0 10.501C0 11.8671 1.11638 12.9724 2.49152 12.9724C3.29907 12.9724 4.01481 12.5916 4.46971 12.0037C4.645 11.805 4.85367 11.6312 5.09572 11.4925C6.27262 10.8198 7.76879 11.2006 8.47618 12.339C8.50122 12.3846 8.52834 12.4301 8.55547 12.4736C9.18983 13.6493 8.77249 15.121 7.59976 15.7937C7.36814 15.9282 7.12191 16.0193 6.87359 16.071C6.11821 16.16 5.41499 16.5864 5.00599 17.2902C4.31738 18.4721 4.72638 19.9852 5.91788 20.6682C7.10939 21.3513 8.63268 20.9456 9.32129 19.7637C9.73028 19.0599 9.75115 18.2403 9.45067 17.5489C9.37137 17.3088 9.32964 17.0522 9.32964 16.7851C9.32964 15.4294 10.4252 14.3282 11.7857 14.3034C11.8003 14.3034 11.817 14.3034 11.8316 14.3034C11.8462 14.3034 11.8629 14.3034 11.8796 14.3034C13.2401 14.3282 14.3335 15.4314 14.3335 16.7851C14.3335 17.0522 14.2918 17.3088 14.2125 17.5489C13.912 18.2403 13.9329 19.0599 14.3419 19.7637C15.0305 20.9456 16.5538 21.3513 17.7453 20.6682C18.9389 19.9852 19.3458 18.4742 18.6572 17.2902L18.6655 17.2861Z" fill="url(#paint0_linear_2371_12518)"/>
<defs>
<linearGradient id="paint0_linear_2371_12518" x1="3.69157" y1="18.5799" x2="19.8503" y2="2.2921" gradientUnits="userSpaceOnUse">
<stop stop-color="#00AEEF"/>
<stop offset="1" stop-color="#72BF44"/>
</linearGradient>
</defs>
</svg>
