<svg width="19" height="20" viewBox="0 0 19 20" fill="none" xmlns="http://www.w3.org/2000/svg">
<g clip-path="url(#clip0_2371_12510)">
<path d="M5.39798 8.82024V6.70452H13.1686C13.9915 6.70452 14.7058 7.16981 15.0628 7.85163C15.3311 7.47151 15.4887 7.00776 15.4887 6.50713C15.4887 5.21784 14.4436 4.17264 13.1542 4.17264H5.398V2.04854C5.398 1.73581 5.04534 1.55309 4.78987 1.73344L-0.00665039 5.11928C-0.224346 5.27296 -0.224346 5.59581 -0.00665039 5.74948L4.78987 9.13534C5.04536 9.31567 5.39798 9.13294 5.39798 8.82024ZM17.9877 14.2509L13.1911 10.865C12.9357 10.6847 12.583 10.8674 12.583 11.1801V13.2959H4.81249C3.98948 13.2959 3.27526 12.8306 2.91821 12.1488C2.64995 12.5289 2.4923 12.9926 2.4923 13.4932C2.4923 14.7826 3.53747 15.8277 4.82677 15.8277H12.583V17.9518C12.583 18.2646 12.9357 18.4473 13.1911 18.2669L17.9877 14.8811C18.2054 14.7274 18.2054 14.4045 17.9877 14.2509Z" fill="url(#paint0_linear_2371_12510)"/>
</g>
<defs>
<linearGradient id="paint0_linear_2371_12510" x1="3.3897" y1="16.4164" x2="15.964" y2="1.0257" gradientUnits="userSpaceOnUse">
<stop stop-color="#00AEEF"/>
<stop offset="1" stop-color="#72BF44"/>
</linearGradient>
<clipPath id="clip0_2371_12510">
<rect width="19" height="20" fill="white"/>
</clipPath>
</defs>
</svg>
