<svg width="36" height="35" viewBox="0 0 36 35" fill="none" xmlns="http://www.w3.org/2000/svg">
<path d="M32.5294 3.19591C32.1356 2.78442 31.4782 2.78442 31.0844 3.19591L11.2249 23.9491C11.2215 23.9527 11.2195 23.9575 11.2195 23.9624L10.589 32.7078C10.5603 33.1061 10.7712 33.4833 11.1256 33.6673L11.4759 33.8491C12.1141 34.1804 12.8829 33.75 12.9341 33.0327L13.4781 25.4078C13.4947 25.1753 13.5919 24.956 13.7531 24.7876L32.8106 4.87249C33.1806 4.48583 33.1806 3.87639 32.8106 3.48973L32.5294 3.19591Z" fill="#3A5E66"/>
<path d="M1.57663 15.7649C0.854823 16.1006 0.795495 17.1041 1.47272 17.5224L7.68863 21.3625C8.17466 21.6628 8.81303 21.4955 9.0894 20.9955L9.29994 20.6146C9.55791 20.1479 9.40429 19.5609 8.95078 19.2804L6.6069 17.8306C5.93012 17.412 5.98969 16.409 6.71126 16.0734L29.7893 5.34091C30.5544 4.98508 31.3891 5.67845 31.1797 6.49586L25.6526 28.0669C25.4852 28.7201 24.7327 29.0238 24.1588 28.6698L19.0681 25.5295C18.5821 25.2297 17.9441 25.3971 17.6679 25.8968L17.4574 26.2776C17.1993 26.7446 17.3533 27.332 17.8074 27.6123L25.6325 32.4424C26.2063 32.7965 26.959 32.4929 27.1265 31.8397L34.7383 2.14552C34.9479 1.3281 34.1132 0.634637 33.348 0.990459L1.57663 15.7649Z" fill="#3A5E66"/>
<path fill-rule="evenodd" clip-rule="evenodd" d="M7.53095 21.6177L1.31505 17.7777C0.434655 17.2338 0.511781 15.9293 1.45013 15.4929L33.2215 0.718433C34.2162 0.255865 35.3013 1.15736 35.0289 2.22002L27.4171 31.9142C27.1994 32.7633 26.2209 33.1581 25.475 32.6976L17.6498 27.8676C17.0595 27.5032 16.8593 26.7396 17.1949 26.1324L17.4053 25.7517C17.7644 25.102 18.5938 24.8844 19.2256 25.2742L24.3164 28.4145C24.718 28.6623 25.2448 28.4497 25.362 27.9925L30.8891 6.4214C31.0357 5.84921 30.4514 5.36385 29.9158 5.61293L6.83776 16.3455C6.33267 16.5803 6.29097 17.2825 6.76471 17.5755L9.10859 19.0253C9.69815 19.3899 9.89786 20.153 9.5625 20.7598L9.35196 21.1407C8.99268 21.7907 8.16279 22.0081 7.53095 21.6177ZM1.47272 17.5224C0.795495 17.1041 0.854823 16.1006 1.57663 15.7649L33.348 0.990459C34.1132 0.634637 34.9479 1.3281 34.7383 2.14552L27.1265 31.8397C26.959 32.4929 26.2063 32.7965 25.6325 32.4424L17.8074 27.6123C17.3533 27.332 17.1993 26.7446 17.4574 26.2776L17.6679 25.8968C17.9441 25.3971 18.5821 25.2297 19.0681 25.5295L24.1588 28.6698C24.7327 29.0238 25.4852 28.7201 25.6526 28.0669L31.1797 6.49586C31.3891 5.67845 30.5544 4.98508 29.7893 5.34091L6.71126 16.0734C5.98969 16.409 5.93012 17.412 6.6069 17.8306L8.95078 19.2804C9.40429 19.5609 9.55791 20.1479 9.29994 20.6146L9.0894 20.9955C8.81303 21.4955 8.17466 21.6628 7.68863 21.3625L1.47272 17.5224Z" fill="#3A5E66"/>
</svg>
