<svg width="24" height="24" viewBox="0 0 24 24" fill="none" xmlns="http://www.w3.org/2000/svg">
<path fill-rule="evenodd" clip-rule="evenodd" d="M4.08333 3C3.86097 3 3.60159 3.10461 3.37842 3.37242C3.15081 3.64555 3 4.04919 3 4.5V19.5C3 19.9508 3.15081 20.3545 3.37842 20.6276C3.60159 20.8954 3.86097 21 4.08333 21H12.4167C12.639 21 12.8984 20.8954 13.1216 20.6276C13.3492 20.3545 13.5 19.9508 13.5 19.5V17C13.5 16.4477 13.9477 16 14.5 16C15.0523 16 15.5 16.4477 15.5 17V19.5C15.5 20.3753 15.2118 21.2434 14.658 21.908C14.0998 22.5778 13.2994 23 12.4167 23H4.08333C3.20062 23 2.4002 22.5778 1.84197 21.908C1.28818 21.2434 1 20.3753 1 19.5V4.5C1 3.62473 1.28818 2.7566 1.84197 2.09205C2.4002 1.42218 3.20062 1 4.08333 1H12C12.8794 1 13.7394 1.41412 14.3664 2.00372C15.0021 2.6014 15.5 3.47584 15.5 4.5V7C15.5 7.55228 15.0523 8 14.5 8C13.9477 8 13.5 7.55228 13.5 7V4.5C13.5 4.14354 13.3231 3.76798 12.9964 3.46081C12.6612 3.14556 12.2711 3 12 3H4.08333ZM17.1931 6.23178C17.6174 5.87821 18.248 5.93554 18.6016 6.35982L22.7682 11.3598C23.0773 11.7307 23.0773 12.2693 22.7682 12.6402L18.6016 17.6402C18.248 18.0645 17.6174 18.1218 17.1931 17.7682C16.7689 17.4147 16.7115 16.7841 17.0651 16.3598L19.865 13H7.83333C7.28105 13 6.83333 12.5523 6.83333 12C6.83333 11.4477 7.28105 11 7.83333 11H19.865L17.0651 7.64018C16.7115 7.21591 16.7689 6.58534 17.1931 6.23178Z" fill="url(#paint0_linear_2371_12559)"/>
<defs>
<linearGradient id="paint0_linear_2371_12559" x1="5.27445" y1="20.4647" x2="22.1049" y2="1.71404" gradientUnits="userSpaceOnUse">
<stop stop-color="#00AEEF"/>
<stop offset="1" stop-color="#72BF44"/>
</linearGradient>
</defs>
</svg>
