<svg width="21" height="21" viewBox="0 0 21 21" fill="none" xmlns="http://www.w3.org/2000/svg">
<path fill-rule="evenodd" clip-rule="evenodd" d="M10.5 18.5C14.9183 18.5 18.5 14.9183 18.5 10.5C18.5 6.08172 14.9183 2.5 10.5 2.5C6.08172 2.5 2.5 6.08172 2.5 10.5C2.5 14.9183 6.08172 18.5 10.5 18.5ZM10.5 20C15.7467 20 20 15.7467 20 10.5C20 5.25329 15.7467 1 10.5 1C5.25329 1 1 5.25329 1 10.5C1 15.7467 5.25329 20 10.5 20Z" fill="url(#paint0_linear_2371_12517)"/>
<path fill-rule="evenodd" clip-rule="evenodd" d="M14.3409 9.52051L10.8841 13.3249C10.672 13.5584 10.328 13.5584 10.1159 13.3249L6.6591 9.52051C6.44697 9.28706 6.44697 8.90855 6.6591 8.67509C6.87122 8.44164 7.21515 8.44164 7.42728 8.67509L10.5 12.0568L13.5727 8.67509C13.7849 8.44164 14.1288 8.44164 14.3409 8.67509C14.553 8.90855 14.553 9.28706 14.3409 9.52051Z" fill="url(#paint1_linear_2371_12517)"/>
<path fill-rule="evenodd" clip-rule="evenodd" d="M14.5629 9.72226L11.1061 13.5267C10.775 13.8911 10.225 13.8911 9.89388 13.5267L6.43706 9.72226C6.12098 9.37439 6.12098 8.82121 6.43706 8.47335C6.76823 8.10888 7.31815 8.10888 7.64931 8.47335L10.5 11.6107L13.3507 8.47335C13.6819 8.10888 14.2318 8.10888 14.5629 8.47335C14.879 8.82121 14.879 9.37439 14.5629 9.72226ZM13.5727 8.67509C13.7849 8.44164 14.1288 8.44164 14.3409 8.67509C14.553 8.90855 14.553 9.28706 14.3409 9.52051L10.8841 13.3249C10.672 13.5584 10.328 13.5584 10.1159 13.3249L6.6591 9.52051C6.44697 9.28706 6.44697 8.90855 6.6591 8.67509C6.87122 8.44164 7.21515 8.44164 7.42728 8.67509L10.5 12.0568L13.5727 8.67509Z" fill="url(#paint2_linear_2371_12517)"/>
<defs>
<linearGradient id="paint0_linear_2371_12517" x1="4.69157" y1="17.8104" x2="19.2269" y2="1.61667" gradientUnits="userSpaceOnUse">
<stop stop-color="#00AEEF"/>
<stop offset="1" stop-color="#72BF44"/>
</linearGradient>
<linearGradient id="paint1_linear_2371_12517" x1="4.69157" y1="17.8104" x2="19.2269" y2="1.61667" gradientUnits="userSpaceOnUse">
<stop stop-color="#00AEEF"/>
<stop offset="1" stop-color="#72BF44"/>
</linearGradient>
<linearGradient id="paint2_linear_2371_12517" x1="4.69157" y1="17.8104" x2="19.2269" y2="1.61667" gradientUnits="userSpaceOnUse">
<stop stop-color="#00AEEF"/>
<stop offset="1" stop-color="#72BF44"/>
</linearGradient>
</defs>
</svg>
