<svg width="35" height="35" viewBox="0 0 35 35" fill="none" xmlns="http://www.w3.org/2000/svg">
<path d="M4.73529 2H13.8529C14.5784 2 15.2741 2.28818 15.7871 2.80115C16.3001 3.31412 16.5882 4.00985 16.5882 4.73529V13.8529C16.5882 14.5784 16.3001 15.2741 15.7871 15.7871C15.2741 16.3001 14.5784 16.5882 13.8529 16.5882H4.73529C4.00985 16.5882 3.31412 16.3001 2.80115 15.7871C2.28818 15.2741 2 14.5784 2 13.8529V4.73529C2 4.00985 2.28818 3.31412 2.80115 2.80115C3.31412 2.28818 4.00985 2 4.73529 2ZM4.73529 4.73529V13.8529H13.8529V4.73529H4.73529ZM4.73529 18.4118H13.8529C14.5784 18.4118 15.2741 18.6999 15.7871 19.2129C16.3001 19.7259 16.5882 20.4216 16.5882 21.1471V30.2647C16.5882 30.9902 16.3001 31.6859 15.7871 32.1989C15.2741 32.7118 14.5784 33 13.8529 33H4.73529C4.00985 33 3.31412 32.7118 2.80115 32.1989C2.28818 31.6859 2 30.9902 2 30.2647V21.1471C2 20.4216 2.28818 19.7259 2.80115 19.2129C3.31412 18.6999 4.00985 18.4118 4.73529 18.4118ZM4.73529 21.1471V30.2647H13.8529V21.1471H4.73529ZM25.7059 2C27.6404 2 29.4957 2.76849 30.8636 4.1364C32.2315 5.50431 33 7.3596 33 9.29412C33 11.2286 32.2315 13.0839 30.8636 14.4518C29.4957 15.8198 27.6404 16.5882 25.7059 16.5882C23.7714 16.5882 21.9161 15.8198 20.5482 14.4518C19.1803 13.0839 18.4118 11.2286 18.4118 9.29412C18.4118 7.3596 19.1803 5.50431 20.5482 4.1364C21.9161 2.76849 23.7714 2 25.7059 2ZM25.7059 4.73529C25.1072 4.73529 24.5144 4.85321 23.9613 5.08231C23.4082 5.31142 22.9056 5.64722 22.4823 6.07054C22.059 6.49387 21.7232 6.99643 21.4941 7.54953C21.265 8.10263 21.1471 8.69544 21.1471 9.29412C21.1471 9.89279 21.265 10.4856 21.4941 11.0387C21.7232 11.5918 22.059 12.0944 22.4823 12.5177C22.9056 12.941 23.4082 13.2768 23.9613 13.5059C24.5144 13.735 25.1072 13.8529 25.7059 13.8529C26.915 13.8529 28.0745 13.3726 28.9295 12.5177C29.7844 11.6627 30.2647 10.5032 30.2647 9.29412C30.2647 8.08504 29.7844 6.92549 28.9295 6.07054C28.0745 5.2156 26.915 4.73529 25.7059 4.73529ZM21.1471 18.4118H30.2647C30.9902 18.4118 31.6859 18.6999 32.1989 19.2129C32.7118 19.7259 33 20.4216 33 21.1471V30.2647C33 30.9902 32.7118 31.6859 32.1989 32.1989C31.6859 32.7118 30.9902 33 30.2647 33H21.1471C20.4216 33 19.7259 32.7118 19.2129 32.1989C18.6999 31.6859 18.4118 30.9902 18.4118 30.2647V21.1471C18.4118 20.4216 18.6999 19.7259 19.2129 19.2129C19.7259 18.6999 20.4216 18.4118 21.1471 18.4118ZM21.1471 21.1471V30.2647H30.2647V21.1471H21.1471Z" fill="#3A5E66"/>
</svg>
