<svg width="30" height="30" viewBox="0 0 30 30" fill="none" xmlns="http://www.w3.org/2000/svg">
<path d="M26.7188 23.1864C26.7188 24.4922 26.2779 25.5859 25.3962 26.4676C24.5145 27.3493 23.4208 27.7902 22.115 27.7902C20.6083 27.7902 19.2969 27.2321 18.1808 26.1161L5.17299 13.125C3.91183 11.8415 3.28125 10.3292 3.28125 8.58816C3.28125 6.8136 3.89509 5.30691 5.12277 4.06807C6.35045 2.82923 7.85156 2.20981 9.62612 2.20981C11.3895 2.20981 12.9129 2.84039 14.1964 4.10155L24.3248 14.2466C24.4364 14.3582 24.4922 14.481 24.4922 14.6149C24.4922 14.7935 24.322 15.053 23.9816 15.3934C23.6412 15.7338 23.3817 15.904 23.2031 15.904C23.058 15.904 22.9297 15.8482 22.8181 15.7366L12.673 5.57476C11.7913 4.71539 10.7812 4.2857 9.64286 4.2857C8.45982 4.2857 7.46094 4.70423 6.64621 5.54128C5.83147 6.37833 5.42411 7.38838 5.42411 8.57142C5.42411 9.74329 5.84821 10.7533 6.69643 11.6015L19.6875 24.6094C20.3906 25.3125 21.1998 25.664 22.115 25.664C22.8292 25.664 23.4208 25.4297 23.8895 24.9609C24.3583 24.4922 24.5926 23.9007 24.5926 23.1864C24.5926 22.2712 24.2411 21.462 23.5379 20.7589L13.8114 11.0324C13.5212 10.7645 13.1864 10.6306 12.8069 10.6306C12.4833 10.6306 12.2154 10.7366 12.0033 10.9486C11.7913 11.1607 11.6853 11.4286 11.6853 11.7522C11.6853 12.1094 11.8248 12.4386 12.1038 12.7399L18.9676 19.6038C19.0792 19.7154 19.135 19.8382 19.135 19.9721C19.135 20.1507 18.9621 20.4129 18.6161 20.7589C18.2701 21.1049 18.0078 21.2779 17.8292 21.2779C17.6953 21.2779 17.5725 21.2221 17.4609 21.1105L10.5971 14.2466C9.89397 13.5658 9.54241 12.7344 9.54241 11.7522C9.54241 10.837 9.86049 10.0614 10.4967 9.42521C11.1328 8.78905 11.9085 8.47097 12.8237 8.47097C13.8058 8.47097 14.6373 8.82253 15.3181 9.52566L25.0446 19.2522C26.1607 20.346 26.7188 21.6574 26.7188 23.1864Z" fill="#3A5E66"/>
</svg>
