<svg width="35" height="35" viewBox="0 0 35 35" fill="none" xmlns="http://www.w3.org/2000/svg">
<path d="M5.83311 30.625H33.5414C33.9282 30.6251 34.2991 30.7787 34.5725 31.0522C34.8459 31.3257 34.9996 31.6966 34.9996 32.0833C34.9996 32.4701 34.8459 32.841 34.5725 33.1145C34.2991 33.3879 33.9282 33.5416 33.5414 33.5417H1.45811C1.07137 33.5416 0.700499 33.3879 0.427057 33.1145C0.153615 32.841 0 32.4701 0 32.0833C0 31.6966 0.153615 31.3257 0.427057 31.0522C0.700499 30.7787 1.07137 30.6251 1.45811 30.625H2.91644V14.5833C2.91644 14.3918 2.95416 14.2022 3.02745 14.0253C3.10074 13.8483 3.20816 13.6876 3.34358 13.5521C3.479 13.4167 3.63976 13.3093 3.8167 13.236C3.99363 13.1627 4.18327 13.125 4.37478 13.125H7.29144V2.91668C7.29144 2.5299 7.44509 2.15897 7.71858 1.88548C7.99207 1.61199 8.363 1.45834 8.74978 1.45834H26.2498C26.6366 1.45834 27.0075 1.61199 27.281 1.88548C27.5545 2.15897 27.7081 2.5299 27.7081 2.91668V13.125H30.6248C31.0116 13.125 31.3825 13.2787 31.656 13.5521C31.9295 13.8256 32.0831 14.1966 32.0831 14.5833V27.7083C32.0831 28.0951 31.9295 28.466 31.656 28.7395C31.3825 29.013 31.0116 29.1667 30.6248 29.1667C30.238 29.1667 29.8671 29.013 29.5936 28.7395C29.3201 28.466 29.1664 28.0951 29.1664 27.7083V16.0417H5.83311V30.625ZM21.8748 4.37501V13.125H24.7914V4.37501H21.8748ZM17.4998 4.37501H10.2081V13.125H17.4998V4.37501ZM17.2664 23.485L21.3644 19.3856C21.6378 19.112 22.0088 18.9582 22.3956 18.958C22.7825 18.9579 23.1535 19.1115 23.4272 19.3849C23.7008 19.6584 23.8546 20.0293 23.8548 20.4162C23.8549 20.803 23.7014 21.1741 23.4279 21.4477L18.2771 26.5986C18.0036 26.8719 17.6327 27.0255 17.246 27.0255C16.8593 27.0255 16.4885 26.8719 16.215 26.5986L16.2092 26.5927L13.5462 23.9006C13.2754 23.6266 13.124 23.2566 13.1251 22.8713C13.1262 22.486 13.2797 22.1169 13.5521 21.8444L13.5579 21.8386C13.8314 21.5652 14.2022 21.4116 14.5889 21.4116C14.9756 21.4116 15.3465 21.5652 15.62 21.8386L17.2664 23.485Z" fill="#3A5E66"/>
</svg>
