<svg width="28" height="32" viewBox="0 0 28 32" fill="none" xmlns="http://www.w3.org/2000/svg">
<g clip-path="url(#clip0_2371_12592)">
<path d="M27.8602 8.78C27.8402 7.27 27.8202 5.63 27.8102 3.82C27.8102 3.24 27.4302 2.72 26.8802 2.56C22.7402 1.29 19.0402 0.56 14.1302 0C14.0602 0 13.9902 0 13.9202 0V0.3H13.9302L13.9202 0C11.4202 0.13 9.0802 0.45 6.9702 0.94C4.8602 1.43 2.8402 1.98 0.980205 2.56C0.430205 2.73 0.0602047 3.24 0.0602047 3.82C0.0602047 5.45 0.0402047 6.94 0.0302047 8.33H0.0202047C-0.0397953 14.21 -0.0897952 18.34 1.3302 21.79C2.7702 25.26 5.68021 28.01 11.4202 31.22C12.3902 31.76 13.1602 32.01 13.9802 32.01C14.8002 32.01 15.5802 31.76 16.5302 31.24L16.4002 31.01L16.3802 30.98L16.5202 31.24C22.2202 28.11 25.1302 25.58 26.5602 22.25C27.9802 18.94 27.9202 14.88 27.8402 8.78H27.8602ZM12.5502 29.17V29.14L12.7002 28.9C7.5302 26 5.0202 23.8 3.7902 20.9C2.5502 17.97 2.5802 14.3 2.6502 8.36C2.6602 7.25 2.6702 6.07 2.6802 4.81C4.2202 4.35 5.8502 3.92 7.5602 3.52L7.5202 3.34L7.4902 3.23L7.5602 3.52C9.4902 3.07 11.6402 2.78 13.9502 2.65C18.2802 3.14 21.6102 3.78 25.1902 4.81C25.1902 6.24 25.2202 7.58 25.2302 8.81C25.2702 11.79 25.3002 14.18 25.1702 16.19C25.0402 18.2 24.7402 19.8 24.1302 21.21C22.9102 24.01 20.4302 26.09 15.2802 28.91C14.6802 29.24 14.2902 29.36 13.9902 29.36C13.6902 29.36 13.3102 29.24 12.7002 28.9L12.5502 29.16V29.17Z" fill="#3A5E66"/>
<path d="M13.1302 21.62L23.2002 11.38C23.8402 10.73 23.8402 9.68 23.2002 9.03C22.5602 8.38 21.5102 8.38 20.8702 9.03L11.9702 18.08L7.7102 13.75C7.0702 13.1 6.0202 13.1 5.3802 13.75C4.7402 14.4 4.7402 15.45 5.3802 16.1L10.8102 21.62C11.1202 21.93 11.5402 22.11 11.9802 22.11C12.4202 22.11 12.8402 21.93 13.1502 21.62H13.1302Z" fill="#3A5E66"/>
</g>
<defs>
<clipPath id="clip0_2371_12592">
<rect width="27.89" height="32.01" fill="white"/>
</clipPath>
</defs>
</svg>
