<svg width="21" height="21" viewBox="0 0 21 21" fill="none" xmlns="http://www.w3.org/2000/svg">
<g clip-path="url(#clip0_2371_12586)">
<path d="M11.9802 10.38C11.1002 10.38 10.3802 11.1 10.3802 11.98V16.59C10.3802 17.47 11.1002 18.19 11.9802 18.19H14.1102V18.24L14.1402 18.2L17.1802 20.36L17.3302 20.16L17.1902 20.36C17.4102 20.52 17.7102 20.54 17.9502 20.41C18.1902 20.28 18.3502 20.03 18.3502 19.76V18.19H18.9102C19.7902 18.19 20.5102 17.47 20.5102 16.59V11.98C20.5102 11.1 19.7902 10.38 18.9102 10.38H11.9802ZM19.0302 16.59C19.0302 16.66 18.9702 16.72 18.9002 16.72H17.6002C17.1902 16.72 16.8602 17.05 16.8602 17.46V18.34L14.7802 16.86C14.6602 16.77 14.5102 16.72 14.3502 16.72H11.9702C11.9002 16.72 11.8402 16.66 11.8402 16.59V11.98C11.8402 11.91 11.9002 11.85 11.9702 11.85H18.8902C18.9602 11.85 19.0202 11.91 19.0202 11.98V16.59H19.0302Z" fill="#F7F7F0"/>
<path d="M19.8602 0.59C19.4602 0.21 18.9202 0 18.3602 0H2.13023C1.58023 0 1.04023 0.21 0.630234 0.59C0.230234 0.97 -0.00976562 1.5 -0.00976562 2.06V12.7C-0.00976562 13.26 0.220234 13.79 0.630234 14.17C1.03023 14.55 1.57023 14.76 2.13023 14.76H4.19023V18.02C4.19023 18.3 4.34023 18.55 4.59023 18.67L4.70023 18.45L4.68023 18.48L4.58023 18.67C4.83023 18.8 5.12023 18.77 5.35023 18.61L8.14023 16.61C8.47023 16.37 8.55024 15.91 8.31024 15.58C8.07024 15.25 7.61023 15.17 7.28023 15.41L5.65023 16.57V14.01C5.65023 13.6 5.32023 13.27 4.91023 13.27H2.12023C1.93023 13.27 1.76023 13.2 1.64023 13.08C1.52023 12.97 1.46023 12.82 1.46023 12.67V2.07C1.46023 1.92 1.52023 1.78 1.64023 1.66C1.76023 1.54 1.93023 1.47 2.12023 1.47H18.3502C18.5402 1.47 18.7102 1.54 18.8302 1.66C18.9502 1.77 19.0102 1.92 19.0102 2.07V6.04C19.0102 6.45 19.3402 6.78 19.7502 6.78C20.1602 6.78 20.4902 6.45 20.4902 6.04V2.07C20.4902 1.51 20.2602 0.98 19.8502 0.6L19.8602 0.59Z" fill="#F7F7F0"/>
</g>
<defs>
<clipPath id="clip0_2371_12586">
<rect width="20.5" height="20.5" fill="white"/>
</clipPath>
</defs>
</svg>
