<svg width="26" height="25" viewBox="0 0 26 25" fill="none" xmlns="http://www.w3.org/2000/svg">
<g clip-path="url(#clip0_2370_12347)">
<path d="M13 0C6.125 0 0.5 5.625 0.5 12.5C0.5 19.375 6.125 25 13 25C19.875 25 25.5 19.375 25.5 12.5C25.5 5.625 19.875 0 13 0ZM13 23.125C7.125 23.125 2.375 18.375 2.375 12.5C2.375 6.625 7.125 1.875 13 1.875C18.875 1.875 23.625 6.625 23.625 12.5C23.625 18.375 18.875 23.125 13 23.125ZM19.5 9C19.5 9.25 19.375 9.5 19.25 9.625L12.25 16.625C12.125 16.75 11.875 16.875 11.625 16.875C11.375 16.875 11.125 16.75 11 16.625L7 12.625C6.75 12.4038 6.55769 12.1731 6.55769 11.9231C6.55769 11.4231 6.89423 10.9615 7.51923 10.9615C7.80769 11.0096 8 11.25 8.125 11.375L11.5 14.75L17.875 8.375C18 8.25 18.25 8.125 18.5 8.125C19 8 19.5 8.5 19.5 9Z" fill="#3AA535"/>
</g>
<defs>
<clipPath id="clip0_2370_12347">
<rect width="26" height="25" fill="white"/>
</clipPath>
</defs>
</svg>
