<svg width="12" height="8" viewBox="0 0 12 8" fill="none" xmlns="http://www.w3.org/2000/svg">
<path d="M4.29987 7.94993C4.2332 7.94993 4.17209 7.93882 4.11654 7.9166C4.06098 7.89438 4.00543 7.85549 3.94987 7.79994L0.933203 4.78327C0.833203 4.68327 0.783203 4.56105 0.783203 4.4166C0.783203 4.27216 0.833203 4.14993 0.933203 4.04993C1.0332 3.94993 1.14987 3.89993 1.2832 3.89993C1.41654 3.89993 1.5332 3.94993 1.6332 4.04993L4.29987 6.7166L10.3499 0.666601C10.4499 0.566601 10.5693 0.516602 10.7082 0.516602C10.8471 0.516602 10.9665 0.566601 11.0665 0.666601C11.1665 0.766601 11.2165 0.886046 11.2165 1.02493C11.2165 1.16382 11.1665 1.28327 11.0665 1.38327L4.64987 7.79994C4.59431 7.85549 4.53876 7.89438 4.4832 7.9166C4.42765 7.93882 4.36654 7.94993 4.29987 7.94993Z" fill="white"/>
</svg>
