<?xml version="1.0" encoding="utf-8"?>
<svg xmlns="http://www.w3.org/2000/svg">
    <defs>
        <symbol id="w1" viewBox="0 0 50 50">
            <path
                d="M49.002 22.9724C46.1016 21.9471 44.1388 19.1932 44.1388 16.117C44.1975 15.6189 43.963 15.2088 43.5821 14.8573C43.2599 14.5935 42.7619 14.4764 42.3518 14.5349C39.8907 14.8865 37.5471 14.1833 35.7599 12.7478C33.9728 11.3122 32.713 9.14432 32.508 6.62479C32.4787 6.18523 32.2149 5.77508 31.8341 5.5115C31.4532 5.27703 30.9845 5.21843 30.545 5.39422C26.5606 6.82977 22.8106 4.31023 21.3166 0.882585C21.0235 0.237955 20.3497 -0.113608 19.6466 0.0330724C14.0215 1.29284 8.96296 4.8241 5.50602 9.27733C-2.49195 19.5606 -1.67173 33.7111 7.29313 42.7053C17.0491 52.4316 32.7814 52.4316 42.5081 42.7053C47.0197 38.1934 49.9984 31.7616 49.9984 24.9062C49.9395 23.9393 49.9102 23.2949 49.002 22.9724Z"
                fill="#FEA832" />
            <path
                d="M49.9983 24.9059C49.9983 31.7613 47.0197 38.1931 42.508 42.705C32.7814 52.4313 17.049 52.4313 7.29297 42.705L35.76 12.7476C37.5471 14.1831 39.8907 14.8862 42.3518 14.5347C42.7619 14.4762 43.26 14.5934 43.5821 14.857C43.963 15.2086 44.1975 15.6186 44.1388 16.1168C44.1388 19.193 46.1016 21.9469 49.002 22.9722C49.9104 23.2947 49.9397 23.9391 49.9983 24.9059Z"
                fill="#FE9923" />
            <path
                d="M18.8945 30.5175C18.1621 29.8731 17.1659 29.4922 16.1113 29.4922C13.6796 29.4922 11.7168 31.455 11.7168 33.8868C11.7168 35.0294 12.1563 36.0548 12.8593 36.8165C13.6503 37.7247 14.8221 38.2813 16.1113 38.2813C18.543 38.2813 20.5058 36.3183 20.5058 33.8868C20.5057 32.5097 19.8905 31.3087 18.8945 30.5175Z"
                fill="#994C0F" />
            <path
                d="M30.7597 29.4921C28.3365 29.4921 26.3652 27.5208 26.3652 25.0976C26.3652 22.6743 28.3365 20.7031 30.7597 20.7031C33.183 20.7031 35.1543 22.6743 35.1543 25.0976C35.1543 27.5208 33.1831 29.4921 30.7597 29.4921ZM29.2949 41.2109C27.6799 41.2109 26.3652 39.8963 26.3652 38.2812C26.3652 36.6662 27.6799 35.3515 29.2949 35.3515C30.9099 35.3515 32.2246 36.6662 32.2246 38.2812C32.2246 39.8963 30.9099 41.2109 29.2949 41.2109Z"
                fill="#713708" />
            <path
                d="M17.5761 20.7031C15.9611 20.7031 14.6465 19.3885 14.6465 17.7735C14.6465 16.1584 15.9611 14.8438 17.5761 14.8438C19.1912 14.8438 20.5058 16.1584 20.5058 17.7735C20.5058 19.3885 19.1912 20.7031 17.5761 20.7031Z"
                fill="#994C0F" />
            <path
                d="M38.0117 31.0673C38.0117 31.2597 38.0496 31.4502 38.1232 31.6279C38.1968 31.8056 38.3047 31.9671 38.4407 32.1032C38.5768 32.2392 38.7382 32.3471 38.916 32.4207C39.0937 32.4943 39.2842 32.5322 39.4765 32.5322C39.6689 32.5322 39.8594 32.4943 40.0371 32.4207C40.2148 32.3471 40.3763 32.2392 40.5123 32.1032C40.6484 31.9671 40.7563 31.8056 40.8299 31.6279C40.9035 31.4502 40.9414 31.2597 40.9414 31.0673C40.9414 30.875 40.9035 30.6845 40.8299 30.5068C40.7563 30.3291 40.6484 30.1676 40.5123 30.0315C40.3763 29.8955 40.2148 29.7876 40.0371 29.714C39.8594 29.6404 39.6689 29.6025 39.4765 29.6025C39.2842 29.6025 39.0937 29.6404 38.916 29.714C38.7382 29.7876 38.5768 29.8955 38.4407 30.0315C38.3047 30.1676 38.1968 30.3291 38.1232 30.5068C38.0496 30.6845 38.0117 30.875 38.0117 31.0673Z"
                fill="#713708" />
            <path
                d="M8.71387 25.2083C8.71383 25.4007 8.75169 25.5912 8.82529 25.7689C8.89889 25.9467 9.00679 26.1082 9.14281 26.2442C9.27884 26.3803 9.44034 26.4882 9.61808 26.5618C9.79582 26.6355 9.98632 26.6734 10.1787 26.6734C10.3711 26.6734 10.5616 26.6355 10.7393 26.5618C10.9171 26.4882 11.0786 26.3803 11.2146 26.2442C11.3506 26.1082 11.4585 25.9467 11.5321 25.7689C11.6057 25.5912 11.6436 25.4007 11.6435 25.2083C11.6436 25.0159 11.6057 24.8254 11.5321 24.6476C11.4585 24.4699 11.3506 24.3083 11.2146 24.1723C11.0786 24.0362 10.9171 23.9283 10.7393 23.8547C10.5616 23.781 10.3711 23.7432 10.1787 23.7432C9.98632 23.7432 9.79582 23.781 9.61808 23.8547C9.44034 23.9283 9.27884 24.0362 9.14281 24.1723C9.00679 24.3083 8.89889 24.4699 8.82529 24.6476C8.75169 24.8254 8.71383 25.0159 8.71387 25.2083Z"
                fill="#994C0F" />
            <path
                d="M20.5059 33.8869C20.5059 36.3184 18.5431 38.2814 16.1114 38.2814C14.8223 38.2814 13.6504 37.7248 12.8594 36.8166L18.8946 30.5176C19.8907 31.3088 20.5059 32.5098 20.5059 33.8869Z"
                fill="#713708" />
        </symbol>

        <symbol id="w2" viewBox="0 0 155 50">
            <path
                d="M44.6209 40.8703C43.6543 39.2259 42.0565 38.2092 40.2665 38.0147C39.6854 37.8703 39.1054 37.677 38.5731 37.3859C35.8154 35.7892 34.8476 32.3059 36.3954 29.5481C36.4463 29.4948 36.48 29.4274 36.492 29.3547V29.3059C37.0731 28.2903 37.412 27.177 37.5565 25.967V25.8703V25.7736C37.5565 24.8547 36.8309 24.1292 35.9598 24.1292H29.8643C28.9454 24.1292 28.2198 24.8547 28.2198 25.7736C28.2198 26.6936 28.9454 27.4181 29.8643 27.4181H33.8809C32.9609 29.3059 31.0254 30.6125 28.7998 30.6125C27.3115 30.6113 25.8846 30.0195 24.8323 28.9671C23.78 27.9146 23.1885 26.4875 23.1876 24.9992C23.1888 23.5111 23.7804 22.0843 24.8327 21.0321C25.8849 19.9798 27.3117 19.3881 28.7998 19.387C29.783 19.3827 30.7496 19.6405 31.6 20.1338C32.4505 20.6271 33.1542 21.3381 33.6387 22.1936C33.9287 22.677 34.4609 23.0159 35.042 23.0159C35.9609 23.0159 36.6865 22.2903 36.6865 21.3714C36.6865 21.0314 36.5898 20.7414 36.4454 20.4992C34.8965 17.7414 35.8643 14.2581 38.6231 12.6614C39.1554 12.3714 39.7354 12.1281 40.3165 12.0325C41.2141 11.9272 42.0749 11.6143 42.8307 11.1187C43.5865 10.623 44.2166 9.95827 44.6709 9.17697C46.2676 6.41919 45.2998 2.88808 42.542 1.2903C39.7843 -0.306365 36.252 0.661413 34.6554 3.41919C34.1948 4.19552 33.928 5.0713 33.8773 5.97252C33.8266 6.87374 33.9937 7.77391 34.3643 8.59697C34.5576 9.17697 34.6554 9.75808 34.6554 10.387C34.6564 11.9107 34.0582 13.3736 32.9899 14.46C31.9216 15.5465 30.4689 16.1691 28.9454 16.1936H28.752C27.2286 16.1691 25.7758 15.5465 24.7075 14.46C23.6392 13.3736 23.041 11.9107 23.042 10.387C23.042 9.75808 23.1387 9.17697 23.332 8.59697C23.6794 7.76845 23.8339 6.87181 23.7838 5.97481C23.7338 5.07782 23.4805 4.20393 23.0431 3.41919C21.4431 0.661413 17.9109 -0.306365 15.1531 1.2903C12.3965 2.88697 11.4287 6.41919 13.0254 9.17808C13.992 10.8225 15.5898 11.8392 17.3809 12.0336C17.9609 12.1781 18.5409 12.3714 19.0731 12.6625C21.7831 14.2103 22.7509 17.6947 21.2998 20.4036C21.2509 20.5003 21.1543 20.597 21.1054 20.7425C19.4609 23.4036 15.9765 24.2759 13.2676 22.727C12.6865 22.3881 12.2031 22.0003 11.8154 21.5159C10.7509 20.1625 9.10648 19.2425 7.2187 19.2425C3.97759 19.2414 1.36426 21.8059 1.36426 25.0003C1.36426 28.1936 3.97759 30.7592 7.12204 30.7592C8.01256 30.765 8.89209 30.5624 9.69027 30.1674C10.4884 29.7725 11.1831 29.1962 11.7187 28.4847C12.1065 28.0003 12.5898 27.6136 13.1709 27.2747C15.8798 25.6781 19.3643 26.597 21.0087 29.2581C21.0576 29.3559 21.1054 29.4525 21.202 29.597C22.6543 32.3547 21.6865 35.7903 18.9765 37.3392C18.4443 37.6292 17.8643 37.8714 17.2831 37.9681C16.3853 38.0733 15.5243 38.386 14.7683 38.8817C14.0123 39.3773 13.3821 40.0422 12.9276 40.8236C11.332 43.5803 12.2998 47.1125 15.0576 48.7092C17.8154 50.307 21.3476 49.3392 22.9443 46.5803C23.4046 45.8039 23.6713 44.9281 23.7218 44.0268C23.7722 43.1256 23.605 42.2255 23.2343 41.4025C23.0407 40.8261 22.9431 40.2217 22.9454 39.6136C22.9454 36.4681 25.4609 33.8547 28.6543 33.807H28.8476C30.3711 33.8315 31.8238 34.4542 32.8921 35.5406C33.9605 36.627 34.5587 38.09 34.5576 39.6136C34.5576 40.2425 34.4598 40.8225 34.2665 41.4025C33.9195 42.2312 33.7653 43.1279 33.8158 44.0249C33.8662 44.9219 34.1199 45.7957 34.5576 46.5803C36.1543 49.3392 39.6865 50.307 42.4443 48.7092C45.2987 47.1614 46.2176 43.6292 44.622 40.8714L44.6209 40.8703Z"
                fill="#fff" />
            <path
                d="M64.3627 18.4668C64.3627 17.2568 64.9427 16.3857 66.2494 16.3857H72.2005C73.3616 16.3857 73.8939 17.2079 73.8939 18.0301C73.8939 18.8535 73.3138 19.6757 72.2005 19.6757H67.9916V23.1601H71.9105C73.0716 23.1601 73.6527 23.9824 73.6527 24.8046C73.6527 25.6268 73.0716 26.4501 71.9105 26.4501H67.9916V30.079H72.3938C73.5561 30.079 74.0883 30.9013 74.0883 31.7235C74.0883 32.5468 73.5072 33.369 72.395 33.369H66.2005C65.1361 33.369 64.3627 32.6435 64.3627 31.579V18.4668ZM76.8461 17.9824C76.8461 17.0157 77.5716 16.1924 78.6361 16.1924C79.6527 16.1924 80.4261 16.8701 80.4261 17.9824V23.1601L86.3294 16.9179C86.5716 16.6279 87.055 16.2401 87.7327 16.2401C88.6516 16.2401 89.5227 16.9179 89.5227 17.9824C89.5227 18.6113 89.1361 19.0957 88.3616 19.9179L83.8616 24.369L89.3783 30.1279C89.9105 30.7079 90.3938 31.2401 90.3938 31.9657C90.3938 33.079 89.5227 33.6101 88.5072 33.6101C87.8294 33.6101 87.3461 33.2235 86.6683 32.499L80.475 25.8213V31.9179C80.475 32.8368 79.7494 33.659 78.685 33.659C77.6683 33.659 76.8938 32.9813 76.8938 31.9179V17.9824H76.8461ZM93.1039 17.9824C93.1039 17.0157 93.8294 16.1924 94.8939 16.1924C95.9094 16.1924 96.6839 16.8701 96.6839 17.9824V23.1601L102.587 16.9179C102.829 16.6279 103.313 16.2401 103.991 16.2401C104.909 16.2401 105.781 16.9179 105.781 17.9824C105.781 18.6113 105.394 19.0957 104.619 19.9179L100.119 24.369L105.636 30.1279C106.168 30.7079 106.652 31.2401 106.652 31.9657C106.652 33.079 105.781 33.6101 104.765 33.6101C104.087 33.6101 103.604 33.2235 102.926 32.499L96.6839 25.7246V31.8213C96.6839 32.7401 95.9583 33.5624 94.8939 33.5624C93.8783 33.5624 93.1039 32.8846 93.1039 31.8213V17.9824ZM61.6038 25.7735C61.6038 24.8535 60.8783 24.129 60.0072 24.129H53.8138C52.895 24.129 52.1694 24.8535 52.1694 25.7735C52.1694 26.6924 52.895 27.4179 53.8138 27.4179H57.8305C56.9105 29.3057 54.975 30.6124 52.7494 30.6124C51.2611 30.6112 49.8341 30.0194 48.7819 28.9669C47.7296 27.9144 47.1381 26.4873 47.1372 24.999C47.1381 23.5108 47.7296 22.0837 48.7819 21.0312C49.8341 19.9787 51.2611 19.3869 52.7494 19.3857C54.7827 19.3857 56.5716 20.499 57.5883 22.1446C57.8783 22.6768 58.4105 23.0157 59.0394 23.0157C59.9594 23.0157 60.685 22.289 60.685 21.3701C60.685 20.9835 60.5405 20.6446 60.3461 20.4024C58.7983 17.8868 55.9905 16.1446 52.7983 16.1446C47.9116 16.1446 43.895 20.1113 43.895 25.0479C43.8472 29.8857 47.8138 33.8535 52.7505 33.8535C57.2983 33.8535 61.0727 30.4179 61.6038 25.9668C61.5561 25.9179 61.6038 25.8701 61.6038 25.7735ZM113.087 18.079C113.474 16.9668 114.442 16.0957 115.652 16.0957C116.909 16.0957 117.781 16.9179 118.216 18.079L122.909 31.0957C123.055 31.4824 123.103 31.8213 123.103 31.9668C123.103 32.8857 122.328 33.5624 121.457 33.5624C120.442 33.5624 119.958 33.0301 119.716 32.3046L118.991 30.079H112.362L111.635 32.3046C111.394 33.0313 110.909 33.5635 109.894 33.5635C108.926 33.5635 108.103 32.8368 108.103 31.869C108.103 31.4824 108.201 31.1913 108.248 31.0957L113.087 18.079ZM113.377 26.7401H117.926L115.699 19.8213H115.652L113.377 26.7401ZM125.184 18.2735C125.184 17.1113 125.813 16.3857 127.022 16.3857H131.232C134.909 16.3857 137.183 18.0301 137.183 21.8046C137.183 24.4179 135.199 25.9179 132.781 26.3046L136.845 30.6601C137.183 30.999 137.328 31.3857 137.328 31.7246C137.328 32.6435 136.603 33.5624 135.538 33.5624C135.103 33.5624 134.522 33.4179 134.135 32.9335L128.813 26.499H128.764V31.6768C128.764 32.8857 127.989 33.5146 126.974 33.5146C125.957 33.5146 125.184 32.8368 125.184 31.6757V18.2735ZM128.764 23.9346H131.232C132.538 23.9346 133.457 23.1601 133.457 21.8057C133.457 20.4501 132.538 19.7246 131.232 19.7246H128.764V23.9346ZM139.409 18.2246C139.409 17.1113 140.183 16.3857 141.247 16.3857H145.215C150.586 16.3857 153.635 19.8213 153.635 25.1435C153.635 30.1768 150.393 33.4179 145.457 33.4179H141.296C140.522 33.4179 139.409 32.9824 139.409 31.6279V18.2246ZM142.989 30.1279H145.408C148.506 30.1279 149.908 27.8535 149.908 24.999C149.908 21.9501 148.457 19.7246 145.167 19.7246H142.989V30.1279Z"
                fill="#fff" />
        </symbol>

        <symbol id="w3" fill="none" viewBox="0 0 75 50">
            <path d="M47.2002 36.1C48.1002 36 49.0002 36 50.0002 36C57.4002 36 64.0002 37.7 68.5002 40.3"
                stroke="#285E69" stroke-width="2" stroke-miterlimit="10" stroke-linecap="round" />
            <path d="M68.6 9.6001C64.2 12.3001 57.5 14.0001 50 14.0001C42.6 14.0001 36 12.3001 31.5 9.7001"
                stroke="#285E69" stroke-width="2" stroke-miterlimit="10" />
            <path d="M26 25H74" stroke="#285E69" stroke-width="2" stroke-miterlimit="10" />
            <path d="M50 1V49" stroke="#285E69" stroke-width="2" stroke-miterlimit="10" />
            <path
                d="M46.3 48.7C47.5 48.9 48.8 49 50 49C63.3 49 74 38.3 74 25C74 11.7 63.3 1 50 1C36.7 1 26 11.7 26 25C26 27 26.3 28.9 26.7 30.8"
                stroke="#285E69" stroke-width="2" stroke-miterlimit="10" stroke-linecap="round" />
            <path
                d="M46.8 48.2C47.8 48.8 48.9 49 50 49C56.6 49 62 38.3 62 25C62 11.7 56.6 1 50 1C43.4 1 38 11.7 38 25C38 26.4 38.1 27.7 38.2 29C38.2 29.1 38.2 29.2 38.2 29.2"
                stroke="#285E69" stroke-width="2" stroke-miterlimit="10" stroke-linecap="round" />
            <path
                d="M12.3998 17.9001C15.2998 15.0001 17.7998 13.1001 12.6998 6.70014C7.59975 0.300136 4.09975 5.20014 1.29975 8.10014C-2.00025 11.4001 1.09975 23.5001 13.0998 35.6001C25.0998 47.7001 37.3998 50.8001 40.5998 47.5001C43.3998 44.7001 48.3998 41.2001 41.9998 36.0001C35.5998 30.8001 33.6998 33.4001 30.7998 36.3001C28.7998 38.3001 23.5998 34.1001 19.0998 29.6001C14.5998 25.1001 10.3998 19.9001 12.3998 17.9001Z"
                fill="#285E69" />
        </symbol>

        <symbol id="w4" viewBox="0 0 50 50">
            <path
                d="M44.9788 28.8681L9.62784 49.3769C6.62645 51.1182 2.77949 49.0122 2.77949 45.5089V4.49111C2.77949 0.987847 6.62645 -1.11821 9.62784 0.623057L44.9788 21.1319C47.968 22.8661 47.968 27.1339 44.9788 28.8681Z"
                fill="#285E69" />
        </symbol>

        <symbol id="w5" viewBox="0 0 50 50">
            <path
                d="M47.2493 22.3948C47.8415 23.1093 48.1693 24.0375 48.1693 25C48.1693 25.9623 47.8415 26.8907 47.2493 27.6052C43.4993 31.999 34.9635 40.5532 24.9992 40.5532C15.035 40.5532 6.49923 31.999 2.74923 27.6052C2.15695 26.8907 1.8291 25.9623 1.8291 25C1.8291 24.0375 2.15695 23.1093 2.74923 22.3948C6.49923 18.0012 15.035 9.44678 24.9992 9.44678C34.9635 9.44678 43.4993 18.0012 47.2493 22.3948Z"
                stroke="#285E69" stroke-width="2" stroke-linecap="round" stroke-linejoin="round" fill="none" />
            <path
                d="M24.9993 31.9116C28.9441 31.9116 32.1421 28.8169 32.1421 24.9992C32.1421 21.1816 28.9441 18.0869 24.9993 18.0869C21.0543 18.0869 17.8564 21.1816 17.8564 24.9992C17.8564 28.8169 21.0543 31.9116 24.9993 31.9116Z"
                stroke="#285E69" stroke-width="2" stroke-linecap="round" stroke-linejoin="round" fill="none" />
            <path
                d="M6.26259 8.31093L41.3497 43.398C42.0222 44.0705 42.9433 44.2398 43.4071 43.776L43.4071 43.776C43.8709 43.3122 43.7016 42.3911 43.0291 41.7186L7.94203 6.63148C7.26951 5.95896 6.34837 5.78973 5.8846 6.2535C5.42083 6.71726 5.59007 7.63841 6.26259 8.31093Z"
                fill="#285E69" />
        </symbol>

        <symbol id="w6" viewBox="0 0 50 50">
            <path d="M1.66699 33.3052V48.387H48.3337V33.3052" stroke="#285E69" stroke-width="2" stroke-linecap="round"
                stroke-linejoin="round" fill="none" />
            <path
                d="M22.7447 26.7197H16.1297C15.1739 26.7197 14.6513 28.0118 15.2636 28.8628L24.1333 41.1965C24.5845 41.8237 25.4155 41.8237 25.8668 41.1965L34.7365 28.8628C35.3485 28.0118 34.826 26.7197 33.87 26.7197H27.2558V9.16285C27.2558 8.70493 26.8937 8.3335 26.448 8.3335H23.552C23.1063 8.3335 22.7447 8.70493 22.7447 9.16285V26.7197Z"
                fill="#285E69" />
        </symbol>

        <symbol id="w7" viewBox="0 0 50 50">
            <path fill-rule="evenodd" clip-rule="evenodd"
                d="M10.417 6.3366L15.8857 0.806641L39.5837 25.0002L15.8857 49.1937L10.417 43.6637L28.6462 25.0002L10.417 6.3366Z"
                fill="#285E69" />
        </symbol>

        <symbol id="w8" viewBox="0 0 50 50">
            <path
                d="M48.4375 20.337C48.4375 13.304 48.4375 11.0999 48.4375 5.43652C48.4375 3.71062 47.0385 2.30811 45.3125 2.30811H4.6875C2.96162 2.30811 1.5625 3.70721 1.5625 5.43311V31.2777C1.5625 33.0035 2.96162 34.4027 4.6875 34.4027H10.6497C11.0811 34.4027 11.4309 34.7525 11.4309 35.1838V46.9102C11.4309 47.6535 12.3713 47.9768 12.8283 47.3905L20.0658 38.106"
                stroke="#285E69" stroke-width="2" stroke-linecap="round" fill="none" />
            <path
                d="M26.2334 27.9097C26.2334 27.0467 26.9331 26.3472 27.7959 26.3472H46.8749C47.7379 26.3472 48.4374 27.0467 48.4374 27.9097V39.2077C48.4374 40.0707 47.7379 40.7702 46.8749 40.7702H43.0507C42.6194 40.7702 42.2696 41.12 42.2696 41.5513V46.7965C42.2696 47.5517 41.3047 47.8675 40.8582 47.2585L36.3359 41.0895C36.1887 40.8887 35.9547 40.7702 35.7057 40.7702H27.7957C26.9331 40.7702 26.2334 40.0707 26.2334 39.2077V27.9097Z"
                stroke="#285E69" stroke-width="2" fill="none" />
        </symbol>

        <symbol id="w9" viewBox="0 0 140 50">
            <path d="M138.625 2.5H1.375V47.5H138.625V2.5Z" fill="none" />
            <path
                d="M42.297 39.5863C41.4084 38.0749 39.9398 37.1404 38.2945 36.9617C37.7603 36.829 37.2272 36.6512 36.738 36.3836C34.203 34.9162 33.3135 31.7147 34.7362 29.1799C34.783 29.131 34.8139 29.0691 34.8251 29.0023V28.9574C35.3592 28.024 35.6707 27.0007 35.8035 25.8886V25.7998V25.711C35.8035 24.8663 35.1366 24.1996 34.3358 24.1996H28.7328C27.8883 24.1996 27.2213 24.8663 27.2213 25.711C27.2213 26.5564 27.8883 27.2223 28.7328 27.2223H32.425C31.5792 28.9574 29.8001 30.1583 27.7545 30.1583C26.3865 30.1572 25.0748 29.6133 24.1076 28.6459C23.1404 27.6787 22.5965 26.3671 22.5957 24.9992C22.5968 23.6314 23.1408 22.32 24.1079 21.353C25.0751 20.3858 26.3867 19.8421 27.7545 19.841C28.6581 19.837 29.5466 20.074 30.3283 20.5275C31.1101 20.9808 31.7568 21.6342 32.2022 22.4206C32.4689 22.8649 32.958 23.1763 33.4923 23.1763C34.3369 23.1763 35.0037 22.5095 35.0037 21.6648C35.0037 21.3524 34.9149 21.0858 34.7821 20.8633C33.3584 18.3285 34.248 15.127 36.7839 13.6595C37.2731 13.393 37.8063 13.1694 38.3405 13.0815C39.1655 12.9847 39.9568 12.6972 40.6516 12.2416C41.3461 11.7861 41.9253 11.1751 42.343 10.457C43.8107 7.92235 42.921 4.67692 40.3862 3.20841C37.8511 1.74092 34.6044 2.6304 33.1368 5.16507C32.7135 5.87859 32.4682 6.68351 32.4215 7.51182C32.375 8.34012 32.5286 9.16747 32.8692 9.92393C33.0469 10.457 33.1368 10.9911 33.1368 11.5691C33.1377 12.9695 32.5879 14.3142 31.606 15.3126C30.624 16.3112 29.2886 16.8835 27.8883 16.906H27.7106C26.3102 16.8835 24.9749 16.3112 23.9929 15.3126C23.0108 14.3142 22.461 12.9695 22.462 11.5691C22.462 10.9911 22.5509 10.457 22.7285 9.92393C23.0478 9.16244 23.1899 8.33836 23.1438 7.51392C23.0978 6.6895 22.8651 5.88632 22.463 5.16507C20.9924 2.6304 17.7455 1.74092 15.2107 3.20841C12.6767 4.6759 11.7872 7.92235 13.2549 10.458C14.1434 11.9694 15.6121 12.9039 17.2583 13.0826C17.7915 13.2153 18.3247 13.393 18.8138 13.6606C21.3048 15.0831 22.1945 18.2858 20.8605 20.7754C20.8157 20.8643 20.7267 20.9531 20.6819 21.0869C19.1702 23.5328 15.9675 24.3342 13.4775 22.9108C12.9434 22.5994 12.4991 22.2428 12.1426 21.7977C11.1642 20.5538 9.65266 19.7082 7.91745 19.7082C4.93827 19.7072 2.53613 22.0642 2.53613 25.0001C2.53613 27.9351 4.93827 30.2931 7.82859 30.2931C8.64716 30.2985 9.4556 30.1122 10.1893 29.7493C10.9229 29.3863 11.5615 28.8566 12.0538 28.2028C12.4102 27.7574 12.8545 27.4021 13.3886 27.0906C15.8786 25.6231 19.0814 26.4677 20.5929 28.9135C20.6379 29.0033 20.6819 29.0922 20.7707 29.2249C22.1055 31.7596 21.216 34.9172 18.7251 36.3408C18.2358 36.6073 17.7026 36.8299 17.1684 36.9188C16.3432 37.0154 15.5518 37.303 14.8569 37.7584C14.162 38.214 13.5827 38.8251 13.165 39.5433C11.6984 42.0769 12.5879 45.3234 15.1228 46.7909C17.6577 48.2594 20.9045 47.37 22.3721 44.8342C22.7952 44.1206 23.0403 43.3157 23.0868 42.4874C23.1332 41.6591 22.9795 40.8318 22.6387 40.0754C22.4607 39.5455 22.371 38.99 22.3732 38.4313C22.3732 35.5401 24.6853 33.1384 27.6207 33.0944H27.7984C29.1987 33.1169 30.534 33.6893 31.5161 34.6877C32.498 35.6861 33.0479 37.0309 33.0469 38.4313C33.0469 39.0092 32.957 39.5423 32.7794 40.0754C32.4604 40.837 32.3187 41.6611 32.3651 42.4857C32.4115 43.3101 32.6446 44.1132 33.0469 44.8342C34.5146 47.37 37.7613 48.2594 40.2963 46.7909C42.92 45.3684 43.7646 42.1219 42.298 39.5872L42.297 39.5863Z"
                fill="white" />
            <path fill-rule="evenodd" clip-rule="evenodd"
                d="M100.671 24.9998C100.671 22.1603 102.999 19.8179 105.921 19.8179C108.842 19.8179 111.171 22.1603 111.171 24.9998C111.171 27.8393 108.842 30.1816 105.921 30.1816C102.999 30.1816 100.671 27.8393 100.671 24.9998ZM105.921 16.6816C101.29 16.6816 97.5341 20.4051 97.5341 24.9998C97.5341 29.5945 101.29 33.3179 105.921 33.3179C110.551 33.3179 114.306 29.5945 114.306 24.9998C114.306 20.4051 110.551 16.6816 105.921 16.6816ZM125.685 17.5434C125.269 17.0231 124.571 16.8222 123.942 17.0425C123.313 17.2629 122.892 17.8564 122.892 18.5225V31.489C122.892 32.3551 123.594 33.0573 124.46 33.0573C125.327 33.0573 126.029 32.3551 126.029 31.489V22.9963L133.599 32.4681C134.015 32.9885 134.715 33.1892 135.342 32.9691C135.971 32.7487 136.391 32.1552 136.391 31.489V18.5225C136.391 17.6565 135.69 16.9543 134.824 16.9543C133.958 16.9543 133.256 17.6565 133.256 18.5225V27.0152L125.685 17.5434ZM118.597 17.0916C119.463 17.0916 120.165 17.7938 120.165 18.6598V31.478C120.165 32.344 119.463 33.0462 118.597 33.0462C117.731 33.0462 117.029 32.344 117.029 31.478V18.6598C117.029 17.7938 117.731 17.0916 118.597 17.0916ZM57.3471 19.157C57.3471 18.0454 57.8794 17.245 59.0794 17.245H64.5442C65.6102 17.245 66.099 18.0004 66.099 18.7558C66.099 19.5123 65.5664 20.2677 64.5442 20.2677H60.6791V23.469H64.2778C65.344 23.469 65.8776 24.2243 65.8776 24.9798C65.8776 25.7351 65.344 26.4916 64.2778 26.4916H60.6791V29.8256H64.7217C65.7889 29.8256 66.2777 30.5809 66.2777 31.3363C66.2777 32.0927 65.744 32.848 64.7227 32.848H59.0346C58.0572 32.848 57.3471 32.1816 57.3471 31.2036V19.157ZM68.81 18.7119C68.81 17.8237 69.4763 17.0674 70.4537 17.0674C71.3872 17.0674 72.0974 17.6901 72.0974 18.7119V23.469L77.5184 17.7341C77.7406 17.4676 78.1846 17.1113 78.8068 17.1113C79.6507 17.1113 80.4506 17.7341 80.4506 18.7119C80.4506 19.2897 80.0956 19.7348 79.3844 20.4902L75.2521 24.5795L80.318 29.8705C80.8067 30.4033 81.2505 30.8923 81.2505 31.5589C81.2505 32.5816 80.4506 33.0696 79.5181 33.0696C78.8957 33.0696 78.452 32.7142 77.8294 32.0488L72.1424 25.9138V31.515C72.1424 32.3592 71.4762 33.1145 70.4986 33.1145C69.565 33.1145 68.854 32.4918 68.854 31.515V18.7119H68.81ZM54.8136 25.87C54.8136 25.0246 54.1472 24.359 53.3473 24.359H47.6603C46.8165 24.359 46.1504 25.0246 46.1504 25.87C46.1504 26.7141 46.8165 27.3807 47.6603 27.3807H51.3488C50.5039 29.1149 48.7265 30.3155 46.6831 30.3155C45.3162 30.3144 44.0058 29.7707 43.0396 28.8037C42.0733 27.8368 41.5301 26.5257 41.5294 25.1584C41.5301 23.7911 42.0733 22.4799 43.0396 21.513C44.0058 20.546 45.3162 20.0023 46.6831 20.0012C48.5501 20.0012 50.1926 21.0241 51.1262 22.5358C51.3926 23.0248 51.8813 23.3361 52.4587 23.3361C53.3035 23.3361 53.9696 22.6687 53.9696 21.8245C53.9696 21.4692 53.8371 21.1577 53.6587 20.9353C52.2373 18.6241 49.6591 17.0234 46.7278 17.0234C42.2405 17.0234 38.5522 20.6677 38.5522 25.2032C38.5082 29.6478 42.1507 33.2933 46.6839 33.2933C50.86 33.2933 54.326 30.1369 54.8136 26.0475C54.7865 26.0198 54.7928 25.9924 54.8017 25.9546C54.8071 25.9312 54.8136 25.9038 54.8136 25.87ZM84.3799 18.667C84.3799 17.779 85.0462 17.0225 86.0237 17.0225C86.9572 17.0225 87.6673 17.6451 87.6673 18.667V23.424L93.0882 17.6891C93.3106 17.4226 93.7546 17.0664 94.3769 17.0664C95.2208 17.0664 96.0205 17.6891 96.0205 18.667C96.0205 19.2448 95.6655 19.6899 94.9542 20.4452L90.822 24.5346L95.8881 29.8256C96.3767 30.3583 96.8204 30.8473 96.8204 31.5139C96.8204 32.5367 96.0205 33.0247 95.088 33.0247C94.4656 33.0247 94.0217 32.6695 93.3993 32.0039L87.7123 25.8688V31.4701C87.7123 32.3142 87.0462 33.0696 86.0685 33.0696C85.135 33.0696 84.424 32.4468 84.424 31.4701V18.667H84.3799Z"
                fill="white" />
        </symbol>

        <symbol id="w10" fill="none" viewBox="0 0 140 50">
            <path
                d="M20.4315 27.406C20.4315 26.4295 20.92 25.7263 22.0206 25.7263H27.0333C28.011 25.7263 28.4593 26.39 28.4593 27.0537C28.4593 27.7181 27.9709 28.3818 27.0333 28.3818H23.4879V31.1942H26.7889C27.7669 31.1942 28.2562 31.8579 28.2562 32.5215C28.2562 33.1851 27.7669 33.8497 26.7889 33.8497H23.4879V36.7788H27.1958C28.1746 36.7788 28.623 37.4424 28.623 38.106C28.623 38.7706 28.1337 39.4342 27.197 39.4342H21.9795C21.0828 39.4342 20.4315 38.8485 20.4315 37.9896V27.406ZM32.0096 27.015C32.0096 26.2348 32.6208 25.5702 33.5175 25.5702C34.3737 25.5702 35.0252 26.1173 35.0252 27.015V31.1942L39.9973 26.1559C40.2013 25.9217 40.6085 25.6089 41.1793 25.6089C41.9533 25.6089 42.6869 26.1559 42.6869 27.015C42.6869 27.5226 42.3612 27.9138 41.7089 28.5774L37.9188 32.17L42.5653 36.8182C43.0135 37.2865 43.4206 37.716 43.4206 38.3016C43.4206 39.2002 42.6869 39.6289 41.8317 39.6289C41.2606 39.6289 40.8537 39.3166 40.2826 38.732L35.0661 33.3422V38.263C35.0661 39.0047 34.4552 39.6683 33.5585 39.6683C32.7021 39.6683 32.05 39.1213 32.05 38.263V27.015H32.0096ZM17.044 33.3035C17.044 32.561 16.4328 31.9763 15.6991 31.9763H10.4826C9.70872 31.9763 9.09759 32.561 9.09759 33.3035C9.09759 34.0452 9.70872 34.6309 10.4826 34.6309H13.8657C13.0909 36.1546 11.4606 37.2094 9.58614 37.2094C8.33257 37.2082 7.13071 36.7307 6.24434 35.8812C5.35815 35.0315 4.85982 33.8798 4.85907 32.6785C4.85982 31.4772 5.35815 30.3252 6.24434 29.4758C7.13071 28.6264 8.33257 28.1488 9.58614 28.1477C11.2987 28.1477 12.8055 29.0463 13.6618 30.3745C13.906 30.804 14.3543 31.0776 14.8841 31.0776C15.659 31.0776 16.27 30.4911 16.27 29.7494C16.27 29.4375 16.1484 29.1639 15.9846 28.9683C14.6809 26.9379 12.316 25.5317 9.62733 25.5317C5.5114 25.5317 2.12829 28.7332 2.12829 32.718C2.08797 36.6227 5.42902 39.8254 9.58702 39.8254C13.4175 39.8254 16.5967 37.0524 17.044 33.4597C17.0037 33.4201 17.044 33.3816 17.044 33.3035Z"
                fill="white" />
            <path
                d="M108.274 33.6128L107.046 33.5897L107.023 34.8362H108.274V33.6128ZM108.274 33.8168V32.5934H107.023L107.046 33.8397L108.274 33.8168ZM113.595 39.0176L113.6 37.7943H113.598H113.595V39.0176ZM113.595 39.0176L113.591 40.241H113.593H113.596L113.595 39.0176ZM113.595 39.2216L113.59 40.4449H113.592H113.595V39.2216ZM113.595 39.2216L113.599 37.9982H113.597H113.594L113.595 39.2216ZM113.595 26.9844C109.864 26.9844 106.841 29.9977 106.841 33.7147H109.296C109.296 31.3489 111.221 29.4311 113.595 29.4311V26.9844ZM120.349 33.7147C120.349 29.9977 117.326 26.9844 113.595 26.9844V29.4311C115.97 29.4311 117.894 31.3489 117.894 33.7147H120.349ZM119.02 35.0401C119.755 35.0401 120.349 34.4466 120.349 33.7147H117.894C117.894 33.0953 118.398 32.5934 119.02 32.5934V35.0401ZM117.69 33.7147C117.69 34.4466 118.284 35.0401 119.02 35.0401V32.5934C119.641 32.5934 120.145 33.0953 120.145 33.7147H117.69ZM113.595 29.6351C115.857 29.6351 117.69 31.4615 117.69 33.7147H120.145C120.145 30.1104 117.212 27.1884 113.595 27.1884V29.6351ZM109.501 33.636C109.543 31.4193 111.36 29.6351 113.595 29.6351V27.1884C110.02 27.1884 107.113 30.0426 107.046 33.5897L109.501 33.636ZM108.274 34.8362H118.803V32.3895H108.274V34.8362ZM118.803 34.8362C118.181 34.8362 117.677 34.3341 117.677 33.7147H120.132C120.132 32.9828 119.538 32.3895 118.803 32.3895V34.8362ZM117.677 33.7147C117.677 33.0953 118.181 32.5934 118.803 32.5934V35.0401C119.538 35.0401 120.132 34.4466 120.132 33.7147H117.677ZM118.803 32.5934H108.274V35.0401H118.803V32.5934ZM113.595 37.7943C111.36 37.7943 109.543 36.01 109.501 33.7934L107.046 33.8397C107.113 37.3868 110.021 40.241 113.596 40.241L113.595 37.7943ZM115.195 37.6202C114.627 37.7895 114.183 37.7943 113.595 37.7943L113.596 40.241C114.199 40.241 114.957 40.2448 115.899 39.9642L115.195 37.6202ZM117.706 36.2217C116.563 37.077 115.774 37.4476 115.195 37.6202L115.899 39.9642C116.833 39.6858 117.881 39.1508 119.181 38.1777L117.706 36.2217ZM119.568 36.4849C119.127 35.8998 118.293 35.7818 117.706 36.2217L119.181 38.1777C118.684 38.5498 117.978 38.4497 117.605 37.9547L119.568 36.4849ZM119.304 38.3409C119.891 37.9009 120.009 37.07 119.568 36.4849L117.605 37.9547C117.231 37.4596 117.331 36.7567 117.828 36.3846L119.304 38.3409ZM115.958 40.1597C116.922 39.8722 117.991 39.3236 119.304 38.3409L117.828 36.3846C116.673 37.25 115.862 37.6343 115.255 37.8155L115.958 40.1597ZM113.598 40.4449C114.203 40.4449 114.986 40.4493 115.958 40.1597L115.255 37.8155C114.655 37.9942 114.185 37.9982 113.597 37.9982L113.598 40.4449ZM113.595 40.4449H113.598L113.597 37.9982H113.594L113.595 40.4449ZM106.841 33.7147C106.841 37.4313 109.865 40.4443 113.595 40.4449L113.594 37.9982C111.221 37.9978 109.296 36.0801 109.296 33.7147H106.841Z"
                fill="white" />
            <path d="M95.7451 22.3403V38.2978" stroke="white" stroke-width="2.7" stroke-linecap="round" />
            <path d="M102.128 22.3403V38.2978" stroke="white" stroke-width="2.7" stroke-linecap="round" />
            <path fill-rule="evenodd" clip-rule="evenodd"
                d="M125.334 20.2129C126.115 20.2131 126.747 20.9 126.747 21.7473V24.9953H129.035C129.936 24.9953 130.667 25.7878 130.667 26.7654C130.667 27.743 129.936 28.5354 129.035 28.5354H126.746L126.745 35.6877C126.746 35.7249 126.746 35.7624 126.745 35.8002C126.745 35.8105 126.745 35.8209 126.745 35.8311V35.9648C126.745 35.9735 126.745 35.9821 126.745 35.9908C126.754 36.4608 126.844 36.7351 126.924 36.8874C127.008 37.0476 127.12 37.1529 127.276 37.2288C127.647 37.4092 128.28 37.4103 128.902 37.1637C129.635 36.8729 130.446 37.2821 130.715 38.0779C130.983 38.8735 130.606 39.7545 129.873 40.0453C128.819 40.4635 127.38 40.6402 126.122 40.0298C125.463 39.7104 124.871 39.1787 124.465 38.4009C124.076 37.6577 123.903 36.7777 123.918 35.8023L123.919 28.5354H122.861C121.961 28.5354 121.23 27.743 121.23 26.7654C121.23 25.7878 121.961 24.9953 122.861 24.9953H123.92V21.7466C123.92 20.8994 124.554 20.2127 125.334 20.2129Z"
                fill="white" />
            <path fill-rule="evenodd" clip-rule="evenodd"
                d="M91.1091 27.2147C91.1091 26.5792 90.576 26.064 89.9184 26.064C89.2608 26.064 88.7277 26.5792 88.7277 27.2147V27.8413C87.5455 26.8439 86.0066 26.2384 84.3142 26.2384C80.5437 26.2384 77.5352 29.244 77.5352 32.8936C77.5352 36.5433 80.5437 39.5489 84.3142 39.5489C86.0066 39.5489 87.5455 38.9433 88.7277 37.9459V38.4924C88.7277 39.1279 89.2608 39.6431 89.9184 39.6431C90.576 39.6431 91.1091 39.1279 91.1091 38.4924V27.2147ZM80.3928 32.8936C80.3928 30.7175 82.175 29.0002 84.3142 29.0002C86.4535 29.0002 88.2357 30.7175 88.2357 32.8936C88.2357 35.0698 86.4535 36.7871 84.3142 36.7871C82.175 36.7871 80.3928 35.0698 80.3928 32.8936Z"
                fill="white" />
            <path
                d="M64.1891 39.9392C57.4418 43.762 53.9831 37.9605 53.9831 37.9605C55.4814 38.9751 58.617 39.3536 59.227 39.277C63.1868 38.8629 63.2867 33.4052 61.7884 32.4734C60.2902 31.5416 55.603 32.1127 53.9831 32.4734C51.2123 33.8242 50.4514 35.757 50.5584 38.4488C50.8795 40.83 51.9497 44.0337 54.9463 45.1755C57.9429 46.3172 62.8777 46.5117 67.4867 44.2046C72.0956 41.8977 76.1362 21.0556 76.1362 21.0556C76.1362 21.0556 76.7585 18.6868 78.0543 18.1699C78.8135 17.7626 79.641 17.4921 80.4687 17.2899C83.0239 17.0178 85.3034 15.5951 86.6825 13.294C88.9605 9.43338 87.5797 4.49059 83.6469 2.2563C79.7122 0.0220194 74.6731 1.37627 72.3903 5.23535C71.7664 6.33348 71.4051 7.55632 71.3334 8.81153C71.2623 10.0667 71.4826 11.3214 71.9783 12.4808C72.254 13.2924 71.8554 16.8109 71.1063 18.778L70.4642 20.4345C69.6701 19.3833 69.2249 18.7939 68.4308 17.7427C67.6367 16.6914 66.325 17.0114 65.0061 17.2899C62.9164 17.7311 60.4828 24.5518 60.1902 26.1286M60.1902 26.1286C59.8976 27.7055 60.4828 24.5518 60.1902 26.1286ZM60.1902 26.1286C60.1902 26.1286 62.5023 21.0556 60.6183 18.4124C58.7804 16.1937 56.3701 16.7059 54.9463 17.2899C53.3825 17.9313 52.0567 20.4345 52.0567 20.4345M60.1902 26.1286C59.8976 27.7056 60.0282 27.4347 60.4042 28.5098C61.041 30.3293 62.5934 30.5324 64.578 30.4769C66.9719 30.4102 68.6532 28.8158 69.1799 26.556C69.6003 24.7523 67.8957 21.9874 67.8957 21.9874M60.1902 26.1286C60.1902 26.1286 59.6909 21.0556 56.8795 21.0556M60.1902 26.1286C60.1902 26.1286 59.697 28.4162 58.0498 29.5451C56.7181 30.4578 55.5691 30.8496 53.9831 30.4769C52.7554 30.1885 51.9341 29.7785 51.3076 28.7169C50.6845 27.6613 51.0935 25.6109 51.0935 25.6109L52.0567 20.4345M52.0567 20.4345C52.0567 20.4345 50.4099 19.577 49.7023 18.6744C49.0786 17.8788 49.0387 17.3778 48.8461 16.3968C48.6513 15.4037 48.7391 13.8085 48.7391 13.8085C48.7391 13.8085 49.7273 11.3248 49.7023 9.66725C49.6633 7.09227 49.6875 6.09975 47.1338 3.55893C43.984 0.424825 38.8923 0.0726984 35.5756 3.04128C32.3778 5.90333 32.2776 10.2505 34.6124 13.8085C36.055 16.0069 36.3752 15.9575 38.137 16.6332C39.8493 17.2899 41.3624 17.0936 42.7459 18.3638C43.6113 19.1582 44.4583 20.7451 44.4583 20.7451C46.6785 26.6856 48.9835 34.2334 50.917 35.5793"
                stroke="white"/>
        </symbol>
    </defs>
</svg>
