<?xml version="1.0" encoding="utf-8"?>
<svg xmlns="http://www.w3.org/2000/svg">
    <defs>
        <symbol id="hexagon1" stroke="none" viewBox="0 0 30 30">
            <path
                d="M29.6184 13.4284L23.6703 3.12566C23.1614 2.24472 21.966 1.55469 20.9487 1.55469H9.05147C8.03425 1.55469 6.83878 2.24472 6.32988 3.12566L0.381242 13.4284C-0.127081 14.3093 -0.127081 15.69 0.381242 16.5709L6.32988 26.8742C6.83878 27.7552 8.03425 28.4452 9.05147 28.4452H20.9482C21.9654 28.4452 23.1609 27.7552 23.6698 26.8742L29.6178 16.5709C30.1273 15.69 30.1273 14.3099 29.6184 13.4284ZM28.7219 16.0534L22.7739 26.3567C22.4496 26.9185 21.5968 27.4107 20.9482 27.4107H9.05147C8.40342 27.4107 7.55008 26.9185 7.22634 26.3567L1.27771 16.0534C0.953967 15.4922 0.953967 14.5077 1.27771 13.9459L7.22634 3.64376C7.55008 3.08196 8.40342 2.58974 9.05147 2.58974H20.9482C21.5962 2.58974 22.4496 3.08196 22.7733 3.64376L28.7214 13.9459C29.0463 14.5071 29.0463 15.4922 28.7219 16.0534Z" />
        </symbol>

        <symbol id="type1" viewBox="0 0 30 30">
            <use href="#hexagon1" />
            <path
                d="M7.61816 13.0547V19.5547C7.61816 20.107 8.06588 20.5547 8.61816 20.5547H14.6182M7.61816 13.0547H13.1182C13.1182 13.7214 13.5182 15.0547 15.1182 15.0547C16.7182 15.0547 17.1182 13.7214 17.1182 13.0547H22.6182M7.61816 13.0547V10.5547C7.61816 10.0024 8.06588 9.55469 8.61816 9.55469H21.6182C22.1704 9.55469 22.6182 10.0024 22.6182 10.5547V13.0547M22.6182 15.0547V13.0547"
                fill="none" />
            <path
                d="M17.8508 22.888L17.8507 24.2723C17.8507 24.5112 17.5857 24.6418 17.4111 24.4888L14.881 22.2713C14.7524 22.1585 14.7524 21.9508 14.881 21.838L17.4111 19.6206C17.5857 19.4675 17.8507 19.5981 17.8507 19.8372L17.8507 21.2214L20.3181 21.2214C20.4838 21.2214 20.6181 21.3557 20.6181 21.5213L20.6181 22.588C20.6182 22.7537 20.4838 22.888 20.3181 22.888H17.8508Z"
                stroke="none" />
            <path
                d="M21.4911 19.888L21.4911 21.2723C21.4911 21.5112 21.7707 21.6418 21.9548 21.4888L24.6234 19.2713C24.7591 19.1585 24.7591 18.9508 24.6234 18.838L21.9548 16.6206C21.7707 16.4675 21.4911 16.5981 21.4911 16.8372L21.4911 18.2214H18.9182C18.7525 18.2214 18.6182 18.3557 18.6182 18.5214L18.6182 19.588C18.6182 19.7537 18.7525 19.888 18.9182 19.888L21.4911 19.888Z"
                stroke="none" />
        </symbol>

        <symbol id="type2" viewBox="0 0 30 30">
            <use href="#hexagon1" />
            <path
                d="M18 12.7377V11.2714H12C9.79086 11.2714 8 13.0623 8 15.2714C8 15.9109 8.1497 16.514 8.41552 17.0489C8.53841 17.2962 8.43757 17.5963 8.19028 17.7192C7.94299 17.8421 7.6429 17.7412 7.52 17.4939C7.187 16.8239 7 16.0688 7 15.2714C7 12.51 9.23858 10.2714 12 10.2714H18V8.80517C18 8.59321 18.2472 8.47742 18.41 8.61311L20.7695 10.5793C20.8895 10.6793 20.8895 10.8635 20.7695 10.9635L18.41 12.9297C18.2472 13.0654 18 12.9496 18 12.7377Z"
                stroke="none" />
            <path
                d="M21.8098 12.8239C22.0571 12.701 22.3572 12.8018 22.4801 13.0491C22.8131 13.7192 23.0001 14.4743 23.0001 15.2716C23.0001 18.033 20.7615 20.2716 18.0001 20.2716H12.0001V21.7379C12.0001 21.9498 11.7529 22.0656 11.5901 21.9299L9.23058 19.9637C9.11064 19.8637 9.11064 19.6795 9.23058 19.5796L11.5901 17.6133C11.7529 17.4776 12.0001 17.5934 12.0001 17.8054V19.2716H18.0001C20.2092 19.2716 22.0001 17.4808 22.0001 15.2716C22.0001 14.6321 21.8504 14.029 21.5846 13.4941C21.4617 13.2468 21.5625 12.9468 21.8098 12.8239Z"
                stroke="none" />
        </symbol>

        <symbol id="type3" viewBox="0 0 30 30" stroke="none">
            <use href="#hexagon1" />
            <path
                d="M9.3125 12.875C9.07088 12.875 8.875 13.0709 8.875 13.3125V15.0625H13.25C13.4916 15.0625 13.6875 15.2584 13.6875 15.5C13.6875 15.7217 13.7576 16.0639 13.955 16.3381C14.1364 16.59 14.4426 16.8125 15 16.8125C15.5574 16.8125 15.8636 16.59 16.045 16.3381C16.2424 16.0639 16.3125 15.7217 16.3125 15.5C16.3125 15.2584 16.5084 15.0625 16.75 15.0625H21.125V13.3125C21.125 13.0709 20.9291 12.875 20.6875 12.875H9.3125ZM21.125 15.9375H17.1428C17.0853 16.2292 16.9666 16.5555 16.755 16.8494C16.4114 17.3266 15.8426 17.6875 15 17.6875C14.1574 17.6875 13.5886 17.3266 13.245 16.8494C13.0334 16.5555 12.9147 16.2292 12.8572 15.9375H8.875V21.1875C8.875 21.4291 9.07088 21.625 9.3125 21.625H20.6875C20.9291 21.625 21.125 21.4291 21.125 21.1875V15.9375ZM8 13.3125C8 12.5876 8.58763 12 9.3125 12H20.6875C21.4124 12 22 12.5876 22 13.3125V21.1875C22 21.9124 21.4124 22.5 20.6875 22.5H9.3125C8.58763 22.5 8 21.9124 8 21.1875V13.3125Z" />
            <path
                d="M14 7.44746L12.3389 7.44746C12.0521 7.44746 11.8954 7.78295 12.0791 8.0039L14.74 11.2061C14.8754 11.369 15.1247 11.369 15.26 11.2061L17.9209 8.0039C18.1046 7.78295 17.9479 7.44746 17.661 7.44746L16 7.44731L16 5.29987C16 5.13418 15.8657 4.99986 15.7 4.99987L14.3 4.99998C14.1343 4.99999 14 5.1343 14 5.29998V7.44746Z" />
        </symbol>

        <symbol id="type4" stroke="none" viewBox="0 0 30 30">
            <use href="#hexagon1" />
            <path
                d="M9.3125 12.875C9.07088 12.875 8.875 13.0709 8.875 13.3125V15.0625H13.25C13.4916 15.0625 13.6875 15.2584 13.6875 15.5C13.6875 15.7217 13.7576 16.0639 13.955 16.3381C14.1364 16.59 14.4426 16.8125 15 16.8125C15.5574 16.8125 15.8636 16.59 16.045 16.3381C16.2424 16.0639 16.3125 15.7217 16.3125 15.5C16.3125 15.2584 16.5084 15.0625 16.75 15.0625H21.125V13.3125C21.125 13.0709 20.9291 12.875 20.6875 12.875H9.3125ZM21.125 15.9375H17.1428C17.0853 16.2292 16.9666 16.5555 16.755 16.8494C16.4114 17.3266 15.8426 17.6875 15 17.6875C14.1574 17.6875 13.5886 17.3266 13.245 16.8494C13.0334 16.5555 12.9147 16.2292 12.8572 15.9375H8.875V21.1875C8.875 21.4291 9.07088 21.625 9.3125 21.625H20.6875C20.9291 21.625 21.125 21.4291 21.125 21.1875V15.9375ZM8 13.3125C8 12.5876 8.58763 12 9.3125 12H20.6875C21.4124 12 22 12.5876 22 13.3125V21.1875C22 21.9124 21.4124 22.5 20.6875 22.5H9.3125C8.58763 22.5 8 21.9124 8 21.1875V13.3125Z" />
            <path
                d="M16 7.88066H17.6611C17.9479 7.88066 18.1046 7.54517 17.9209 7.32423L15.26 4.12198C15.1246 3.95913 14.8753 3.95913 14.74 4.12198L12.0791 7.32423C11.8954 7.54517 12.0521 7.88066 12.339 7.88066L14 7.88081L14 10.0283C14 10.1939 14.1343 10.3283 14.3 10.3283L15.7 10.3281C15.8657 10.3281 16 10.1938 16 10.0281V7.88066Z" />
        </symbol>

        <symbol id="type5" stroke="none" viewBox="0 0 30 30">
            <use href="#hexagon1" />
            <path fill-rule="evenodd" clip-rule="evenodd"
                d="M15.0676 5.07736L14.9 5L14.7324 5.07736L8.31215 8.04055H7.5C7.22386 8.04055 7 8.26441 7 8.54055V10.3405C7 10.6167 7.22386 10.8405 7.5 10.8405H8V18.0405H7.97808C7.74864 18.0405 7.54865 18.1967 7.49301 18.4193L7.04301 20.2193C6.96411 20.5349 7.20279 20.8405 7.52808 20.8405H16.7998C17.0207 20.8405 17.1998 20.6615 17.1998 20.4405C17.1998 20.2196 17.0207 20.0405 16.7998 20.0405H7.91231L8.21231 18.8405H8.4H10.4H10.8H13.5H13.9H15.9H16.3H16.7998C17.0207 18.8405 17.1998 18.6615 17.1998 18.4405C17.1998 18.2196 17.0207 18.0405 16.7998 18.0405H16.3V10.8405H19V15.5001C19 15.721 19.1791 15.9001 19.4 15.9001C19.6209 15.9001 19.8 15.721 19.8 15.5001V10.8405H21V15.1515C21 15.3724 21.1791 15.5515 21.4 15.5515C21.6209 15.5515 21.8 15.3724 21.8 15.1515V10.8405H22.3C22.5761 10.8405 22.8 10.6167 22.8 10.3405V8.54055C22.8 8.2644 22.5761 8.04055 22.3 8.04055H21.4879L15.0676 5.07736ZM15.5 10.8405H14.3V18.0405H15.5V10.8405ZM13.5 18.0405V10.8405H10.8V18.0405H13.5ZM13.5 10.0405H13.9H15.9H16.3H19H19.4H21.4H21.8H22V8.84055H21.4H8.4H7.8V10.0405H8H8.4H10.4H10.8H13.5ZM8.8 18.0405V10.8405H10V18.0405H8.8ZM19.5788 8.04055L14.9 5.8811L10.2212 8.04055H19.5788Z" />
            <path
                d="M20.4475 20V21.6611C20.4475 21.9479 20.783 22.1046 21.0039 21.9209L24.2061 19.26C24.369 19.1246 24.369 18.8753 24.2061 18.74L21.0039 16.0791C20.783 15.8954 20.4475 16.0521 20.4475 16.339L20.4473 18L18.2999 18C18.1342 18 17.9999 18.1343 17.9999 18.3L18 19.7C18 19.8657 18.1343 20 18.3 20H20.4475Z" />
        </symbol>

        <symbol id="type6" stroke="none" viewBox="0 0 30 30">
            <use href="#hexagon1" />
            <path fill-rule="evenodd" clip-rule="evenodd"
                d="M15.0676 5.07736L14.9 5L14.7324 5.07736L8.31215 8.04055H7.5C7.22386 8.04055 7 8.26441 7 8.54055V10.3405C7 10.6167 7.22386 10.8405 7.5 10.8405H8V18.0405H7.97808C7.74864 18.0405 7.54865 18.1967 7.49301 18.4193L7.04301 20.2193C6.96411 20.5349 7.20279 20.8405 7.52808 20.8405H16.7998C17.0207 20.8405 17.1998 20.6615 17.1998 20.4405C17.1998 20.2196 17.0207 20.0405 16.7998 20.0405H7.91231L8.21231 18.8405H8.4H10.4H10.8H13.5H13.9H15.9H16.3H16.7998C17.0207 18.8405 17.1998 18.6615 17.1998 18.4405C17.1998 18.2196 17.0207 18.0405 16.7998 18.0405H16.3V10.8405H19V15.5001C19 15.721 19.1791 15.9001 19.4 15.9001C19.6209 15.9001 19.8 15.721 19.8 15.5001V10.8405H21V15.1515C21 15.3724 21.1791 15.5515 21.4 15.5515C21.6209 15.5515 21.8 15.3724 21.8 15.1515V10.8405H22.3C22.5761 10.8405 22.8 10.6167 22.8 10.3405V8.54055C22.8 8.2644 22.5761 8.04055 22.3 8.04055H21.4879L15.0676 5.07736ZM15.5 10.8405H14.3V18.0405H15.5V10.8405ZM13.5 18.0405V10.8405H10.8V18.0405H13.5ZM13.5 10.0405H13.9H15.9H16.3H19H19.4H21.4H21.8H22V8.84055H21.4H8.4H7.8V10.0405H8H8.4H10.4H10.8H13.5ZM8.8 18.0405V10.8405H10V18.0405H8.8ZM19.5788 8.04055L14.9 5.8811L10.2212 8.04055H19.5788Z" />
            <path
                d="M21.8807 18V16.3389C21.8807 16.0521 21.5452 15.8954 21.3242 16.0791L18.122 18.74C17.9591 18.8754 17.9591 19.1247 18.122 19.26L21.3242 21.9209C21.5452 22.1046 21.8807 21.9479 21.8807 21.661L21.8808 20L24.0283 20C24.1939 20 24.3283 19.8657 24.3283 19.7L24.3281 18.3C24.3281 18.1343 24.1938 18 24.0281 18H21.8807Z" />
        </symbol>

        <symbol id="type7" stroke="none" viewBox="0 0 30 30">
            <use href="#hexagon1" />
            <path
                d="M18 14.1846C18 13.7445 18.4477 13.3877 19 13.3877H21C21.5523 13.3877 22 13.7445 22 14.1846V23.7472H22.5C22.7761 23.7472 23 23.9256 23 24.1456C23 24.3657 22.7761 24.5441 22.5 24.5441H7.5C7.22386 24.5441 7 24.3657 7 24.1456C7 23.9256 7.22386 23.7472 7.5 23.7472H8V21.3565C8 20.9164 8.44772 20.5596 9 20.5596H11C11.5523 20.5596 12 20.9164 12 21.3565V23.7472H13V18.169C13 17.7289 13.4477 17.3721 14 17.3721H16C16.5523 17.3721 17 17.7289 17 18.169V23.7472H18V14.1846ZM19 23.7472H21V14.1846H19V23.7472ZM16 23.7472V18.169H14V23.7472H16ZM11 23.7472V21.3565H9V23.7472H11Z" />
            <path
                d="M18.7476 12.0366L18.3765 12.3717C18.4689 12.4741 18.5996 12.5338 18.7376 12.5365C18.8755 12.5393 19.0085 12.4849 19.105 12.3863L18.7476 12.0366ZM23.5278 7.65563C23.5247 7.3795 23.2984 7.15812 23.0223 7.16116L18.5226 7.21068C18.2464 7.21372 18.0251 7.44003 18.0281 7.71615C18.0311 7.99228 18.2575 8.21366 18.5336 8.21062L22.5333 8.1666L22.5774 12.1664C22.5804 12.4425 22.8067 12.6639 23.0828 12.6608C23.359 12.6578 23.5803 12.4315 23.5773 12.1554L23.5278 7.65563ZM17.9875 11.1949L18.3586 10.8598C18.1737 10.655 17.8579 10.6387 17.6529 10.8234L17.9875 11.1949ZM14.5863 14.258L14.2152 14.5931C14.4001 14.7978 14.7159 14.8141 14.9209 14.6295L14.5863 14.258ZM7.96648 17.9588C7.75734 18.1391 7.73397 18.4549 7.91429 18.664C8.09461 18.8732 8.41033 18.8965 8.61947 18.7162L7.96648 17.9588ZM13.9027 13.5009L14.2738 13.1658C14.0917 12.9642 13.782 12.9449 13.5762 13.1222L13.9027 13.5009ZM19.105 12.3863L23.3852 8.01077L22.6704 7.31149L18.3901 11.687L19.105 12.3863ZM17.6164 11.53L18.3765 12.3717L19.1187 11.7016L18.3586 10.8598L17.6164 11.53ZM14.9209 14.6295L18.3221 11.5664L17.6529 10.8234L14.2517 13.8864L14.9209 14.6295ZM8.61947 18.7162L14.2292 13.8796L13.5762 13.1222L7.96648 17.9588L8.61947 18.7162ZM13.5316 13.836L14.2152 14.5931L14.9574 13.9229L14.2738 13.1658L13.5316 13.836Z" />
            <path fill-rule="evenodd" clip-rule="evenodd"
                d="M7.83333 7.25149C7.83333 6.90405 8.13007 6.4376 8.93151 6.03119C9.69534 5.64384 10.7798 5.3921 12 5.3921C13.2202 5.3921 14.3047 5.64384 15.0685 6.03119C15.8699 6.4376 16.1667 6.90405 16.1667 7.25149C16.1667 7.59893 15.8699 8.06538 15.0685 8.4718C14.3047 8.85914 13.2202 9.11088 12 9.11088C10.7798 9.11088 9.69534 8.85914 8.93151 8.4718C8.13007 8.06538 7.83333 7.59893 7.83333 7.25149ZM15.4133 9.31816C15.6834 9.18119 15.9408 9.01834 16.1667 8.83023V10.0406C16.1667 10.0503 16.1664 10.0602 16.166 10.0701C16.4495 9.88804 16.7282 9.70841 17 9.53164V7.25149C17 6.31529 16.2707 5.61962 15.4133 5.18482C14.5183 4.73096 13.3111 4.4624 12 4.4624C10.6889 4.4624 9.48169 4.73096 8.58668 5.18482C7.72928 5.61962 7 6.31529 7 7.25149V15.6188C7 16.0843 7.18034 16.4904 7.46709 16.8345C7.61663 16.5975 7.79897 16.3563 8.00956 16.1117C7.88678 15.9351 7.83333 15.7662 7.83333 15.6188V14.4084C8.05921 14.5965 8.31658 14.7594 8.58668 14.8963C8.72407 14.966 8.86882 15.0313 9.02018 15.092C9.27445 14.8625 9.54697 14.6314 9.83428 14.3992C9.49993 14.3024 9.19643 14.1843 8.93151 14.05C8.13007 13.6436 7.83333 13.1771 7.83333 12.8297V11.6193C8.05921 11.8074 8.31658 11.9703 8.58668 12.1072C9.47092 12.5557 10.6599 12.8232 11.9527 12.8296C12.4717 12.47 13.0075 12.1118 13.5475 11.7577C13.0704 11.849 12.5489 11.9 12 11.9C10.7798 11.9 9.69534 11.6482 8.93151 11.2609C8.13007 10.8545 7.83333 10.388 7.83333 10.0406V8.83023C8.05921 9.01834 8.31658 9.18119 8.58668 9.31816C9.48169 9.77203 10.6889 10.0406 12 10.0406C13.3111 10.0406 14.5183 9.77203 15.4133 9.31816Z" />
        </symbol>

        <symbol id="type8" viewBox="0 0 30 30">
            <use href="#hexagon1" stroke="none" />
            <path
                d="M20.5 13.85V11.1C20.5 10.4925 20.0523 10 19.5 10L8.5 10C7.9477 10 7.5 10.4925 7.5 11.1V13.85M16 21H8.5C7.9477 21 7.5 20.5075 7.5 19.9L7.5 17.15"
                fill="none" />
            <path
                d="M5.6001 15.4999C5.6001 16.6049 6.62275 17.3999 7.7501 17.3999H11.5001C11.9371 17.3999 12.4001 17.0846 12.4001 16.5713V14.4285C12.4001 13.9153 11.9371 13.5999 11.5001 13.5999H8.64297H7.7501C6.62275 13.5999 5.6001 14.3949 5.6001 15.4999ZM7.7501 16.5999C6.94444 16.5999 6.4001 16.0518 6.4001 15.4999C6.4001 14.948 6.94444 14.3999 7.7501 14.3999H8.64297H11.5001C11.5464 14.3999 11.5781 14.4161 11.5933 14.4291C11.5966 14.432 11.5988 14.4342 11.6001 14.4358V16.564C11.5988 16.5656 11.5966 16.5678 11.5933 16.5707C11.5781 16.5837 11.5464 16.5999 11.5001 16.5999H7.7501ZM11.6021 16.5611C11.6021 16.5611 11.6019 16.5614 11.6016 16.5621ZM11.6021 14.4387C11.6021 14.4387 11.602 14.4383 11.6016 14.4377Z"
                stroke="none" />
            <path
                d="M18.962 14.0981L15 17.9133L18.962 21.7285V19.5763H19.9891C22.1902 19.5763 24 17.7665 24 15.5655V14.2448C24 14.098 23.9022 14.0002 23.7554 14.0002H23.7065C23.6087 14.0002 23.5109 14.098 23.5109 14.1959C23.4131 15.3209 22.4837 16.2502 21.3098 16.2502H18.962V14.0981Z"
                fill="none" />
        </symbol>

        <symbol id="type9" viewBox="0 0 30 30">
            <use href="#hexagon1" />
            <path
                d="M19.2002 11.3701L18.9325 11.0729L19.6002 10.4714V11.3701H19.2002ZM17.677 13.7074L17.5178 13.3404L17.5178 13.3404L17.677 13.7074ZM11.1233 13.7074L11.2825 13.3404L11.2825 13.3404L11.1233 13.7074ZM9.60012 11.3705H9.20012V10.4719L9.8678 11.0733L9.60012 11.3705ZM10.7921 12.1124L10.9512 11.7454L10.9512 11.7454L10.7921 12.1124ZM18.0078 12.1124L17.8487 11.7454L17.8487 11.7454L18.0078 12.1124ZM18.8002 12.0108V11.3701H19.6002V12.0108H18.8002ZM17.5178 13.3404C17.9006 13.1744 18.2318 12.9679 18.4616 12.7334C18.6882 12.5023 18.8002 12.2627 18.8002 12.0108H19.6002C19.6002 12.5274 19.3622 12.9576 19.0329 13.2935C18.7069 13.6259 18.2765 13.8834 17.8361 14.0743L17.5178 13.3404ZM14.4002 13.9004C15.6174 13.9004 16.7198 13.6864 17.5178 13.3404L17.8361 14.0743C16.9157 14.4735 15.7003 14.7004 14.4002 14.7004V13.9004ZM11.2825 13.3404C12.0805 13.6864 13.1829 13.9004 14.4002 13.9004V14.7004C13.1001 14.7004 11.8846 14.4735 10.9642 14.0743L11.2825 13.3404ZM10.0001 12.0108C10.0001 12.2627 10.1122 12.5023 10.3387 12.7334C10.5686 12.9679 10.8997 13.1744 11.2825 13.3404L10.9642 14.0743C10.5238 13.8834 10.0934 13.6259 9.76744 13.2935C9.43814 12.9576 9.20012 12.5274 9.20012 12.0108H10.0001ZM10.0001 11.3705V12.0108H9.20012V11.3705H10.0001ZM9.8678 11.0733C10.1914 11.3647 10.5877 11.5877 10.9512 11.7454L10.633 12.4794C10.2191 12.2999 9.74035 12.0351 9.33243 11.6677L9.8678 11.0733ZM10.9512 11.7454C11.8752 12.1461 13.0954 12.3738 14.4 12.3738V13.1738C13.0126 13.1738 11.6793 12.9331 10.633 12.4794L10.9512 11.7454ZM14.4 12.3738C15.7046 12.3738 16.9247 12.1461 17.8487 11.7454L18.167 12.4794C17.1206 12.9331 15.7873 13.1738 14.4 13.1738V12.3738ZM17.8487 11.7454C18.2124 11.5877 18.6088 11.3646 18.9325 11.0729L19.4679 11.6673C19.0599 12.0349 18.581 12.2998 18.167 12.4794L17.8487 11.7454Z"
                stroke="none" />
            <path fill-rule="evenodd" clip-rule="evenodd"
                d="M17.4931 8.13346C16.6487 7.75966 15.5544 7.55469 14.4006 7.55469C13.2469 7.55469 12.1526 7.75966 11.3082 8.13346C10.5598 8.46473 9.6006 9.12858 9.6006 10.2259C9.6006 11.3232 10.5598 11.9871 11.3082 12.3183C12.1526 12.6921 13.2469 12.8971 14.4006 12.8971C15.5544 12.8971 16.6487 12.6921 17.4931 12.3183C18.2414 11.9871 19.2007 11.3232 19.2007 10.2259C19.2007 9.12858 18.2414 8.46473 17.4931 8.13346Z"
                fill="none" />
            <path
                d="M17.6001 14.4229L17.3324 14.1257L18.0001 13.5241V14.4229H17.6001ZM16.0769 16.7601L16.236 17.1271L16.236 17.1271L16.0769 16.7601ZM9.52324 16.7601L9.3641 17.1271L9.3641 17.1271L9.52324 16.7601ZM8.00002 14.4232H7.60002V13.5247L8.26771 14.126L8.00002 14.4232ZM9.19199 15.1651L9.35113 14.7981L9.35113 14.7981L9.19199 15.1651ZM16.4077 15.1651L16.2486 14.7981L16.2486 14.7981L16.4077 15.1651ZM17.2001 15.0635V14.4229H18.0001V15.0635H17.2001ZM15.9177 16.3931C16.3005 16.2271 16.6317 16.0206 16.8615 15.7861C17.0881 15.5551 17.2001 15.3155 17.2001 15.0635H18.0001C18.0001 15.5801 17.7621 16.0103 17.4328 16.3462C17.1068 16.6787 16.6764 16.9361 16.236 17.1271L15.9177 16.3931ZM12.8001 16.9531C14.0173 16.9531 15.1197 16.7392 15.9177 16.3931L16.236 17.1271C15.3156 17.5262 14.1002 17.7531 12.8001 17.7531V16.9531ZM9.68238 16.3931C10.4804 16.7392 11.5828 16.9531 12.8001 16.9531V17.7531C11.5 17.7531 10.2845 17.5262 9.3641 17.1271L9.68238 16.3931ZM8.40002 15.0635C8.40002 15.3155 8.51205 15.5551 8.73858 15.7861C8.96846 16.0206 9.29963 16.2271 9.68238 16.3931L9.3641 17.1271C8.92374 16.9361 8.4933 16.6787 8.16734 16.3462C7.83804 16.0103 7.60002 15.5801 7.60002 15.0635H8.40002ZM8.40002 14.4232V15.0635H7.60002V14.4232H8.40002ZM8.26771 14.126C8.59134 14.4175 8.9876 14.6405 9.35113 14.7981L9.03286 15.5321C8.61896 15.3526 8.14025 15.0878 7.73233 14.7204L8.26771 14.126ZM9.35113 14.7981C10.2751 15.1988 11.4953 15.4266 12.7999 15.4266V16.2266C11.4125 16.2266 10.0792 15.9858 9.03286 15.5321L9.35113 14.7981ZM12.7999 15.4266C14.1045 15.4266 15.3246 15.1988 16.2486 14.7981L16.5669 15.5321C15.5205 15.9858 14.1872 16.2266 12.7999 16.2266V15.4266ZM16.2486 14.7981C16.6123 14.6404 17.0087 14.4173 17.3324 14.1257L17.8678 14.72C17.4598 15.0876 16.9809 15.3525 16.5669 15.5321L16.2486 14.7981Z"
                stroke="none" />
            <path
                d="M9.70809 11.3711C8.95975 11.6895 8.00051 12.3277 8.00051 13.3825C8.00051 14.4374 8.95975 15.0755 9.70809 15.3939C10.5525 15.7533 11.6468 15.9503 12.8005 15.9503C13.9543 15.9503 15.0486 15.7533 15.893 15.3939C16.6413 15.0755 17.6006 14.7155 17.6006 13.6607"
                fill="none" />
            <path
                d="M11.9236 19.9318L11.7578 20.2958L11.7578 20.2958L11.9236 19.9318ZM11.7578 20.2958C10.9092 19.9091 10.0004 19.2106 10.0004 18.149H10.8004C10.8004 18.7027 11.2918 19.2043 12.0895 19.5678L11.7578 20.2958ZM15.2004 20.955C13.898 20.955 12.6801 20.716 11.7578 20.2958L12.0895 19.5678C12.8856 19.9306 13.9855 20.155 15.2004 20.155V20.955ZM16.7971 20.955H15.2004V20.155H16.7971V20.955ZM19.6005 18.149V17.4766H20.4005V18.149H19.6005ZM10.8004 17.4769V18.149H10.0004V17.4769H10.8004Z"
                stroke="none" />
            <path
                d="M17.6005 14.4238C18.3488 14.7551 19.5 15.0547 20 16.0547M10.4004 17.095C10.8004 17.8582 11.3596 18.093 12.108 18.4242C12.9524 18.798 14.0467 19.003 15.2004 19.003C16.3542 19.003 15.3534 19.003 16.3534 19.003"
                fill="none" />
            <path
                d="M29.6184 13.4284L23.6703 3.12566C23.1614 2.24472 21.966 1.55469 20.9487 1.55469H9.05147C8.03425 1.55469 6.83878 2.24472 6.32988 3.12566L0.381242 13.4284C-0.127081 14.3093 -0.127081 15.69 0.381242 16.5709L6.32988 26.8742C6.83878 27.7552 8.03425 28.4452 9.05147 28.4452H20.9482C21.9654 28.4452 23.1609 27.7552 23.6698 26.8742L29.6178 16.5709C30.1273 15.69 30.1273 14.3099 29.6184 13.4284ZM28.7219 16.0534L22.7739 26.3567C22.4496 26.9185 21.5968 27.4107 20.9482 27.4107H9.05147C8.40342 27.4107 7.55008 26.9185 7.22634 26.3567L1.27771 16.0534C0.953967 15.4922 0.953967 14.5077 1.27771 13.9459L7.22634 3.64376C7.55008 3.08196 8.40342 2.58974 9.05147 2.58974H20.9482C21.5962 2.58974 22.4496 3.08196 22.7733 3.64376L28.7214 13.9459C29.0463 14.5071 29.0463 15.4922 28.7219 16.0534Z"
                stroke="none" />
            <path
                d="M19.962 15.6528L16 19.5547L19.962 23.2832V21.131H20.9891C23.1902 21.131 25 19.3212 25 17.1201V15.7994C25 15.6527 24.9022 15.5549 24.7554 15.5549H24.7065C24.6087 15.5549 24.5109 15.6527 24.5109 15.7506C24.4131 16.8756 23.4837 17.8049 22.3098 17.8049H19.962V15.6528Z"
                fill="none" />
        </symbol>

        <symbol id="type10" viewBox="0 0 30 30">
            <use href="#hexagon1" />
            <path
                d="M13.9945 9.79817C13.9945 10.0191 13.8154 10.1981 13.5945 10.1981C13.3736 10.1981 13.1945 10.0191 13.1945 9.79817H13.9945ZM11.807 12.2903C11.807 12.5112 11.6279 12.6903 11.407 12.6903C11.1861 12.6903 11.007 12.5112 11.007 12.2903H11.807ZM13.5945 8.05038H13.1945V7.65038H13.5945V8.05038ZM12.5007 4.55479L12.2181 4.27174C12.3743 4.11578 12.6273 4.1158 12.7834 4.27179L12.5007 4.55479ZM11.407 8.05038V7.65038H11.807V8.05038H11.407ZM13.1945 9.79817V8.05038H13.9945V9.79817H13.1945ZM13.5945 7.65038H15.517V8.45038H13.5945V7.65038ZM15.3754 7.99162C14.2138 6.83128 13.4664 6.08475 12.218 4.83779L12.7834 4.27179C14.0318 5.51875 14.7791 6.26528 15.9407 7.42562L15.3754 7.99162ZM12.7834 4.83783L9.62485 7.9919L9.05956 7.42582L12.2181 4.27174L12.7834 4.83783ZM9.48352 7.65038H11.407V8.45038H9.48352V7.65038ZM11.807 8.05038V12.2903H11.007V8.05038H11.807ZM9.62485 7.9919C9.75098 7.86595 9.66177 7.65038 9.48352 7.65038V8.45038C8.94878 8.45038 8.68117 7.80367 9.05956 7.42582L9.62485 7.9919ZM15.517 7.65038C15.3372 7.65038 15.2504 7.86677 15.3754 7.99162L15.9407 7.42562C16.3179 7.80239 16.0533 8.45038 15.517 8.45038V7.65038Z"
                stroke="none" />
            <path
                d="M8.90013 16.5548C8.90013 16.7757 8.72104 16.9548 8.50013 16.9548C8.27922 16.9548 8.10013 16.7757 8.10013 16.5548H8.90013ZM11.2295 10.2271L11.5572 10.4565L11.0984 11.1119L10.7707 10.8825L11.2295 10.2271ZM9.57156 9.55479L9.29096 9.26972C9.42843 9.1344 9.64291 9.11647 9.80094 9.22709L9.57156 9.55479ZM8.50013 13.0703V12.6703H8.90013V13.0703H8.50013ZM9.85216 9.83985L6.62871 13.0128L6.06751 12.4427L9.29096 9.26972L9.85216 9.83985ZM6.48841 12.6703H8.50013V13.4703H6.48841V12.6703ZM8.90013 13.0703V16.5548H8.10013V13.0703H8.90013ZM10.7707 10.8825L10.0564 10.3825L10.5152 9.72709L11.2295 10.2271L10.7707 10.8825ZM10.0564 10.3825L9.34217 9.88248L9.80094 9.22709L10.5152 9.72709L10.0564 10.3825ZM6.62871 13.0128C6.75624 12.8873 6.66736 12.6703 6.48841 12.6703V13.4703C5.95159 13.4703 5.68493 12.8193 6.06751 12.4427L6.62871 13.0128Z"
                stroke="none" />

            <path fill-rule="evenodd" clip-rule="evenodd"
                d="M23.2 13.5547C23.2 15.8743 21.3196 17.7547 19 17.7547C16.6804 17.7547 14.8 15.8743 14.8 13.5547C14.8 11.2351 16.6804 9.35469 19 9.35469C21.3196 9.35469 23.2 11.2351 23.2 13.5547ZM24 13.5547C24 16.3161 21.7614 18.5547 19 18.5547C16.2386 18.5547 14 16.3161 14 13.5547C14 10.7933 16.2386 8.55469 19 8.55469C21.7614 8.55469 24 10.7933 24 13.5547ZM20.5712 12.0419C20.5028 12.0564 20.4357 12.0816 20.3718 12.1185C20.0475 12.3058 19.934 12.7181 20.1142 13.0445C20.1335 13.0745 20.1453 13.1101 20.1453 13.1483C20.1453 13.2552 20.0589 13.3414 19.9522 13.3414C19.8812 13.3414 19.8193 13.303 19.7857 13.2459C19.6701 13.0487 19.4563 12.9158 19.2111 12.9158C18.8435 12.9158 18.5456 13.2138 18.5456 13.5813C18.5456 13.9487 18.8435 14.2467 19.2111 14.2467C19.4752 14.2467 19.703 14.093 19.8106 13.8703H19.3337C19.227 13.8703 19.1406 13.7838 19.1406 13.6771C19.1406 13.5704 19.2273 13.4838 19.334 13.4838L20.0652 13.484C20.1709 13.4851 20.2565 13.5708 20.2565 13.6771C20.2565 13.6805 20.257 13.6842 20.2568 13.6877L20.2558 13.6954L20.2553 13.6999C20.2396 13.8407 20.1956 13.9734 20.1296 14.092L20.1276 14.095C20.1231 14.103 20.1188 14.1106 20.1142 14.1182C19.934 14.4446 20.0475 14.8564 20.3718 15.0437C20.4358 15.0806 20.503 15.1059 20.5713 15.1207C20.7781 15.145 20.9714 15.2631 21.0836 15.4575C21.272 15.7845 21.1602 16.2023 20.8334 16.391C20.5065 16.5797 20.0887 16.4677 19.8999 16.1407C19.7877 15.9465 19.7818 15.7201 19.8642 15.5287C19.8857 15.4623 19.8974 15.3912 19.8974 15.3177C19.8974 14.9433 19.5975 14.6389 19.2245 14.6318C19.2222 14.6318 19.2199 14.6318 19.2177 14.6319C19.2155 14.632 19.2133 14.6321 19.2111 14.6321C19.209 14.6321 19.2068 14.632 19.2047 14.6319C19.2025 14.6318 19.2004 14.6318 19.1982 14.6318C18.8251 14.6387 18.5248 14.943 18.5248 15.3177C18.5248 15.3912 18.5365 15.4623 18.5581 15.5287C18.6405 15.7201 18.6345 15.9465 18.5223 16.1407C18.3335 16.4677 17.9158 16.5798 17.589 16.3909C17.2622 16.2023 17.1502 15.7845 17.339 15.4575C17.451 15.2631 17.6442 15.1448 17.8511 15.1207C17.9194 15.1059 17.9867 15.0806 18.0504 15.0437C18.3719 14.8581 18.4862 14.4516 18.3125 14.1263C18.3051 14.114 18.298 14.1016 18.291 14.0889C18.0969 13.7744 17.6864 13.669 17.3641 13.8551C17.2974 13.8937 17.2405 13.9418 17.1924 13.9964C17.0676 14.1592 16.8711 14.2646 16.65 14.2646C16.2728 14.2646 15.9668 13.9585 15.9668 13.5813C15.9668 13.204 16.2726 12.8979 16.65 12.8979C16.8709 12.8979 17.0673 13.0032 17.1922 13.1658C17.2404 13.2204 17.2974 13.2689 17.3641 13.3073C17.6866 13.4934 18.0971 13.388 18.2912 13.0733C18.2981 13.0607 18.3052 13.0483 18.3127 13.0361C18.4864 12.711 18.3721 12.3041 18.0504 12.1185C17.9867 12.0817 17.9196 12.0564 17.8512 12.0419C17.6444 12.0175 17.4512 11.8992 17.339 11.7048C17.1502 11.3781 17.2622 10.9601 17.589 10.7715C17.9158 10.5829 18.3337 10.6947 18.5223 11.0217C18.6345 11.2159 18.6405 11.4426 18.5581 11.6339C18.5365 11.7002 18.5248 11.7712 18.5248 11.8446C18.5248 12.2194 18.8253 12.5237 19.1982 12.5306L19.2111 12.5305C19.2149 12.5305 19.2186 12.5306 19.2222 12.5308C19.5961 12.5247 19.8974 12.2201 19.8974 11.8446C19.8974 11.7712 19.8857 11.7004 19.8642 11.6339C19.7819 11.4424 19.7877 11.2159 19.8999 11.0217C20.0889 10.6947 20.5065 10.5827 20.8334 10.7715C21.1602 10.9601 21.2722 11.3781 21.0836 11.7048C20.9714 11.8992 20.7781 12.0175 20.5712 12.0419Z"
                stroke="none" />
            <path d="M11.3999 16.5547V16.2655M11.3999 13.728V14.8617" fill="none" />
            <path
                d="M10.9999 21.0549C11.0205 21.047 14.1558 19.7897 14.1778 19.7889L15.2993 19.7501C15.3166 19.7495 15.3339 19.7512 15.3507 19.755L16.3834 19.991C16.4003 19.9949 16.4176 19.9965 16.4349 19.9959L18.4586 19.9259C18.4967 19.9245 18.5345 19.9342 18.5674 19.9537L19.0377 20.2323C19.0894 20.2629 19.1245 20.3151 19.1335 20.3745L19.1726 20.6329C19.1882 20.7366 19.1212 20.8348 19.0188 20.8579L15.7829 21.5883L20.3722 20.7879C20.3946 20.784 20.4162 20.7763 20.4361 20.7651L21.4365 20.2005L22.4453 19.5328C22.4761 19.5124 22.512 19.5009 22.5488 19.4997L23.2761 19.4747C23.3609 19.4718 23.4384 19.5228 23.4693 19.602L23.6874 20.1617C23.7124 20.2259 23.7026 20.2985 23.6615 20.3538L23.1358 21.0596C23.1206 21.08 23.1017 21.0973 23.08 21.1106L21.0249 22.3728L18.4998 23.6574C18.4839 23.6655 18.467 23.6714 18.4495 23.675L16.8681 24.0015C16.8373 24.0079 16.8055 24.0069 16.7752 23.9986L15.5069 23.6538L14.9711 23.5372L14.4353 23.4207C14.3986 23.4127 14.3604 23.4152 14.325 23.428L12.1384 24.2997M12.0301 24.6252L10.6413 21.0549L10.4933 20.7172C10.4489 20.6158 10.3304 20.5698 10.2292 20.6146L8.39496 21.4266C8.29843 21.4693 8.25173 21.5797 8.2883 21.6788L9.71888 25.5533C9.75849 25.6606 9.87978 25.7129 9.98495 25.668L11.912 24.8463C12.0114 24.8039 12.0592 24.6903 12.0199 24.5896"
                fill="none" />
        </symbol>

        <symbol id="type11" stroke="none" viewBox="0 0 30 30">
            <use href="#hexagon1" />

            <path
                d="M8 8.02344C8 7.76455 8.19588 7.55469 8.4375 7.55469H11.0625C11.3041 7.55469 11.5 7.76455 11.5 8.02344C11.5 8.28232 11.3041 8.49219 11.0625 8.49219H8.875V10.8359C8.875 11.0948 8.67912 11.3047 8.4375 11.3047C8.19588 11.3047 8 11.0948 8 10.8359V8.02344Z" />
            <path
                d="M18.5 8.02344C18.5 7.76455 18.6959 7.55469 18.9375 7.55469H21.5625C21.8041 7.55469 22 7.76455 22 8.02344V10.8359C22 11.0948 21.8041 11.3047 21.5625 11.3047C21.3209 11.3047 21.125 11.0948 21.125 10.8359V8.49219H18.9375C18.6959 8.49219 18.5 8.28232 18.5 8.02344Z" />
            <path
                d="M8.4375 18.8047C8.67912 18.8047 8.875 19.0146 8.875 19.2734V21.6172H11.0625C11.3041 21.6172 11.5 21.8271 11.5 22.0859C11.5 22.3448 11.3041 22.5547 11.0625 22.5547H8.4375C8.19588 22.5547 8 22.3448 8 22.0859V19.2734C8 19.0146 8.19588 18.8047 8.4375 18.8047Z" />
            <path
                d="M21.5625 18.8047C21.8041 18.8047 22 19.0146 22 19.2734V22.0859C22 22.3448 21.8041 22.5547 21.5625 22.5547H18.9375C18.6959 22.5547 18.5 22.3448 18.5 22.0859C18.5 21.8271 18.6959 21.6172 18.9375 21.6172H21.125V19.2734C21.125 19.0146 21.3209 18.8047 21.5625 18.8047Z" />
            <path d="M11.5 11.3047H12.375V12.2422H11.5V11.3047Z" />
            <path d="M14.125 9.42969H9.75V14.1172H14.125V9.42969ZM10.625 10.3672H13.25V13.1797H10.625V10.3672Z" />
            <path d="M12.375 17.8672H11.5V18.8047H12.375V17.8672Z" />
            <path d="M14.125 15.9922H9.75V20.6797H14.125V15.9922ZM10.625 16.9297H13.25V19.7422H10.625V16.9297Z" />
            <path d="M17.625 11.3047H18.5V12.2422H17.625V11.3047Z" />
            <path d="M15.875 9.42969H20.25V14.1172H15.875V9.42969ZM16.75 10.3672V13.1797H19.375V10.3672H16.75Z" />
            <path
                d="M15 15.0547V16.9297H15.875V17.8672H15V18.8047H16.75V16.9297H17.625V18.8047H18.5V17.8672H20.25V16.9297H17.625V15.0547H15ZM16.75 16.9297H15.875V15.9922H16.75V16.9297Z" />
            <path d="M20.25 18.8047H19.375V19.7422H17.625V20.6797H20.25V18.8047Z" />
            <path d="M16.75 20.6797V19.7422H15V20.6797H16.75Z" />
            <path d="M18.5 15.9922H20.25V15.0547H18.5V15.9922Z" />
        </symbol>

        <symbol id="type12" viewBox="0 0 30 30">
            <use href="#type11" />
        </symbol>

        <symbol id="type13" viewBox="0 0 30 30">
            <use href="#type11" />
        </symbol>

        <symbol id="type14" viewBox="0 0 30 30">
            <use href="#type11" />
        </symbol>

        <symbol id="type15" stroke="none" viewBox="0 0 30 30">
            <use href="#hexagon1" />
            <path
                d="M19 10.828V9.36174H13C10.7909 9.36174 9 11.1526 9 13.3617C9 14.0012 9.1497 14.6043 9.41552 15.1392C9.53841 15.3865 9.43757 15.6866 9.19028 15.8095C8.94299 15.9324 8.6429 15.8316 8.52 15.5843C8.187 14.9143 8 14.1591 8 13.3617C8 10.6003 10.2386 8.36174 13 8.36174H19V6.8955C19 6.68354 19.2472 6.56775 19.41 6.70344L21.7695 8.66968C21.8895 8.76963 21.8895 8.95384 21.7695 9.05379L19.41 11.0201C19.2472 11.1558 19 11.0399 19 10.828Z" />
            <path
                d="M21.6692 14.0524C21.9165 13.9295 22.2166 14.0303 22.3395 14.2776C22.6725 14.9477 22.8595 15.7028 22.8595 16.5001C22.8595 19.2615 20.6209 21.5001 17.8595 21.5001H11.8595V22.9664C11.8595 23.1783 11.6123 23.2941 11.4495 23.1584L9.08996 21.1922C8.97002 21.0922 8.97002 20.908 9.08996 20.8081L11.4495 18.8418C11.6123 18.7061 11.8595 18.8219 11.8595 19.0339V20.5001H17.8595C20.0686 20.5001 21.8595 18.7093 21.8595 16.5001C21.8595 15.8606 21.7098 15.2575 21.444 14.7226C21.3211 14.4753 21.4219 14.1753 21.6692 14.0524Z" />
            <path fill-rule="evenodd" clip-rule="evenodd"
                d="M15 14V13C15 11.7376 14.1046 11 13 11C11.8954 11 11 11.7376 11 13H12C12 12.3688 12.4477 12 13 12C13.5523 12 14 12.3688 14 13V14C13.4477 14 13 14.5116 13 15.1428V17.4285C13 18.0597 13.4477 18.5714 14 18.5714H18C18.5523 18.5714 19 18.0597 19 17.4285V15.1428C19 14.5116 18.5523 14 18 14H15Z" />
        </symbol>

        <symbol id="type16" stroke="none" viewBox="0 0 30 30">
            <use href="#hexagon1" />
            <path
                d="M19 10.7376V9.27141H13C10.7909 9.27141 9 11.0622 9 13.2713C9 13.9108 9.1497 14.5139 9.41552 15.0488C9.53841 15.2961 9.43757 15.5962 9.19028 15.7191C8.94299 15.842 8.6429 15.7412 8.52 15.4939C8.187 14.8239 8 14.0687 8 13.2713C8 10.5099 10.2386 8.27141 13 8.27141H19V6.80517C19 6.59321 19.2472 6.47742 19.41 6.61311L21.7695 8.57935C21.8895 8.6793 21.8895 8.86351 21.7695 8.96346L19.41 10.9297C19.2472 11.0654 19 10.9495 19 10.7376Z" />
            <path
                d="M21.3098 14.6071C21.5571 14.4842 21.8572 14.585 21.9801 14.8323C22.3131 15.5024 22.5001 16.2575 22.5001 17.0548C22.5001 19.8162 20.2615 22.0548 17.5001 22.0548H11.5001V23.5211C11.5001 23.733 11.2529 23.8488 11.0901 23.7131L8.73058 21.7469C8.61064 21.6469 8.61064 21.4627 8.73058 21.3628L11.0901 19.3965C11.2529 19.2608 11.5001 19.3766 11.5001 19.5886V21.0548H17.5001C19.7092 21.0548 21.5001 19.264 21.5001 17.0548C21.5001 16.4153 21.3504 15.8122 21.0846 15.2773C20.9617 15.03 21.0625 14.73 21.3098 14.6071Z" />
            <path
                d="M12 15.1261C12 14.4949 12.4477 13.9833 13 13.9833V12.8404C13 11.578 13.8954 10.5547 15 10.5547C16.1046 10.5547 17 11.578 17 12.8404V13.9833C17.5523 13.9833 18 14.4949 18 15.1261V17.4118C18 18.043 17.5523 18.5547 17 18.5547H13C12.4477 18.5547 12 18.043 12 17.4118V15.1261ZM15 11.6975C14.4477 11.6975 14 12.2092 14 12.8404V13.9833H16V12.8404C16 12.2092 15.5523 11.6975 15 11.6975Z" />
        </symbol>

        <symbol id="type17" stroke="none" viewBox="0 0 30 30">
            <use href="#hexagon1" />
            <path
                d="M20.4419 10.1127C20.686 10.3568 20.686 10.7526 20.4419 10.9966L10.4419 20.9966C10.1979 21.2407 9.80214 21.2407 9.55806 20.9966C9.31398 20.7526 9.31398 20.3568 9.55806 20.1127L19.5581 10.1127C19.8021 9.86867 20.1979 9.86867 20.4419 10.1127Z" />
            <path
                d="M11.5 13.5547C10.6716 13.5547 10 12.8831 10 12.0547C10 11.2263 10.6716 10.5547 11.5 10.5547C12.3284 10.5547 13 11.2263 13 12.0547C13 12.8831 12.3284 13.5547 11.5 13.5547ZM11.5 14.5547C12.8807 14.5547 14 13.4354 14 12.0547C14 10.674 12.8807 9.55469 11.5 9.55469C10.1193 9.55469 9 10.674 9 12.0547C9 13.4354 10.1193 14.5547 11.5 14.5547Z" />
            <path
                d="M18.5 20.5547C17.6716 20.5547 17 19.8831 17 19.0547C17 18.2263 17.6716 17.5547 18.5 17.5547C19.3284 17.5547 20 18.2263 20 19.0547C20 19.8831 19.3284 20.5547 18.5 20.5547ZM18.5 21.5547C19.8807 21.5547 21 20.4354 21 19.0547C21 17.674 19.8807 16.5547 18.5 16.5547C17.1193 16.5547 16 17.674 16 19.0547C16 20.4354 17.1193 21.5547 18.5 21.5547Z" />
        </symbol>

        <symbol id="type18" viewBox="0 0 30 30">
            <use href="#hexagon1" />
            <path
                d="M8.5 13.5547C8.5 13.2785 8.72386 13.0547 9 13.0547H21C21.2761 13.0547 21.5 13.2785 21.5 13.5547V22.5547C21.5 22.8308 21.2761 23.0547 21 23.0547H9C8.72386 23.0547 8.5 22.8308 8.5 22.5547V13.5547Z"
                fill="none" />
            <rect x="7.5" y="10.0547" width="15" height="3" rx="0.5" fill="none" />
            <path
                d="M15.5 9.35469C15.5 9.68386 15.4957 9.82719 15.4714 9.91462C15.4699 9.92006 15.4685 9.92427 15.4674 9.92743C15.4618 9.93056 15.4528 9.93504 15.4393 9.94045C15.3386 9.98074 15.1344 10.0177 14.7122 10.0364C14.3041 10.0546 13.7549 10.0547 13 10.0547C12.2451 10.0547 11.6959 10.0546 11.2878 10.0364C10.8656 10.0177 10.6614 9.98074 10.5607 9.94045C10.5472 9.93504 10.5382 9.93056 10.5326 9.92743C10.5315 9.92427 10.5301 9.92006 10.5286 9.91462C10.5043 9.82719 10.5 9.68386 10.5 9.35469C10.5 8.85394 10.76 8.27597 11.2294 7.81399C11.6937 7.357 12.3224 7.05469 13 7.05469C13.6776 7.05469 14.3063 7.357 14.7706 7.81399C15.24 8.27597 15.5 8.85394 15.5 9.35469ZM15.4751 9.92253C15.4751 9.92253 15.4748 9.92279 15.4741 9.92327L15.4751 9.92253ZM10.5249 9.92253C10.525 9.92252 10.5253 9.92276 10.5259 9.92327L10.5249 9.92253Z"
                fill="none" />
            <path
                d="M19.5 9.35469C19.5 9.68386 19.4957 9.82719 19.4714 9.91462C19.4699 9.92006 19.4685 9.92427 19.4674 9.92743C19.4618 9.93056 19.4528 9.93504 19.4393 9.94045C19.3386 9.98074 19.1344 10.0177 18.7122 10.0364C18.3041 10.0546 17.7549 10.0547 17 10.0547C16.2451 10.0547 15.6959 10.0546 15.2878 10.0364C14.8656 10.0177 14.6614 9.98074 14.5607 9.94045C14.5472 9.93504 14.5382 9.93056 14.5326 9.92743C14.5315 9.92427 14.5301 9.92006 14.5286 9.91462C14.5043 9.82719 14.5 9.68386 14.5 9.35469C14.5 8.85394 14.76 8.27597 15.2294 7.81399C15.6937 7.357 16.3224 7.05469 17 7.05469C17.6776 7.05469 18.3063 7.357 18.7706 7.81399C19.24 8.27597 19.5 8.85394 19.5 9.35469ZM19.4751 9.92253C19.4751 9.92253 19.4748 9.92279 19.4741 9.92327L19.4751 9.92253ZM14.5249 9.92253C14.525 9.92252 14.5253 9.92276 14.5259 9.92327L14.5249 9.92253Z"
                fill="none" />
            <path d="M15 13.5547V22.5547" fill="none" />
            <use href="#hexagon1" />
        </symbol>

        <symbol id="type20" viewBox="0 0 30 30">
            <use href="#type2" />
        </symbol>

        <symbol id="type51" stroke="none" viewBox="0 0 30 30">
            <use href="#hexagon1" />
            <path fill-rule="evenodd" clip-rule="evenodd"
                d="M21 8.55469H9C7.89543 8.55469 7 9.45012 7 10.5547C7 11.6593 7.89543 12.5547 9 12.5547V20.5547C9 21.6593 9.89543 22.5547 11 22.5547H19C20.1046 22.5547 21 21.6593 21 20.5547V12.5547C22.1046 12.5547 23 11.6593 23 10.5547C23 9.45012 22.1046 8.55469 21 8.55469ZM10 20.5547V10.5547H16V21.5547H11C10.4477 21.5547 10 21.107 10 20.5547ZM18 10.5547V21.5547H19C19.5523 21.5547 20 21.107 20 20.5547V10.5547H18Z" />
        </symbol>

        <symbol id="type52" stroke="none" viewBox="0 0 30 30">
            <use href="#hexagon1" />
            <path
                d="M8 13.3047C8 12.3382 8.7835 11.5547 9.75 11.5547H20.25C21.2165 11.5547 22 12.3382 22 13.3047V20.3047C22 21.2712 21.2165 22.0547 20.25 22.0547H9.75C8.7835 22.0547 8 21.2712 8 20.3047V13.3047ZM9.75 12.4297C9.26675 12.4297 8.875 12.8214 8.875 13.3047V14.1797H21.125V13.3047C21.125 12.8214 20.7332 12.4297 20.25 12.4297H9.75ZM21.125 15.9297H8.875V20.3047C8.875 20.7879 9.26675 21.1797 9.75 21.1797H20.25C20.7332 21.1797 21.125 20.7879 21.125 20.3047V15.9297Z" />
            <path
                d="M9.75 18.5547C9.75 18.0714 10.1418 17.6797 10.625 17.6797H11.5C11.9832 17.6797 12.375 18.0714 12.375 18.5547V19.4297C12.375 19.9129 11.9832 20.3047 11.5 20.3047H10.625C10.1418 20.3047 9.75 19.9129 9.75 19.4297V18.5547Z" />
            <path
                d="M14 7.44746L12.3389 7.44746C12.0521 7.44746 11.8954 7.78295 12.0791 8.0039L14.74 11.2061C14.8754 11.369 15.1247 11.369 15.26 11.2061L17.9209 8.0039C18.1046 7.78295 17.9479 7.44746 17.661 7.44746L16 7.44731L16 5.29987C16 5.13418 15.8657 4.99986 15.7 4.99987L14.3 4.99998C14.1343 4.99999 14 5.1343 14 5.29998V7.44746Z" />
        </symbol>

        <symbol id="type53" stroke="none" viewBox="0 0 30 30">
            <use href="#hexagon1" />
            <path
                d="M8 13.3047C8 12.3382 8.7835 11.5547 9.75 11.5547H20.25C21.2165 11.5547 22 12.3382 22 13.3047V20.3047C22 21.2712 21.2165 22.0547 20.25 22.0547H9.75C8.7835 22.0547 8 21.2712 8 20.3047V13.3047ZM9.75 12.4297C9.26675 12.4297 8.875 12.8214 8.875 13.3047V14.1797H21.125V13.3047C21.125 12.8214 20.7332 12.4297 20.25 12.4297H9.75ZM21.125 15.9297H8.875V20.3047C8.875 20.7879 9.26675 21.1797 9.75 21.1797H20.25C20.7332 21.1797 21.125 20.7879 21.125 20.3047V15.9297Z" />
            <path
                d="M16 7.88066H17.6611C17.9479 7.88066 18.1046 7.54517 17.9209 7.32423L15.26 4.12198C15.1246 3.95913 14.8753 3.95913 14.74 4.12198L12.0791 7.32423C11.8954 7.54517 12.0521 7.88066 12.339 7.88066L14 7.88081L14 10.0283C14 10.1939 14.1343 10.3283 14.3 10.3283L15.7 10.3281C15.8657 10.3281 16 10.1938 16 10.0281V7.88066Z" />
        </symbol>

        <symbol id="type54" stroke="none" viewBox="0 0 30 30">
            <use href="#hexagon1" />
            <path
                d="M10.0053 13.8631C9.98213 13.646 9.88435 13.477 9.71201 13.356C9.54131 13.235 9.31925 13.1745 9.04581 13.1745C8.85358 13.1745 8.68869 13.2035 8.55114 13.2615C8.41359 13.3195 8.30836 13.3982 8.23544 13.4977C8.16253 13.5971 8.12524 13.7106 8.12358 13.8382C8.12358 13.9443 8.14761 14.0363 8.19567 14.1141C8.24539 14.192 8.3125 14.2583 8.39702 14.313C8.48154 14.366 8.57517 14.4108 8.67791 14.4472C8.78066 14.4837 8.88424 14.5144 8.98864 14.5392L9.46591 14.6585C9.65815 14.7033 9.84292 14.7638 10.0203 14.84C10.1992 14.9162 10.3592 15.0123 10.5 15.1284C10.6425 15.2444 10.7552 15.3844 10.8381 15.5485C10.921 15.7125 10.9624 15.9047 10.9624 16.1252C10.9624 16.4235 10.8861 16.6861 10.7337 16.9132C10.5812 17.1385 10.3608 17.315 10.0725 17.4426C9.78575 17.5686 9.43857 17.6315 9.0309 17.6315C8.63483 17.6315 8.29096 17.5702 7.99929 17.4476C7.70928 17.325 7.48225 17.146 7.31818 16.9107C7.15578 16.6753 7.06795 16.3886 7.05469 16.0506H7.96201C7.97526 16.2279 8.02995 16.3754 8.12607 16.4931C8.22219 16.6107 8.3473 16.6985 8.50142 16.7565C8.6572 16.8145 8.83121 16.8436 9.02344 16.8436C9.22396 16.8436 9.39962 16.8137 9.55043 16.7541C9.70289 16.6927 9.82221 16.6082 9.90838 16.5005C9.99456 16.3911 10.0385 16.2635 10.0402 16.1177C10.0385 15.9851 9.99953 15.8757 9.9233 15.7896C9.84707 15.7017 9.74018 15.6288 9.60263 15.5708C9.46674 15.5112 9.30765 15.4581 9.12536 15.4117L8.54617 15.2626C8.1269 15.1549 7.79546 14.9916 7.55185 14.7729C7.3099 14.5525 7.18892 14.26 7.18892 13.8954C7.18892 13.5954 7.27013 13.3328 7.43253 13.1074C7.59659 12.882 7.81949 12.7072 8.10121 12.5829C8.38293 12.4569 8.70194 12.394 9.05824 12.394C9.41951 12.394 9.73603 12.4569 10.0078 12.5829C10.2813 12.7072 10.4959 12.8804 10.6517 13.1024C10.8074 13.3228 10.8878 13.5764 10.8928 13.8631H10.0053ZM15.0161 14.231L14.775 14.7605H11.4763L11.6727 14.231H15.0161ZM14.5562 15.2576L14.3002 15.7945H11.4763L11.6727 15.2576H14.5562ZM15.6425 12.8762L15.2945 13.617C15.215 13.554 15.1246 13.4927 15.0235 13.433C14.9225 13.3734 14.8106 13.3237 14.688 13.2839C14.5653 13.2441 14.4311 13.2242 14.2853 13.2242C14.0383 13.2242 13.8204 13.2897 13.6315 13.4206C13.4426 13.5499 13.2943 13.7471 13.1865 14.0122C13.0805 14.2757 13.0275 14.6096 13.0275 15.014C13.0275 15.4184 13.0805 15.7523 13.1865 16.0158C13.2943 16.2793 13.4426 16.4748 13.6315 16.6024C13.8204 16.73 14.0383 16.7938 14.2853 16.7938C14.4311 16.7938 14.5653 16.7748 14.688 16.7367C14.8106 16.6985 14.9208 16.6505 15.0186 16.5925C15.118 16.5345 15.2034 16.4765 15.2746 16.4185L15.6276 17.1592C15.4503 17.3134 15.2456 17.4294 15.0136 17.5073C14.7833 17.5851 14.5405 17.6241 14.2853 17.6241C13.861 17.6241 13.4848 17.5205 13.1567 17.3134C12.8302 17.1046 12.5742 16.8054 12.3886 16.416C12.203 16.0249 12.1102 15.5576 12.1102 15.014C12.1102 14.4688 12.203 14.0006 12.3886 13.6095C12.5742 13.2184 12.8302 12.9185 13.1567 12.7097C13.4848 12.4992 13.861 12.394 14.2853 12.394C14.5504 12.394 14.7965 12.4362 15.0235 12.5208C15.2522 12.6036 15.4586 12.7221 15.6425 12.8762ZM16.5355 17.5545V12.4636H18.4446C18.8357 12.4636 19.1638 12.5365 19.429 12.6823C19.6958 12.8282 19.8972 13.0287 20.033 13.2839C20.1706 13.5374 20.2394 13.8258 20.2394 14.1489C20.2394 14.4754 20.1706 14.7654 20.033 15.019C19.8955 15.2725 19.6925 15.4722 19.424 15.6181C19.1556 15.7622 18.825 15.8343 18.4322 15.8343H17.1669V15.0761H18.3079C18.5366 15.0761 18.7239 15.0364 18.8697 14.9568C19.0155 14.8773 19.1232 14.7679 19.1928 14.6287C19.2641 14.4895 19.2997 14.3296 19.2997 14.1489C19.2997 13.9683 19.2641 13.8092 19.1928 13.6717C19.1232 13.5341 19.0147 13.4272 18.8672 13.351C18.7214 13.2731 18.5333 13.2342 18.3029 13.2342H17.4578V17.5545H16.5355ZM21.1268 17.5545H20.1424L21.9347 12.4636H23.0732L24.8679 17.5545H23.8835L22.5238 13.5076H22.484L21.1268 17.5545ZM21.1591 15.5584H23.8438V16.2992H21.1591V15.5584Z" />
        </symbol>

        <symbol id="type55" stroke="none" viewBox="0 0 30 30">
            <use href="#hexagon1" />
            <path
                d="M10.6119 14.8415C10.5992 14.7171 10.5458 14.6203 10.4517 14.5511C10.3584 14.4817 10.2371 14.4471 10.0878 14.4471C9.98277 14.4471 9.89265 14.4636 9.81745 14.4969C9.74237 14.5301 9.68488 14.5752 9.64511 14.6322C9.60521 14.6891 9.58482 14.7541 9.58393 14.8272C9.58393 14.888 9.59705 14.9407 9.62331 14.9853C9.65046 15.0299 9.68717 15.0679 9.73332 15.0992C9.77946 15.1295 9.83057 15.1552 9.88679 15.176C9.94287 15.197 9.99947 15.2145 10.0564 15.2288L10.3172 15.2971C10.4223 15.3228 10.5232 15.3574 10.6201 15.4011C10.7179 15.4447 10.8052 15.4997 10.8822 15.5662C10.9601 15.6327 11.0216 15.7129 11.0669 15.8069C11.1121 15.9008 11.1347 16.011 11.1347 16.1371C11.1347 16.3081 11.0931 16.4586 11.0098 16.5886C10.9265 16.7176 10.8061 16.8188 10.6485 16.8919C10.492 16.964 10.3023 17 10.0796 17C9.86321 17 9.67532 16.965 9.51599 16.8947C9.35767 16.8244 9.23365 16.7219 9.14391 16.5871C9.05519 16.4523 9.00727 16.2882 9 16.0945H9.49572C9.50286 16.1961 9.53281 16.2805 9.58533 16.3479C9.63784 16.4153 9.70617 16.4657 9.7903 16.4988C9.87544 16.5321 9.97053 16.5487 10.0756 16.5487C10.1851 16.5487 10.281 16.5315 10.3634 16.4975C10.4467 16.4623 10.5119 16.4139 10.5589 16.3522C10.6061 16.2895 10.63 16.2164 10.6309 16.1329C10.63 16.0569 10.6088 15.9944 10.5671 15.9449C10.5254 15.8947 10.467 15.8528 10.3919 15.8197C10.3178 15.7855 10.2308 15.7551 10.1311 15.7285L9.81477 15.6431C9.58571 15.5814 9.40471 15.4878 9.27163 15.3626C9.13945 15.2363 9.07329 15.0688 9.07329 14.8599C9.07329 14.6882 9.11765 14.5377 9.20637 14.4086C9.29611 14.2795 9.41784 14.1794 9.57169 14.1081C9.72567 14.0361 9.89992 14 10.0946 14C10.2919 14 10.4649 14.0361 10.6132 14.1081C10.7626 14.1794 10.8799 14.2785 10.965 14.4058C11.0501 14.5321 11.094 14.6772 11.0967 14.8415H10.6119ZM12.214 16.9559L11.429 14.0398H11.9709L12.4719 16.1827H12.4978L13.0328 14.0398H13.5257L14.0621 16.1842H14.0866L14.5876 14.0398H15.1295L14.3446 16.9559H13.8476L13.2908 14.9098H13.2691L12.7109 16.9559H12.214ZM16.0275 14.0398V16.9559H15.5236V14.0398H16.0275ZM16.6178 16.9559V14.0398H18.3994V14.4826H17.1217V15.2743H18.2773V15.7172H17.1217V16.9559H16.6178ZM18.7811 14.4826V14.0398H21V14.4826H20.1404V16.9559H19.6407V14.4826H18.7811Z" />
            <path fill-rule="evenodd" clip-rule="evenodd"
                d="M14.7273 23.5501C10.4353 23.4064 7 19.8817 7 15.5547C7 11.1364 10.5817 7.55469 15 7.55469C19.4183 7.55469 23 11.1364 23 15.5547C23 19.8817 19.5648 23.4063 15.2728 23.5501C15.1826 23.5592 15.0916 23.5639 15 23.5639C14.9085 23.5639 14.8175 23.5592 14.7273 23.5501ZM17.747 21.9951C18.9611 21.4766 19.9989 20.6248 20.7453 19.5547H19.0031C18.685 20.5103 18.2562 21.3413 17.747 21.9951ZM17.9429 19.5547H15.5V22.4896C15.9417 22.3587 16.401 22.0493 16.8474 21.5176C17.2664 21.0184 17.6445 20.3535 17.9429 19.5547ZM14.5 22.4896V19.5547H12.0572C12.3556 20.3535 12.7337 21.0184 13.1527 21.5176C13.5991 22.0493 14.0583 22.3587 14.5 22.4896ZM10.7158 18.5547H11.7451H14.5H15.5H18.255H19.2843H21.3264C21.7583 17.6454 22 16.6283 22 15.5547C22 14.4811 21.7583 13.4639 21.3264 12.5547H19.28H18.2503H15.5H14.5H11.7498H10.7201H8.67363C8.24169 13.4639 8 14.4811 8 15.5547C8 16.6283 8.24169 17.6454 8.67363 18.5547H10.7158ZM12.0641 11.5547H14.5V8.63811C14.0596 8.76861 13.6017 9.07665 13.1565 9.60559C12.7393 10.1014 12.3624 10.7616 12.0641 11.5547ZM12.2747 9.10503C11.7593 9.75885 11.3251 10.5933 11.0031 11.5547H9.25469C10.0056 10.4782 11.0512 9.62264 12.2747 9.10503ZM15.5 8.63808V11.5547H17.936C17.6377 10.7616 17.2608 10.1014 16.8435 9.60559C16.3983 9.07662 15.9404 8.76857 15.5 8.63808ZM18.997 11.5547H20.7453C19.9945 10.4782 18.9488 9.6227 17.7254 9.10508C18.2408 9.75889 18.675 10.5934 18.997 11.5547ZM10.997 19.5547H9.25469C10.0012 20.6249 11.039 21.4767 12.2532 21.9952C11.744 21.3414 11.3151 20.5103 10.997 19.5547Z" />
        </symbol>

    </defs>
</svg>