<?xml version="1.0" encoding="utf-8"?>
<svg xmlns="http://www.w3.org/2000/svg">
    <defs>
        <symbol id="w1" viewBox="0 0 50 50">
            <path
                d="M49.002 22.9724C46.1016 21.9471 44.1388 19.1932 44.1388 16.117C44.1975 15.6189 43.963 15.2088 43.5821 14.8573C43.2599 14.5935 42.7619 14.4764 42.3518 14.5349C39.8907 14.8865 37.5471 14.1833 35.7599 12.7478C33.9728 11.3122 32.713 9.14432 32.508 6.62479C32.4787 6.18523 32.2149 5.77508 31.8341 5.5115C31.4532 5.27703 30.9845 5.21843 30.545 5.39422C26.5606 6.82977 22.8106 4.31023 21.3166 0.882585C21.0235 0.237955 20.3497 -0.113608 19.6466 0.0330724C14.0215 1.29284 8.96296 4.8241 5.50602 9.27733C-2.49195 19.5606 -1.67173 33.7111 7.29313 42.7053C17.0491 52.4316 32.7814 52.4316 42.5081 42.7053C47.0197 38.1934 49.9984 31.7616 49.9984 24.9062C49.9395 23.9393 49.9102 23.2949 49.002 22.9724Z"
                fill="#FEA832" />
            <path
                d="M49.9983 24.9059C49.9983 31.7613 47.0197 38.1931 42.508 42.705C32.7814 52.4313 17.049 52.4313 7.29297 42.705L35.76 12.7476C37.5471 14.1831 39.8907 14.8862 42.3518 14.5347C42.7619 14.4762 43.26 14.5934 43.5821 14.857C43.963 15.2086 44.1975 15.6186 44.1388 16.1168C44.1388 19.193 46.1016 21.9469 49.002 22.9722C49.9104 23.2947 49.9397 23.9391 49.9983 24.9059Z"
                fill="#FE9923" />
            <path
                d="M18.8945 30.5175C18.1621 29.8731 17.1659 29.4922 16.1113 29.4922C13.6796 29.4922 11.7168 31.455 11.7168 33.8868C11.7168 35.0294 12.1563 36.0548 12.8593 36.8165C13.6503 37.7247 14.8221 38.2813 16.1113 38.2813C18.543 38.2813 20.5058 36.3183 20.5058 33.8868C20.5057 32.5097 19.8905 31.3087 18.8945 30.5175Z"
                fill="#994C0F" />
            <path
                d="M30.7597 29.4921C28.3365 29.4921 26.3652 27.5208 26.3652 25.0976C26.3652 22.6743 28.3365 20.7031 30.7597 20.7031C33.183 20.7031 35.1543 22.6743 35.1543 25.0976C35.1543 27.5208 33.1831 29.4921 30.7597 29.4921ZM29.2949 41.2109C27.6799 41.2109 26.3652 39.8963 26.3652 38.2812C26.3652 36.6662 27.6799 35.3515 29.2949 35.3515C30.9099 35.3515 32.2246 36.6662 32.2246 38.2812C32.2246 39.8963 30.9099 41.2109 29.2949 41.2109Z"
                fill="#713708" />
            <path
                d="M17.5761 20.7031C15.9611 20.7031 14.6465 19.3885 14.6465 17.7735C14.6465 16.1584 15.9611 14.8438 17.5761 14.8438C19.1912 14.8438 20.5058 16.1584 20.5058 17.7735C20.5058 19.3885 19.1912 20.7031 17.5761 20.7031Z"
                fill="#994C0F" />
            <path
                d="M38.0117 31.0673C38.0117 31.2597 38.0496 31.4502 38.1232 31.6279C38.1968 31.8056 38.3047 31.9671 38.4407 32.1032C38.5768 32.2392 38.7382 32.3471 38.916 32.4207C39.0937 32.4943 39.2842 32.5322 39.4765 32.5322C39.6689 32.5322 39.8594 32.4943 40.0371 32.4207C40.2148 32.3471 40.3763 32.2392 40.5123 32.1032C40.6484 31.9671 40.7563 31.8056 40.8299 31.6279C40.9035 31.4502 40.9414 31.2597 40.9414 31.0673C40.9414 30.875 40.9035 30.6845 40.8299 30.5068C40.7563 30.3291 40.6484 30.1676 40.5123 30.0315C40.3763 29.8955 40.2148 29.7876 40.0371 29.714C39.8594 29.6404 39.6689 29.6025 39.4765 29.6025C39.2842 29.6025 39.0937 29.6404 38.916 29.714C38.7382 29.7876 38.5768 29.8955 38.4407 30.0315C38.3047 30.1676 38.1968 30.3291 38.1232 30.5068C38.0496 30.6845 38.0117 30.875 38.0117 31.0673Z"
                fill="#713708" />
            <path
                d="M8.71387 25.2083C8.71383 25.4007 8.75169 25.5912 8.82529 25.7689C8.89889 25.9467 9.00679 26.1082 9.14281 26.2442C9.27884 26.3803 9.44034 26.4882 9.61808 26.5618C9.79582 26.6355 9.98632 26.6734 10.1787 26.6734C10.3711 26.6734 10.5616 26.6355 10.7393 26.5618C10.9171 26.4882 11.0786 26.3803 11.2146 26.2442C11.3506 26.1082 11.4585 25.9467 11.5321 25.7689C11.6057 25.5912 11.6436 25.4007 11.6435 25.2083C11.6436 25.0159 11.6057 24.8254 11.5321 24.6476C11.4585 24.4699 11.3506 24.3083 11.2146 24.1723C11.0786 24.0362 10.9171 23.9283 10.7393 23.8547C10.5616 23.781 10.3711 23.7432 10.1787 23.7432C9.98632 23.7432 9.79582 23.781 9.61808 23.8547C9.44034 23.9283 9.27884 24.0362 9.14281 24.1723C9.00679 24.3083 8.89889 24.4699 8.82529 24.6476C8.75169 24.8254 8.71383 25.0159 8.71387 25.2083Z"
                fill="#994C0F" />
            <path
                d="M20.5059 33.8869C20.5059 36.3184 18.5431 38.2814 16.1114 38.2814C14.8223 38.2814 13.6504 37.7248 12.8594 36.8166L18.8946 30.5176C19.8907 31.3088 20.5059 32.5098 20.5059 33.8869Z"
                fill="#713708" />
        </symbol>

        <symbol id="w2" viewBox="0 0 155 50">
            <path
                d="M44.6209 40.8703C43.6543 39.2259 42.0565 38.2092 40.2665 38.0147C39.6854 37.8703 39.1054 37.677 38.5731 37.3859C35.8154 35.7892 34.8476 32.3059 36.3954 29.5481C36.4463 29.4948 36.48 29.4274 36.492 29.3547V29.3059C37.0731 28.2903 37.412 27.177 37.5565 25.967V25.8703V25.7736C37.5565 24.8547 36.8309 24.1292 35.9598 24.1292H29.8643C28.9454 24.1292 28.2198 24.8547 28.2198 25.7736C28.2198 26.6936 28.9454 27.4181 29.8643 27.4181H33.8809C32.9609 29.3059 31.0254 30.6125 28.7998 30.6125C27.3115 30.6113 25.8846 30.0195 24.8323 28.9671C23.78 27.9146 23.1885 26.4875 23.1876 24.9992C23.1888 23.5111 23.7804 22.0843 24.8327 21.0321C25.8849 19.9798 27.3117 19.3881 28.7998 19.387C29.783 19.3827 30.7496 19.6405 31.6 20.1338C32.4505 20.6271 33.1542 21.3381 33.6387 22.1936C33.9287 22.677 34.4609 23.0159 35.042 23.0159C35.9609 23.0159 36.6865 22.2903 36.6865 21.3714C36.6865 21.0314 36.5898 20.7414 36.4454 20.4992C34.8965 17.7414 35.8643 14.2581 38.6231 12.6614C39.1554 12.3714 39.7354 12.1281 40.3165 12.0325C41.2141 11.9272 42.0749 11.6143 42.8307 11.1187C43.5865 10.623 44.2166 9.95827 44.6709 9.17697C46.2676 6.41919 45.2998 2.88808 42.542 1.2903C39.7843 -0.306365 36.252 0.661413 34.6554 3.41919C34.1948 4.19552 33.928 5.0713 33.8773 5.97252C33.8266 6.87374 33.9937 7.77391 34.3643 8.59697C34.5576 9.17697 34.6554 9.75808 34.6554 10.387C34.6564 11.9107 34.0582 13.3736 32.9899 14.46C31.9216 15.5465 30.4689 16.1691 28.9454 16.1936H28.752C27.2286 16.1691 25.7758 15.5465 24.7075 14.46C23.6392 13.3736 23.041 11.9107 23.042 10.387C23.042 9.75808 23.1387 9.17697 23.332 8.59697C23.6794 7.76845 23.8339 6.87181 23.7838 5.97481C23.7338 5.07782 23.4805 4.20393 23.0431 3.41919C21.4431 0.661413 17.9109 -0.306365 15.1531 1.2903C12.3965 2.88697 11.4287 6.41919 13.0254 9.17808C13.992 10.8225 15.5898 11.8392 17.3809 12.0336C17.9609 12.1781 18.5409 12.3714 19.0731 12.6625C21.7831 14.2103 22.7509 17.6947 21.2998 20.4036C21.2509 20.5003 21.1543 20.597 21.1054 20.7425C19.4609 23.4036 15.9765 24.2759 13.2676 22.727C12.6865 22.3881 12.2031 22.0003 11.8154 21.5159C10.7509 20.1625 9.10648 19.2425 7.2187 19.2425C3.97759 19.2414 1.36426 21.8059 1.36426 25.0003C1.36426 28.1936 3.97759 30.7592 7.12204 30.7592C8.01256 30.765 8.89209 30.5624 9.69027 30.1674C10.4884 29.7725 11.1831 29.1962 11.7187 28.4847C12.1065 28.0003 12.5898 27.6136 13.1709 27.2747C15.8798 25.6781 19.3643 26.597 21.0087 29.2581C21.0576 29.3559 21.1054 29.4525 21.202 29.597C22.6543 32.3547 21.6865 35.7903 18.9765 37.3392C18.4443 37.6292 17.8643 37.8714 17.2831 37.9681C16.3853 38.0733 15.5243 38.386 14.7683 38.8817C14.0123 39.3773 13.3821 40.0422 12.9276 40.8236C11.332 43.5803 12.2998 47.1125 15.0576 48.7092C17.8154 50.307 21.3476 49.3392 22.9443 46.5803C23.4046 45.8039 23.6713 44.9281 23.7218 44.0268C23.7722 43.1256 23.605 42.2255 23.2343 41.4025C23.0407 40.8261 22.9431 40.2217 22.9454 39.6136C22.9454 36.4681 25.4609 33.8547 28.6543 33.807H28.8476C30.3711 33.8315 31.8238 34.4542 32.8921 35.5406C33.9605 36.627 34.5587 38.09 34.5576 39.6136C34.5576 40.2425 34.4598 40.8225 34.2665 41.4025C33.9195 42.2312 33.7653 43.1279 33.8158 44.0249C33.8662 44.9219 34.1199 45.7957 34.5576 46.5803C36.1543 49.3392 39.6865 50.307 42.4443 48.7092C45.2987 47.1614 46.2176 43.6292 44.622 40.8714L44.6209 40.8703Z"
                fill="#fff" />
            <path
                d="M64.3627 18.4668C64.3627 17.2568 64.9427 16.3857 66.2494 16.3857H72.2005C73.3616 16.3857 73.8939 17.2079 73.8939 18.0301C73.8939 18.8535 73.3138 19.6757 72.2005 19.6757H67.9916V23.1601H71.9105C73.0716 23.1601 73.6527 23.9824 73.6527 24.8046C73.6527 25.6268 73.0716 26.4501 71.9105 26.4501H67.9916V30.079H72.3938C73.5561 30.079 74.0883 30.9013 74.0883 31.7235C74.0883 32.5468 73.5072 33.369 72.395 33.369H66.2005C65.1361 33.369 64.3627 32.6435 64.3627 31.579V18.4668ZM76.8461 17.9824C76.8461 17.0157 77.5716 16.1924 78.6361 16.1924C79.6527 16.1924 80.4261 16.8701 80.4261 17.9824V23.1601L86.3294 16.9179C86.5716 16.6279 87.055 16.2401 87.7327 16.2401C88.6516 16.2401 89.5227 16.9179 89.5227 17.9824C89.5227 18.6113 89.1361 19.0957 88.3616 19.9179L83.8616 24.369L89.3783 30.1279C89.9105 30.7079 90.3938 31.2401 90.3938 31.9657C90.3938 33.079 89.5227 33.6101 88.5072 33.6101C87.8294 33.6101 87.3461 33.2235 86.6683 32.499L80.475 25.8213V31.9179C80.475 32.8368 79.7494 33.659 78.685 33.659C77.6683 33.659 76.8938 32.9813 76.8938 31.9179V17.9824H76.8461ZM93.1039 17.9824C93.1039 17.0157 93.8294 16.1924 94.8939 16.1924C95.9094 16.1924 96.6839 16.8701 96.6839 17.9824V23.1601L102.587 16.9179C102.829 16.6279 103.313 16.2401 103.991 16.2401C104.909 16.2401 105.781 16.9179 105.781 17.9824C105.781 18.6113 105.394 19.0957 104.619 19.9179L100.119 24.369L105.636 30.1279C106.168 30.7079 106.652 31.2401 106.652 31.9657C106.652 33.079 105.781 33.6101 104.765 33.6101C104.087 33.6101 103.604 33.2235 102.926 32.499L96.6839 25.7246V31.8213C96.6839 32.7401 95.9583 33.5624 94.8939 33.5624C93.8783 33.5624 93.1039 32.8846 93.1039 31.8213V17.9824ZM61.6038 25.7735C61.6038 24.8535 60.8783 24.129 60.0072 24.129H53.8138C52.895 24.129 52.1694 24.8535 52.1694 25.7735C52.1694 26.6924 52.895 27.4179 53.8138 27.4179H57.8305C56.9105 29.3057 54.975 30.6124 52.7494 30.6124C51.2611 30.6112 49.8341 30.0194 48.7819 28.9669C47.7296 27.9144 47.1381 26.4873 47.1372 24.999C47.1381 23.5108 47.7296 22.0837 48.7819 21.0312C49.8341 19.9787 51.2611 19.3869 52.7494 19.3857C54.7827 19.3857 56.5716 20.499 57.5883 22.1446C57.8783 22.6768 58.4105 23.0157 59.0394 23.0157C59.9594 23.0157 60.685 22.289 60.685 21.3701C60.685 20.9835 60.5405 20.6446 60.3461 20.4024C58.7983 17.8868 55.9905 16.1446 52.7983 16.1446C47.9116 16.1446 43.895 20.1113 43.895 25.0479C43.8472 29.8857 47.8138 33.8535 52.7505 33.8535C57.2983 33.8535 61.0727 30.4179 61.6038 25.9668C61.5561 25.9179 61.6038 25.8701 61.6038 25.7735ZM113.087 18.079C113.474 16.9668 114.442 16.0957 115.652 16.0957C116.909 16.0957 117.781 16.9179 118.216 18.079L122.909 31.0957C123.055 31.4824 123.103 31.8213 123.103 31.9668C123.103 32.8857 122.328 33.5624 121.457 33.5624C120.442 33.5624 119.958 33.0301 119.716 32.3046L118.991 30.079H112.362L111.635 32.3046C111.394 33.0313 110.909 33.5635 109.894 33.5635C108.926 33.5635 108.103 32.8368 108.103 31.869C108.103 31.4824 108.201 31.1913 108.248 31.0957L113.087 18.079ZM113.377 26.7401H117.926L115.699 19.8213H115.652L113.377 26.7401ZM125.184 18.2735C125.184 17.1113 125.813 16.3857 127.022 16.3857H131.232C134.909 16.3857 137.183 18.0301 137.183 21.8046C137.183 24.4179 135.199 25.9179 132.781 26.3046L136.845 30.6601C137.183 30.999 137.328 31.3857 137.328 31.7246C137.328 32.6435 136.603 33.5624 135.538 33.5624C135.103 33.5624 134.522 33.4179 134.135 32.9335L128.813 26.499H128.764V31.6768C128.764 32.8857 127.989 33.5146 126.974 33.5146C125.957 33.5146 125.184 32.8368 125.184 31.6757V18.2735ZM128.764 23.9346H131.232C132.538 23.9346 133.457 23.1601 133.457 21.8057C133.457 20.4501 132.538 19.7246 131.232 19.7246H128.764V23.9346ZM139.409 18.2246C139.409 17.1113 140.183 16.3857 141.247 16.3857H145.215C150.586 16.3857 153.635 19.8213 153.635 25.1435C153.635 30.1768 150.393 33.4179 145.457 33.4179H141.296C140.522 33.4179 139.409 32.9824 139.409 31.6279V18.2246ZM142.989 30.1279H145.408C148.506 30.1279 149.908 27.8535 149.908 24.999C149.908 21.9501 148.457 19.7246 145.167 19.7246H142.989V30.1279Z"
                fill="#fff" />
        </symbol>

        <symbol id="w3" fill="none" viewBox="0 0 75 50">
            <path d="M47.2002 36.1C48.1002 36 49.0002 36 50.0002 36C57.4002 36 64.0002 37.7 68.5002 40.3"
                stroke="#7f8c8d" stroke-width="2" stroke-miterlimit="10" stroke-linecap="round" />
            <path d="M68.6 9.6001C64.2 12.3001 57.5 14.0001 50 14.0001C42.6 14.0001 36 12.3001 31.5 9.7001"
                stroke="#7f8c8d" stroke-width="2" stroke-miterlimit="10" />
            <path d="M26 25H74" stroke="#7f8c8d" stroke-width="2" stroke-miterlimit="10" />
            <path d="M50 1V49" stroke="#7f8c8d" stroke-width="2" stroke-miterlimit="10" />
            <path
                d="M46.3 48.7C47.5 48.9 48.8 49 50 49C63.3 49 74 38.3 74 25C74 11.7 63.3 1 50 1C36.7 1 26 11.7 26 25C26 27 26.3 28.9 26.7 30.8"
                stroke="#7f8c8d" stroke-width="2" stroke-miterlimit="10" stroke-linecap="round" />
            <path
                d="M46.8 48.2C47.8 48.8 48.9 49 50 49C56.6 49 62 38.3 62 25C62 11.7 56.6 1 50 1C43.4 1 38 11.7 38 25C38 26.4 38.1 27.7 38.2 29C38.2 29.1 38.2 29.2 38.2 29.2"
                stroke="#7f8c8d" stroke-width="2" stroke-miterlimit="10" stroke-linecap="round" />
            <path
                d="M12.3998 17.9001C15.2998 15.0001 17.7998 13.1001 12.6998 6.70014C7.59975 0.300136 4.09975 5.20014 1.29975 8.10014C-2.00025 11.4001 1.09975 23.5001 13.0998 35.6001C25.0998 47.7001 37.3998 50.8001 40.5998 47.5001C43.3998 44.7001 48.3998 41.2001 41.9998 36.0001C35.5998 30.8001 33.6998 33.4001 30.7998 36.3001C28.7998 38.3001 23.5998 34.1001 19.0998 29.6001C14.5998 25.1001 10.3998 19.9001 12.3998 17.9001Z"
                fill="#7f8c8d" />
        </symbol>

        <symbol id="w4" viewBox="0 0 50 50">
            <path
                d="M44.9788 28.8681L9.62784 49.3769C6.62645 51.1182 2.77949 49.0122 2.77949 45.5089V4.49111C2.77949 0.987847 6.62645 -1.11821 9.62784 0.623057L44.9788 21.1319C47.968 22.8661 47.968 27.1339 44.9788 28.8681Z"
                fill="inherit" />
        </symbol>

        <symbol id="w5" viewBox="0 0 50 50">
            <path
                d="M47.2493 22.3948C47.8415 23.1093 48.1693 24.0375 48.1693 25C48.1693 25.9623 47.8415 26.8907 47.2493 27.6052C43.4993 31.999 34.9635 40.5532 24.9992 40.5532C15.035 40.5532 6.49923 31.999 2.74923 27.6052C2.15695 26.8907 1.8291 25.9623 1.8291 25C1.8291 24.0375 2.15695 23.1093 2.74923 22.3948C6.49923 18.0012 15.035 9.44678 24.9992 9.44678C34.9635 9.44678 43.4993 18.0012 47.2493 22.3948Z"
                stroke="#285E69" stroke-width="2" stroke-linecap="round" stroke-linejoin="round" fill="none" />
            <path
                d="M24.9993 31.9116C28.9441 31.9116 32.1421 28.8169 32.1421 24.9992C32.1421 21.1816 28.9441 18.0869 24.9993 18.0869C21.0543 18.0869 17.8564 21.1816 17.8564 24.9992C17.8564 28.8169 21.0543 31.9116 24.9993 31.9116Z"
                stroke="#285E69" stroke-width="2" stroke-linecap="round" stroke-linejoin="round" fill="none" />
            <path
                d="M6.26259 8.31093L41.3497 43.398C42.0222 44.0705 42.9433 44.2398 43.4071 43.776L43.4071 43.776C43.8709 43.3122 43.7016 42.3911 43.0291 41.7186L7.94203 6.63148C7.26951 5.95896 6.34837 5.78973 5.8846 6.2535C5.42083 6.71726 5.59007 7.63841 6.26259 8.31093Z"
                fill="#285E69" />
        </symbol>

        <symbol id="w6"  viewBox="0 0 50 50">
            <path d="M1.66699 33.3052V48.387H48.3337V33.3052" stroke="#285E69" stroke-width="2" stroke-linecap="round"
                stroke-linejoin="round" fill="none" />
            <path
                d="M22.7447 26.7197H16.1297C15.1739 26.7197 14.6513 28.0118 15.2636 28.8628L24.1333 41.1965C24.5845 41.8237 25.4155 41.8237 25.8668 41.1965L34.7365 28.8628C35.3485 28.0118 34.826 26.7197 33.87 26.7197H27.2558V9.16285C27.2558 8.70493 26.8937 8.3335 26.448 8.3335H23.552C23.1063 8.3335 22.7447 8.70493 22.7447 9.16285V26.7197Z"
                fill="#285E69" />
        </symbol>

        <symbol id="w7"  viewBox="0 0 50 50">
            <path fill-rule="evenodd" clip-rule="evenodd"
                d="M10.417 6.3366L15.8857 0.806641L39.5837 25.0002L15.8857 49.1937L10.417 43.6637L28.6462 25.0002L10.417 6.3366Z"
                fill="#285E69" />
        </symbol>

        <symbol id="w8"  viewBox="0 0 50 50">
            <path
                d="M48.4375 20.337C48.4375 13.304 48.4375 11.0999 48.4375 5.43652C48.4375 3.71062 47.0385 2.30811 45.3125 2.30811H4.6875C2.96162 2.30811 1.5625 3.70721 1.5625 5.43311V31.2777C1.5625 33.0035 2.96162 34.4027 4.6875 34.4027H10.6497C11.0811 34.4027 11.4309 34.7525 11.4309 35.1838V46.9102C11.4309 47.6535 12.3713 47.9768 12.8283 47.3905L20.0658 38.106"
                stroke="#285E69" stroke-width="2" stroke-linecap="round" fill="none" />
            <path
                d="M26.2334 27.9097C26.2334 27.0467 26.9331 26.3472 27.7959 26.3472H46.8749C47.7379 26.3472 48.4374 27.0467 48.4374 27.9097V39.2077C48.4374 40.0707 47.7379 40.7702 46.8749 40.7702H43.0507C42.6194 40.7702 42.2696 41.12 42.2696 41.5513V46.7965C42.2696 47.5517 41.3047 47.8675 40.8582 47.2585L36.3359 41.0895C36.1887 40.8887 35.9547 40.7702 35.7057 40.7702H27.7957C26.9331 40.7702 26.2334 40.0707 26.2334 39.2077V27.9097Z"
                stroke="#285E69" stroke-width="2" fill="none" />
        </symbol>

    </defs>
</svg>