<svg fill="#FFFFFF" width="122" height="40" viewBox="0 0 122 40" xmlns="http://www.w3.org/2000/svg">
    <path
        d="M36.3752 32.9656C35.5854 31.6221 34.2799 30.7915 32.8174 30.6326C32.3426 30.5147 31.8687 30.3566 31.4339 30.1188C29.1806 28.8144 28.3899 25.9686 29.6545 23.7155C29.6961 23.672 29.7236 23.617 29.7335 23.5576V23.5177C30.2083 22.688 30.4852 21.7784 30.6032 20.7899V20.7109V20.632C30.6032 19.8812 30.0104 19.2885 29.2986 19.2885H24.3182C23.5675 19.2885 22.9746 19.8812 22.9746 20.632C22.9746 21.3835 23.5675 21.9754 24.3182 21.9754H27.6001C26.8483 23.5177 25.2669 24.5852 23.4486 24.5852C22.2326 24.5842 21.0666 24.1007 20.2069 23.2408C19.3471 22.3811 18.8637 21.2152 18.863 19.9993C18.8639 18.7835 19.3475 17.6178 20.2071 16.7582C21.0669 15.8985 22.2327 15.4152 23.4486 15.4142C24.2518 15.4107 25.0415 15.6213 25.7364 16.0244C26.4313 16.4274 27.0062 17.0082 27.4021 17.7072C27.6391 18.1021 28.0739 18.3789 28.5488 18.3789C29.2996 18.3789 29.8923 17.7862 29.8923 17.0354C29.8923 16.7577 29.8134 16.5207 29.6953 16.3229C28.4298 14.0698 29.2206 11.224 31.4747 9.9196C31.9095 9.68268 32.3835 9.48388 32.8583 9.40582C33.5917 9.31976 34.295 9.06416 34.9126 8.65924C35.53 8.25431 36.0448 7.7112 36.4161 7.0729C37.7207 4.81987 36.9299 1.93504 34.6767 0.629699C32.4233 -0.674736 29.5374 0.115914 28.2328 2.36895C27.8566 3.00319 27.6385 3.71868 27.597 4.45495C27.5557 5.19122 27.6922 5.92664 27.995 6.59905C28.1529 7.0729 28.2328 7.54765 28.2328 8.06144C28.2336 9.30624 27.7449 10.5015 26.8721 11.389C25.9992 12.2766 24.8122 12.7853 23.5675 12.8053H23.4095C22.1647 12.7853 20.9778 12.2766 20.1049 11.389C19.2319 10.5015 18.7432 9.30624 18.7441 8.06144C18.7441 7.54765 18.8231 7.0729 18.981 6.59905C19.2648 5.92217 19.3911 5.18965 19.3502 4.45682C19.3093 3.724 19.1024 3.01006 18.745 2.36895C17.4378 0.115914 14.5517 -0.674736 12.2985 0.629699C10.0461 1.93413 9.25541 4.81987 10.56 7.07381C11.3498 8.41727 12.6553 9.24787 14.1186 9.40673C14.5926 9.52473 15.0665 9.68268 15.5013 9.92051C17.7155 11.185 18.5063 14.0318 17.3206 16.2448C17.2807 16.3238 17.2016 16.4028 17.1618 16.5217C15.8181 18.6958 12.9712 19.4082 10.7579 18.1429C10.2831 17.8661 9.88818 17.5492 9.57134 17.1535C8.70163 16.0478 7.35803 15.2962 5.81562 15.2962C3.16746 15.2953 1.03223 17.3904 1.03223 20.0001C1.03223 22.609 3.16746 24.705 5.73664 24.705C6.46425 24.7098 7.18287 24.5442 7.83503 24.2216C8.48717 23.8989 9.05476 23.4281 9.49236 22.8469C9.8092 22.451 10.2041 22.1352 10.6789 21.8583C12.8922 20.5539 15.7391 21.3046 17.0827 23.4787C17.1227 23.5585 17.1618 23.6375 17.2407 23.7555C18.4272 26.0085 17.6366 28.8153 15.4224 30.0807C14.9875 30.3176 14.5135 30.5155 14.0387 30.5945C13.3052 30.6804 12.6017 30.936 11.984 31.3408C11.3663 31.7458 10.8514 32.289 10.4801 32.9274C9.17643 35.1795 9.96716 38.0652 12.2204 39.3697C14.4736 40.675 17.3597 39.8844 18.6642 37.6304C19.0403 36.9961 19.2582 36.2806 19.2995 35.5444C19.3407 34.8081 19.2041 34.0727 18.9012 33.4004C18.743 32.9293 18.6632 32.4356 18.6652 31.9389C18.6652 29.369 20.7204 27.2341 23.3296 27.195H23.4876C24.7323 27.215 25.9192 27.7238 26.7922 28.6113C27.665 29.4988 28.1538 30.6941 28.1529 31.9389C28.1529 32.4526 28.073 32.9265 27.9151 33.4004C27.6316 34.0773 27.5056 34.8099 27.5469 35.5428C27.5881 36.2756 27.7953 36.9895 28.1529 37.6304C29.4575 39.8844 32.3435 40.675 34.5968 39.3697C36.929 38.1052 37.6798 35.2195 36.3761 32.9664L36.3752 32.9656Z" />
    <path fill-rule="evenodd" clip-rule="evenodd"
        d="M88.2627 19.9999C88.2627 17.4759 90.3321 15.3938 92.9293 15.3938C95.5265 15.3938 97.5959 17.4759 97.5959 19.9999C97.5959 22.5239 95.5265 24.606 92.9293 24.606C90.3321 24.606 88.2627 22.5239 88.2627 19.9999ZM92.9293 12.606C88.813 12.606 85.4747 15.9157 85.4747 19.9999C85.4747 24.0841 88.813 27.3938 92.9293 27.3938C97.0455 27.3938 100.383 24.0841 100.383 19.9999C100.383 15.9157 97.0455 12.606 92.9293 12.606ZM110.498 13.372C110.128 12.9095 109.507 12.7309 108.948 12.9268C108.389 13.1227 108.015 13.6502 108.015 14.2423V25.7681C108.015 26.538 108.639 27.1621 109.409 27.1621C110.179 27.1621 110.803 26.538 110.803 25.7681V18.219L117.532 26.6384C117.902 27.101 118.524 27.2794 119.082 27.0837C119.641 26.8878 120.014 26.3603 120.014 25.7681V14.2423C120.014 13.4725 119.391 12.8484 118.621 12.8484C117.851 12.8484 117.227 13.4725 117.227 14.2423V21.7914L110.498 13.372ZM104.197 12.9704C104.967 12.9704 105.591 13.5946 105.591 14.3644V25.7583C105.591 26.5281 104.967 27.1523 104.197 27.1523C103.427 27.1523 102.803 26.5281 102.803 25.7583V14.3644C102.803 13.5946 103.427 12.9704 104.197 12.9704ZM49.7528 14.8063C49.7528 13.8182 50.226 13.1068 51.2926 13.1068H56.1502C57.0978 13.1068 57.5323 13.7782 57.5323 14.4497C57.5323 15.1221 57.0589 15.7936 56.1502 15.7936H52.7146V18.6392H55.9134C56.8612 18.6392 57.3355 19.3106 57.3355 19.9821C57.3355 20.6535 56.8612 21.326 55.9134 21.326H52.7146V24.2895H56.308C57.2566 24.2895 57.6912 24.9609 57.6912 25.6324C57.6912 26.3047 57.2167 26.9761 56.3089 26.9761H51.2528C50.384 26.9761 49.7528 26.3837 49.7528 25.5144V14.8063ZM59.9422 14.4107C59.9422 13.6212 60.5343 12.9489 61.4031 12.9489C62.2329 12.9489 62.8643 13.5024 62.8643 14.4107V18.6392L67.6829 13.5415C67.8804 13.3046 68.2751 12.9879 68.8282 12.9879C69.5783 12.9879 70.2893 13.5415 70.2893 14.4107C70.2893 14.9243 69.9737 15.3199 69.3415 15.9914L65.6685 19.6263L70.1715 24.3294C70.6059 24.803 71.0003 25.2377 71.0003 25.8302C71.0003 26.7393 70.2894 27.1731 69.4605 27.1731C68.9072 27.1731 68.5127 26.8572 67.9593 26.2657L62.9043 20.8124V25.7912C62.9043 26.5416 62.3121 27.213 61.4431 27.213C60.6133 27.213 59.9813 26.6595 59.9813 25.7912V14.4107H59.9422ZM47.5008 20.7734C47.5008 20.022 46.9085 19.4303 46.1974 19.4303H41.1423C40.3923 19.4303 39.8003 20.022 39.8003 20.7734C39.8003 21.5237 40.3923 22.1163 41.1423 22.1163H44.4211C43.6701 23.6578 42.0901 24.725 40.2737 24.725C39.0587 24.724 37.8939 24.2407 37.035 23.3812C36.1761 22.5217 35.6933 21.3563 35.6926 20.1409C35.6933 18.9255 36.1761 17.76 37.035 16.9005C37.8939 16.041 39.0587 15.5577 40.2737 15.5567C41.9333 15.5567 43.3933 16.466 44.2231 17.8097C44.4599 18.2444 44.8943 18.5211 45.4076 18.5211C46.1585 18.5211 46.7506 17.9278 46.7506 17.1774C46.7506 16.8616 46.6328 16.5847 46.4742 16.387C45.2108 14.3326 42.919 12.9098 40.3134 12.9098C36.3247 12.9098 33.0462 16.1492 33.0462 20.1807C33.0071 24.1315 36.2449 27.3719 40.2744 27.3719C43.9865 27.3719 47.0674 24.5662 47.5008 20.9312C47.4767 20.9066 47.4823 20.8822 47.4902 20.8486C47.495 20.8278 47.5008 20.8035 47.5008 20.7734ZM73.782 14.3708C73.782 13.5814 74.3743 12.909 75.2432 12.909C76.073 12.909 76.7042 13.4624 76.7042 14.3708V18.5992L81.5227 13.5015C81.7204 13.2646 82.115 12.948 82.6682 12.948C83.4183 12.948 84.1293 13.5015 84.1293 14.3708C84.1293 14.8844 83.8136 15.28 83.1814 15.9514L79.5084 19.5864L84.0115 24.2895C84.4458 24.763 84.8403 25.1977 84.8403 25.7902C84.8403 26.6994 84.1293 27.1332 83.3004 27.1332C82.7471 27.1332 82.3526 26.8174 81.7993 26.2258L76.7442 20.7724V25.7513C76.7442 26.5016 76.152 27.1731 75.283 27.1731C74.4532 27.1731 73.8212 26.6195 73.8212 25.7513V14.3708H73.782Z" />
</svg>