<svg width="50" height="50" viewBox="0 0 50 50" fill="none" xmlns="http://www.w3.org/2000/svg"><path fill-rule="evenodd" clip-rule="evenodd" d="M26.34 49.964C39.526 49.268 50 38.357 50 25 50 11.193 38.807 0 25 0S0 11.193 0 25a24.88 24.88 0 004.194 13.864l1.585-3.359c.922.24 2.021.442 2.393.368.37-.075.658-.242.868-.505.21-.26.45-.909.716-1.94l5.105-19.754c.271-1.05.38-1.735.317-2.059-.06-.322-.232-.612-.514-.866-.286-.256-.89-.506-1.813-.746l-1.384-.364 1.267-4.901 10.45 2.74 1.505-5.825 4.922 1.29-1.505 5.825 3.165.829 1.505-5.824 4.922 1.29-1.557 6.029c1.407.556 2.591 1.168 3.496 1.85 1.562 1.177 2.638 2.56 3.23 4.154.59 1.593.68 3.193.264 4.8a7.916 7.916 0 01-1.605 3.13c-.772.922-1.728 1.66-2.868 2.22-1.149.558-2.551.899-4.224 1.023 1.536.85 2.679 1.65 3.417 2.384 1.078 1.039 1.82 2.3 2.229 3.768.407 1.474.41 2.996.007 4.568-.486 1.88-1.496 3.464-3.03 4.751-1.533 1.29-3.437 2.079-5.707 2.37-1.178.152-2.594.12-4.238-.09l-1.02 3.944A25.107 25.107 0 0125 50c.45 0 .897-.012 1.34-.036zm-5.426-.297l1.2-4.648a1.387 1.387 0 00-.035-.009l-.034-.007a1.472 1.472 0 01-.022-.005l-.017-.004-3.057-.802-1.223 4.733.207.062c.97.286 1.964.514 2.98.68zm-7.926-2.736a25.102 25.102 0 01-7.466-6.259l8.508 2.23-1.042 4.029zm16.361-8.367c.914-.702 1.532-1.668 1.849-2.9.271-1.051.257-2.003-.041-2.86-.298-.856-.886-1.6-1.762-2.225-.878-.627-2.313-1.203-4.31-1.727l-4.55-1.193-1.982 7.669c-.264 1.092-.387 1.732-.365 1.938.024.26.119.46.288.605.17.143.678.328 1.535.552l2.567.673c1.492.391 2.766.574 3.817.551 1.053-.022 2.039-.385 2.954-1.083zm4.916-17.576c-.23.896-.68 1.623-1.345 2.18-.664.56-1.524.882-2.577.966-1.054.085-2.589-.135-4.607-.664l-3.855-1.011 2.232-8.637 3.855 1.01c2.254.591 3.78 1.142 4.581 1.65.8.508 1.346 1.155 1.64 1.934.29.782.319 1.638.076 2.572z" fill="#F7931A"/></svg>
