<svg width="50" height="50" viewBox="0 0 50 50" fill="none" xmlns="http://www.w3.org/2000/svg"><path d="M50 25c0 12.635-9.373 23.08-21.543 24.762-1.13.157-2.285.238-3.457.238a25.09 25.09 0 01-3.457-.238C9.373 48.08 0 37.635 0 25 0 11.193 11.193 0 25 0s25 11.193 25 25z" fill="#DEE2E7"/><path d="M41.751 28.19L24.741 0 7.73 28.19l17.01 9.954 17.01-9.955z" fill="#8C8C8C"/><path d="M41.751 28.28l-17.01-7.661-17.01 7.66 17.01 9.865 17.01-9.864z" fill="#343434"/><path d="M41.751 30.928L28.173 49.765a25.026 25.026 0 01-3.432.235c-1.164 0-2.31-.08-3.431-.235L7.73 30.928l17.011 9.893 17.01-9.893z" fill="#8C8C8C"/><path d="M42.268 28.19l-17.01 9.954V0l17.01 28.19z" fill="#343434"/><path d="M42.268 28.28l-17.01 9.864V20.62l17.01 7.66z" fill="#141414"/><path d="M42.268 30.928L28.69 49.765a25.026 25.026 0 01-3.432.235v-9.179l17.01-9.893z" fill="#343434"/></svg>
