<?xml version="1.0" encoding="UTF-8"?>
<svg width="180px" height="180px" viewBox="0 0 180 180" version="1.1" xmlns="http://www.w3.org/2000/svg" xmlns:xlink="http://www.w3.org/1999/xlink">
    <!-- Generator: Sketch 53.2 (72643) - https://sketchapp.com -->
    <title>icon@180</title>
    <desc>Created with Sketch.</desc>
    <defs>
        <rect id="path-1" x="0" y="0" width="180" height="180"></rect>
        <linearGradient x1="19.4271753%" y1="88.4740683%" x2="105.156674%" y2="11.5270791%" id="linearGradient-3">
            <stop stop-color="#00AEEF" offset="0%"></stop>
            <stop stop-color="#00B68F" offset="58.7301587%"></stop>
            <stop stop-color="#72BF44" offset="100%"></stop>
        </linearGradient>
        <path d="M78.9681544,6.82152707 C76.7158096,10.6971082 76.5993289,15.2203388 78.2508177,19.0374595 L78.2508177,19.0374595 C78.6856022,20.3660009 78.9185636,21.7793672 78.9185636,23.2489014 L78.9185636,23.2489014 C78.9185636,30.734126 72.8684863,36.8151546 65.3629769,36.9400994 L65.3629769,36.9400994 C65.2868608,36.9400994 65.2142045,36.9297828 65.1380884,36.9297828 L65.1380884,36.9297828 C65.0527461,36.9297828 64.9650972,36.9366605 64.8774484,36.9400994 L64.8774484,36.9400994 C57.3892381,36.7956678 51.3599198,30.726102 51.3599198,23.2489014 L51.3599198,23.2489014 C51.3599198,21.7793672 51.596341,20.3660009 52.0242058,19.0374595 L52.0242058,19.0374595 C53.6780012,15.2203388 53.5626738,10.6971082 51.310329,6.82152707 L51.310329,6.82152707 C47.5218227,0.294594599 39.1317519,-1.93492484 32.5696208,1.83175941 L32.5696208,1.83175941 C26.0063365,5.59729738 23.7597581,13.9342099 27.5482643,20.455411 L27.5482643,20.455411 C29.8006091,24.3355772 33.6813773,26.6946265 37.8343182,27.1817966 L37.8343182,27.1817966 C39.2055614,27.4706598 40.557199,27.9784629 41.8338737,28.7109374 L41.8338737,28.7109374 C48.2945166,32.418015 50.587226,40.5348412 47.1008776,47.0216538 L47.1008776,47.0216538 C46.9497987,47.2669583 46.8079459,47.5168479 46.6672465,47.7678837 L46.6672465,47.7678837 C42.7714857,54.0483655 34.529034,56.1517938 28.055705,52.4378386 L28.055705,52.4378386 C26.7202133,51.6652442 25.5715521,50.7012206 24.6051082,49.6088134 L24.6051082,49.6088134 C22.1001963,46.3613951 18.1536915,44.2648445 13.7158918,44.2648445 L13.7158918,44.2648445 C6.1411859,44.2648445 3.86535248e-12,50.3687987 3.86535248e-12,57.8998746 L3.86535248e-12,57.8998746 C3.86535248e-12,65.4320968 6.1411859,71.5326122 13.7158918,71.5326122 L13.7158918,71.5326122 C18.1583046,71.5326122 22.1025029,69.4360615 24.6108746,66.1840581 L24.6108746,66.1840581 C25.5738586,65.0962361 26.7202133,64.1287736 28.055705,63.3642032 L28.055705,63.3642032 C34.529034,59.6525405 42.7714857,61.7490912 46.6660932,68.0307192 L46.6660932,68.0307192 C46.8079459,68.2817551 46.9497987,68.532791 47.1008776,68.7780954 L47.1008776,68.7780954 C50.587226,75.2672006 48.2945166,83.380588 41.8361802,87.0876655 L41.8361802,87.0876655 C40.557199,87.8224326 39.2032549,88.3256506 37.8343182,88.6190989 L37.8343182,88.6190989 C33.6813773,89.1051227 29.8006091,91.4664646 27.5482643,95.3420457 L27.5482643,95.3420457 C23.7597581,101.868978 26.0063365,110.205891 32.5696208,113.970282 L32.5696208,113.970282 C39.1317519,117.733528 47.5218227,115.501716 51.310329,108.978222 L51.310329,108.978222 C53.5626738,105.100349 53.6780012,100.578264 52.0242058,96.7599972 L52.0242058,96.7599972 C51.596341,95.4360409 51.3599198,94.0192357 51.3599198,92.5485553 L51.3599198,92.5485553 C51.3599198,85.0759398 57.3892381,79.0006426 64.8774484,78.8630887 L64.8774484,78.8630887 C64.9650972,78.8653813 65.0527461,78.8665276 65.1380884,78.8665276 L65.1380884,78.8665276 C65.2280438,78.8665276 65.3168459,78.8653813 65.4068013,78.8630887 L65.4068013,78.8630887 C72.8938584,79.0017889 78.9185636,85.0793786 78.9185636,92.5485553 L78.9185636,92.5485553 C78.9185636,94.0192357 78.6856022,95.4360409 78.2508177,96.7599972 L78.2508177,96.7599972 C76.5970223,100.578264 76.7158096,105.100349 78.9681544,108.978222 L78.9681544,108.978222 C82.7566606,115.501716 91.1455782,117.733528 97.7100158,113.971429 L97.7100158,113.971429 C104.268687,110.205891 106.516419,101.868978 102.732526,95.3420457 L102.732526,95.3420457 C100.480181,91.4664646 96.5994126,89.1051227 92.4476249,88.6190989 L92.4476249,88.6190989 C91.0706154,88.3256506 89.7212844,87.8224326 88.4399966,87.0876655 L88.4399966,87.0876655 C81.9309162,83.3496384 79.6520461,75.1307929 83.2664079,68.614177 L83.2664079,68.614177 C83.3609764,68.4628677 83.4486252,68.3081196 83.5351208,68.1545177 L83.5351208,68.1545177 L83.5754854,68.0937648 L83.5708723,68.0914722 C84.8948312,65.728984 85.7805459,63.083364 86.0976964,60.2680942 L86.0976964,60.2680942 C86.1023095,60.2405835 86.104616,60.2153652 86.1080759,60.1809768 L86.1080759,60.1809768 C86.1161488,60.1305403 86.1219151,60.0789576 86.1276815,60.0227898 L86.1276815,60.0227898 L86.1184553,60.0227898 C86.1219151,59.9540128 86.1276815,59.8852359 86.1276815,59.8141664 L86.1276815,59.8141664 C86.1276815,57.6946901 84.410456,55.9787052 82.2872779,55.9580721 L82.2872779,55.9580721 L67.6072488,55.9580721 L67.6003291,55.9580721 C65.4586987,55.9580721 63.724174,57.6843735 63.724174,59.8141664 L63.724174,59.8141664 C63.724174,61.9370815 65.4586987,63.663383 67.6003291,63.663383 L67.6003291,63.663383 L67.6072488,63.663383 L77.1725062,63.663383 C75.0124234,68.1143978 70.4385373,71.1795572 65.1380884,71.1795572 L65.1380884,71.1795572 C57.7617457,71.1795572 51.7762518,65.2360825 51.7762518,57.8998746 L51.7762518,57.8998746 C51.7762518,50.5659593 57.7617457,44.620192 65.1380884,44.620192 L65.1380884,44.620192 C70.0614166,44.620192 74.3585168,47.2669583 76.6731384,51.2044386 L76.6731384,51.2044386 C77.3489572,52.346136 78.5898804,53.1141452 80.017634,53.1141452 L80.017634,53.1141452 C82.1627243,53.1141452 83.8949424,51.3878438 83.8949424,49.258051 L83.8949424,49.258051 C83.8949424,48.4900417 83.6596744,47.7873705 83.2733275,47.1867185 L83.2733275,47.1867185 C79.6520461,40.6723951 81.9309162,32.4501109 88.4399966,28.7109374 L88.4399966,28.7109374 C89.7212844,27.9784629 91.0706154,27.4706598 92.4407053,27.1817966 L92.4407053,27.1817966 C96.5994126,26.6946265 100.480181,24.3355772 102.732526,20.455411 L102.732526,20.455411 C106.516419,13.9342099 104.268687,5.59729738 97.7100158,1.83175941 L97.7100158,1.83175941 C95.5476264,0.59033548 93.1868738,8.41282599e-12 90.8584129,8.41282599e-12 L90.8584129,8.41282599e-12 C86.1184553,8.41282599e-12 81.509971,2.44502054 78.9681544,6.82152707" id="path-4"></path>
    </defs>
    <g id="ICD-icon-preview" stroke="none" stroke-width="1" fill="none" fill-rule="evenodd">
        <g id="presentation" transform="translate(-773.000000, -151.000000)">
            <g id="change-anything-in-this-icon" transform="translate(773.000000, 151.000000)">
                <g id="icon">
                    <mask id="mask-2" fill="white">
                        <use xlink:href="#path-1"></use>
                    </mask>
                    <g id="Mask"></g>
                    <g id="Rectangle" mask="url(#mask-2)">
                        <path d="M51.3778558,0 L128.622144,4.15145373e-15 C146.487344,8.69669781e-16 152.965697,1.86013822 159.496947,5.35308895 C166.028197,8.84603967 171.15396,13.9718029 174.646911,20.5030529 C178.139862,27.0343029 180,33.512656 180,51.3778558 L180,128.622144 C180,146.487344 178.139862,152.965697 174.646911,159.496947 C171.15396,166.028197 166.028197,171.15396 159.496947,174.646911 C152.965697,178.139862 146.487344,180 128.622144,180 L51.3778558,180 C33.512656,180 27.0343029,178.139862 20.5030529,174.646911 C13.9718029,171.15396 8.84603967,166.028197 5.35308895,159.496947 C1.86013822,152.965697 2.18785597e-15,146.487344 0,128.622144 L2.76763582e-15,51.3778558 C5.79779854e-16,33.512656 1.86013822,27.0343029 5.35308895,20.5030529 C8.84603967,13.9718029 13.9718029,8.84603967 20.5030529,5.35308895 C27.0343029,1.86013822 33.512656,0 51.3778558,0 Z" id="Combined-Shape" fill="url(#linearGradient-3)"></path>
                        <g id="icon" transform="translate(24.854421, 32.100560)">
                            <mask id="mask-5" fill="white">
                                <use xlink:href="#path-4"></use>
                            </mask>
                            <g id="Clip-753"></g>
                            <path d="M78.9681544,6.82152707 C76.7158096,10.6971082 76.5993289,15.2203388 78.2508177,19.0374595 L78.2508177,19.0374595 C78.6856022,20.3660009 78.9185636,21.7793672 78.9185636,23.2489014 L78.9185636,23.2489014 C78.9185636,30.734126 72.8684863,36.8151546 65.3629769,36.9400994 L65.3629769,36.9400994 C65.2868608,36.9400994 65.2142045,36.9297828 65.1380884,36.9297828 L65.1380884,36.9297828 C65.0527461,36.9297828 64.9650972,36.9366605 64.8774484,36.9400994 L64.8774484,36.9400994 C57.3892381,36.7956678 51.3599198,30.726102 51.3599198,23.2489014 L51.3599198,23.2489014 C51.3599198,21.7793672 51.596341,20.3660009 52.0242058,19.0374595 L52.0242058,19.0374595 C53.6780012,15.2203388 53.5626738,10.6971082 51.310329,6.82152707 L51.310329,6.82152707 C47.5218227,0.294594599 39.1317519,-1.93492484 32.5696208,1.83175941 L32.5696208,1.83175941 C26.0063365,5.59729738 23.7597581,13.9342099 27.5482643,20.455411 L27.5482643,20.455411 C29.8006091,24.3355772 33.6813773,26.6946265 37.8343182,27.1817966 L37.8343182,27.1817966 C39.2055614,27.4706598 40.557199,27.9784629 41.8338737,28.7109374 L41.8338737,28.7109374 C48.2945166,32.418015 50.587226,40.5348412 47.1008776,47.0216538 L47.1008776,47.0216538 C46.9497987,47.2669583 46.8079459,47.5168479 46.6672465,47.7678837 L46.6672465,47.7678837 C42.7714857,54.0483655 34.529034,56.1517938 28.055705,52.4378386 L28.055705,52.4378386 C26.7202133,51.6652442 25.5715521,50.7012206 24.6051082,49.6088134 L24.6051082,49.6088134 C22.1001963,46.3613951 18.1536915,44.2648445 13.7158918,44.2648445 L13.7158918,44.2648445 C6.1411859,44.2648445 3.86535248e-12,50.3687987 3.86535248e-12,57.8998746 L3.86535248e-12,57.8998746 C3.86535248e-12,65.4320968 6.1411859,71.5326122 13.7158918,71.5326122 L13.7158918,71.5326122 C18.1583046,71.5326122 22.1025029,69.4360615 24.6108746,66.1840581 L24.6108746,66.1840581 C25.5738586,65.0962361 26.7202133,64.1287736 28.055705,63.3642032 L28.055705,63.3642032 C34.529034,59.6525405 42.7714857,61.7490912 46.6660932,68.0307192 L46.6660932,68.0307192 C46.8079459,68.2817551 46.9497987,68.532791 47.1008776,68.7780954 L47.1008776,68.7780954 C50.587226,75.2672006 48.2945166,83.380588 41.8361802,87.0876655 L41.8361802,87.0876655 C40.557199,87.8224326 39.2032549,88.3256506 37.8343182,88.6190989 L37.8343182,88.6190989 C33.6813773,89.1051227 29.8006091,91.4664646 27.5482643,95.3420457 L27.5482643,95.3420457 C23.7597581,101.868978 26.0063365,110.205891 32.5696208,113.970282 L32.5696208,113.970282 C39.1317519,117.733528 47.5218227,115.501716 51.310329,108.978222 L51.310329,108.978222 C53.5626738,105.100349 53.6780012,100.578264 52.0242058,96.7599972 L52.0242058,96.7599972 C51.596341,95.4360409 51.3599198,94.0192357 51.3599198,92.5485553 L51.3599198,92.5485553 C51.3599198,85.0759398 57.3892381,79.0006426 64.8774484,78.8630887 L64.8774484,78.8630887 C64.9650972,78.8653813 65.0527461,78.8665276 65.1380884,78.8665276 L65.1380884,78.8665276 C65.2280438,78.8665276 65.3168459,78.8653813 65.4068013,78.8630887 L65.4068013,78.8630887 C72.8938584,79.0017889 78.9185636,85.0793786 78.9185636,92.5485553 L78.9185636,92.5485553 C78.9185636,94.0192357 78.6856022,95.4360409 78.2508177,96.7599972 L78.2508177,96.7599972 C76.5970223,100.578264 76.7158096,105.100349 78.9681544,108.978222 L78.9681544,108.978222 C82.7566606,115.501716 91.1455782,117.733528 97.7100158,113.971429 L97.7100158,113.971429 C104.268687,110.205891 106.516419,101.868978 102.732526,95.3420457 L102.732526,95.3420457 C100.480181,91.4664646 96.5994126,89.1051227 92.4476249,88.6190989 L92.4476249,88.6190989 C91.0706154,88.3256506 89.7212844,87.8224326 88.4399966,87.0876655 L88.4399966,87.0876655 C81.9309162,83.3496384 79.6520461,75.1307929 83.2664079,68.614177 L83.2664079,68.614177 C83.3609764,68.4628677 83.4486252,68.3081196 83.5351208,68.1545177 L83.5351208,68.1545177 L83.5754854,68.0937648 L83.5708723,68.0914722 C84.8948312,65.728984 85.7805459,63.083364 86.0976964,60.2680942 L86.0976964,60.2680942 C86.1023095,60.2405835 86.104616,60.2153652 86.1080759,60.1809768 L86.1080759,60.1809768 C86.1161488,60.1305403 86.1219151,60.0789576 86.1276815,60.0227898 L86.1276815,60.0227898 L86.1184553,60.0227898 C86.1219151,59.9540128 86.1276815,59.8852359 86.1276815,59.8141664 L86.1276815,59.8141664 C86.1276815,57.6946901 84.410456,55.9787052 82.2872779,55.9580721 L82.2872779,55.9580721 L67.6072488,55.9580721 L67.6003291,55.9580721 C65.4586987,55.9580721 63.724174,57.6843735 63.724174,59.8141664 L63.724174,59.8141664 C63.724174,61.9370815 65.4586987,63.663383 67.6003291,63.663383 L67.6003291,63.663383 L67.6072488,63.663383 L77.1725062,63.663383 C75.0124234,68.1143978 70.4385373,71.1795572 65.1380884,71.1795572 L65.1380884,71.1795572 C57.7617457,71.1795572 51.7762518,65.2360825 51.7762518,57.8998746 L51.7762518,57.8998746 C51.7762518,50.5659593 57.7617457,44.620192 65.1380884,44.620192 L65.1380884,44.620192 C70.0614166,44.620192 74.3585168,47.2669583 76.6731384,51.2044386 L76.6731384,51.2044386 C77.3489572,52.346136 78.5898804,53.1141452 80.017634,53.1141452 L80.017634,53.1141452 C82.1627243,53.1141452 83.8949424,51.3878438 83.8949424,49.258051 L83.8949424,49.258051 C83.8949424,48.4900417 83.6596744,47.7873705 83.2733275,47.1867185 L83.2733275,47.1867185 C79.6520461,40.6723951 81.9309162,32.4501109 88.4399966,28.7109374 L88.4399966,28.7109374 C89.7212844,27.9784629 91.0706154,27.4706598 92.4407053,27.1817966 L92.4407053,27.1817966 C96.5994126,26.6946265 100.480181,24.3355772 102.732526,20.455411 L102.732526,20.455411 C106.516419,13.9342099 104.268687,5.59729738 97.7100158,1.83175941 L97.7100158,1.83175941 C95.5476264,0.59033548 93.1868738,8.41282599e-12 90.8584129,8.41282599e-12 L90.8584129,8.41282599e-12 C86.1184553,8.41282599e-12 81.509971,2.44502054 78.9681544,6.82152707" id="Fill-752" fill="#FFFFFF" mask="url(#mask-5)"></path>
                        </g>
                    </g>
                </g>
            </g>
        </g>
    </g>
</svg>