<svg width="1024" height="1024" viewBox="0 0 1024 1024" fill="none" xmlns="http://www.w3.org/2000/svg">
<rect width="1024" height="1024" rx="230" fill="#F7F7F0"/>
<path d="M748.172 711.845C736.04 691.201 715.988 678.438 693.523 675.997C686.23 674.184 678.951 671.757 672.271 668.102C637.661 648.058 625.515 604.329 644.94 569.709C645.579 569.04 646.002 568.194 646.153 567.282V566.668C653.446 553.919 657.699 539.942 659.512 524.752V523.539V522.325C659.512 510.79 650.406 501.681 639.474 501.681H562.973C551.441 501.681 542.335 510.79 542.335 522.325C542.335 533.875 551.441 542.969 562.973 542.969H613.383C601.837 566.668 577.545 583.071 549.614 583.071C530.936 583.057 513.027 575.627 499.821 562.415C486.614 549.202 479.191 531.287 479.179 512.603C479.194 493.922 486.62 476.01 499.826 462.801C513.031 449.591 530.938 442.163 549.614 442.149C561.953 442.095 574.084 445.331 584.758 451.524C595.431 457.717 604.263 466.643 610.343 477.383C613.983 483.451 620.662 487.705 627.955 487.705C639.488 487.705 648.593 478.596 648.593 467.061C648.593 462.793 647.38 459.152 645.567 456.111C626.129 421.491 638.274 377.762 672.899 357.718C679.579 354.077 686.858 351.022 694.151 349.823C705.416 348.501 716.22 344.573 725.705 338.351C735.19 332.129 743.097 323.783 748.8 313.975C768.838 279.355 756.693 235.026 722.082 214.968C687.471 194.924 643.141 207.073 623.103 241.693C617.323 251.439 613.974 262.433 613.338 273.747C612.702 285.061 614.798 296.361 619.449 306.694C621.875 313.975 623.103 321.27 623.103 329.165C623.116 348.293 615.608 366.659 602.201 380.297C588.793 393.936 570.561 401.753 551.441 402.06H549.014C529.894 401.753 511.662 393.936 498.255 380.297C484.847 366.659 477.339 348.293 477.353 329.165C477.353 321.27 478.566 313.975 480.992 306.694C485.352 296.293 487.291 285.037 486.662 273.776C486.034 262.515 482.856 251.545 477.367 241.693C457.286 207.073 412.956 194.924 378.345 214.968C343.749 235.012 331.603 279.355 351.641 313.989C363.773 334.633 383.826 347.396 406.305 349.837C413.584 351.65 420.863 354.077 427.542 357.732C461.553 377.162 473.699 420.905 455.487 454.912C454.874 456.125 453.661 457.339 453.047 459.166C432.409 492.573 388.678 503.523 354.681 484.078C347.388 479.824 341.322 474.956 336.456 468.874C323.097 451.885 302.459 440.335 278.767 440.335C238.09 440.321 205.292 472.515 205.292 512.617C205.292 552.705 238.09 584.913 277.553 584.913C288.73 584.986 299.768 582.442 309.785 577.484C319.802 572.526 328.521 565.292 335.242 556.36C340.109 550.278 346.175 545.424 353.468 541.17C387.465 521.126 431.196 532.661 451.834 566.068C452.448 567.296 453.047 568.509 454.26 570.322C472.486 604.943 460.34 648.072 426.329 667.516C419.65 671.157 412.371 674.198 405.077 675.411C393.809 676.731 383.003 680.658 373.515 686.88C364.027 693.103 356.118 701.449 350.414 711.259C330.39 745.866 342.536 790.208 377.146 810.252C411.757 830.31 456.087 818.161 476.126 783.527C481.903 773.78 485.25 762.785 485.883 751.471C486.517 740.158 484.418 728.858 479.765 718.526C477.336 711.29 476.111 703.703 476.14 696.069C476.14 656.581 507.71 623.773 547.787 623.174H550.214C569.334 623.481 587.566 631.298 600.974 644.937C614.381 658.575 621.889 676.941 621.875 696.069C621.875 703.964 620.648 711.245 618.222 718.526C613.867 728.929 611.932 740.187 612.565 751.447C613.198 762.708 616.382 773.678 621.875 783.527C641.914 818.161 686.244 830.31 720.855 810.252C756.679 790.822 768.211 746.479 748.186 711.859L748.172 711.845Z" fill="url(#paint0_linear_1232_4627)"/>
<defs>
<linearGradient id="paint0_linear_1232_4627" x1="268.5" y1="730" x2="728.5" y2="223.5" gradientUnits="userSpaceOnUse">
<stop stop-color="#00AEEF"/>
<stop offset="1" stop-color="#72BF44"/>
</linearGradient>
</defs>
</svg>
