<svg xmlns="http://www.w3.org/2000/svg" viewBox="0 0 30 30">
    <symbol id="t81" viewBox="0 0 30 30">
        <path d="M15 29.975C23.2567 29.975 29.9501 23.2817 29.9501 15.0249C29.9501 6.76813 23.2567 0.074707 15 0.074707C6.74323 0.074707 0.0498047 6.76813 0.0498047 15.0249C0.0498047 23.2817 6.74323 29.975 15 29.975Z" stroke="none" fill="#B9B9B5"/>
        <path d="M26.242 24.9001L26.2763 24.9169L26.3015 24.8881C28.6047 22.2512 30 18.801 30 15.0249C30 6.74064 23.2843 0.0249023 15 0.0249023C6.71573 0.0249023 0 6.74064 0 15.0249C0 18.8034 1.39709 22.2555 3.70281 24.893L3.72794 24.9218L3.76225 24.905C4.59359 24.4977 5.67892 24.0414 7.08946 23.525C7.9643 23.2052 8.6602 22.9767 9.2173 22.7938C9.521 22.694 9.7834 22.6079 10.0111 22.5279C10.6501 22.3032 11.0177 22.1268 11.2198 21.8304C11.3634 21.6199 11.4196 21.355 11.4415 20.9867C11.4571 20.7232 11.4552 20.4015 11.4529 20.0027C11.452 19.845 11.451 19.6753 11.451 19.4924C11.451 19.0336 11.3985 18.7336 11.307 18.5009C11.2159 18.2692 11.0874 18.1077 10.9437 17.9271L10.942 17.925C10.7662 17.704 10.5626 17.4481 10.3575 16.9858C10.1519 16.5225 9.9442 15.8504 9.7641 14.7977C9.7052 14.4476 9.6485 14.2286 9.5887 14.07C9.5287 13.9105 9.466 13.8136 9.3985 13.7093L9.3966 13.7064C9.2422 13.4677 9.0468 13.1657 8.74877 11.8675C8.65883 11.4763 8.64435 11.2004 8.66407 10.9885C8.68377 10.7768 8.73774 10.6264 8.78913 10.4835L8.78981 10.4816C8.85231 10.3079 8.91165 10.1431 8.8885 9.9029C8.87376 9.7501 8.85903 9.6009 8.84349 9.4436L8.84267 9.4352C8.79675 8.97074 8.74362 8.43304 8.66224 7.51621C8.59416 6.76029 8.91046 5.3786 9.8795 4.18588C10.8463 2.99587 12.4636 1.99334 15 1.99334C17.5363 1.99334 19.1537 2.99587 20.1214 4.18501C21.0914 5.37682 21.4095 6.7567 21.3451 7.50907C21.2642 8.42534 21.2112 8.95941 21.1655 9.4202L21.2151 9.4251L21.2135 9.4414C21.1979 9.5985 21.1832 9.7473 21.1684 9.9004L21.1188 9.8956C21.0957 10.1357 21.155 10.3006 21.2174 10.4742L21.2182 10.4762C21.2695 10.6191 21.3235 10.7694 21.3433 10.9811C21.363 11.193 21.3484 11.469 21.2585 11.8602C20.9596 13.1659 20.764 13.4679 20.6095 13.7064L20.6078 13.7089C20.5406 13.8126 20.4778 13.9095 20.418 14.0679C20.3584 14.2256 20.302 14.4429 20.2433 14.7903C20.0632 15.843 19.8554 16.5152 19.6498 16.9785C19.4447 17.4409 19.2411 17.6967 19.0653 17.9178L19.0637 17.9197C18.9199 18.1004 18.7914 18.2618 18.7003 18.4936C18.6089 18.7264 18.5563 19.0264 18.5563 19.4851C18.5563 19.6677 18.5553 19.8371 18.5545 19.9944C18.5522 20.3915 18.5503 20.712 18.5658 20.9747C18.5875 21.3418 18.6436 21.6062 18.7866 21.8165C18.9884 22.1131 19.3556 22.2899 19.9947 22.5155C20.222 22.5958 20.484 22.6822 20.7872 22.7821C21.3448 22.9661 22.0415 23.196 22.9177 23.5176C24.3274 24.0359 25.4116 24.4928 26.242 24.9001Z" fill="#DCDCD9" stroke="none"/>
        <path d="M15 2.2C11.7783 2.2 9.16667 4.88629 9.16667 8.2V9.4H10.3333C10.9777 9.4 11.5 9.93726 11.5 10.6V14.2C11.5 14.8627 10.9777 15.4 10.3333 15.4H9.16667C8.52233 15.4 8 14.8627 8 14.2V8.2C8 4.22355 11.134 1 15 1C18.866 1 22 4.22355 22 8.2V15.4C22 17.0569 20.6942 18.4 19.0833 18.4H16.5939C16.3922 18.7587 16.0152 19 15.5833 19H14.4167C13.7723 19 13.25 18.4627 13.25 17.8C13.25 17.1373 13.7723 16.6 14.4167 16.6H15.5833C16.0152 16.6 16.3922 16.8413 16.5939 17.2H19.0833C20.0498 17.2 20.8333 16.3941 20.8333 15.4H19.6667C19.0223 15.4 18.5 14.8627 18.5 14.2V10.6C18.5 9.93726 19.0223 9.4 19.6667 9.4H20.8333V8.2C20.8333 4.88629 18.2217 2.2 15 2.2Z"/>
    </symbol>
    <use href="#t81"/>
</svg>
