<svg width="25" height="25" viewBox="0 0 25 25" fill="none" xmlns="http://www.w3.org/2000/svg">
<mask id="mask0_4409_32984" style="mask-type:luminance" maskUnits="userSpaceOnUse" x="0" y="0" width="25" height="25">
<path d="M25 0H0V25H25V0Z" fill="white"/>
</mask>
<g mask="url(#mask0_4409_32984)">
<path d="M12.5 24.9792C19.3806 24.9792 24.9584 19.4014 24.9584 12.5208C24.9584 5.64011 19.3806 0.0622559 12.5 0.0622559C5.61936 0.0622559 0.0415039 5.64011 0.0415039 12.5208C0.0415039 19.4014 5.61936 24.9792 12.5 24.9792Z" fill="#285E69"/>
<path d="M21.8683 20.7501L21.8969 20.7641L21.9179 20.7401C23.8372 18.5427 25 15.6675 25 12.5208C25 5.6172 19.4036 0.020752 12.5 0.020752C5.59644 0.020752 0 5.6172 0 12.5208C0 15.6695 1.16424 18.5463 3.08568 20.7442L3.10662 20.7682L3.13521 20.7542C3.82799 20.4148 4.73243 20.0345 5.90788 19.6042C6.63692 19.3377 7.21683 19.1473 7.68108 18.9948C7.93417 18.9117 8.15283 18.8399 8.34258 18.7733C8.87508 18.586 9.18142 18.439 9.34983 18.192C9.4695 18.0166 9.51633 17.7958 9.53458 17.4889C9.54758 17.2693 9.546 17.0013 9.54408 16.6689C9.54333 16.5375 9.5425 16.3961 9.5425 16.2437C9.5425 15.8613 9.49875 15.6113 9.4225 15.4174C9.34658 15.2243 9.2395 15.0898 9.11975 14.9392L9.11833 14.9375C8.97183 14.7533 8.80217 14.5401 8.63125 14.1548C8.45992 13.7688 8.28683 13.2087 8.13675 12.3314C8.08767 12.0397 8.04042 11.8572 7.99058 11.725C7.94058 11.5921 7.88833 11.5113 7.83208 11.4244L7.8305 11.422C7.70183 11.2231 7.539 10.9714 7.29064 9.88958C7.21569 9.56358 7.20362 9.33367 7.22006 9.15708C7.23647 8.98067 7.28145 8.85533 7.32428 8.73625L7.32484 8.73467C7.37692 8.58992 7.42637 8.45258 7.40708 8.25242C7.3948 8.12508 7.38252 8.00075 7.36957 7.86967L7.36889 7.86267C7.33063 7.47562 7.28635 7.02753 7.21853 6.26351C7.1618 5.63358 7.42538 4.48217 8.23292 3.48823C9.03858 2.49656 10.3863 1.66112 12.5 1.66112C14.6136 1.66112 15.9614 2.49656 16.7678 3.48751C17.5762 4.48068 17.8412 5.63058 17.7876 6.25756C17.7202 7.02112 17.676 7.46618 17.6379 7.85017L17.6792 7.85425L17.6779 7.86783C17.6649 7.99875 17.6527 8.12275 17.6403 8.25033L17.599 8.24633C17.5797 8.44642 17.6292 8.58383 17.6812 8.7285L17.6818 8.73017C17.7246 8.84925 17.7696 8.9745 17.7861 9.15092C17.8025 9.3275 17.7903 9.5575 17.7154 9.8835C17.4663 10.9716 17.3033 11.2233 17.1746 11.422L17.1732 11.4241C17.1172 11.5105 17.0648 11.5913 17.015 11.7233C16.9653 11.8547 16.9183 12.0358 16.8694 12.3253C16.7193 13.2025 16.5462 13.7627 16.3748 14.1488C16.2039 14.5341 16.0343 14.7473 15.8877 14.9315L15.8864 14.9331C15.7666 15.0837 15.6595 15.2182 15.5836 15.4113C15.5074 15.6053 15.4636 15.8553 15.4636 16.2376C15.4636 16.3898 15.4628 16.5309 15.4621 16.662C15.4602 16.9929 15.4586 17.26 15.4715 17.4789C15.4896 17.7848 15.5363 18.0052 15.6555 18.1804C15.8237 18.4276 16.1297 18.5749 16.6622 18.7629C16.8517 18.8298 17.07 18.9018 17.3227 18.9851C17.7873 19.1384 18.3679 19.33 19.0981 19.598C20.2728 20.0299 21.1763 20.4107 21.8683 20.7501Z" fill="#DCDCD9" stroke="#DCDCD9" stroke-width="0.1"/>
</g>
</svg>
