<svg width="16" height="15" viewBox="0 0 16 15" fill="none" xmlns="http://www.w3.org/2000/svg">
<path fill-rule="evenodd" clip-rule="evenodd" d="M1.52703 6.64607C5.55273 4.89777 8.2327 3.73606 9.57844 3.17246C13.4086 1.57368 14.2137 1.29763 14.7313 1.28613C14.8464 1.28613 15.0994 1.30914 15.2719 1.44716C15.41 1.56218 15.4445 1.71171 15.4675 1.82673C15.4905 1.94175 15.5135 2.18329 15.4905 2.36732C15.2834 4.5527 14.3863 9.85513 13.9262 12.2936C13.7307 13.3287 13.3511 13.6738 12.983 13.7083C12.1779 13.7773 11.5683 13.1792 10.7977 12.6731C9.57844 11.8795 8.89982 11.3849 7.71511 10.6028C6.34637 9.70561 7.23203 9.21102 8.01416 8.40588C8.2212 8.19884 11.7523 4.97828 11.8213 4.69073C11.8328 4.65622 11.8328 4.5182 11.7523 4.44919C11.6718 4.38017 11.5568 4.40318 11.4648 4.42618C11.3382 4.44919 9.40591 5.73741 5.64475 8.27936C5.09265 8.65892 4.59807 8.84296 4.14949 8.83145C3.6549 8.81995 2.71174 8.5554 1.99861 8.32536C1.13596 8.04932 0.445841 7.89979 0.503351 7.41671C0.537857 7.16366 0.882918 6.91062 1.52703 6.64607Z" stroke="#285E69"/>
</svg>
