<svg width="25" height="25" viewBox="0 0 25 25" fill="none" xmlns="http://www.w3.org/2000/svg">
<path d="M13.0818 6.48957C14.0582 5.51326 15.6411 5.51326 16.6174 6.48957C17.5937 7.46588 17.5937 9.04879 16.6174 10.0251L10.2534 16.3891C9.66763 16.9748 8.71788 16.9749 8.1321 16.3891C7.54631 15.8033 7.54631 14.8535 8.1321 14.2677L13.0818 9.318C13.2771 9.12273 13.5937 9.12273 13.7889 9.318C13.9842 9.51326 13.9842 9.82984 13.7889 10.0251L8.8392 14.9748C8.64394 15.1701 8.64394 15.4867 8.8392 15.682C9.03446 15.8772 9.35105 15.8772 9.54631 15.682L15.9103 9.318C16.4961 8.73221 16.4961 7.78246 15.9103 7.19668C15.3245 6.61089 14.3747 6.61089 13.7889 7.19668L7.42499 13.5606C6.44868 14.5369 6.44868 16.1199 7.42499 17.0962C8.4013 18.0725 9.98421 18.0725 10.9605 17.0962L15.9103 12.1464C16.1055 11.9512 16.4221 11.9512 16.6174 12.1464C16.8126 12.3417 16.8126 12.6583 16.6174 12.8535L11.6676 17.8033C10.3008 19.1701 8.08472 19.1701 6.71788 17.8033C5.35105 16.4364 5.35105 14.2204 6.71788 12.8535L13.0818 6.48957Z" fill="#285E69"/>
</svg>
