<svg width="35" height="35" viewBox="0 0 35 35" fill="none" xmlns="http://www.w3.org/2000/svg">
<g id="account-27 1">
<path id="Vector" d="M26.4552 26.2919L26.4552 26.292C28.0079 24.7154 29.1486 22.7807 29.7765 20.6588C30.4043 18.537 30.5001 16.2932 30.0553 14.1255C29.6105 11.9578 28.6389 9.93304 27.2262 8.22988C25.8135 6.52671 24.0031 5.19758 21.955 4.35983C19.9069 3.52209 17.684 3.20151 15.4827 3.42639C13.2813 3.65128 11.1692 4.41471 9.33279 5.64928C7.49638 6.88386 5.9922 8.5516 4.95304 10.5052C3.91389 12.4589 3.37174 14.6383 3.37446 16.8511L3.37446 16.8518C3.36944 20.3801 4.76258 23.7666 7.2489 26.2701L7.25374 26.2749L7.25367 26.275L7.31495 26.3402L7.32922 26.2648C7.32924 26.2647 7.32926 26.2646 7.32928 26.2645C7.60971 24.7675 8.23792 23.3573 9.16329 22.1476C10.0886 20.938 11.2852 19.9627 12.6566 19.3002C12.6567 19.3002 12.6569 19.3001 12.657 19.3L12.7188 19.2698L12.6591 19.2235L12.6581 19.2227C11.3901 18.229 10.5157 16.8178 10.1902 15.2401C9.86469 13.6624 10.1093 12.0203 10.8805 10.606C11.6517 9.1916 12.8995 8.09656 14.402 7.51558C15.9046 6.93459 17.5645 6.9053 19.0866 7.43292C20.6087 7.96054 21.8943 9.01087 22.7149 10.3972C23.5356 11.7834 23.8379 13.4158 23.5683 15.0041C23.2987 16.5923 22.4745 18.0334 21.2424 19.0712C20.0103 20.109 18.45 20.6762 16.8391 20.672M26.4552 26.2919L16.8397 20.422M26.4552 26.2919L26.4512 26.2962L26.3899 26.3613L26.4552 26.2919ZM16.8391 20.672L16.8397 20.422M16.8391 20.672C16.8393 20.672 16.8395 20.672 16.8397 20.672V20.422M16.8391 20.672C14.886 20.6722 13.013 21.4481 11.632 22.8291C10.2508 24.2103 9.47484 26.0836 9.47484 28.0369V28.1431M16.8397 20.422C14.8201 20.422 12.8833 21.2243 11.4552 22.6523C10.0271 24.0804 9.22484 26.0173 9.22484 28.0369V28.278M9.47484 28.1431L9.362 28.069L9.22484 28.278M9.47484 28.1431L9.4968 28.1575L9.47484 28.1911V28.1431ZM9.22484 28.278H9.41817M9.22484 28.278H9.41817M9.41817 28.278L9.36022 28.3669L9.41852 28.278M9.41817 28.278L9.49738 28.1579L9.47484 28.1922M9.41817 28.278H9.41852M9.41817 28.278L9.47484 28.1922M9.41852 28.278H9.47484V28.1922M9.41852 28.278L9.47484 28.1922M24.2131 28.1922L24.1906 28.1579L24.1906 28.1578C24.1908 28.1577 24.191 28.1576 24.1911 28.1575L24.2131 28.1911M24.2131 28.1922V28.278H24.2694M24.2131 28.1922V28.1911M24.2131 28.1922L24.2694 28.278M24.2694 28.278L24.3277 28.3669L24.2698 28.278M24.2694 28.278H24.2698M24.2698 28.278H24.4631L24.3576 28.1173L24.3522 28.1091L24.3259 28.069L24.2737 28.1033L24.2524 28.1173L24.2131 28.1431V28.1911M24.2698 28.278L24.2131 28.1911M16.8528 1.0459H16.8524C13.7264 1.0459 10.6705 1.97288 8.07134 3.70961C5.47213 5.44635 3.44629 7.91484 2.25001 10.8029C1.05372 13.691 0.740721 16.869 1.35058 19.935C1.96044 23.0009 3.46578 25.8172 5.67622 28.0277C7.88667 30.2381 10.7029 31.7434 13.7689 32.3533C16.8349 32.9632 20.0129 32.6502 22.901 31.4539C25.789 30.2576 28.2575 28.2318 29.9943 25.6325C31.731 23.0333 32.658 19.9775 32.658 16.8514V16.8511C32.6523 12.6611 30.9853 8.64424 28.0225 5.68142C25.0596 2.7186 21.0428 1.05158 16.8528 1.0459ZM26.3757 26.2861L26.3756 26.2855L26.1299 26.332L26.3758 26.2868C26.3758 26.2866 26.3757 26.2863 26.3757 26.2861ZM12.9688 19.1472L13.1888 19.3178L12.9388 19.4403L12.9688 19.1472ZM12.3897 13.8692C12.3904 12.9875 12.6526 12.1259 13.143 11.3932C13.6334 10.6606 14.33 10.0897 15.1448 9.75287C15.9595 9.41603 16.8559 9.3283 17.7205 9.50079C18.5851 9.67327 19.3791 10.0982 20.0023 10.7219C20.6254 11.3456 21.0497 12.1401 21.2214 13.0048C21.3931 13.8696 21.3046 14.7659 20.967 15.5803C20.6294 16.3948 20.0579 17.0909 19.3248 17.5806C18.5918 18.0703 17.73 18.3317 16.8484 18.3317C15.6655 18.3307 14.5314 17.86 13.6954 17.0232C12.8593 16.1864 12.3897 15.052 12.3897 13.8692Z" fill="transparent" stroke="currentColor" stroke-width="0.5"/>
</g>
</svg>
