<svg width="35" height="35" viewBox="0 0 35 35" fill="none" xmlns="http://www.w3.org/2000/svg">
<g id="atm-1-5 1" clip-path="url(#clip0_1022_11882)">
<path id="Vector" d="M5.77358 34.3044H29.2252C32.0257 34.3044 34.3034 32.0266 34.3034 29.2261V5.77455C34.3034 2.97404 32.0257 0.696289 29.2252 0.696289H5.77358C2.97306 0.696289 0.695312 2.97404 0.695312 5.77455V29.2261C0.695312 32.0266 2.97306 34.3044 5.77358 34.3044ZM3.51292 3.5139C4.1126 2.91422 4.92562 2.57686 5.77368 2.57579H29.2252C30.988 2.57579 32.4239 4.01167 32.4239 5.77455V29.2261C32.4239 30.989 30.988 32.4249 29.2252 32.4249H5.77358C4.01069 32.4249 2.57482 30.989 2.57482 29.2261V5.77466C2.57588 4.9266 2.91325 4.11357 3.51292 3.5139Z" fill="currentColor" stroke="currentColor" stroke-width="0.5"/>
<g id="Vector_2">
<mask id="path-2-outside-1_1022_11882" maskUnits="userSpaceOnUse" x="7.03906" y="6.56738" width="21" height="21" fill="black">
<rect fill="white" x="7.03906" y="6.56738" width="21" height="21"/>
<path d="M25.2829 18.6034H10.1083C8.96747 18.6034 8.03906 17.675 8.03906 16.5342V9.63664C8.03906 8.49579 8.96747 7.56738 10.1083 7.56738H25.2829C26.4237 7.56738 27.3521 8.49579 27.3521 9.63664V16.5342C27.3521 17.675 26.4237 18.6034 25.2829 18.6034ZM10.1083 8.94689C10.0177 8.94689 9.92805 8.96473 9.84436 8.99939C9.76068 9.03405 9.68464 9.08486 9.62059 9.14891C9.55654 9.21296 9.50573 9.289 9.47107 9.37268C9.43641 9.45637 9.41857 9.54606 9.41857 9.63664V16.5342C9.41857 16.7171 9.49124 16.8925 9.62059 17.0219C9.74994 17.1512 9.92539 17.2239 10.1083 17.2239H25.2829C25.3734 17.2239 25.4631 17.2061 25.5468 17.1714C25.6305 17.1367 25.7065 17.0859 25.7706 17.0219C25.8346 16.9578 25.8855 16.8818 25.9201 16.7981C25.9548 16.7144 25.9726 16.6247 25.9726 16.5342V9.63664C25.9726 9.54606 25.9548 9.45637 25.9201 9.37268C25.8855 9.289 25.8346 9.21296 25.7706 9.14891C25.7065 9.08486 25.6305 9.03405 25.5468 8.99939C25.4631 8.96473 25.3734 8.94689 25.2829 8.94689H10.1083ZM11.4878 26.8804H10.1083C8.96747 26.8804 8.03906 25.952 8.03906 24.8112V23.4317C8.03906 22.2908 8.96747 21.3624 10.1083 21.3624H11.4878C12.6287 21.3624 13.5571 22.2908 13.5571 23.4317V24.8112C13.5571 25.952 12.6287 26.8804 11.4878 26.8804ZM10.1083 22.7419C10.0177 22.7419 9.92805 22.7598 9.84436 22.7944C9.76068 22.8291 9.68464 22.8799 9.62059 22.944C9.55654 23.008 9.50573 23.084 9.47107 23.1677C9.43641 23.2514 9.41857 23.3411 9.41857 23.4317V24.8112C9.41857 24.9018 9.43641 24.9915 9.47107 25.0751C9.50573 25.1588 9.55654 25.2349 9.62059 25.2989C9.68464 25.363 9.76068 25.4138 9.84436 25.4484C9.92805 25.4831 10.0177 25.5009 10.1083 25.5009H11.4878C11.5784 25.5009 11.6681 25.4831 11.7518 25.4484C11.8355 25.4138 11.9115 25.363 11.9756 25.2989C12.0396 25.2349 12.0904 25.1588 12.1251 25.0751C12.1597 24.9915 12.1776 24.9018 12.1776 24.8112V23.4317C12.1776 23.2488 12.1049 23.0733 11.9756 22.944C11.8462 22.8146 11.6708 22.7419 11.4878 22.7419H10.1083ZM18.3853 26.8804H17.0058C15.865 26.8804 14.9366 25.952 14.9366 24.8112V23.4317C14.9366 22.2908 15.865 21.3624 17.0058 21.3624H18.3853C19.5262 21.3624 20.4546 22.2908 20.4546 23.4317V24.8112C20.4546 25.952 19.5262 26.8804 18.3853 26.8804ZM17.0058 22.7419C16.9153 22.7419 16.8256 22.7598 16.7419 22.7944C16.6582 22.8291 16.5822 22.8799 16.5181 22.944C16.4541 23.008 16.4033 23.084 16.3686 23.1677C16.3339 23.2514 16.3161 23.3411 16.3161 23.4317V24.8112C16.3161 24.9018 16.3339 24.9915 16.3686 25.0751C16.4033 25.1588 16.4541 25.2349 16.5181 25.2989C16.5822 25.363 16.6582 25.4138 16.7419 25.4484C16.8256 25.4831 16.9153 25.5009 17.0058 25.5009H18.3853C18.4759 25.5009 18.5656 25.4831 18.6493 25.4484C18.733 25.4138 18.809 25.363 18.8731 25.2989C18.9371 25.2349 18.9879 25.1588 19.0226 25.0751C19.0573 24.9915 19.0751 24.9018 19.0751 24.8112V23.4317C19.0751 23.3411 19.0573 23.2514 19.0226 23.1677C18.9879 23.084 18.9371 23.008 18.8731 22.944C18.809 22.8799 18.733 22.8291 18.6493 22.7944C18.5656 22.7598 18.4759 22.7419 18.3853 22.7419H17.0058ZM25.2829 26.8804H23.9034C22.7625 26.8804 21.8341 25.952 21.8341 24.8112V23.4317C21.8341 22.2908 22.7625 21.3624 23.9034 21.3624H25.2829C26.4237 21.3624 27.3521 22.2908 27.3521 23.4317V24.8112C27.3521 25.952 26.4237 26.8804 25.2829 26.8804ZM23.9034 22.7419C23.7204 22.7419 23.545 22.8146 23.4156 22.944C23.2863 23.0733 23.2136 23.2488 23.2136 23.4317V24.8112C23.2136 24.9018 23.2315 24.9915 23.2661 25.0751C23.3008 25.1588 23.3516 25.2349 23.4156 25.2989C23.4797 25.363 23.5557 25.4138 23.6394 25.4484C23.7231 25.4831 23.8128 25.5009 23.9034 25.5009H25.2829C25.3734 25.5009 25.4631 25.4831 25.5468 25.4484C25.6305 25.4138 25.7065 25.363 25.7706 25.2989C25.8346 25.2349 25.8855 25.1588 25.9201 25.0751C25.9548 24.9915 25.9726 24.9018 25.9726 24.8112V23.4317C25.9726 23.3411 25.9548 23.2514 25.9201 23.1677C25.8855 23.084 25.8346 23.008 25.7706 22.944C25.7065 22.8799 25.6305 22.8291 25.5468 22.7944C25.4631 22.7598 25.3734 22.7419 25.2829 22.7419H23.9034Z"/>
</mask>
<path d="M25.2829 18.6034H10.1083C8.96747 18.6034 8.03906 17.675 8.03906 16.5342V9.63664C8.03906 8.49579 8.96747 7.56738 10.1083 7.56738H25.2829C26.4237 7.56738 27.3521 8.49579 27.3521 9.63664V16.5342C27.3521 17.675 26.4237 18.6034 25.2829 18.6034ZM10.1083 8.94689C10.0177 8.94689 9.92805 8.96473 9.84436 8.99939C9.76068 9.03405 9.68464 9.08486 9.62059 9.14891C9.55654 9.21296 9.50573 9.289 9.47107 9.37268C9.43641 9.45637 9.41857 9.54606 9.41857 9.63664V16.5342C9.41857 16.7171 9.49124 16.8925 9.62059 17.0219C9.74994 17.1512 9.92539 17.2239 10.1083 17.2239H25.2829C25.3734 17.2239 25.4631 17.2061 25.5468 17.1714C25.6305 17.1367 25.7065 17.0859 25.7706 17.0219C25.8346 16.9578 25.8855 16.8818 25.9201 16.7981C25.9548 16.7144 25.9726 16.6247 25.9726 16.5342V9.63664C25.9726 9.54606 25.9548 9.45637 25.9201 9.37268C25.8855 9.289 25.8346 9.21296 25.7706 9.14891C25.7065 9.08486 25.6305 9.03405 25.5468 8.99939C25.4631 8.96473 25.3734 8.94689 25.2829 8.94689H10.1083ZM11.4878 26.8804H10.1083C8.96747 26.8804 8.03906 25.952 8.03906 24.8112V23.4317C8.03906 22.2908 8.96747 21.3624 10.1083 21.3624H11.4878C12.6287 21.3624 13.5571 22.2908 13.5571 23.4317V24.8112C13.5571 25.952 12.6287 26.8804 11.4878 26.8804ZM10.1083 22.7419C10.0177 22.7419 9.92805 22.7598 9.84436 22.7944C9.76068 22.8291 9.68464 22.8799 9.62059 22.944C9.55654 23.008 9.50573 23.084 9.47107 23.1677C9.43641 23.2514 9.41857 23.3411 9.41857 23.4317V24.8112C9.41857 24.9018 9.43641 24.9915 9.47107 25.0751C9.50573 25.1588 9.55654 25.2349 9.62059 25.2989C9.68464 25.363 9.76068 25.4138 9.84436 25.4484C9.92805 25.4831 10.0177 25.5009 10.1083 25.5009H11.4878C11.5784 25.5009 11.6681 25.4831 11.7518 25.4484C11.8355 25.4138 11.9115 25.363 11.9756 25.2989C12.0396 25.2349 12.0904 25.1588 12.1251 25.0751C12.1597 24.9915 12.1776 24.9018 12.1776 24.8112V23.4317C12.1776 23.2488 12.1049 23.0733 11.9756 22.944C11.8462 22.8146 11.6708 22.7419 11.4878 22.7419H10.1083ZM18.3853 26.8804H17.0058C15.865 26.8804 14.9366 25.952 14.9366 24.8112V23.4317C14.9366 22.2908 15.865 21.3624 17.0058 21.3624H18.3853C19.5262 21.3624 20.4546 22.2908 20.4546 23.4317V24.8112C20.4546 25.952 19.5262 26.8804 18.3853 26.8804ZM17.0058 22.7419C16.9153 22.7419 16.8256 22.7598 16.7419 22.7944C16.6582 22.8291 16.5822 22.8799 16.5181 22.944C16.4541 23.008 16.4033 23.084 16.3686 23.1677C16.3339 23.2514 16.3161 23.3411 16.3161 23.4317V24.8112C16.3161 24.9018 16.3339 24.9915 16.3686 25.0751C16.4033 25.1588 16.4541 25.2349 16.5181 25.2989C16.5822 25.363 16.6582 25.4138 16.7419 25.4484C16.8256 25.4831 16.9153 25.5009 17.0058 25.5009H18.3853C18.4759 25.5009 18.5656 25.4831 18.6493 25.4484C18.733 25.4138 18.809 25.363 18.8731 25.2989C18.9371 25.2349 18.9879 25.1588 19.0226 25.0751C19.0573 24.9915 19.0751 24.9018 19.0751 24.8112V23.4317C19.0751 23.3411 19.0573 23.2514 19.0226 23.1677C18.9879 23.084 18.9371 23.008 18.8731 22.944C18.809 22.8799 18.733 22.8291 18.6493 22.7944C18.5656 22.7598 18.4759 22.7419 18.3853 22.7419H17.0058ZM25.2829 26.8804H23.9034C22.7625 26.8804 21.8341 25.952 21.8341 24.8112V23.4317C21.8341 22.2908 22.7625 21.3624 23.9034 21.3624H25.2829C26.4237 21.3624 27.3521 22.2908 27.3521 23.4317V24.8112C27.3521 25.952 26.4237 26.8804 25.2829 26.8804ZM23.9034 22.7419C23.7204 22.7419 23.545 22.8146 23.4156 22.944C23.2863 23.0733 23.2136 23.2488 23.2136 23.4317V24.8112C23.2136 24.9018 23.2315 24.9915 23.2661 25.0751C23.3008 25.1588 23.3516 25.2349 23.4156 25.2989C23.4797 25.363 23.5557 25.4138 23.6394 25.4484C23.7231 25.4831 23.8128 25.5009 23.9034 25.5009H25.2829C25.3734 25.5009 25.4631 25.4831 25.5468 25.4484C25.6305 25.4138 25.7065 25.363 25.7706 25.2989C25.8346 25.2349 25.8855 25.1588 25.9201 25.0751C25.9548 24.9915 25.9726 24.9018 25.9726 24.8112V23.4317C25.9726 23.3411 25.9548 23.2514 25.9201 23.1677C25.8855 23.084 25.8346 23.008 25.7706 22.944C25.7065 22.8799 25.6305 22.8291 25.5468 22.7944C25.4631 22.7598 25.3734 22.7419 25.2829 22.7419H23.9034Z" fill="currentColor"/>
<path d="M25.2829 18.6034H10.1083C8.96747 18.6034 8.03906 17.675 8.03906 16.5342V9.63664C8.03906 8.49579 8.96747 7.56738 10.1083 7.56738H25.2829C26.4237 7.56738 27.3521 8.49579 27.3521 9.63664V16.5342C27.3521 17.675 26.4237 18.6034 25.2829 18.6034ZM10.1083 8.94689C10.0177 8.94689 9.92805 8.96473 9.84436 8.99939C9.76068 9.03405 9.68464 9.08486 9.62059 9.14891C9.55654 9.21296 9.50573 9.289 9.47107 9.37268C9.43641 9.45637 9.41857 9.54606 9.41857 9.63664V16.5342C9.41857 16.7171 9.49124 16.8925 9.62059 17.0219C9.74994 17.1512 9.92539 17.2239 10.1083 17.2239H25.2829C25.3734 17.2239 25.4631 17.2061 25.5468 17.1714C25.6305 17.1367 25.7065 17.0859 25.7706 17.0219C25.8346 16.9578 25.8855 16.8818 25.9201 16.7981C25.9548 16.7144 25.9726 16.6247 25.9726 16.5342V9.63664C25.9726 9.54606 25.9548 9.45637 25.9201 9.37268C25.8855 9.289 25.8346 9.21296 25.7706 9.14891C25.7065 9.08486 25.6305 9.03405 25.5468 8.99939C25.4631 8.96473 25.3734 8.94689 25.2829 8.94689H10.1083ZM11.4878 26.8804H10.1083C8.96747 26.8804 8.03906 25.952 8.03906 24.8112V23.4317C8.03906 22.2908 8.96747 21.3624 10.1083 21.3624H11.4878C12.6287 21.3624 13.5571 22.2908 13.5571 23.4317V24.8112C13.5571 25.952 12.6287 26.8804 11.4878 26.8804ZM10.1083 22.7419C10.0177 22.7419 9.92805 22.7598 9.84436 22.7944C9.76068 22.8291 9.68464 22.8799 9.62059 22.944C9.55654 23.008 9.50573 23.084 9.47107 23.1677C9.43641 23.2514 9.41857 23.3411 9.41857 23.4317V24.8112C9.41857 24.9018 9.43641 24.9915 9.47107 25.0751C9.50573 25.1588 9.55654 25.2349 9.62059 25.2989C9.68464 25.363 9.76068 25.4138 9.84436 25.4484C9.92805 25.4831 10.0177 25.5009 10.1083 25.5009H11.4878C11.5784 25.5009 11.6681 25.4831 11.7518 25.4484C11.8355 25.4138 11.9115 25.363 11.9756 25.2989C12.0396 25.2349 12.0904 25.1588 12.1251 25.0751C12.1597 24.9915 12.1776 24.9018 12.1776 24.8112V23.4317C12.1776 23.2488 12.1049 23.0733 11.9756 22.944C11.8462 22.8146 11.6708 22.7419 11.4878 22.7419H10.1083ZM18.3853 26.8804H17.0058C15.865 26.8804 14.9366 25.952 14.9366 24.8112V23.4317C14.9366 22.2908 15.865 21.3624 17.0058 21.3624H18.3853C19.5262 21.3624 20.4546 22.2908 20.4546 23.4317V24.8112C20.4546 25.952 19.5262 26.8804 18.3853 26.8804ZM17.0058 22.7419C16.9153 22.7419 16.8256 22.7598 16.7419 22.7944C16.6582 22.8291 16.5822 22.8799 16.5181 22.944C16.4541 23.008 16.4033 23.084 16.3686 23.1677C16.3339 23.2514 16.3161 23.3411 16.3161 23.4317V24.8112C16.3161 24.9018 16.3339 24.9915 16.3686 25.0751C16.4033 25.1588 16.4541 25.2349 16.5181 25.2989C16.5822 25.363 16.6582 25.4138 16.7419 25.4484C16.8256 25.4831 16.9153 25.5009 17.0058 25.5009H18.3853C18.4759 25.5009 18.5656 25.4831 18.6493 25.4484C18.733 25.4138 18.809 25.363 18.8731 25.2989C18.9371 25.2349 18.9879 25.1588 19.0226 25.0751C19.0573 24.9915 19.0751 24.9018 19.0751 24.8112V23.4317C19.0751 23.3411 19.0573 23.2514 19.0226 23.1677C18.9879 23.084 18.9371 23.008 18.8731 22.944C18.809 22.8799 18.733 22.8291 18.6493 22.7944C18.5656 22.7598 18.4759 22.7419 18.3853 22.7419H17.0058ZM25.2829 26.8804H23.9034C22.7625 26.8804 21.8341 25.952 21.8341 24.8112V23.4317C21.8341 22.2908 22.7625 21.3624 23.9034 21.3624H25.2829C26.4237 21.3624 27.3521 22.2908 27.3521 23.4317V24.8112C27.3521 25.952 26.4237 26.8804 25.2829 26.8804ZM23.9034 22.7419C23.7204 22.7419 23.545 22.8146 23.4156 22.944C23.2863 23.0733 23.2136 23.2488 23.2136 23.4317V24.8112C23.2136 24.9018 23.2315 24.9915 23.2661 25.0751C23.3008 25.1588 23.3516 25.2349 23.4156 25.2989C23.4797 25.363 23.5557 25.4138 23.6394 25.4484C23.7231 25.4831 23.8128 25.5009 23.9034 25.5009H25.2829C25.3734 25.5009 25.4631 25.4831 25.5468 25.4484C25.6305 25.4138 25.7065 25.363 25.7706 25.2989C25.8346 25.2349 25.8855 25.1588 25.9201 25.0751C25.9548 24.9915 25.9726 24.9018 25.9726 24.8112V23.4317C25.9726 23.3411 25.9548 23.2514 25.9201 23.1677C25.8855 23.084 25.8346 23.008 25.7706 22.944C25.7065 22.8799 25.6305 22.8291 25.5468 22.7944C25.4631 22.7598 25.3734 22.7419 25.2829 22.7419H23.9034Z" stroke="currentColor" stroke-width="0.6" mask="url(#path-2-outside-1_1022_11882)"/>
</g>
</g>
<defs>
<clipPath id="clip0_1022_11882">
<rect width="35" height="35" fill="white"/>
</clipPath>
</defs>
</svg>
