<svg width="20" height="20" viewBox="0 0 20 20" fill="none" xmlns="http://www.w3.org/2000/svg">
<path d="M9.375 11.5H10.625C10.975 11.5 11.25 11.225 11.25 10.875C11.25 10.525 10.975 10.25 10.625 10.25H9.375C9.025 10.25 8.75 10.525 8.75 10.875C8.75 11.225 9.025 11.5 9.375 11.5ZM9.375 14H10.625C10.975 14 11.25 13.725 11.25 13.375C11.25 13.025 10.975 12.75 10.625 12.75H9.375C9.025 12.75 8.75 13.025 8.75 13.375C8.75 13.725 9.025 14 9.375 14ZM16.25 2.75H13.75V2.125C13.75 1.775 13.475 1.5 13.125 1.5C12.775 1.5 12.5 1.775 12.5 2.125V2.75H7.5V2.125C7.5 1.775 7.225 1.5 6.875 1.5C6.525 1.5 6.25 1.775 6.25 2.125V2.75H3.75C2.375 2.75 1.25 3.875 1.25 5.25V15.25C1.25 16.625 2.375 17.75 3.75 17.75H16.25C17.625 17.75 18.75 16.625 18.75 15.25V5.25C18.75 3.875 17.625 2.75 16.25 2.75ZM17.5 15.25C17.5 15.9375 16.9375 16.5 16.25 16.5H3.75C3.0625 16.5 2.5 15.9375 2.5 15.25V7.75H17.5V15.25ZM17.5 6.5H2.5V5.25C2.5 4.5625 3.0625 4 3.75 4H6.25V4.625C6.25 4.975 6.525 5.25 6.875 5.25C7.225 5.25 7.5 4.975 7.5 4.625V4H12.5V4.625C12.5 4.975 12.775 5.25 13.125 5.25C13.475 5.25 13.75 4.975 13.75 4.625V4H16.25C16.9375 4 17.5 4.5625 17.5 5.25V6.5ZM5.625 14H6.875C7.225 14 7.5 13.725 7.5 13.375C7.5 13.025 7.225 12.75 6.875 12.75H5.625C5.275 12.75 5 13.025 5 13.375C5 13.725 5.275 14 5.625 14ZM13.125 11.5H14.375C14.725 11.5 15 11.225 15 10.875C15 10.525 14.725 10.25 14.375 10.25H13.125C12.775 10.25 12.5 10.525 12.5 10.875C12.5 11.225 12.775 11.5 13.125 11.5ZM5.625 11.5H6.875C7.225 11.5 7.5 11.225 7.5 10.875C7.5 10.525 7.225 10.25 6.875 10.25H5.625C5.275 10.25 5 10.525 5 10.875C5 11.225 5.275 11.5 5.625 11.5ZM13.125 14H14.375C14.725 14 15 13.725 15 13.375C15 13.025 14.725 12.75 14.375 12.75H13.125C12.775 12.75 12.5 13.025 12.5 13.375C12.5 13.725 12.775 14 13.125 14Z" fill="currentColor"/>
</svg>
