<svg width="18" height="18" viewBox="0 0 18 18" fill="none" xmlns="http://www.w3.org/2000/svg">
<g id="Property 1=active">
<g id="Rectangle 35">
<g filter="url(#filter0_i_844_22757)">
<rect width="18" height="18" rx="4" fill="#E1F1F6"/>
</g>
<rect x="0.75" y="0.75" width="16.5" height="16.5" rx="3.25" stroke="#3AA535" stroke-width="1.5"/>
</g>
<path id="Vector" d="M14.2151 4.5C14.112 4.49986 14.0099 4.52388 13.9147 4.5707C13.8194 4.61751 13.7329 4.6862 13.6601 4.77279L8.19651 11.2522L5.34971 7.87624C5.27729 7.78732 5.19066 7.71639 5.09489 7.6676C4.99911 7.6188 4.8961 7.59312 4.79186 7.59204C4.68762 7.59097 4.58425 7.61453 4.48777 7.66134C4.39129 7.70815 4.30364 7.77728 4.22993 7.8647C4.15622 7.95212 4.09793 8.05607 4.05846 8.17049C4.01899 8.28491 3.99912 8.40751 4.00003 8.53113C4.00094 8.65476 4.02259 8.77693 4.06373 8.89051C4.10488 9.0041 4.16468 9.10684 4.23966 9.19272L7.64149 13.2272C7.78358 13.3957 7.97984 13.5 8.19651 13.5C8.41318 13.5 8.60944 13.3957 8.75153 13.2272L14.7702 6.08928C14.8799 5.95907 14.9546 5.79319 14.9849 5.61262C15.0152 5.43204 14.9997 5.24487 14.9403 5.07477C14.8808 4.90467 14.7803 4.75928 14.6512 4.65697C14.5221 4.55467 14.3704 4.50004 14.2151 4.5Z" fill="#3AA535"/>
</g>
<defs>
<filter id="filter0_i_844_22757" x="0" y="0" width="18" height="18" filterUnits="userSpaceOnUse" color-interpolation-filters="sRGB">
<feFlood flood-opacity="0" result="BackgroundImageFix"/>
<feBlend mode="normal" in="SourceGraphic" in2="BackgroundImageFix" result="shape"/>
<feColorMatrix in="SourceAlpha" type="matrix" values="0 0 0 0 0 0 0 0 0 0 0 0 0 0 0 0 0 0 127 0" result="hardAlpha"/>
<feOffset/>
<feGaussianBlur stdDeviation="2"/>
<feComposite in2="hardAlpha" operator="arithmetic" k2="-1" k3="1"/>
<feColorMatrix type="matrix" values="0 0 0 0 0.766667 0 0 0 0 0.766667 0 0 0 0 0.766667 0 0 0 0.5 0"/>
<feBlend mode="normal" in2="shape" result="effect1_innerShadow_844_22757"/>
</filter>
</defs>
</svg>
