<svg width="15" height="15" viewBox="0 0 15 15" fill="none" xmlns="http://www.w3.org/2000/svg">
<g id="copy">
<path id="Vector" d="M9.84375 12.1875H3.28125C2.50594 12.1875 1.875 11.5566 1.875 10.7812V2.34375C1.875 1.56844 2.50594 0.9375 3.28125 0.9375H9.84375C10.6191 0.9375 11.25 1.56844 11.25 2.34375V10.7812C11.25 11.5566 10.6191 12.1875 9.84375 12.1875ZM3.28125 1.875C3.02297 1.875 2.8125 2.08547 2.8125 2.34375V10.7812C2.8125 11.04 3.02297 11.25 3.28125 11.25H9.84375C10.1025 11.25 10.3125 11.04 10.3125 10.7812V2.34375C10.3125 2.08547 10.1025 1.875 9.84375 1.875H3.28125ZM11.7188 14.0625H4.6875C4.42875 14.0625 4.21875 13.853 4.21875 13.5938C4.21875 13.3345 4.42875 13.125 4.6875 13.125H11.7188C11.9775 13.125 12.1875 12.915 12.1875 12.6562V3.75C12.1875 3.49125 12.397 3.28125 12.6562 3.28125C12.9155 3.28125 13.125 3.49125 13.125 3.75V12.6562C13.125 13.4316 12.4941 14.0625 11.7188 14.0625Z" fill="currentColor"/>
</g>
</svg>
