<svg width="35" height="35" viewBox="0 0 35 35" fill="none" xmlns="http://www.w3.org/2000/svg">
<g id="credit-card-43 1">
<path id="Vector" d="M29.1654 30.625H5.83203C3.35286 30.625 1.45703 28.7292 1.45703 26.25V8.75C1.45703 6.27083 3.35286 4.375 5.83203 4.375H29.1654C31.6445 4.375 33.5404 6.27083 33.5404 8.75V26.25C33.5404 28.7292 31.6445 30.625 29.1654 30.625ZM5.83203 7.29167C4.95703 7.29167 4.3737 7.875 4.3737 8.75V26.25C4.3737 27.125 4.95703 27.7083 5.83203 27.7083H29.1654C30.0404 27.7083 30.6237 27.125 30.6237 26.25V8.75C30.6237 7.875 30.0404 7.29167 29.1654 7.29167H5.83203Z" fill="currentColor"/>
<path id="Vector_2" d="M32.082 14.5837H2.91536C2.04036 14.5837 1.45703 14.0003 1.45703 13.1253C1.45703 12.2503 2.04036 11.667 2.91536 11.667H32.082C32.957 11.667 33.5404 12.2503 33.5404 13.1253C33.5404 14.0003 32.957 14.5837 32.082 14.5837ZM26.2487 21.8753H20.4154C19.5404 21.8753 18.957 21.292 18.957 20.417C18.957 19.542 19.5404 18.9587 20.4154 18.9587H26.2487C27.1237 18.9587 27.707 19.542 27.707 20.417C27.707 21.292 27.1237 21.8753 26.2487 21.8753Z" fill="currentColor"/>
</g>
</svg>
