<svg width="25" height="25" viewBox="0 0 25 25" fill="none" xmlns="http://www.w3.org/2000/svg">
<path d="M23.2103 6.85057L19.7605 3.33007C19.6141 3.18358 19.4139 3.10057 19.2063 3.10057L8.62041 3.09813C7.75859 3.09813 7.05791 3.79882 7.05791 4.66063V21.0937H3.90605V2.36815C3.90605 1.93602 3.55693 1.5869 3.1248 1.5869C2.69268 1.5869 2.34355 1.93602 2.34355 2.36815V21.875C2.34355 22.3071 2.69268 22.6562 3.1248 22.6562H7.27031C7.54131 23.1201 8.04424 23.435 8.62041 23.435L21.8748 23.4375C22.7366 23.4375 23.4373 22.7368 23.4373 21.875V7.40233C23.4373 7.19481 23.3567 6.99706 23.2103 6.85057ZM21.8748 21.0937C21.8748 21.5259 21.5257 21.875 21.0936 21.875L9.40166 21.8725C8.96953 21.8725 8.62041 21.5234 8.62041 21.0913V5.44188C8.62041 5.00975 8.96953 4.66063 9.40166 4.66063L17.1873 4.66307V7.8369C17.1873 8.69872 17.888 9.3994 18.7498 9.3994H21.8748V21.0937ZM19.5311 7.8369C19.0989 7.8369 18.7498 7.48778 18.7498 7.05565V4.66307L21.8748 7.8369H19.5311Z" fill="currentColor"/>
<path fillRule="evenodd" clipRule="evenodd" d="M19.7605 3.33007L23.2103 6.85057C23.3567 6.99706 23.4373 7.19481 23.4373 7.40233V21.875C23.4373 22.7368 22.7366 23.4375 21.8748 23.4375L8.62041 23.435C8.04424 23.435 7.54131 23.1201 7.27031 22.6562H3.1248C2.69268 22.6562 2.34355 22.3071 2.34355 21.875V2.36815C2.34355 1.93602 2.69268 1.5869 3.1248 1.5869C3.55693 1.5869 3.90605 1.93602 3.90605 2.36815V21.0937H7.05791V4.66063C7.05791 3.79882 7.75859 3.09813 8.62041 3.09813L19.2063 3.10057C19.4139 3.10057 19.6141 3.18358 19.7605 3.33007ZM19.2064 2.90057C19.2064 2.90057 19.2064 2.90057 19.2064 2.90057C19.4669 2.90059 19.718 3.00467 19.902 3.18864L19.9034 3.19008L23.3517 6.70915C23.3519 6.70939 23.3522 6.70963 23.3524 6.70988C23.5366 6.89445 23.6373 7.14305 23.6373 7.40233V21.875C23.6373 22.8473 22.8471 23.6375 21.8748 23.6375L8.62041 23.635C8.6204 23.635 8.62042 23.635 8.62041 23.635C8.01155 23.635 7.47622 23.3236 7.16001 22.8562H3.1248C2.58222 22.8562 2.14355 22.4176 2.14355 21.875V2.36815C2.14355 1.82557 2.58222 1.3869 3.1248 1.3869C3.66739 1.3869 4.10605 1.82557 4.10605 2.36815V20.8937H6.85791V4.66063C6.85791 3.68836 7.64814 2.89813 8.62041 2.89813L19.2064 2.90057ZM9.4017 21.6725L21.0936 21.675C21.0936 21.675 21.0935 21.675 21.0936 21.675C21.4152 21.675 21.6748 21.4154 21.6748 21.0937V9.5994H18.7498C17.7775 9.5994 16.9873 8.80918 16.9873 7.8369V4.86301L9.40166 4.86063C9.40164 4.86063 9.40168 4.86063 9.40166 4.86063C9.08002 4.86067 8.82041 5.12023 8.82041 5.44188V21.0913C8.82041 21.413 9.08003 21.6725 9.4017 21.6725ZM17.1873 4.66307L9.40166 4.66063C8.96953 4.66063 8.62041 5.00975 8.62041 5.44188V21.0913C8.62041 21.5234 8.96953 21.8725 9.40166 21.8725L21.0936 21.875C21.5257 21.875 21.8748 21.5259 21.8748 21.0937V9.3994H18.7498C17.888 9.3994 17.1873 8.69872 17.1873 7.8369V4.66307ZM18.9498 7.05565C18.9498 7.37732 19.2094 7.6369 19.5311 7.6369H21.3972L18.9498 5.15126V7.05565ZM18.7498 7.05565C18.7498 7.48778 19.0989 7.8369 19.5311 7.8369H21.8748L18.7498 4.66307V7.05565Z" fill="currentColor"/>
<path d="M19.5335 17.9419H10.9397C10.5076 17.9419 10.1585 18.291 10.1585 18.7231C10.1585 19.1553 10.5076 19.5044 10.9397 19.5044H19.5335C19.9656 19.5044 20.3147 19.1553 20.3147 18.7231C20.3147 18.291 19.9656 17.9419 19.5335 17.9419ZM10.1585 14.0356C10.1585 14.4678 10.5076 14.8169 10.9397 14.8169H19.5335C19.9656 14.8169 20.3147 14.4678 20.3147 14.0356C20.3147 13.6035 19.9656 13.2544 19.5335 13.2544H10.9397C10.5076 13.2544 10.1585 13.6035 10.1585 14.0356ZM10.9397 10.1294H14.0647C14.4969 10.1294 14.846 9.78026 14.846 9.34813C14.846 8.916 14.4969 8.56688 14.0647 8.56688H10.9397C10.5076 8.56688 10.1585 8.916 10.1585 9.34813C10.1585 9.77782 10.5076 10.1294 10.9397 10.1294Z" fill="currentColor"/>
<path fillRule="evenodd" clipRule="evenodd" d="M10.9397 17.7419H19.5335C20.0761 17.7419 20.5147 18.1805 20.5147 18.7231C20.5147 19.2657 20.0761 19.7044 19.5335 19.7044H10.9397C10.3972 19.7044 9.9585 19.2657 9.9585 18.7231C9.9585 18.1805 10.3972 17.7419 10.9397 17.7419ZM10.9397 15.0169C10.3972 15.0169 9.9585 14.5782 9.9585 14.0356C9.9585 13.493 10.3972 13.0544 10.9397 13.0544H19.5335C20.0761 13.0544 20.5147 13.493 20.5147 14.0356C20.5147 14.5782 20.0761 15.0169 19.5335 15.0169H10.9397ZM14.0647 10.3294H10.9397C10.3968 10.3294 9.9585 9.88787 9.9585 9.34813C9.9585 8.80555 10.3972 8.36688 10.9397 8.36688H14.0647C14.6073 8.36688 15.046 8.80555 15.046 9.34813C15.046 9.89072 14.6073 10.3294 14.0647 10.3294ZM10.9397 17.9419H19.5335C19.9656 17.9419 20.3147 18.291 20.3147 18.7231C20.3147 19.1553 19.9656 19.5044 19.5335 19.5044H10.9397C10.5076 19.5044 10.1585 19.1553 10.1585 18.7231C10.1585 18.291 10.5076 17.9419 10.9397 17.9419ZM10.9397 14.8169C10.5076 14.8169 10.1585 14.4678 10.1585 14.0356C10.1585 13.6035 10.5076 13.2544 10.9397 13.2544H19.5335C19.9656 13.2544 20.3147 13.6035 20.3147 14.0356C20.3147 14.4678 19.9656 14.8169 19.5335 14.8169H10.9397ZM14.0647 10.1294H10.9397C10.5076 10.1294 10.1585 9.77782 10.1585 9.34813C10.1585 8.916 10.5076 8.56688 10.9397 8.56688H14.0647C14.4969 8.56688 14.846 8.916 14.846 9.34813C14.846 9.78026 14.4969 10.1294 14.0647 10.1294Z" fill="currentColor"/>
</svg>
