<svg width="140" height="41" viewBox="0 0 140 41" fill="none" xmlns="http://www.w3.org/2000/svg">
<path d="M139.071 36.1603C139.071 38.3289 137.292 40.087 135.096 40.087C135.096 40.087 135.093 40.087 135.092 40.087H4.9064C2.70927 40.0901 0.925905 38.3319 0.922852 36.1603V4.84437C0.925905 2.67273 2.70774 0.913086 4.9064 0.913086H135.092C137.289 0.913086 139.069 2.67273 139.069 4.84437V36.1603H139.071Z" fill="white"/>
<path d="M135.094 41H4.9073C2.20019 41 0.00458055 38.8344 0 36.1602V4.84581C0.00458055 2.17013 2.19866 0.00150913 4.9073 0H135.093C137.8 0.00301826 139.994 2.17013 140 4.84581V36.1602C140.002 38.8299 137.797 41 135.094 41Z" fill="#EEEEEE" fill-opacity="0.65"/>
<path d="M139.071 36.1603C139.071 38.3289 137.292 40.087 135.096 40.087C135.096 40.087 135.093 40.087 135.092 40.087H4.9064C2.70927 40.0901 0.925905 38.3319 0.922852 36.1603V4.84437C0.925905 2.67273 2.70774 0.913086 4.9064 0.913086H135.092C137.289 0.913086 139.069 2.67273 139.069 4.84437V36.1603H139.071Z" fill="#285E69"/>
<path opacity="0.1" d="M135.095 0H65.3623L92.6746 41H135.094C137.801 40.9985 139.995 38.8314 140.001 36.1572V4.84581C139.996 2.17013 137.802 0.00301826 135.094 0H135.095Z" fill="white"/>
<path d="M7.93699 11.7012C7.71089 11.9246 7.63477 12.2975 7.63477 12.7456V29.2279C7.63477 29.6749 7.78588 30.0488 8.01198 30.2723L8.08697 30.3464L17.4435 21.0985V20.9491L7.93699 11.7012Z" fill="url(#paint0_linear_1001_246)"/>
<path d="M20.462 24.231L17.3682 21.173V20.9495L20.462 17.8916L20.537 17.9657L24.2342 20.0534C25.2908 20.6497 25.2908 21.62 24.2342 22.2163L20.462 24.2298V24.231Z" fill="url(#paint1_linear_1001_246)"/>
<path d="M20.5379 24.1555L17.369 21.0234L7.9375 30.3455C8.31472 30.7183 8.84305 30.7183 9.52249 30.4196L20.539 24.1555" fill="url(#paint2_linear_1001_246)"/>
<path d="M20.539 17.8914L9.52249 11.7014C8.84305 11.3285 8.31472 11.4026 7.9375 11.7755L17.369 21.0234L20.5379 17.8914H20.539Z" fill="url(#paint3_linear_1001_246)"/>
<path d="M42.0195 20.5953C41.998 18.2117 43.9998 17.0533 44.0912 16.9988C42.9577 15.3696 41.1998 15.1471 40.5823 15.1293C39.1066 14.9757 37.675 15.9995 36.9231 15.9995C36.1712 15.9995 34.9982 15.1437 33.7506 15.1693C32.1451 15.1938 30.6424 16.1096 29.8182 17.5329C28.1179 20.434 29.3858 24.696 31.015 27.0406C31.8301 28.1901 32.7819 29.471 34.0283 29.4265C35.2477 29.3775 35.7027 28.6609 37.1749 28.6609C38.6471 28.6609 39.0604 29.4265 40.3316 29.3975C41.6401 29.3775 42.4643 28.2436 43.2501 27.0851C44.1917 25.7698 44.5699 24.4723 44.5846 24.4066C44.5541 24.3966 42.0443 23.4519 42.0184 20.5953H42.0195ZM39.6181 13.5869C40.274 12.779 40.7223 11.6796 40.5981 10.5635C39.6486 10.6046 38.462 11.21 37.7778 12.0012C37.1726 12.6978 36.633 13.8395 36.7718 14.9134C37.8376 14.9913 38.9328 14.3837 39.617 13.5881L39.6181 13.5869Z" fill="white"/>
<path d="M58.9209 18.5197H56.5218V11.7148H58.9693C59.6722 11.7148 60.276 11.8511 60.7807 12.1235C61.2878 12.3938 61.6773 12.7825 61.9492 13.2898C62.2211 13.797 62.3571 14.404 62.3571 15.1106C62.3571 15.8194 62.22 16.4286 61.9457 16.9381C61.6738 17.4475 61.2809 17.8385 60.7669 18.111C60.2553 18.3834 59.6399 18.5197 58.9209 18.5197ZM57.8043 17.4531H58.8587C59.3519 17.4531 59.7632 17.3667 60.0928 17.1939C60.4224 17.0189 60.6701 16.7586 60.8361 16.4131C61.002 16.0653 61.085 15.6312 61.085 15.1106C61.085 14.5901 61.002 14.1581 60.8361 13.8148C60.6701 13.4692 60.4247 13.2112 60.0997 13.0406C59.7771 12.8678 59.3761 12.7814 58.8967 12.7814H57.8043V17.4531Z" fill="white"/>
<path d="M65.8366 18.6193C65.318 18.6193 64.8686 18.5097 64.4883 18.2904C64.1081 18.0711 63.8131 17.7643 63.6034 17.37C63.3959 16.9757 63.2922 16.515 63.2922 15.9878C63.2922 15.4606 63.3959 14.9987 63.6034 14.6022C63.8131 14.2057 64.1081 13.8978 64.4883 13.6785C64.8686 13.4592 65.318 13.3496 65.8366 13.3496C66.3551 13.3496 66.8045 13.4592 67.1848 13.6785C67.5651 13.8978 67.8589 14.2057 68.0663 14.6022C68.276 14.9987 68.3809 15.4606 68.3809 15.9878C68.3809 16.515 68.276 16.9757 68.0663 17.37C67.8589 17.7643 67.5651 18.0711 67.1848 18.2904C66.8045 18.5097 66.3551 18.6193 65.8366 18.6193ZM65.8435 17.6558C66.1246 17.6558 66.3597 17.5816 66.5487 17.4332C66.7377 17.2825 66.8783 17.0809 66.9705 16.8284C67.0649 16.5759 67.1122 16.2946 67.1122 15.9845C67.1122 15.6721 67.0649 15.3897 66.9705 15.1372C66.8783 14.8825 66.7377 14.6798 66.5487 14.5291C66.3597 14.3785 66.1246 14.3032 65.8435 14.3032C65.5554 14.3032 65.3157 14.3785 65.1244 14.5291C64.9354 14.6798 64.7937 14.8825 64.6992 15.1372C64.607 15.3897 64.5609 15.6721 64.5609 15.9845C64.5609 16.2946 64.607 16.5759 64.6992 16.8284C64.7937 17.0809 64.9354 17.2825 65.1244 17.4332C65.3157 17.5816 65.5554 17.6558 65.8435 17.6558Z" fill="white"/>
<path d="M70.3868 18.5197L68.8865 13.416H70.1621L71.0955 17.0045H71.1439L72.098 13.416H73.3598L74.3139 16.9846H74.3658L75.2853 13.416H76.5644L75.0606 18.5197H73.7574L72.7618 15.0707H72.6892L71.6935 18.5197H70.3868Z" fill="white"/>
<path d="M78.6896 15.5293V18.5197H77.4382V13.416H78.6343V14.2833H78.6965C78.8187 13.9975 79.0134 13.7705 79.2807 13.6021C79.5504 13.4338 79.8834 13.3496 80.2798 13.3496C80.6462 13.3496 80.9654 13.4249 81.2374 13.5755C81.5116 13.7262 81.7237 13.9444 81.8735 14.2301C82.0256 14.5159 82.1005 14.8625 82.0982 15.2701V18.5197H80.8468V15.4562C80.8468 15.115 80.7546 14.8481 80.5702 14.6554C80.3881 14.4627 80.1358 14.3663 79.8131 14.3663C79.5942 14.3663 79.3994 14.4128 79.2289 14.5059C79.0606 14.5967 78.9281 14.7285 78.8313 14.9013C78.7368 15.0741 78.6896 15.2834 78.6896 15.5293Z" fill="white"/>
<path d="M84.6218 11.7148V18.5197H83.3703V11.7148H84.6218Z" fill="white"/>
<path d="M88.2248 18.6193C87.7062 18.6193 87.2568 18.5097 86.8766 18.2904C86.4963 18.0711 86.2013 17.7643 85.9916 17.37C85.7842 16.9757 85.6805 16.515 85.6805 15.9878C85.6805 15.4606 85.7842 14.9987 85.9916 14.6022C86.2013 14.2057 86.4963 13.8978 86.8766 13.6785C87.2568 13.4592 87.7062 13.3496 88.2248 13.3496C88.7433 13.3496 89.1927 13.4592 89.573 13.6785C89.9533 13.8978 90.2471 14.2057 90.4545 14.6022C90.6643 14.9987 90.7691 15.4606 90.7691 15.9878C90.7691 16.515 90.6643 16.9757 90.4545 17.37C90.2471 17.7643 89.9533 18.0711 89.573 18.2904C89.1927 18.5097 88.7433 18.6193 88.2248 18.6193ZM88.2317 17.6558C88.5129 17.6558 88.748 17.5816 88.9369 17.4332C89.1259 17.2825 89.2665 17.0809 89.3587 16.8284C89.4532 16.5759 89.5004 16.2946 89.5004 15.9845C89.5004 15.6721 89.4532 15.3897 89.3587 15.1372C89.2665 14.8825 89.1259 14.6798 88.9369 14.5291C88.748 14.3785 88.5129 14.3032 88.2317 14.3032C87.9436 14.3032 87.7039 14.3785 87.5127 14.5291C87.3237 14.6798 87.1819 14.8825 87.0875 15.1372C86.9953 15.3897 86.9492 15.6721 86.9492 15.9845C86.9492 16.2946 86.9953 16.5759 87.0875 16.8284C87.1819 17.0809 87.3237 17.2825 87.5127 17.4332C87.7039 17.5816 87.9436 17.6558 88.2317 17.6558Z" fill="white"/>
<path d="M93.3593 18.6227C93.0228 18.6227 92.7197 18.5651 92.4501 18.4499C92.1827 18.3325 91.9707 18.1597 91.814 17.9316C91.6596 17.7034 91.5824 17.4221 91.5824 17.0876C91.5824 16.7996 91.6377 16.5615 91.7483 16.3732C91.8589 16.1849 92.0099 16.0343 92.2012 15.9213C92.3925 15.8084 92.608 15.7231 92.8476 15.6655C93.0896 15.6057 93.3397 15.5625 93.5978 15.5359C93.9089 15.5049 94.1613 15.4772 94.3549 15.4528C94.5485 15.4263 94.689 15.3864 94.7766 15.3332C94.8665 15.2778 94.9114 15.1926 94.9114 15.0774V15.0574C94.9114 14.8071 94.8342 14.6133 94.6798 14.476C94.5254 14.3386 94.303 14.27 94.0126 14.27C93.7061 14.27 93.463 14.3342 93.2832 14.4627C93.1058 14.5912 92.9859 14.7429 92.9237 14.9179L91.7552 14.7584C91.8474 14.4483 91.9995 14.1891 92.2116 13.9809C92.4236 13.7705 92.6829 13.6132 92.9894 13.5091C93.2959 13.4028 93.6347 13.3496 94.0057 13.3496C94.2615 13.3496 94.5162 13.3784 94.7697 13.436C95.0232 13.4936 95.2548 13.5888 95.4646 13.7217C95.6743 13.8524 95.8425 14.0307 95.9693 14.2567C96.0983 14.4826 96.1629 14.7651 96.1629 15.104V18.5197H94.9598V17.8186H94.9184C94.8423 17.9603 94.7351 18.0933 94.5969 18.2173C94.4609 18.3391 94.2892 18.4377 94.0818 18.513C93.8767 18.5861 93.6358 18.6227 93.3593 18.6227ZM93.6842 17.7388C93.9354 17.7388 94.1532 17.6912 94.3376 17.596C94.522 17.4985 94.6637 17.37 94.7628 17.2105C94.8642 17.051 94.9149 16.8772 94.9149 16.6889V16.0875C94.8757 16.1185 94.8089 16.1473 94.7144 16.1739C94.6222 16.2004 94.5185 16.2237 94.4033 16.2436C94.288 16.2636 94.174 16.2813 94.061 16.2968C93.9481 16.3123 93.8502 16.3256 93.7672 16.3367C93.5805 16.361 93.4134 16.4009 93.2659 16.4563C93.1184 16.5117 93.002 16.5892 92.9168 16.6889C92.8315 16.7863 92.7889 16.9126 92.7889 17.0677C92.7889 17.2892 92.873 17.4564 93.0412 17.5694C93.2095 17.6824 93.4238 17.7388 93.6842 17.7388Z" fill="white"/>
<path d="M99.3917 18.6094C98.9745 18.6094 98.6012 18.5064 98.2716 18.3004C97.9421 18.0944 97.6816 17.7953 97.4904 17.4032C97.2991 17.0112 97.2034 16.5349 97.2034 15.9745C97.2034 15.4074 97.3002 14.929 97.4938 14.5391C97.6897 14.147 97.9536 13.8513 98.2855 13.652C98.6173 13.4504 98.9872 13.3496 99.3951 13.3496C99.7063 13.3496 99.9621 13.4005 100.163 13.5024C100.363 13.6021 100.522 13.7228 100.64 13.8646C100.757 14.0042 100.848 14.136 100.913 14.26H100.965V11.7148H102.219V18.5197H100.989V17.7156H100.913C100.848 17.8396 100.755 17.9714 100.633 18.111C100.511 18.2483 100.349 18.3657 100.149 18.4632C99.9483 18.5606 99.6959 18.6094 99.3917 18.6094ZM99.7408 17.6225C100.006 17.6225 100.232 17.5539 100.418 17.4165C100.605 17.277 100.747 17.0832 100.844 16.8351C100.94 16.587 100.989 16.2979 100.989 15.9679C100.989 15.6378 100.94 15.3509 100.844 15.1073C100.749 14.8636 100.609 14.6742 100.422 14.5391C100.237 14.404 100.01 14.3364 99.7408 14.3364C99.462 14.3364 99.2292 14.4062 99.0425 14.5458C98.8559 14.6853 98.7153 14.878 98.6208 15.1239C98.5263 15.3698 98.479 15.6511 98.479 15.9679C98.479 16.2868 98.5263 16.5715 98.6208 16.8218C98.7176 17.0699 98.8593 17.2659 99.046 17.4099C99.235 17.5517 99.4666 17.6225 99.7408 17.6225Z" fill="white"/>
<path d="M59.1179 23.9423V24.8726H56.0654V23.9423H59.1179ZM56.8191 22.7195H58.0705V27.5108C58.0705 27.6725 58.0958 27.7965 58.1465 27.8829C58.1995 27.9671 58.2687 28.0247 58.3539 28.0557C58.4392 28.0867 58.5337 28.1022 58.6374 28.1022C58.7158 28.1022 58.7872 28.0967 58.8518 28.0856C58.9186 28.0745 58.9693 28.0646 59.0039 28.0557L59.2147 28.996C59.1479 29.0182 59.0523 29.0425 58.9278 29.0691C58.8057 29.0957 58.6559 29.1112 58.4784 29.1156C58.165 29.1245 57.8826 29.0791 57.6314 28.9794C57.3802 28.8775 57.1809 28.7202 57.0334 28.5076C56.8882 28.2949 56.8167 28.0291 56.8191 27.7102V22.7195Z" fill="white"/>
<path d="M61.53 26.0555V29.0459H60.2786V22.241H61.5024V24.8095H61.5646C61.6891 24.5215 61.8815 24.2945 62.1419 24.1283C62.4047 23.96 62.7388 23.8758 63.1444 23.8758C63.5132 23.8758 63.8347 23.95 64.1089 24.0984C64.3832 24.2468 64.5952 24.4639 64.745 24.7497C64.8971 25.0354 64.9732 25.3843 64.9732 25.7963V29.0459H63.7218V25.9824C63.7218 25.639 63.6296 25.3721 63.4452 25.1816C63.2631 24.9889 63.0073 24.8925 62.6778 24.8925C62.4565 24.8925 62.2583 24.9391 62.0832 25.0321C61.9103 25.1229 61.7743 25.2547 61.6752 25.4275C61.5784 25.6003 61.53 25.8096 61.53 26.0555Z" fill="white"/>
<path d="M68.5996 29.1455C68.0672 29.1455 67.6074 29.0392 67.2202 28.8266C66.8353 28.6117 66.5392 28.3082 66.3318 27.9162C66.1244 27.5219 66.0207 27.0578 66.0207 26.524C66.0207 25.999 66.1244 25.5382 66.3318 25.1417C66.5415 24.743 66.8342 24.4329 67.2099 24.2114C67.5855 23.9877 68.0268 23.8758 68.5339 23.8758C68.8611 23.8758 69.17 23.9267 69.4603 24.0286C69.753 24.1283 70.0112 24.2834 70.2347 24.4938C70.4606 24.7042 70.638 24.9723 70.7671 25.2979C70.8961 25.6213 70.9607 26.0067 70.9607 26.4542V26.823H66.6083V26.0123H69.7611C69.7588 25.7819 69.7069 25.577 69.6055 25.3976C69.5041 25.2159 69.3624 25.0731 69.1803 24.969C69.0006 24.8648 68.7908 24.8128 68.5512 24.8128C68.2953 24.8128 68.0706 24.8726 67.877 24.9922C67.6835 25.1096 67.5325 25.2647 67.4242 25.4574C67.3182 25.6479 67.264 25.8572 67.2617 26.0854V26.7931C67.2617 27.0899 67.3182 27.3447 67.4311 27.5573C67.544 27.7677 67.7019 27.9294 67.9047 28.0424C68.1075 28.1532 68.3449 28.2086 68.6168 28.2086C68.7989 28.2086 68.9637 28.1842 69.1112 28.1355C69.2587 28.0845 69.3866 28.0103 69.4949 27.9128C69.6032 27.8154 69.685 27.6946 69.7404 27.5507L70.9088 27.6769C70.8351 27.9738 70.6945 28.2329 70.4871 28.4544C70.2819 28.6737 70.0192 28.8443 69.6989 28.9661C69.3785 29.0857 69.0121 29.1455 68.5996 29.1455Z" fill="white"/>
<path d="M79.2323 24.4141C79.1747 24.2346 79.0952 24.074 78.9938 23.9323C78.8947 23.7883 78.7749 23.6654 78.6343 23.5635C78.496 23.4616 78.337 23.3852 78.1572 23.3342C77.9775 23.281 77.7816 23.2545 77.5695 23.2545C77.1893 23.2545 76.8505 23.3464 76.5532 23.5302C76.2559 23.7141 76.022 23.9843 75.8514 24.341C75.6832 24.6954 75.5991 25.1273 75.5991 25.6368C75.5991 26.1507 75.6832 26.586 75.8514 26.9426C76.0197 27.2992 76.2536 27.5706 76.5532 27.7567C76.8528 27.9405 77.2008 28.0325 77.5972 28.0325C77.9567 28.0325 78.2678 27.966 78.5306 27.8331C78.7956 27.7002 78.9996 27.5119 79.1425 27.2682C79.2854 27.0224 79.3568 26.7344 79.3568 26.4043L79.6472 26.4475H77.7251V25.484H80.5978V26.3013C80.5978 26.8839 80.4688 27.3879 80.2107 27.8132C79.9525 28.2385 79.5976 28.5663 79.1459 28.7967C78.6942 29.0248 78.1757 29.1389 77.5903 29.1389C76.9381 29.1389 76.3654 28.9982 75.8722 28.7169C75.3813 28.4334 74.9975 28.0313 74.721 27.5108C74.4467 26.988 74.3096 26.3678 74.3096 25.6501C74.3096 25.1008 74.3903 24.6101 74.5516 24.1782C74.7152 23.7462 74.9434 23.3796 75.2361 23.0784C75.5288 22.7749 75.8722 22.5445 76.2663 22.3872C76.6604 22.2278 77.089 22.148 77.5523 22.148C77.944 22.148 78.3093 22.2034 78.6481 22.3141C78.9869 22.4227 79.2877 22.5777 79.5504 22.7793C79.8154 22.9809 80.0332 23.2201 80.2038 23.497C80.3743 23.7739 80.4861 24.0796 80.5391 24.4141H79.2323Z" fill="white"/>
<path d="M84.1335 29.1455C83.6011 29.1455 83.1413 29.0392 82.7541 28.8266C82.3693 28.6117 82.0731 28.3082 81.8657 27.9162C81.6583 27.5219 81.5546 27.0578 81.5546 26.524C81.5546 25.999 81.6583 25.5382 81.8657 25.1417C82.0754 24.743 82.3681 24.4329 82.7438 24.2114C83.1194 23.9877 83.5608 23.8758 84.0678 23.8758C84.395 23.8758 84.7039 23.9267 84.9943 24.0286C85.2869 24.1283 85.5451 24.2834 85.7686 24.4938C85.9945 24.7042 86.1719 24.9723 86.301 25.2979C86.4301 25.6213 86.4946 26.0067 86.4946 26.4542V26.823H82.1423V26.0123H85.295C85.2927 25.7819 85.2409 25.577 85.1394 25.3976C85.038 25.2159 84.8963 25.0731 84.7142 24.969C84.5345 24.8648 84.3248 24.8128 84.0851 24.8128C83.8293 24.8128 83.6046 24.8726 83.411 24.9922C83.2174 25.1096 83.0664 25.2647 82.9581 25.4574C82.8521 25.6479 82.7979 25.8572 82.7956 26.0854V26.7931C82.7956 27.0899 82.8521 27.3447 82.965 27.5573C83.0779 27.7677 83.2358 27.9294 83.4386 28.0424C83.6414 28.1532 83.8788 28.2086 84.1508 28.2086C84.3328 28.2086 84.4976 28.1842 84.6451 28.1355C84.7926 28.0845 84.9205 28.0103 85.0288 27.9128C85.1371 27.8154 85.219 27.6946 85.2743 27.5507L86.4427 27.6769C86.369 27.9738 86.2284 28.2329 86.021 28.4544C85.8159 28.6737 85.5531 28.8443 85.2328 28.9661C84.9124 29.0857 84.546 29.1455 84.1335 29.1455Z" fill="white"/>
<path d="M88.6941 27.4443L88.6906 25.9923H88.8911L90.7994 23.9423H92.2617L89.9144 26.4542H89.6551L88.6941 27.4443ZM87.5533 29.0459V22.241H88.8047V29.0459H87.5533ZM90.8858 29.0459L89.1573 26.7233L90.0008 25.876L92.3827 29.0459H90.8858Z" fill="white"/>
<path d="M94.2365 27.4443L94.233 25.9923H94.4335L96.3418 23.9423H97.8041L95.4568 26.4542H95.1975L94.2365 27.4443ZM93.0957 29.0459V22.241H94.3471V29.0459H93.0957ZM96.4282 29.0459L94.6997 26.7233L95.5432 25.876L97.9251 29.0459H96.4282Z" fill="white"/>
<path d="M100.166 29.1489C99.8296 29.1489 99.5265 29.0913 99.2569 28.9761C98.9895 28.8587 98.7775 28.6859 98.6208 28.4578C98.4664 28.2296 98.3892 27.9483 98.3892 27.6138C98.3892 27.3258 98.4445 27.0877 98.5551 26.8994C98.6657 26.7111 98.8167 26.5605 99.008 26.4475C99.1992 26.3346 99.4147 26.2493 99.6544 26.1917C99.8964 26.1319 100.146 26.0887 100.405 26.0621C100.716 26.0311 100.968 26.0034 101.162 25.979C101.355 25.9525 101.496 25.9126 101.583 25.8594C101.673 25.8041 101.718 25.7188 101.718 25.6036V25.5836C101.718 25.3333 101.641 25.1395 101.487 25.0022C101.332 24.8648 101.11 24.7962 100.819 24.7962C100.513 24.7962 100.27 24.8604 100.09 24.9889C99.9125 25.1174 99.7927 25.2691 99.7305 25.4441L98.562 25.2846C98.6542 24.9745 98.8063 24.7153 99.0183 24.5071C99.2304 24.2967 99.4896 24.1394 99.7962 24.0353C100.103 23.929 100.441 23.8758 100.813 23.8758C101.068 23.8758 101.323 23.9046 101.576 23.9622C101.83 24.0198 102.062 24.115 102.271 24.2479C102.481 24.3786 102.649 24.5569 102.776 24.7829C102.905 25.0088 102.97 25.2913 102.97 25.6302V29.0459H101.767V28.3448H101.725C101.649 28.4865 101.542 28.6195 101.404 28.7435C101.268 28.8653 101.096 28.9639 100.889 29.0392C100.683 29.1123 100.443 29.1489 100.166 29.1489ZM100.491 28.265C100.742 28.265 100.96 28.2174 101.144 28.1222C101.329 28.0247 101.47 27.8962 101.57 27.7367C101.671 27.5772 101.722 27.4034 101.722 27.2151V26.6137C101.683 26.6447 101.616 26.6735 101.521 26.7001C101.429 26.7266 101.325 26.7499 101.21 26.7698C101.095 26.7898 100.981 26.8075 100.868 26.823C100.755 26.8385 100.657 26.8518 100.574 26.8629C100.387 26.8872 100.22 26.9271 100.073 26.9825C99.9252 27.0379 99.8088 27.1154 99.7236 27.2151C99.6383 27.3125 99.5956 27.4388 99.5956 27.5939C99.5956 27.8154 99.6798 27.9826 99.848 28.0956C100.016 28.2086 100.231 28.265 100.491 28.265Z" fill="white"/>
<path d="M104.228 29.0459V23.9423H105.441V24.7929H105.497C105.593 24.4982 105.759 24.2712 105.995 24.1117C106.232 23.95 106.503 23.8692 106.807 23.8692C106.876 23.8692 106.953 23.8725 107.039 23.8791C107.126 23.8836 107.199 23.8913 107.256 23.9024V25.0088C107.203 24.9911 107.119 24.9756 107.004 24.9623C106.891 24.9468 106.782 24.939 106.676 24.939C106.447 24.939 106.242 24.9867 106.06 25.0819C105.88 25.175 105.739 25.3045 105.635 25.4707C105.531 25.6368 105.479 25.8284 105.479 26.0455V29.0459H104.228Z" fill="white"/>
<path d="M109.84 29.1356C109.422 29.1356 109.049 29.0326 108.719 28.8266C108.39 28.6206 108.129 28.3215 107.938 27.9294C107.747 27.5374 107.651 27.0611 107.651 26.5007C107.651 25.9336 107.748 25.4552 107.942 25.0653C108.138 24.6732 108.401 24.3775 108.733 24.1782C109.065 23.9766 109.435 23.8758 109.843 23.8758C110.154 23.8758 110.41 23.9267 110.61 24.0286C110.811 24.1283 110.97 24.249 111.087 24.3908C111.205 24.5304 111.296 24.6622 111.361 24.7862H111.412V22.241H112.667V29.0459H111.437V28.2418H111.361C111.296 28.3658 111.203 28.4976 111.081 28.6372C110.958 28.7745 110.797 28.8919 110.597 28.9894C110.396 29.0868 110.144 29.1356 109.84 29.1356ZM110.189 28.1487C110.454 28.1487 110.68 28.0801 110.866 27.9427C111.053 27.8032 111.195 27.6094 111.291 27.3613C111.388 27.1132 111.437 26.8241 111.437 26.4941C111.437 26.164 111.388 25.8771 111.291 25.6335C111.197 25.3898 111.056 25.2004 110.87 25.0653C110.685 24.9302 110.458 24.8626 110.189 24.8626C109.91 24.8626 109.677 24.9324 109.49 25.072C109.304 25.2115 109.163 25.4042 109.069 25.6501C108.974 25.896 108.927 26.1773 108.927 26.4941C108.927 26.813 108.974 27.0977 109.069 27.348C109.165 27.5961 109.307 27.7921 109.494 27.9361C109.683 28.0779 109.914 28.1487 110.189 28.1487Z" fill="white"/>
<path d="M117.944 29.1489C117.607 29.1489 117.304 29.0913 117.034 28.9761C116.767 28.8587 116.555 28.6859 116.398 28.4578C116.244 28.2296 116.167 27.9483 116.167 27.6138C116.167 27.3258 116.222 27.0877 116.333 26.8994C116.443 26.7111 116.594 26.5605 116.785 26.4475C116.977 26.3346 117.192 26.2493 117.432 26.1917C117.674 26.1319 117.924 26.0887 118.182 26.0621C118.493 26.0311 118.746 26.0034 118.939 25.979C119.133 25.9525 119.273 25.9126 119.361 25.8594C119.451 25.8041 119.496 25.7188 119.496 25.6036V25.5836C119.496 25.3333 119.419 25.1395 119.264 25.0022C119.11 24.8648 118.887 24.7962 118.597 24.7962C118.29 24.7962 118.047 24.8604 117.867 24.9889C117.69 25.1174 117.57 25.2691 117.508 25.4441L116.34 25.2846C116.432 24.9745 116.584 24.7153 116.796 24.5071C117.008 24.2967 117.267 24.1394 117.574 24.0353C117.88 23.929 118.219 23.8758 118.59 23.8758C118.846 23.8758 119.1 23.9046 119.354 23.9622C119.607 24.0198 119.839 24.115 120.049 24.2479C120.259 24.3786 120.427 24.5569 120.554 24.7829C120.683 25.0088 120.747 25.2913 120.747 25.6302V29.0459H119.544V28.3448H119.503C119.427 28.4865 119.319 28.6195 119.181 28.7435C119.045 28.8653 118.873 28.9639 118.666 29.0392C118.461 29.1123 118.22 29.1489 117.944 29.1489ZM118.268 28.265C118.52 28.265 118.737 28.2174 118.922 28.1222C119.106 28.0247 119.248 27.8962 119.347 27.7367C119.448 27.5772 119.499 27.4034 119.499 27.2151V26.6137C119.46 26.6447 119.393 26.6735 119.299 26.7001C119.206 26.7266 119.103 26.7499 118.988 26.7698C118.872 26.7898 118.758 26.8075 118.645 26.823C118.532 26.8385 118.434 26.8518 118.351 26.8629C118.165 26.8872 117.998 26.9271 117.85 26.9825C117.703 27.0379 117.586 27.1154 117.501 27.2151C117.416 27.3125 117.373 27.4388 117.373 27.5939C117.373 27.8154 117.457 27.9826 117.625 28.0956C117.794 28.2086 118.008 28.265 118.268 28.265Z" fill="white"/>
<path d="M122.005 30.9597V23.9423H123.236V24.7862H123.309C123.373 24.6622 123.464 24.5304 123.582 24.3908C123.699 24.249 123.858 24.1283 124.059 24.0286C124.259 23.9267 124.515 23.8758 124.826 23.8758C125.237 23.8758 125.606 23.9766 125.936 24.1782C126.268 24.3775 126.531 24.6732 126.724 25.0653C126.92 25.4552 127.018 25.9336 127.018 26.5007C127.018 27.0611 126.922 27.5374 126.731 27.9294C126.54 28.3215 126.279 28.6206 125.95 28.8266C125.62 29.0326 125.247 29.1356 124.83 29.1356C124.526 29.1356 124.273 29.0868 124.073 28.9894C123.872 28.8919 123.711 28.7745 123.589 28.6372C123.469 28.4976 123.376 28.3658 123.309 28.2418H123.257V30.9597H122.005ZM123.233 26.4941C123.233 26.8241 123.281 27.1132 123.378 27.3613C123.477 27.6094 123.619 27.8032 123.803 27.9427C123.99 28.0801 124.216 28.1487 124.481 28.1487C124.757 28.1487 124.989 28.0779 125.176 27.9361C125.362 27.7921 125.503 27.5961 125.597 27.348C125.694 27.0977 125.742 26.813 125.742 26.4941C125.742 26.1773 125.695 25.896 125.601 25.6501C125.506 25.4042 125.366 25.2115 125.179 25.072C124.992 24.9324 124.76 24.8626 124.481 24.8626C124.213 24.8626 123.986 24.9302 123.8 25.0653C123.613 25.2004 123.471 25.3898 123.374 25.6335C123.28 25.8771 123.233 26.164 123.233 26.4941Z" fill="white"/>
<path d="M128.09 30.9597V23.9423H129.32V24.7862H129.393C129.458 24.6622 129.549 24.5304 129.666 24.3908C129.784 24.249 129.943 24.1283 130.143 24.0286C130.344 23.9267 130.6 23.8758 130.911 23.8758C131.321 23.8758 131.691 23.9766 132.02 24.1782C132.352 24.3775 132.615 24.6732 132.809 25.0653C133.004 25.4552 133.102 25.9336 133.102 26.5007C133.102 27.0611 133.007 27.5374 132.815 27.9294C132.624 28.3215 132.364 28.6206 132.034 28.8266C131.705 29.0326 131.331 29.1356 130.914 29.1356C130.61 29.1356 130.358 29.0868 130.157 28.9894C129.957 28.8919 129.795 28.7745 129.673 28.6372C129.553 28.4976 129.46 28.3658 129.393 28.2418H129.341V30.9597H128.09ZM129.317 26.4941C129.317 26.8241 129.365 27.1132 129.462 27.3613C129.561 27.6094 129.703 27.8032 129.887 27.9427C130.074 28.0801 130.3 28.1487 130.565 28.1487C130.842 28.1487 131.073 28.0779 131.26 27.9361C131.446 27.7921 131.587 27.5961 131.682 27.348C131.778 27.0977 131.827 26.813 131.827 26.4941C131.827 26.1773 131.78 25.896 131.685 25.6501C131.591 25.4042 131.45 25.2115 131.263 25.072C131.077 24.9324 130.844 24.8626 130.565 24.8626C130.298 24.8626 130.071 24.9302 129.884 25.0653C129.697 25.2004 129.556 25.3898 129.459 25.6335C129.364 25.8771 129.317 26.164 129.317 26.4941Z" fill="white"/>
<defs>
<linearGradient id="paint0_linear_1001_246" x1="12.5397" y1="11.6473" x2="12.5397" y2="30.2072" gradientUnits="userSpaceOnUse">
<stop stop-color="#267CAF"/>
<stop offset="0.29" stop-color="#4A92B4"/>
<stop offset="0.77" stop-color="#79BCBA"/>
<stop offset="1" stop-color="#88CEBC"/>
</linearGradient>
<linearGradient id="paint1_linear_1001_246" x1="22.2515" y1="18.7833" x2="20.0053" y2="23.9224" gradientUnits="userSpaceOnUse">
<stop stop-color="#F48879"/>
<stop offset="0.12" stop-color="#F5907A"/>
<stop offset="0.71" stop-color="#FBB777"/>
<stop offset="1" stop-color="#FDC874"/>
</linearGradient>
<linearGradient id="paint2_linear_1001_246" x1="18.845" y1="22.6765" x2="8.63618" y2="31.0292" gradientUnits="userSpaceOnUse">
<stop stop-color="#EB413D"/>
<stop offset="0.17" stop-color="#D94452"/>
<stop offset="0.57" stop-color="#AF487A"/>
<stop offset="0.86" stop-color="#954B92"/>
<stop offset="1" stop-color="#894A9C"/>
</linearGradient>
<linearGradient id="paint3_linear_1001_246" x1="9.27366" y1="12.1506" x2="19.044" y2="19.7005" gradientUnits="userSpaceOnUse">
<stop stop-color="#54C0AC"/>
<stop offset="1" stop-color="#DDE79A"/>
</linearGradient>
</defs>
</svg>
