<svg width="20" height="20" viewBox="0 0 20 20" fill="none" xmlns="http://www.w3.org/2000/svg">
<path d="M19.9798 4.42835C19.9741 4.38858 19.9684 4.3545 19.9571 4.31473C19.9144 4.1585 19.8463 4.01363 19.7354 3.90285L16.0986 0.267008C15.9281 0.0965775 15.698 0 15.4565 0H4.54603C4.30452 0 4.07438 0.0965775 3.9039 0.267008L0.267079 3.90285C0.15627 4.01363 0.0880795 4.1585 0.0454605 4.31473C0.0340954 4.3545 0.0284128 4.38858 0.0227302 4.42835C0.0170477 4.46812 0 4.50504 0 4.54765V17.3811C0 18.824 1.17628 20 2.61965 20H17.38C18.8262 20 19.9997 18.824 19.9997 17.3811V4.54765C20.0025 4.50504 19.9855 4.47096 19.9798 4.42835ZM4.92108 1.82076H15.0786L16.897 3.63869H3.10266L4.92108 1.82076ZM18.1841 17.3811C18.1841 17.8242 17.8233 18.1821 17.3829 18.1821H2.61965C2.17641 18.1821 1.81841 17.8213 1.81841 17.3811V5.45661H18.1841V17.3811Z" fill="currentColor"/>
<path d="M9.35951 16.097C9.53567 16.2731 9.76865 16.364 10.0016 16.364C10.2346 16.364 10.4676 16.276 10.6438 16.097L12.8259 13.9155C13.181 13.5605 13.181 12.9838 12.8259 12.6316C12.4707 12.2794 11.8939 12.2765 11.5416 12.6316L10.9108 13.2622V8.18338C10.9108 7.68061 10.5045 7.27441 10.0016 7.27441C9.49873 7.27441 9.09243 7.68061 9.09243 8.18338V13.2622L8.46167 12.6316C8.10651 12.2765 7.52973 12.2765 7.17741 12.6316C6.8251 12.9867 6.82226 13.5633 7.17741 13.9155L9.35951 16.097Z" fill="currentColor"/>
</svg>
