<svg width="25" height="25" viewBox="0 0 25 25" fill="none" xmlns="http://www.w3.org/2000/svg">
<g id="euro-1-1 1" clip-path="url(#clip0_1022_11867)">
<path id="Vector" d="M7.06764 15.8253C7.5257 17.0106 8.22621 18.0884 9.12543 18.9892L9.1256 18.9894C12.6917 22.5703 18.4709 22.5703 22.0364 18.9894L22.0365 18.9894C22.1515 18.8739 22.2882 18.7821 22.4388 18.7194C22.5893 18.6567 22.7507 18.6243 22.9138 18.624C23.0768 18.6237 23.2383 18.6555 23.3891 18.7176C23.5399 18.7797 23.677 18.8709 23.7925 18.986C23.908 19.1011 23.9997 19.2378 24.0624 19.3883L23.8778 19.4652L24.0624 19.3883C24.1251 19.5388 24.1576 19.7002 24.1579 19.8633C24.1582 20.0263 24.1264 20.1879 24.0643 20.3386C24.0022 20.4894 23.911 20.6264 23.7959 20.742L23.6542 20.6008L7.06764 15.8253ZM7.06764 15.8253H12.4995C12.4995 15.8253 12.4995 15.8253 12.4995 15.8253C12.6626 15.8253 12.824 15.7932 12.9747 15.7309C13.1254 15.6685 13.2623 15.577 13.3776 15.4617C13.4929 15.3464 13.5844 15.2095 13.6468 15.0589C13.7092 14.9082 13.7413 14.7467 13.7413 14.5837C13.7413 14.4206 13.7092 14.2591 13.6468 14.1084C13.5844 13.9578 13.4929 13.8209 13.3776 13.7056C13.2623 13.5903 13.1254 13.4988 12.9747 13.4365C12.824 13.3741 12.6626 13.342 12.4995 13.342C12.4995 13.342 12.4995 13.342 12.4995 13.342H6.48763C6.43661 12.782 6.43661 12.2186 6.48763 11.6587H14.5828C14.5828 11.6587 14.5828 11.6587 14.5828 11.6587C14.7459 11.6587 14.9074 11.6266 15.058 11.5642C15.2087 11.5018 15.3456 11.4104 15.4609 11.2951C15.5762 11.1797 15.6677 11.0429 15.7301 10.8922C15.7925 10.7415 15.8247 10.5801 15.8247 10.417C15.8247 10.2539 15.7925 10.0924 15.7301 9.94178C15.6677 9.79113 15.5762 9.65424 15.4609 9.53893C15.3456 9.42363 15.2087 9.33218 15.058 9.26979C14.9074 9.2074 14.7459 9.17531 14.5828 9.17533C14.5828 9.17533 14.5828 9.17533 14.5828 9.17533H7.06764C7.52579 7.98981 8.22647 6.91179 9.12594 6.01091L9.12612 6.01073C12.6913 2.43075 18.4696 2.43037 22.0353 6.00956C22.1493 6.12776 22.2857 6.22216 22.4365 6.2873C22.5878 6.35267 22.7507 6.38726 22.9155 6.38903C23.0804 6.3908 23.2439 6.35972 23.3966 6.29762C23.5493 6.23551 23.6882 6.14361 23.805 6.02729C23.9218 5.91096 24.0143 5.77253 24.077 5.62008C24.1398 5.46764 24.1716 5.30421 24.1705 5.13936C24.1694 4.9745 24.1355 4.81151 24.0708 4.65989C24.0063 4.50881 23.9125 4.37205 23.7947 4.2575C19.2582 -0.296865 11.9023 -0.296518 7.36674 4.25859C5.99823 5.6291 4.9947 7.31944 4.44643 9.17533H2.08287C2.08286 9.17533 2.08285 9.17533 2.08284 9.17533C1.91978 9.17531 1.75831 9.2074 1.60765 9.26979C1.45698 9.33218 1.32008 9.42363 1.20476 9.53893L1.34617 9.68037L1.20476 9.53893C1.08944 9.65424 0.997962 9.79113 0.93555 9.94178C0.873139 10.0924 0.841016 10.2539 0.841016 10.417C0.841016 10.5801 0.873139 10.7415 0.93555 10.8922C0.997962 11.0429 1.08944 11.1797 1.20476 11.2951L1.34617 11.1536L1.20476 11.2951C1.32008 11.4104 1.45698 11.5018 1.60765 11.5642C1.75831 11.6266 1.91978 11.6587 2.08284 11.6587C2.08285 11.6587 2.08286 11.6587 2.08287 11.6587H3.99623C3.95616 12.2189 3.95616 12.7818 3.99623 13.342H2.08287C2.08286 13.342 2.08285 13.342 2.08284 13.342C1.91978 13.342 1.75831 13.3741 1.60765 13.4365C1.45698 13.4988 1.32008 13.5903 1.20476 13.7056C1.08944 13.8209 0.997961 13.9578 0.93555 14.1084C0.873139 14.2591 0.841016 14.4206 0.841016 14.5837C0.841016 14.7467 0.873139 14.9082 0.93555 15.0589C0.997962 15.2095 1.08944 15.3464 1.20476 15.4617C1.32008 15.577 1.45698 15.6685 1.60765 15.7309C1.75831 15.7932 1.91978 15.8253 2.08284 15.8253V15.6253L2.08287 15.8253M7.36685 20.7422L7.50836 20.6008L7.36664 20.742C7.36671 20.742 7.36678 20.7421 7.36685 20.7422ZM4.44592 15.8253H4.59638V15.6253L4.40386 15.6795C4.41757 15.7282 4.43159 15.7768 4.44592 15.8253Z" fill="currentColor" stroke="currentColor" stroke-width="0.4"/>
</g>
<defs>
<clipPath id="clip0_1022_11867">
<rect width="25" height="25" fill="white"/>
</clipPath>
</defs>
</svg>
