<svg width="17" height="24" viewBox="0 0 17 24" fill="none" xmlns="http://www.w3.org/2000/svg">
<path fill-rule="evenodd" clip-rule="evenodd" d="M3 3.875C3 2.21815 4.34315 0.875 6 0.875H11C12.6569 0.875 14 2.21815 14 3.875V8.78175C15.3056 9.20353 16.25 10.429 16.25 11.875V19.875C16.25 21.6699 14.7949 23.125 13 23.125H4C2.20507 23.125 0.75 21.6699 0.75 19.875V11.875C0.75 10.429 1.69437 9.20353 3 8.78175V3.875ZM12 3.875V8.625H5V3.875C5 3.32272 5.44772 2.875 6 2.875H11C11.5523 2.875 12 3.32272 12 3.875ZM4 11.125C3.58579 11.125 3.25 11.4608 3.25 11.875V19.875C3.25 20.2892 3.58579 20.625 4 20.625H13C13.4142 20.625 13.75 20.2892 13.75 19.875V11.875C13.75 11.4608 13.4142 11.125 13 11.125H4ZM8.5 15.875C9.32843 15.875 10 15.2034 10 14.375C10 13.5466 9.32843 12.875 8.5 12.875C7.67157 12.875 7 13.5466 7 14.375C7 15.2034 7.67157 15.875 8.5 15.875Z" fill="#285E69"/>
<path d="M7.75 17.875C7.75 18.2892 8.08579 18.625 8.5 18.625C8.91421 18.625 9.25 18.2892 9.25 17.875H7.75ZM7.75 14.875V17.875H9.25V14.875H7.75Z" fill="#285E69"/>
</svg>
