<svg width="36" height="35" viewBox="0 0 36 35" fill="none" xmlns="http://www.w3.org/2000/svg">
<g id="history-15 3" clip-path="url(#clip0_1022_11904)">
<path id="Vector" d="M11.1178 23.8459C11.0895 23.8755 11.073 23.9142 11.0711 23.9548L10.4407 32.6975C10.4077 33.1556 10.6503 33.5893 11.0578 33.8009L11.4081 33.9827L11.4772 33.8496L11.4081 33.9827C12.142 34.3637 13.0262 33.8688 13.085 33.0439L13.629 25.419C13.6431 25.2214 13.7258 25.0349 13.8628 24.8918L13.7544 24.7881L13.8628 24.8918L32.9203 4.97669C33.3458 4.53203 33.3458 3.83118 32.9203 3.38652L32.6391 3.0927C32.1863 2.61949 31.4302 2.61949 30.9774 3.0927L11.5841 23.3587L11.1178 23.8459ZM11.1178 23.8459L11.2262 23.9496M11.1178 23.8459L11.1178 23.8459L11.2262 23.9496M11.2262 23.9496C11.2228 23.9532 11.2209 23.958 11.2209 23.9629L11.2262 23.9496Z" fill="currentColor" stroke="currentColor" stroke-width="0.3"/>
<path id="Vector_2" d="M1.51366 15.6284C0.683583 16.0145 0.615356 17.1684 1.39416 17.6496L7.61007 21.4896C8.16901 21.8349 8.90313 21.6426 9.22096 21.0676L9.4315 20.6867C9.72816 20.15 9.5515 19.4749 9.02997 19.1524L6.68609 17.7026C6.11083 17.3468 6.16146 16.4942 6.77479 16.209L29.8528 5.47644C30.5032 5.17399 31.2127 5.76335 31.0346 6.45815L25.5075 28.0292C25.3653 28.5844 24.7256 28.8425 24.2379 28.5417L19.1471 25.4014C18.5882 25.0566 17.8545 25.2491 17.5369 25.8238L17.3264 26.2045C17.0295 26.7416 17.2067 27.4171 17.7289 27.7394L25.554 32.5695C26.2139 32.9768 27.0795 32.6276 27.272 31.8765L34.8839 2.18229C35.1249 1.24225 34.165 0.444773 33.285 0.853968L1.51366 15.6284Z" fill="currentColor" stroke="currentColor" stroke-width="0.3"/>
</g>
<defs>
<clipPath id="clip0_1022_11904">
<rect width="36" height="35" fill="white"/>
</clipPath>
</defs>
</svg>
