<svg width="32" height="32" viewBox="0 0 32 32" fill="none" xmlns="http://www.w3.org/2000/svg">
<g filter="url(#filter0_d_1444_9797)">
<circle cx="16" cy="12" r="10.85" stroke="#285E69" stroke-width="2.3"/>
<path d="M18.026 18H13.602V17.216L14.848 16.166V12.918L13.602 12.092V11.308L16.346 10.188H17.228V16.67L18.488 17.09L18.026 18ZM16.024 5.974C16.4253 5.974 16.752 6.10467 17.004 6.366C17.2653 6.618 17.396 6.93533 17.396 7.318C17.396 7.58867 17.3027 7.84067 17.116 8.074C16.9293 8.30733 16.696 8.494 16.416 8.634C16.136 8.774 15.8653 8.844 15.604 8.844C15.212 8.844 14.8853 8.718 14.624 8.466C14.372 8.20467 14.246 7.88267 14.246 7.5C14.246 7.22933 14.3393 6.97733 14.526 6.744C14.7127 6.51067 14.9413 6.324 15.212 6.184C15.492 6.044 15.7627 5.974 16.024 5.974Z" fill="#285E69"/>
</g>
<defs>
<filter id="filter0_d_1444_9797" x="0" y="0" width="32" height="32" filterUnits="userSpaceOnUse" color-interpolation-filters="sRGB">
<feFlood flood-opacity="0" result="BackgroundImageFix"/>
<feColorMatrix in="SourceAlpha" type="matrix" values="0 0 0 0 0 0 0 0 0 0 0 0 0 0 0 0 0 0 127 0" result="hardAlpha"/>
<feOffset dy="4"/>
<feGaussianBlur stdDeviation="2"/>
<feComposite in2="hardAlpha" operator="out"/>
<feColorMatrix type="matrix" values="0 0 0 0 0 0 0 0 0 0 0 0 0 0 0 0 0 0 0.25 0"/>
<feBlend mode="normal" in2="BackgroundImageFix" result="effect1_dropShadow_1444_9797"/>
<feBlend mode="normal" in="SourceGraphic" in2="effect1_dropShadow_1444_9797" result="shape"/>
</filter>
</defs>
</svg>
