<svg width="8" height="9" viewBox="0 0 8 9" fill="none" xmlns="http://www.w3.org/2000/svg">
<path opacity="0.99" fill-rule="evenodd" clip-rule="evenodd" d="M3.68399 0C3.89493 0 4.10586 0 4.3168 0C5.42804 0.15846 6.1894 0.703382 6.60087 1.63477C6.65596 1.7779 6.69551 1.92438 6.71952 2.07422C6.74139 2.63635 6.75786 3.19885 6.76896 3.76172C7.19209 3.86536 7.45906 4.1056 7.56987 4.48242C7.6023 5.71247 7.60888 6.94294 7.58964 8.17383C7.49656 8.61098 7.20981 8.88638 6.72941 9C4.91006 9 3.09072 9 1.27138 9C0.790975 8.88638 0.504231 8.61098 0.411146 8.17383C0.391895 6.94294 0.398488 5.71247 0.430921 4.48242C0.541731 4.1056 0.8087 3.86536 1.23183 3.76172C1.24292 3.19885 1.25939 2.63635 1.28127 2.07422C1.49209 1.09 2.12821 0.430817 3.1896 0.0966797C3.35526 0.056639 3.52005 0.0244124 3.68399 0ZM3.78286 1.14258C4.42934 1.09447 4.92701 1.31126 5.27591 1.79297C5.36688 1.94179 5.4262 2.09999 5.45389 2.26758C5.46378 2.75973 5.46708 3.25192 5.46378 3.74414C4.48819 3.74414 3.51259 3.74414 2.53701 3.74414C2.53371 3.25192 2.53701 2.75973 2.5469 2.26758C2.63725 1.78766 2.93058 1.44489 3.4269 1.23926C3.54603 1.20097 3.66468 1.16875 3.78286 1.14258ZM3.84219 4.88672C4.54831 4.87579 4.95043 5.18048 5.04849 5.80078C5.03971 6.01548 4.96389 6.20884 4.82107 6.38086C4.70966 6.49183 4.5877 6.58851 4.45523 6.6709C4.51533 6.99797 4.56807 7.32611 4.61343 7.65527C4.61972 7.77862 4.55379 7.84893 4.41568 7.86621C4.13882 7.87794 3.86196 7.87794 3.58511 7.86621C3.40238 7.82575 3.33975 7.72321 3.39724 7.55859C3.44302 7.26207 3.49246 6.96618 3.54556 6.6709C3.38611 6.57025 3.2444 6.45013 3.12038 6.31055C2.83123 5.8105 2.93341 5.38571 3.4269 5.03613C3.55914 4.96682 3.69757 4.91702 3.84219 4.88672Z" fill="white"/>
</svg>
