<svg width="22" height="22" viewBox="0 0 22 22" fill="none" xmlns="http://www.w3.org/2000/svg">
<path d="M13.5 16V18.5C13.5 19.163 13.2805 19.7989 12.8898 20.2678C12.4991 20.7366 11.9692 21 11.4167 21H3.08333C2.5308 21 2.00089 20.7366 1.61019 20.2678C1.21949 19.7989 1 19.163 1 18.5V3.5C1 2.83696 1.21949 2.20107 1.61019 1.73223C2.00089 1.26339 2.5308 1 3.08333 1H11C12.1505 1 13.5 2.11937 13.5 3.5V6M16.8333 16L21 11L16.8333 6M6.83333 11H20.1667" stroke="url(#paint0_linear_667_2728)" stroke-width="2" stroke-linecap="round" stroke-linejoin="round"/>
<defs>
<linearGradient id="paint0_linear_667_2728" x1="4.88586" y1="18.6952" x2="20.1862" y2="1.64913" gradientUnits="userSpaceOnUse">
<stop stop-color="#00AEEF"/>
<stop offset="1" stop-color="#72BF44"/>
</linearGradient>
</defs>
</svg>
