<svg width="125" height="41" viewBox="0 0 125 41" fill="none" xmlns="http://www.w3.org/2000/svg">
<path d="M35.9795 33.5843C35.1911 32.2211 33.8316 31.3886 32.3795 31.2157C31.9009 31.1111 31.4262 30.9342 30.9758 30.6768C28.6951 29.3618 27.8987 26.4663 29.1617 24.1701C29.1939 24.1178 29.226 24.0615 29.2542 24.0092C29.2582 24.0012 29.2623 23.9931 29.2663 23.9891C29.7329 23.1566 30.0426 22.2237 30.1512 21.2304C30.1512 21.2183 30.1512 21.2103 30.1512 21.1982C30.1512 21.1781 30.1552 21.162 30.1592 21.1419C30.1592 21.1178 30.1592 21.0936 30.1592 21.0695C30.1592 20.3255 29.5599 19.7183 28.8158 19.7102H23.6753C22.9271 19.7102 22.3157 20.3175 22.3157 21.0695C22.3157 21.8215 22.9231 22.4288 23.6753 22.4288H27.0299C26.2737 23.9931 24.6688 25.0749 22.8145 25.0749C20.2282 25.0749 18.1366 22.9797 18.1366 20.3979C18.1366 17.8161 20.2322 15.7209 22.8145 15.7209C24.536 15.7209 26.0404 16.6539 26.8569 18.0413C27.0902 18.4435 27.5286 18.7129 28.0274 18.7129C28.7756 18.7129 29.3869 18.1057 29.3869 17.3537C29.3869 17.0842 29.3025 16.8349 29.1657 16.6258C27.8987 14.3295 28.6951 11.434 30.9758 10.119C31.4222 9.86165 31.8969 9.68069 32.3795 9.58015C33.8356 9.40722 35.1911 8.5788 35.9795 7.2115C37.3069 4.91524 36.5185 1.97554 34.2217 0.648452C31.925 -0.678634 28.9847 0.109575 27.6614 2.40584C26.873 3.77314 26.8328 5.36564 27.412 6.70882C27.5648 7.17531 27.6453 7.67397 27.6453 8.19274C27.6453 10.8308 25.5296 12.9743 22.899 13.0145C22.8748 13.0145 22.8467 13.0145 22.8225 13.0145C22.7904 13.0145 22.7622 13.0145 22.7341 13.0145C20.1115 12.9662 17.9998 10.8268 17.9998 8.19274C17.9998 7.67397 18.0802 7.17933 18.2331 6.70882C18.8123 5.36162 18.7721 3.76912 17.9837 2.40584C16.6443 0.105553 13.708 -0.682656 11.4113 0.644431C9.11454 1.97152 8.32617 4.90719 9.65353 7.20748C10.4419 8.57478 11.8014 9.40722 13.2535 9.57613C13.7362 9.68069 14.2068 9.85763 14.6532 10.115C16.9138 11.422 17.7182 14.2772 16.4955 16.5655C16.4432 16.6499 16.3909 16.7384 16.3426 16.8268C14.975 19.0387 12.091 19.7786 9.82246 18.4716C9.35588 18.2022 8.95364 17.8604 8.61577 17.4783C7.73891 16.3362 6.35524 15.5963 4.80263 15.5963C2.15193 15.5963 0 17.7478 0 20.4019C0 23.0561 2.15193 25.2036 4.80263 25.2036C6.35926 25.2036 7.73891 24.4636 8.61577 23.3215C8.95364 22.9355 9.35588 22.5977 9.82246 22.3282C12.091 21.0212 14.975 21.7612 16.3386 23.973C16.3869 24.0615 16.4391 24.15 16.4914 24.2344C17.7142 26.5186 16.9098 29.3779 14.6492 30.6848C14.2027 30.9462 13.7281 31.1232 13.2495 31.2237C11.7934 31.3966 10.4379 32.2251 9.6495 33.5924C8.32214 35.8886 9.11051 38.8283 11.4072 40.1554C13.704 41.4825 16.6403 40.6943 17.9676 38.398C18.756 37.0307 18.7962 35.4382 18.217 34.0951C18.0642 33.6286 17.9837 33.1299 17.9837 32.6111C17.9837 29.9771 20.0954 27.8376 22.718 27.7894C22.7461 27.7894 22.7783 27.7894 22.8065 27.7894C22.8346 27.7894 22.8668 27.7894 22.899 27.7894C25.5215 27.8376 27.6292 29.9811 27.6292 32.6111C27.6292 33.1299 27.5487 33.6286 27.3959 34.0951C26.8167 35.4382 26.8569 37.0307 27.6453 38.398C28.9726 40.6943 31.9089 41.4825 34.2057 40.1554C36.5064 38.8283 37.2908 35.8927 35.9634 33.5924L35.9795 33.5843Z" fill="url(#paint0_linear_667_1644)"/>
<path d="M52.5959 14.6868C52.5959 13.714 53.0788 12.9932 54.1073 12.9932H58.9204C59.8509 12.9932 60.2984 13.6549 60.2984 14.3363C60.2984 15.0177 59.8312 15.6793 58.9204 15.6793H55.5049V18.523H58.6888C59.6389 18.523 60.106 19.1847 60.106 19.8661C60.106 20.5474 59.6192 21.2091 58.6888 21.2091H55.5049V24.167H59.0932C60.0236 24.167 60.4712 24.8287 60.4712 25.5101C60.4712 26.1915 60.004 26.8531 59.0932 26.8531H54.0877C53.2319 26.8531 52.592 26.2702 52.592 25.3919V14.6868H52.5959Z" fill="white"/>
<path d="M62.7362 14.3166C62.7362 13.517 63.3172 12.875 64.1888 12.875C65.0603 12.875 65.6453 13.4186 65.6453 14.3166V18.5191L70.4191 13.4186C70.6311 13.1862 71.0001 12.875 71.5458 12.875C72.2799 12.875 72.9788 13.4383 72.9788 14.2772C72.9788 14.7853 72.6686 15.1909 72.0287 15.8329L68.3619 19.4525L72.8453 24.1434C73.2928 24.6121 73.6619 25.0374 73.6619 25.6243C73.6619 26.5381 72.9434 26.9674 72.1465 26.9674C71.5851 26.9674 71.216 26.6365 70.6704 26.0536L65.6453 20.6026V25.5652C65.6453 26.3254 65.0642 26.9674 64.1888 26.9674C63.3133 26.9674 62.7362 26.4238 62.7362 25.5652V14.3126V14.3166Z" fill="white"/>
<path d="M75.9153 14.3166C75.9153 13.517 76.4963 12.875 77.3718 12.875C78.2472 12.875 78.8243 13.4186 78.8243 14.3166V18.5191L83.5982 13.4186C83.8102 13.1862 84.1792 12.875 84.721 12.875C85.459 12.875 86.1578 13.4383 86.1578 14.2772C86.1578 14.7853 85.8477 15.1909 85.2078 15.8329L81.541 19.4525L86.0243 24.1434C86.4719 24.6121 86.837 25.0374 86.837 25.6243C86.837 26.5381 86.1186 26.9674 85.3255 26.9674C84.7641 26.9674 84.3951 26.6365 83.8494 26.0536L78.8243 20.6026V25.5652C78.8243 26.3254 78.2433 26.9674 77.3718 26.9674C76.5002 26.9674 75.9153 26.4238 75.9153 25.5652V14.3126V14.3166Z" fill="white"/>
<path d="M50.3384 20.6538C50.3384 19.9251 49.7534 19.3304 49.0272 19.3265H44.0099C43.2797 19.3265 42.683 19.9212 42.683 20.6577C42.683 21.3942 43.2758 21.989 44.0099 21.989H47.2801C46.5421 23.5211 44.9796 24.5806 43.1659 24.5806C40.6455 24.5806 38.6001 22.5286 38.6001 20C38.6001 17.4714 40.6455 15.4194 43.1659 15.4194C44.8304 15.4194 46.283 16.3134 47.0839 17.6447C47.3076 18.0622 47.7473 18.3497 48.2538 18.3497C48.984 18.3497 49.5807 17.755 49.5807 17.0185C49.5807 16.7152 49.4786 16.4395 49.3098 16.215C48.0418 14.1472 45.7687 12.7648 43.1698 12.7648C39.185 12.7648 35.9619 16.0023 35.9619 20C35.9619 23.9977 39.189 27.2352 43.1698 27.2352C46.8797 27.2352 49.934 24.427 50.3345 20.8113C50.3384 20.7601 50.3423 20.7089 50.3423 20.6617L50.3384 20.6538Z" fill="white"/>
<path d="M92.1371 14.3914C92.4668 13.4973 93.2206 12.7766 94.2099 12.7766C95.1992 12.7766 95.953 13.458 96.2828 14.3914L100.079 24.9666C100.197 25.2777 100.232 25.5495 100.232 25.6873C100.232 26.4475 99.6119 26.9713 98.8934 26.9713C98.0808 26.9713 97.6725 26.542 97.4801 25.9591L96.8991 24.1316H91.5128L90.9318 25.9394C90.7394 26.542 90.3312 26.9713 89.5381 26.9713C88.7451 26.9713 88.1052 26.3884 88.1052 25.6085C88.1052 25.2974 88.2033 25.065 88.2426 24.9666L92.1371 14.3914ZM92.349 21.4494H96.0315L94.2295 15.8093H94.1903L92.349 21.4494Z" fill="white"/>
<path d="M101.924 14.5293C101.924 13.5958 102.446 13.0129 103.416 13.0129H106.827C109.811 13.0129 111.652 14.356 111.652 17.4084C111.652 19.547 110.043 20.7719 108.068 21.0831L111.362 24.62C111.633 24.9114 111.75 25.2029 111.75 25.4746C111.75 26.2348 111.15 26.9713 110.298 26.9713C109.948 26.9713 109.485 26.8334 109.175 26.4672L104.872 21.2367H104.833V25.4549C104.833 26.4278 104.213 26.9713 103.38 26.9713C102.548 26.9713 101.928 26.4278 101.928 25.4549V14.5293H101.924ZM104.829 19.1374H106.823C107.887 19.1374 108.625 18.4954 108.625 17.4084C108.625 16.3213 107.887 15.699 106.823 15.699H104.829V19.1414V19.1374Z" fill="white"/>
<path d="M113.47 14.5096C113.47 13.6155 114.09 13.0129 114.962 13.0129H118.177C122.519 13.0129 125 15.8132 125 20.13C125 24.2143 122.366 26.8571 118.373 26.8571H115.001C114.361 26.8571 113.47 26.5065 113.47 25.3998V14.5096ZM116.375 24.171H118.334C120.835 24.171 121.977 22.3238 121.977 19.9921C121.977 17.5029 120.815 15.6951 118.142 15.6951H116.379V24.171H116.375Z" fill="white"/>
<defs>
<linearGradient id="paint0_linear_667_1644" x1="7.11583" y1="36.0981" x2="38.5109" y2="4.70091" gradientUnits="userSpaceOnUse">
<stop stop-color="#00AEEF"/>
<stop offset="1" stop-color="#72BF44"/>
</linearGradient>
</defs>
</svg>
