<svg width="14" height="15" viewBox="0 0 14 15" fill="none" xmlns="http://www.w3.org/2000/svg">
<path d="M13.2278 12.3472C12.9379 11.846 12.4381 11.5399 11.9042 11.4764C11.7283 11.4379 11.5538 11.3729 11.3881 11.2782C10.5497 10.7948 10.2569 9.73027 10.7212 8.88605C10.733 8.86683 10.7449 8.84613 10.7552 8.82691C10.7567 8.82396 10.7582 8.821 10.7597 8.81952C10.9312 8.51347 11.0451 8.17047 11.085 7.80528C11.085 7.80085 11.085 7.79789 11.085 7.79345C11.085 7.78606 11.0865 7.78015 11.088 7.77275C11.088 7.76388 11.088 7.75501 11.088 7.74614C11.088 7.47262 10.8676 7.24937 10.594 7.24641H8.70414C8.42909 7.24641 8.20431 7.46966 8.20431 7.74614C8.20431 8.02262 8.42761 8.24587 8.70414 8.24587H9.93745C9.65944 8.821 9.0694 9.21871 8.38768 9.21871C7.43682 9.21871 6.66785 8.44842 6.66785 7.49923C6.66785 6.55005 7.4383 5.77976 8.38768 5.77976C9.0206 5.77976 9.57367 6.12277 9.87387 6.63284C9.95964 6.78069 10.1208 6.87975 10.3042 6.87975C10.5792 6.87975 10.804 6.6565 10.804 6.38002C10.804 6.28096 10.773 6.1893 10.7227 6.11242C10.2569 5.2682 10.5497 4.20369 11.3881 3.72023C11.5523 3.62561 11.7268 3.55908 11.9042 3.52211C12.4396 3.45854 12.9379 3.15397 13.2278 2.65129C13.7158 1.80707 13.4259 0.726301 12.5815 0.238402C11.7371 -0.249498 10.6561 0.0402849 10.1696 0.884499C9.87978 1.38718 9.86499 1.97266 10.0779 2.46648C10.1341 2.63798 10.1637 2.82131 10.1637 3.01204C10.1637 3.98192 9.38587 4.76995 8.41874 4.78474C8.40987 4.78474 8.39951 4.78474 8.39064 4.78474C8.37881 4.78474 8.36846 4.78474 8.35811 4.78474C7.39394 4.767 6.61757 3.98044 6.61757 3.01204C6.61757 2.82131 6.64715 2.63946 6.70334 2.46648C6.91629 1.97118 6.9015 1.3857 6.61166 0.884499C6.11922 0.0388064 5.03971 -0.250976 4.19532 0.236923C3.35093 0.724823 3.06109 1.80412 3.54909 2.64981C3.83893 3.15249 4.33876 3.45854 4.8726 3.52063C5.05006 3.55908 5.22308 3.62413 5.38722 3.71875C6.2183 4.19926 6.51406 5.24898 6.06451 6.09024C6.04528 6.12129 6.02606 6.15381 6.00831 6.18634C5.50553 6.99951 4.44524 7.27155 3.6112 6.79104C3.43966 6.69198 3.29178 6.56631 3.16756 6.42586C2.84519 6.00597 2.33648 5.73392 1.76567 5.73392C0.791151 5.73392 0 6.52491 0 7.50071C0 8.47651 0.791151 9.26602 1.76567 9.26602C2.33796 9.26602 2.84519 8.99398 3.16756 8.57409C3.29178 8.43216 3.43966 8.30797 3.6112 8.20891C4.44524 7.7284 5.50553 8.00044 6.00684 8.81361C6.02458 8.84613 6.04381 8.87866 6.06303 8.90971C6.51258 9.74949 6.21682 10.8007 5.38574 11.2812C5.2216 11.3773 5.0471 11.4423 4.87113 11.4793C4.33581 11.5429 3.83745 11.8475 3.54761 12.3501C3.05961 13.1944 3.34945 14.2751 4.19384 14.763C5.03823 15.2509 6.11774 14.9611 6.60574 14.1169C6.89559 13.6142 6.91037 13.0288 6.69743 12.5349C6.64123 12.3634 6.61166 12.1801 6.61166 11.9894C6.61166 11.021 7.38802 10.2344 8.35219 10.2167C8.36254 10.2167 8.37437 10.2167 8.38473 10.2167C8.39508 10.2167 8.40691 10.2167 8.41874 10.2167C9.38291 10.2344 10.1578 11.0225 10.1578 11.9894C10.1578 12.1801 10.1282 12.3634 10.072 12.5349C9.85908 13.0288 9.87387 13.6142 10.1637 14.1169C10.6517 14.9611 11.7312 15.2509 12.5756 14.763C13.4215 14.2751 13.7098 13.1958 13.2218 12.3501L13.2278 12.3472Z" fill="currentColor"/>
</svg>
