<svg width="11" height="12" viewBox="0 0 11 12" fill="none" xmlns="http://www.w3.org/2000/svg">
<g clip-path="url(#clip0_844_33697)">
<path d="M0.459741 11.5C0.322376 11.5 0.230798 11.4542 0.139221 11.3625C0.00185528 11.225 -0.0439333 11.0417 0.0476439 10.8584L1.4213 7.65003C1.4213 7.6042 1.46709 7.55836 1.51288 7.51253L8.01486 1.0042C8.6559 0.362533 9.80062 0.362533 10.4874 1.0042C10.808 1.37087 10.9911 1.78337 10.9911 2.2417C10.9911 2.70003 10.808 3.15837 10.4874 3.4792L3.98547 9.98753C3.93968 10.0334 3.89389 10.0792 3.8481 10.0792L0.642896 11.4542C0.597107 11.5 0.50553 11.5 0.459741 11.5ZM2.19971 8.10837L1.32973 10.1709L3.39021 9.30003L9.80062 2.88337C9.98377 2.70003 10.0754 2.47087 10.0754 2.2417C10.0754 2.01253 9.98377 1.8292 9.84641 1.64587C9.4801 1.2792 8.97642 1.32503 8.6559 1.64587L2.19971 8.10837Z" fill="#F7F7F0"/>
<path d="M3.66443 10.125C3.52707 10.125 3.43549 10.0792 3.34391 9.9875L1.51237 8.15417C1.32921 7.97083 1.32921 7.69583 1.51237 7.5125C1.69552 7.32917 1.97025 7.32917 2.15341 7.5125L3.98495 9.34583C4.16811 9.52917 4.16811 9.80417 3.98495 9.9875C3.89337 10.0792 3.8018 10.125 3.66443 10.125Z" fill="#F7F7F0"/>
<path d="M9.38861 3.93758C9.25125 3.93758 9.15967 3.89175 9.06809 3.80008L7.46549 2.19591C7.28234 2.01258 7.28234 1.73758 7.46549 1.55425C7.64865 1.37091 7.92338 1.37091 8.10653 1.55425L9.70913 3.15841C9.89229 3.34175 9.89229 3.61675 9.70913 3.80008C9.61756 3.89175 9.52598 3.93758 9.38861 3.93758Z" fill="#F7F7F0"/>
</g>
<defs>
<clipPath id="clip0_844_33697">
<rect width="11" height="11" fill="white" transform="translate(0 0.5)"/>
</clipPath>
</defs>
</svg>
