<svg width="43" height="25" viewBox="0 0 43 25" fill="none" xmlns="http://www.w3.org/2000/svg">
<g clipPath="url(#clip0_2371_12408)">
<path d="M7.85714 13.8094H0.714286C0.285714 13.8094 0 13.5237 0 13.0951C0 12.6665 0.285714 12.3808 0.714286 12.3808H7.85714C8.28571 12.3808 8.57143 12.6665 8.57143 13.0951C8.57143 13.5237 8.28571 13.8094 7.85714 13.8094Z" fill="currentColor"/>
<path d="M2.14269 16.6668C1.99984 16.6668 1.85698 16.6668 1.71412 16.5239C1.42841 16.2382 1.28555 15.8096 1.57127 15.5239L5.85698 9.80961C6.14269 9.5239 6.57127 9.38104 6.85698 9.66676C7.14269 9.95247 7.28555 10.381 6.99984 10.6668L2.71412 16.381C2.57127 16.5239 2.42841 16.6668 2.14269 16.6668Z" fill="currentColor"/>
<path d="M6.42841 16.6668C6.14269 16.6668 5.99984 16.5239 5.85698 16.381L1.57127 10.6668C1.28555 10.381 1.42841 9.95247 1.71412 9.66676C1.99984 9.38104 2.42841 9.5239 2.71412 9.80961L6.99984 15.5239C7.28555 15.8096 7.14269 16.2382 6.85698 16.5239C6.71412 16.6668 6.57127 16.6668 6.42841 16.6668ZM19.2855 13.8096H12.1427C11.7141 13.8096 11.4284 13.5239 11.4284 13.0953C11.4284 12.6668 11.7141 12.381 12.1427 12.381H19.2855C19.7141 12.381 19.9998 12.6668 19.9998 13.0953C19.9998 13.5239 19.7141 13.8096 19.2855 13.8096Z" fill="currentColor"/>
<path d="M13.5714 16.6668C13.4285 16.6668 13.2857 16.6668 13.1428 16.5239C12.8571 16.2382 12.7143 15.8096 13 15.5239L17.2857 9.80961C17.5714 9.5239 18 9.38104 18.2857 9.66676C18.5714 9.95247 18.7143 10.381 18.4285 10.6668L14.1428 16.381C14 16.5239 13.8571 16.6668 13.5714 16.6668Z" fill="currentColor"/>
<path d="M17.8571 16.6668C17.5714 16.6668 17.4285 16.5239 17.2857 16.381L13 10.6668C12.7143 10.381 12.8571 9.95247 13.1428 9.66676C13.4285 9.38104 13.8571 9.5239 14.1428 9.80961L18.4285 15.5239C18.7143 15.8096 18.5714 16.2382 18.2857 16.5239C18.1428 16.6668 18 16.6668 17.8571 16.6668Z" fill="currentColor"/>
<path d="M30.7141 13.8094H23.5712C23.1426 13.8094 22.8569 13.5237 22.8569 13.0951C22.8569 12.6665 23.1426 12.3808 23.5712 12.3808H30.7141C31.1426 12.3808 31.4284 12.6665 31.4284 13.0951C31.4284 13.5237 31.1426 13.8094 30.7141 13.8094Z" fill="currentColor"/>
<path d="M25.0001 16.6668C24.8573 16.6668 24.7144 16.6668 24.5715 16.5239C24.2858 16.2382 24.143 15.8096 24.4287 15.5239L28.7144 9.80961C29.0001 9.5239 29.4287 9.38104 29.7144 9.66676C30.0001 9.95247 30.143 10.381 29.8573 10.6668L25.5715 16.381C25.4287 16.5239 25.2858 16.6668 25.0001 16.6668Z" fill="currentColor"/>
<path d="M29.2858 16.6668C29.0001 16.6668 28.8573 16.5239 28.7144 16.381L24.4287 10.6668C24.143 10.381 24.2858 9.95247 24.5715 9.66676C24.8573 9.38104 25.2858 9.5239 25.5715 9.80961L29.8573 15.5239C30.143 15.8096 30.0001 16.2382 29.7144 16.5239C29.5715 16.6668 29.4287 16.6668 29.2858 16.6668Z" fill="currentColor"/>
<path d="M42.1428 13.8094H34.9999C34.5714 13.8094 34.2856 13.5237 34.2856 13.0951C34.2856 12.6665 34.5714 12.3808 34.9999 12.3808H42.1428C42.5714 12.3808 42.8571 12.6665 42.8571 13.0951C42.8571 13.5237 42.5714 13.8094 42.1428 13.8094Z" fill="currentColor"/>
<path d="M36.4288 16.6668C36.286 16.6668 36.1431 16.6668 36.0003 16.5239C35.7145 16.2382 35.5717 15.8096 35.8574 15.5239L40.1431 9.80961C40.4288 9.5239 40.8574 9.38104 41.1431 9.66676C41.4288 9.95247 41.5717 10.381 41.286 10.6668L37.0003 16.381C36.8574 16.5239 36.7145 16.6668 36.4288 16.6668Z" fill="currentColor"/>
<path d="M40.7145 16.6668C40.4288 16.6668 40.286 16.5239 40.1431 16.381L35.8574 10.6668C35.5717 10.381 35.7145 9.95247 36.0003 9.66676C36.286 9.38104 36.7145 9.5239 37.0003 9.80961L41.286 15.5239C41.5717 15.8096 41.4288 16.2382 41.1431 16.5239C41.0003 16.6668 40.8574 16.6668 40.7145 16.6668Z" fill="currentColor"/>
</g>
<defs>
<clipPath id="clip0_2371_12408">
<rect width="42.8571" height="25" fill="white"/>
</clipPath>
</defs>
</svg>
