<svg width="35" height="35" viewBox="0 0 35 35" fill="none" xmlns="http://www.w3.org/2000/svg">
<g id="pos-machine-4 1">
<path id="Vector" d="M5.83311 30.6247H33.5414C33.9282 30.6247 34.2991 30.7784 34.5725 31.0519C34.8459 31.3254 34.9996 31.6963 34.9996 32.083C34.9996 32.4697 34.8459 32.8406 34.5725 33.1141C34.2991 33.3876 33.9282 33.5413 33.5414 33.5413H1.45811C1.07137 33.5413 0.700499 33.3876 0.427057 33.1141C0.153615 32.8406 0 32.4697 0 32.083C0 31.6963 0.153615 31.3254 0.427057 31.0519C0.700499 30.7784 1.07137 30.6247 1.45811 30.6247H2.91644V14.583C2.91644 14.3915 2.95416 14.2019 3.02745 14.0249C3.10074 13.848 3.20816 13.6872 3.34358 13.5518C3.479 13.4164 3.63976 13.309 3.8167 13.2357C3.99363 13.1624 4.18327 13.1247 4.37478 13.1247H7.29144V2.91634C7.29144 2.52957 7.44509 2.15863 7.71858 1.88514C7.99207 1.61165 8.363 1.45801 8.74978 1.45801H26.2498C26.6366 1.45801 27.0075 1.61165 27.281 1.88514C27.5545 2.15863 27.7081 2.52957 27.7081 2.91634V13.1247H30.6248C31.0116 13.1247 31.3825 13.2783 31.656 13.5518C31.9295 13.8253 32.0831 14.1962 32.0831 14.583V27.708C32.0831 28.0948 31.9295 28.4657 31.656 28.7392C31.3825 29.0127 31.0116 29.1663 30.6248 29.1663C30.238 29.1663 29.8671 29.0127 29.5936 28.7392C29.3201 28.4657 29.1664 28.0948 29.1664 27.708V16.0413H5.83311V30.6247ZM21.8748 4.37467V13.1247H24.7914V4.37467H21.8748ZM17.4998 4.37467H10.2081V13.1247H17.4998V4.37467ZM17.2664 23.4847L21.3644 19.3853C21.6378 19.1117 22.0088 18.9578 22.3956 18.9577C22.7825 18.9576 23.1535 19.1111 23.4272 19.3846C23.7008 19.658 23.8546 20.029 23.8548 20.4158C23.8549 20.8027 23.7014 21.1737 23.4279 21.4474L18.2771 26.5982C18.0036 26.8716 17.6327 27.0252 17.246 27.0252C16.8593 27.0252 16.4885 26.8716 16.215 26.5982L16.2092 26.5924L13.5462 23.9003C13.2754 23.6263 13.124 23.2562 13.1251 22.871C13.1262 22.4857 13.2797 22.1165 13.5521 21.844L13.5579 21.8382C13.8314 21.5648 14.2022 21.4112 14.5889 21.4112C14.9756 21.4112 15.3465 21.5648 15.62 21.8382L17.2664 23.4847Z" fill="currentColor"/>
</g>
</svg>
