<svg width="20" height="21" viewBox="0 0 20 21" fill="none" xmlns="http://www.w3.org/2000/svg">
    <path fill-rule="evenodd" clip-rule="evenodd" d="M3.44721 0.631968C3.13723 0.438224 2.76909 0.458929 2.47427 0.686688C2.17945 0.914447 2 1.31678 2 1.75V4.25V10.5V18H1C0.447715 18 0 18.5596 0 19.25C0 19.9404 0.447715 20.5 1 20.5H3H17H18H19C19.5523 20.5 20 19.9404 20 19.25C20 18.5596 19.5523 18 19 18H18V8V5.5V4.875V3.625V3C18 2.52654 17.786 2.0937 17.4472 1.88197L15.4472 0.631968C15.1657 0.456013 14.8343 0.456013 14.5528 0.631968L13 1.60246L11.4472 0.631968C11.1657 0.456013 10.8343 0.456013 10.5528 0.631968L9 1.60246L7.44721 0.631968C7.16569 0.456013 6.83431 0.456013 6.55279 0.631968L5 1.60246L3.44721 0.631968ZM16 8V18H4V10.5V4.25V3.77254L4.55279 4.11804C4.83431 4.29399 5.16569 4.29399 5.44721 4.11804L7 3.14754L8.55279 4.11804C8.83431 4.29399 9.16569 4.29399 9.44721 4.11804L11 3.14754L12.5528 4.11804C12.8343 4.29399 13.1657 4.29399 13.4472 4.11804L15 3.14754L16 3.77254V4.875V5.5V8ZM6 6.75C5.72386 6.75 5.5 7.02983 5.5 7.375C5.5 7.72018 5.72386 8 6 8H14C14.2761 8 14.5 7.72018 14.5 7.375C14.5 7.02983 14.2761 6.75 14 6.75H6ZM5.5 11.125C5.5 10.7798 5.72386 10.5 6 10.5H14C14.2761 10.5 14.5 10.7798 14.5 11.125C14.5 11.4702 14.2761 11.75 14 11.75H6C5.72386 11.75 5.5 11.4702 5.5 11.125ZM6 14.25C5.72386 14.25 5.5 14.5299 5.5 14.875C5.5 15.2202 5.72386 15.5 6 15.5H14C14.2761 15.5 14.5 15.2202 14.5 14.875C14.5 14.5299 14.2761 14.25 14 14.25H6Z" fill="#2BAB72"/>
</svg>
