<svg width="23" height="25" viewBox="0 0 23 25" fill="none" xmlns="http://www.w3.org/2000/svg">
<path d="M2.8125 18.75V6.25H5.81278e-06V18.75H2.8125ZM15.4687 22.5H7.03125V25H15.4687V22.5ZM19.6875 6.25V18.75H22.5V6.25H19.6875ZM7.03125 2.5H15.4687V5.16511e-06H7.03125V2.5ZM22.5 6.25C22.5 5.10625 22.5028 4.12375 22.3847 3.34C22.2609 2.52125 21.9811 1.735 21.2639 1.09875L19.2755 2.86625C19.3823 2.96125 19.5145 3.13125 19.5975 3.67375C19.6847 4.25 19.6875 5.03625 19.6875 6.25H22.5ZM15.4687 2.5C16.8342 2.5 17.7173 2.5025 18.367 2.58C18.9773 2.65375 19.1686 2.77125 19.2755 2.86625L21.2639 1.09875C20.5467 0.461255 19.6636 0.212505 18.7425 0.102505C17.8594 -0.0024948 16.7555 5.16511e-06 15.4687 5.16511e-06V2.5ZM15.4687 25C16.7555 25 17.8608 25.0025 18.7425 24.8975C19.6636 24.7875 20.5481 24.5387 21.2639 23.9012L19.2755 22.1337C19.1686 22.2287 18.9773 22.3462 18.367 22.42C17.7173 22.4975 16.8342 22.5 15.4687 22.5V25ZM19.6875 18.75C19.6875 19.9637 19.6847 20.7487 19.5975 21.3262C19.5145 21.8687 19.3823 22.0387 19.2755 22.1337L21.2639 23.9012C21.9811 23.2637 22.2609 22.4787 22.3847 21.66C22.5028 20.875 22.5 19.8937 22.5 18.75H19.6875ZM5.81278e-06 18.75C5.81278e-06 19.8937 -0.00280699 20.8762 0.115318 21.66C0.239068 22.4787 0.518912 23.265 1.2361 23.9012L3.22454 22.1337C3.11766 22.0387 2.98547 21.8687 2.9025 21.3262C2.81532 20.75 2.8125 19.9637 2.8125 18.75H5.81278e-06ZM7.03125 22.5C5.66578 22.5 4.78266 22.4975 4.13297 22.42C3.52266 22.3462 3.33141 22.2287 3.22454 22.1337L1.2361 23.9012C1.95329 24.5387 2.83641 24.7875 3.7575 24.8975C4.64063 25.0025 5.74453 25 7.03125 25V22.5ZM2.8125 6.25C2.8125 5.03625 2.81532 4.25125 2.9025 3.67375C2.98547 3.13125 3.11766 2.96125 3.22454 2.86625L1.2361 1.09875C0.518912 1.73625 0.239068 2.52125 0.115318 3.34C-0.00280699 4.125 5.81278e-06 5.10625 5.81278e-06 6.25H2.8125ZM7.03125 5.16511e-06C5.74453 5.16511e-06 4.63922 -0.0024948 3.7575 0.102505C2.83641 0.212505 1.95188 0.461255 1.2361 1.09875L3.22454 2.86625C3.33141 2.77125 3.52266 2.65375 4.13297 2.58C4.78125 2.5025 5.66578 2.5 7.03125 2.5V5.16511e-06Z" fill="currentColor"/>
<path fill-rule="evenodd" clip-rule="evenodd" d="M6.32812 6.87501C6.32812 6.18465 6.95772 5.62501 7.73437 5.62501H14.7656C15.5423 5.62501 16.1719 6.18465 16.1719 6.87501C16.1719 7.56536 15.5423 8.12501 14.7656 8.12501H7.73437C6.95772 8.12501 6.32812 7.56536 6.32812 6.87501ZM6.32812 11.875C6.32812 11.1846 6.95772 10.625 7.73437 10.625H14.7656C15.5423 10.625 16.1719 11.1846 16.1719 11.875C16.1719 12.5654 15.5423 13.125 14.7656 13.125H7.73437C6.95772 13.125 6.32812 12.5654 6.32812 11.875ZM6.32812 16.875C6.32812 16.1846 6.95772 15.625 7.73437 15.625H11.25C12.0266 15.625 12.6562 16.1846 12.6562 16.875C12.6562 17.5654 12.0266 18.125 11.25 18.125H7.73437C6.95772 18.125 6.32812 17.5654 6.32812 16.875Z" fill="currentColor"/>
</svg>
