<svg width="12" height="12" viewBox="0 0 12 12" fill="none" xmlns="http://www.w3.org/2000/svg">
<g clip-path="url(#clip0_844_22326)">
<path d="M11.1963 10.2808L8.33424 7.4148C8.30155 7.38212 8.26463 7.35692 8.22945 7.32898C8.71095 6.58628 8.99236 5.70037 8.99236 4.74262C8.99236 2.12208 6.88101 0 4.26796 0C1.65091 0 -0.472168 2.12183 -0.472168 4.74262C-0.472168 7.36715 1.65091 9.48848 4.26796 9.48848C5.21997 9.48848 6.10438 9.20532 6.84509 8.72108C6.87178 8.75726 6.89673 8.79268 6.92991 8.82586L9.78496 11.6919C9.98031 11.8867 10.2353 11.9838 10.4905 11.9838C10.7452 11.9838 11.0007 11.8862 11.1958 11.6924C11.585 11.3022 11.585 10.6708 11.1963 10.2808ZM4.26796 7.99235C2.47968 7.99235 1.02471 6.53688 1.02471 4.74287C1.02471 2.95235 2.47968 1.49688 4.26796 1.49688C6.05424 1.49688 7.50247 2.95235 7.50247 4.74287C7.50247 6.53688 6.05424 7.99235 4.26796 7.99235Z" fill="#285E69"/>
</g>
<defs>
<clipPath id="clip0_844_22326">
<rect width="12" height="12" fill="white"/>
</clipPath>
</defs>
</svg>
