<svg width="31" height="35" viewBox="0 0 31 35" fill="none" xmlns="http://www.w3.org/2000/svg">
<g id="security-31 1">
<path id="Vector" d="M15.3122 1.64605L15.3122 1.64607C15.3709 1.64384 15.4334 1.64444 15.4971 1.65169M15.3122 1.64605L28.2168 4.19045C24.0881 2.93518 20.4021 2.1995 15.4971 1.65169M15.3122 1.64605L15.3101 1.64616M15.3122 1.64605L15.3101 1.64616M15.4971 1.65169C15.4972 1.65169 15.4972 1.6517 15.4973 1.6517L15.4803 1.80074L15.4969 1.65167C15.497 1.65167 15.4971 1.65168 15.4971 1.65169ZM15.3101 1.64616C12.8199 1.77629 10.4907 2.09006 8.38709 2.57919L8.38706 2.5792M15.3101 1.64616L8.38706 2.5792M8.38706 2.5792C6.27724 3.07021 4.26475 3.61331 2.40761 4.19288M8.38706 2.5792L2.40761 4.19288M12.8833 32.584L12.8832 32.5839C7.16088 29.3805 4.28107 26.6558 2.86169 23.2285C1.44987 19.8196 1.49415 15.7353 1.55787 9.85853L1.55822 9.82658L12.8833 32.584ZM12.8833 32.584C13.8387 33.1185 14.5874 33.3549 15.3738 33.3549C16.1461 33.3549 16.9126 33.1176 17.8485 32.6044L17.8485 32.6044M12.8833 32.584L17.8485 32.6044M17.8485 32.6044C23.5452 29.4782 26.4162 26.9719 27.8262 23.6867C29.2282 20.4203 29.1736 16.404 29.0908 10.3102L29.0904 10.274L29.0898 10.2344M17.8485 32.6044L29.0898 10.2344M13.3459 19.7889L22.3541 10.627C22.9378 10.0318 23.8886 10.0311 24.4737 10.6224C25.0591 11.2127 25.0605 12.1717 24.4781 12.7642L14.4079 23.0066L13.3459 19.7889ZM13.3459 19.7889L8.97804 15.348L8.97799 15.3479C8.39442 14.7551 7.44463 14.7528 6.85811 15.3441L6.85797 15.3442C6.27325 15.9352 6.27182 16.8934 6.8542 17.4866L6.85429 17.4866L12.284 23.0073L12.2842 23.0075C12.5654 23.2925 12.9467 23.4537 13.3459 23.4537C13.7449 23.4537 14.1271 23.2925 14.4078 23.0066L13.3459 19.7889ZM29.0898 10.2344C29.0697 8.73608 29.0479 7.1036 29.0445 5.31226M29.0898 10.2344L29.0445 5.31226M29.0445 5.31226C29.0437 4.79609 28.7085 4.33909 28.2171 4.19053L29.0445 5.31226ZM2.40761 4.19288C1.9206 4.34453 1.58921 4.80078 1.58921 5.31459M2.40761 4.19288L1.58921 5.31459M1.58921 5.31459C1.58921 6.81196 1.57494 8.2 1.56163 9.49438M1.58921 5.31459L1.56163 9.49438M1.56163 9.49438C1.56048 9.60577 1.55934 9.71647 1.55822 9.82648L1.56163 9.49438ZM16.7411 30.5394L16.741 30.5394C16.1367 30.8716 15.7196 31.0064 15.3738 31.0064C15.0261 31.0064 14.6224 30.8736 14.0077 30.5291L14.0076 30.5291C8.82962 27.6304 6.28531 25.4056 5.03459 22.4557C3.77834 19.4928 3.81544 15.7789 3.87927 9.85226C3.89172 8.70896 3.90481 7.49022 3.90925 6.18705C5.48126 5.71777 7.15902 5.27467 8.9079 4.868L8.90794 4.86799C10.851 4.41563 13.014 4.12258 15.3358 3.99628C19.7198 4.4896 23.0911 5.13821 26.726 6.1941C26.7326 7.5405 26.7489 8.79533 26.7642 9.96711C26.7657 10.0809 26.7672 10.1938 26.7686 10.306L26.7686 10.3061C26.8089 13.2802 26.8414 15.679 26.7072 17.6966C26.573 19.713 26.2729 21.3382 25.6533 22.7656C24.4166 25.6149 21.8906 27.7142 16.7411 30.5394Z" fill="currentColor" stroke="currentColor" stroke-width="0.3"/>
</g>
</svg>
