<svg width="18" height="20" viewBox="0 0 18 20" fill="none" xmlns="http://www.w3.org/2000/svg">
<g id="statement-icon">
<g id="statement-icon_2">
<path d="M2.25 15V5H4.65024e-06V15H2.25ZM12.375 18H5.625V20H12.375V18ZM15.75 5V15H18V5H15.75ZM5.625 2H12.375V4.13211e-06H5.625V2ZM18 5C18 4.085 18.0022 3.299 17.9077 2.672C17.8087 2.017 17.5849 1.388 17.0111 0.879004L15.4204 2.293C15.5059 2.369 15.6116 2.505 15.678 2.939C15.7477 3.4 15.75 4.029 15.75 5H18ZM12.375 2C13.4674 2 14.1739 2.002 14.6936 2.064C15.1819 2.123 15.3349 2.217 15.4204 2.293L17.0111 0.879004C16.4374 0.369004 15.7309 0.170004 14.994 0.0820041C14.2875 -0.00199585 13.4044 4.13211e-06 12.375 4.13211e-06V2ZM12.375 20C13.4044 20 14.2886 20.002 14.994 19.918C15.7309 19.83 16.4385 19.631 17.0111 19.121L15.4204 17.707C15.3349 17.783 15.1819 17.877 14.6936 17.936C14.1739 17.998 13.4674 18 12.375 18V20ZM15.75 15C15.75 15.971 15.7477 16.599 15.678 17.061C15.6116 17.495 15.5059 17.631 15.4204 17.707L17.0111 19.121C17.5849 18.611 17.8087 17.983 17.9077 17.328C18.0022 16.7 18 15.915 18 15H15.75ZM4.65024e-06 15C4.65024e-06 15.915 -0.0022456 16.701 0.0922544 17.328C0.191254 17.983 0.41513 18.612 0.988879 19.121L2.57963 17.707C2.49413 17.631 2.38838 17.495 2.322 17.061C2.25225 16.6 2.25 15.971 2.25 15H4.65024e-06ZM5.625 18C4.53263 18 3.82613 17.998 3.30638 17.936C2.81813 17.877 2.66513 17.783 2.57963 17.707L0.988879 19.121C1.56263 19.631 2.26913 19.83 3.006 19.918C3.7125 20.002 4.59563 20 5.625 20V18ZM2.25 5C2.25 4.029 2.25225 3.401 2.322 2.939C2.38838 2.505 2.49413 2.369 2.57963 2.293L0.988879 0.879004C0.41513 1.389 0.191254 2.017 0.0922544 2.672C-0.0022456 3.3 4.65024e-06 4.085 4.65024e-06 5H2.25ZM5.625 4.13211e-06C4.59563 4.13211e-06 3.71138 -0.00199585 3.006 0.0820041C2.26913 0.170004 1.5615 0.369004 0.988879 0.879004L2.57963 2.293C2.66513 2.217 2.81813 2.123 3.30638 2.064C3.825 2.002 4.53263 2 5.625 2V4.13211e-06Z" fill="currentColor"/>
<path fill-rule="evenodd" clip-rule="evenodd" d="M5.0625 5.50001C5.0625 4.94772 5.56618 4.50001 6.1875 4.50001H11.8125C12.4338 4.50001 12.9375 4.94772 12.9375 5.50001C12.9375 6.05229 12.4338 6.50001 11.8125 6.50001H6.1875C5.56618 6.50001 5.0625 6.05229 5.0625 5.50001ZM5.0625 9.5C5.0625 8.94772 5.56618 8.5 6.1875 8.5H11.8125C12.4338 8.5 12.9375 8.94772 12.9375 9.5C12.9375 10.0523 12.4338 10.5 11.8125 10.5H6.1875C5.56618 10.5 5.0625 10.0523 5.0625 9.5ZM5.0625 13.5C5.0625 12.9477 5.56618 12.5 6.1875 12.5H9C9.62132 12.5 10.125 12.9477 10.125 13.5C10.125 14.0523 9.62132 14.5 9 14.5H6.1875C5.56618 14.5 5.0625 14.0523 5.0625 13.5Z" fill="currentColor"/>
</g>
</g>
</svg>
