<svg width="38" height="35" viewBox="0 0 38 35" fill="none" xmlns="http://www.w3.org/2000/svg">
<path d="M2.78383 32.1749L2.78374 32.1748L2.40007 7.62337L2.21137 7.55711C2.21139 7.55706 2.21141 7.557 2.21143 7.55695C2.50904 6.70965 3.31411 6.12678 4.53576 5.7749L4.54311 5.77279L4.55059 5.77124L28.5559 0.804149L28.5759 0.8H28.5964C29.5165 0.8 30.313 1.14349 30.9804 1.82382C31.6495 2.50579 31.9842 3.33548 31.9842 4.30727V8.5199H32.8457V8.51988L32.8483 8.51992C33.2919 8.52561 33.7299 8.62261 34.1367 8.8051C34.5426 8.98712 34.9092 9.25047 35.2158 9.5796C35.5319 9.89795 35.7819 10.2794 35.9509 10.7005C36.1201 11.1224 36.2047 11.5753 36.1995 12.0319V29.6875C36.2074 30.1493 36.1243 30.6082 35.9552 31.0359C35.786 31.4638 35.5342 31.8518 35.2148 32.1758C34.5568 32.8589 33.7518 33.2 32.8117 33.2H5.18442C4.24704 33.2 3.44268 32.8584 2.78383 32.1749ZM29.4579 4.30727H29.4578L29.458 4.30195C29.4641 4.07147 29.3823 3.84914 29.2324 3.68307C29.0853 3.52223 28.8881 3.42465 28.679 3.40607L5.54765 8.27316L5.588 8.33605C5.58808 8.33617 5.58816 8.33629 5.58824 8.33641C5.66168 8.44925 5.84189 8.54462 6.23789 8.52199L6.23787 8.52167H6.2493H29.4579V4.30727ZM4.73307 10.8366C4.57908 10.7749 4.44247 10.7005 4.3272 10.6116V29.6111L4.32923 29.6132L4.32803 29.6956C4.32456 29.9346 4.41767 30.1621 4.58406 30.3256L4.58426 30.3254L4.59145 30.3333C4.74832 30.5048 4.96393 30.599 5.18639 30.5955V30.5955H5.18953L32.8117 30.5954L32.8148 30.5955C33.0372 30.599 33.2527 30.5049 33.4095 30.3327L33.4092 30.3325L33.4171 30.3247C33.5826 30.1621 33.6759 29.9345 33.6731 29.696V29.6936V12.0342H33.6731L33.6732 12.0312C33.675 11.9125 33.6529 11.7948 33.6087 11.6858C33.5645 11.5769 33.4991 11.4792 33.4172 11.3988L33.417 11.399L33.4095 11.3907C33.253 11.219 33.0367 11.1252 32.8142 11.128L32.8142 11.128H32.8117H6.25355C5.72048 11.128 5.21129 11.0325 4.73307 10.8366ZM27.9886 19.1713C28.4458 18.6964 28.9943 18.4545 29.6255 18.4541C29.9355 18.4486 30.2431 18.5099 30.5287 18.6339C30.8146 18.7581 31.072 18.9423 31.2849 19.1744C31.7285 19.6498 31.954 20.2149 31.9544 20.862C31.9601 21.1788 31.9036 21.4937 31.7882 21.7875C31.6726 22.0817 31.5002 22.3489 31.2812 22.5724C30.8329 23.0332 30.2795 23.269 29.6287 23.2694C29.6292 23.2694 29.6296 23.2693 29.6301 23.2693L27.9886 19.1713Z" fill="currentColor" stroke="currentColor" stroke-width="0.4"/>
</svg>
