<svg class="svg-layer" viewBox="0 0 1024 1024" fill="#F7F7F0" xmlns="http://www.w3.org/2000/svg">
      <style>
        #logoIcon {
          stroke-width: 0.3%;
          stroke: #29354C55;
          animation: logoCircle 3s ease infinite;
        }

        @keyframes logoCircle {
          from {
            stroke-dashoffset: 600;
            stroke-dasharray: 2;
          }

          to {
            stroke-dashoffset: 0;
            stroke-dasharray: 2;            
          }
        }

        #logoPath {
          fill: #29354C22;
          stroke-dasharray: 3300;
          stroke: #29354C;
          transition: fill 0.3s ease;
          animation: logoIconLine 3s ease infinite;
        }

        @keyframes logoIconLine {
          from {
            stroke-dashoffset: 0;
          }         

          to {
            stroke-dashoffset: 6600;
          }
        }

        #logoPath:hover {
          stroke: url(#p_linear);
          fill: #2BAB7255;
          stroke-width: 1%;
          animation: logoIconLine2 5s ease-in-out infinite;
        }

        @keyframes logoIconLine2 {
          from {
            stroke-dashoffset: 6600;
          }

          to {
            stroke-dashoffset: 0;
          }
        }

        .gC {
          fill: #00000000;
          stroke-dasharray: 20;
        }

        .gC:hover {
          stroke-dasharray: 50;
          animation: hexagonAnim 1s linear infinite;
          stroke-width: 0.5%;
        }

        .gC2 {
          fill: #2BAB7255;
          stroke-dasharray: 20;
        }        

        .hexagon {
          stroke-dasharray: 600;
          stroke-width: 1%;
          stroke-linejoin: round;
          fill: none;
          stroke: #29354C;
          animation: hexagonAnim 1.5s ease infinite, hexagonAnim2 3S forwards;
        }

        @keyframes hexagonAnim2 {
          to {
            stroke-width: 0.5%;
          }
        }

        @keyframes hexagonAnim {
          from {
            stroke-dashoffset: 1600;
          }

          to {
            stroke-dashoffset: 400;
          }
        }
      </style>
      <defs>
        <linearGradient id="p_linear" x1="376.43" y1="778.314" x2="666.91" y2="255.45" gradientUnits="userSpaceOnUse">
          <stop stop-color="#00AEEF" />
          <stop offset="1" stop-color="#72BF44" />
        </linearGradient>
      </defs>
      <g id="logoIcon">
        <path
          d="M728.143,850.716Q717.85,868.543 697.265,868.543L326.735,868.543Q306.15,868.543 295.857,850.716L110.593,529.827Q100.3,512 110.593,494.173L295.857,173.284Q306.15,155.457 326.735,155.457L697.265,155.457Q717.85,155.457 728.143,173.284L913.408,494.173Q923.7,512 913.408,529.827Z"
          fill="none" stroke="#29354C" stroke-width="2" class="hexagon"></path>
        <circle cx="512" cy="512" r="57.5" class="gC" />
        <circle cx="512" cy="512" r="95.45" class="gC" />
        <circle cx="644.459" cy="588.475" r="57.5" class="gC" />
        <circle cx="512" cy="664.95" r="57.5" class="gC" />
        <circle cx="379.541" cy="588.475" r="57.5" class="gC" />
        <circle cx="379.541" cy="435.525" r="57.5" class="gC" />
        <circle cx="512" cy="359.05" r="57.5" class="gC" />
        <circle cx="644.459" cy="435.525" r="57.5" class="gC" />
        <circle cx="735.675" cy="512" r="57.5" class="gC" />
        <circle cx="623.837" cy="705.708" r="57.5" class="gC2" />
        <circle cx="400.163" cy="705.708" r="57.5" class="gC2" />
        <circle cx="288.325" cy="512" r="57.5" class="gC2" />
        <circle cx="400.162" cy="318.292" r="57.5" class="gC2" />
        <circle cx="623.837" cy="318.292" r="57.5" class="gC2" />
        <circle cx="856.425" cy="512" r="57.5" class="gC" />
        <circle cx="684.212" cy="810.281" r="57.5" class="gC" />
        <circle cx="339.788" cy="810.281" r="57.5" class="gC" />
        <circle cx="167.575" cy="512" r="57.5" class="gC" />
        <circle cx="339.787" cy="213.719" r="57.5" class="gC" />
        <circle cx="684.212" cy="213.719" r="57.5" class="gC" />
        <path id="logoPath"
          d="M676.847 677.959C666.738 660.762 650.03 650.131 631.311 648.097C625.234 646.587 619.169 644.565 613.603 641.521C584.765 624.824 574.644 588.398 590.83 559.559C591.362 559.002 591.714 558.298 591.841 557.538V557.026C597.917 546.406 601.461 534.764 602.972 522.111V521.1V520.089C602.972 510.48 595.384 502.893 586.275 502.893H522.532C512.923 502.893 505.336 510.48 505.336 520.089C505.336 529.71 512.923 537.285 522.532 537.285H564.536C554.915 557.026 534.674 570.69 511.401 570.69C495.838 570.678 480.915 564.489 469.911 553.483C458.908 542.477 452.722 527.554 452.712 511.99C452.725 496.429 458.912 481.508 469.916 470.505C480.919 459.501 495.84 453.314 511.401 453.302C521.682 453.257 531.79 455.953 540.684 461.112C549.578 466.27 556.936 473.705 562.003 482.652C565.035 487.706 570.601 491.25 576.678 491.25C586.287 491.25 593.874 483.663 593.874 474.054C593.874 470.498 592.863 467.466 591.353 464.933C575.155 436.094 585.276 399.668 614.126 382.971C619.692 379.938 625.757 377.394 631.834 376.394C641.221 375.293 650.223 372.021 658.126 366.838C666.03 361.655 672.618 354.703 677.369 346.533C694.066 317.694 683.946 280.769 655.107 264.06C626.268 247.363 589.331 257.484 572.634 286.323C567.818 294.441 565.028 303.599 564.498 313.023C563.968 322.448 565.714 331.861 569.59 340.468C571.612 346.533 572.634 352.61 572.634 359.186C572.645 375.12 566.39 390.419 555.218 401.78C544.046 413.141 528.855 419.652 512.923 419.908H510.901C494.97 419.652 479.778 413.141 468.606 401.78C457.435 390.419 451.179 375.12 451.19 359.186C451.19 352.61 452.201 346.533 454.223 340.468C457.855 331.804 459.471 322.427 458.948 313.047C458.424 303.667 455.776 294.529 451.202 286.323C434.47 257.484 397.533 247.363 368.694 264.06C339.867 280.757 329.747 317.694 346.443 346.545C356.552 363.741 373.26 374.373 391.991 376.406C398.056 377.917 404.121 379.938 409.687 382.983C438.026 399.168 448.146 435.606 432.971 463.933C432.46 464.944 431.449 465.955 430.938 467.477C413.742 495.305 377.304 504.426 348.976 488.229C342.9 484.685 337.845 480.63 333.79 475.564C322.659 461.412 305.462 451.791 285.721 451.791C251.828 451.78 224.5 478.597 224.5 512.002C224.5 545.396 251.828 572.224 284.711 572.224C294.023 572.285 303.221 570.166 311.567 566.036C319.914 561.906 327.178 555.88 332.779 548.44C336.834 543.374 341.889 539.33 347.965 535.786C376.293 519.09 412.731 528.699 429.927 556.527C430.438 557.549 430.938 558.56 431.949 560.071C447.135 588.909 437.015 624.836 408.676 641.033C403.11 644.066 397.045 646.599 390.968 647.609C381.579 648.709 372.575 651.98 364.669 657.163C356.764 662.346 350.174 669.299 345.421 677.471C328.736 706.298 338.856 743.235 367.695 759.932C396.534 776.641 433.471 766.52 450.168 737.67C454.982 729.551 457.771 720.392 458.298 710.968C458.826 701.543 457.078 692.13 453.2 683.524C451.176 677.496 450.155 671.176 450.179 664.817C450.179 631.924 476.485 604.595 509.879 604.096H511.901C527.832 604.352 543.024 610.863 554.195 622.224C565.367 633.585 571.623 648.884 571.612 664.817C571.612 671.394 570.589 677.459 568.567 683.524C564.938 692.19 563.327 701.568 563.854 710.948C564.382 720.328 567.034 729.465 571.612 737.67C588.308 766.52 625.246 776.641 654.085 759.932C683.934 743.747 693.543 706.809 676.858 677.97L676.847 677.959Z"
          fill="#29354C"></path>
      </g>
    </svg>