<?xml version="1.0" standalone="no"?>
<!DOCTYPE svg PUBLIC "-//W3C//DTD SVG 20010904//EN"
 "http://www.w3.org/TR/2001/REC-SVG-20010904/DTD/svg10.dtd">
<svg version="1.0" xmlns="http://www.w3.org/2000/svg"
 width="200.000000pt" height="200.000000pt" viewBox="0 0 200.000000 200.000000"
 preserveAspectRatio="xMidYMid meet">

<g transform="translate(0.000000,200.000000) scale(0.100000,-0.100000)"
fill="#000000" stroke="none">
<path d="M849 1991 c-408 -75 -708 -346 -816 -738 -25 -87 -28 -115 -28 -253
0 -138 3 -166 28 -253 99 -357 357 -615 714 -714 87 -25 115 -28 253 -28 138
0 166 3 253 28 357 99 615 357 714 714 25 87 28 115 28 253 0 138 -3 166 -28
253 -98 355 -358 616 -709 713 -73 20 -122 26 -228 29 -74 2 -156 0 -181 -4z
m-318 -757 c-2 -5 -18 -13 -35 -19 l-31 -10 0 -200 0 -200 84 -3 c94 -3 120 7
147 59 22 44 28 30 13 -35 l-12 -56 -190 0 c-105 0 -188 3 -184 6 3 3 20 13
39 22 l33 17 0 194 c0 205 1 200 -48 215 -10 3 -16 9 -14 13 7 11 203 8 198
-3z m1034 -147 c0 -19 6 -22 53 -25 36 -2 52 -7 52 -17 0 -10 -16 -15 -52 -17
l-53 -3 -3 -89 c-4 -114 10 -141 69 -133 46 6 50 -2 10 -26 -43 -25 -86 -22
-110 9 -18 23 -21 41 -21 131 0 98 -1 105 -21 110 -19 5 -17 9 22 49 45 46 53
47 54 11z m-577 -37 c100 -61 94 -218 -10 -271 -49 -25 -121 -23 -163 5 -38
25 -69 98 -60 145 20 110 144 175 233 121z m350 6 c54 -28 75 -62 79 -124 7
-106 -61 -176 -164 -169 -66 5 -100 27 -125 85 -19 41 -20 52 -9 92 27 101
136 159 219 116z"/>
<path d="M846 1027 c-48 -48 -40 -164 14 -219 31 -30 55 -35 93 -17 33 15 47
49 47 112 0 115 -90 187 -154 124z"/>
<path d="M1206 1027 c-48 -48 -40 -164 14 -219 31 -30 55 -35 93 -17 33 15 47
49 47 112 0 115 -90 187 -154 124z"/>
</g>
</svg>
