<?xml version="1.0" encoding="utf-8"?>
<!-- Generator: Adobe Illustrator 24.0.2, SVG Export Plug-In . SVG Version: 6.00 Build 0)  -->
<svg version="1.1" id="katman_1" xmlns="http://www.w3.org/2000/svg" xmlns:xlink="http://www.w3.org/1999/xlink" x="0px" y="0px"
	 viewBox="0 0 124.7 124.7" style="enable-background:new 0 0 124.7 124.7;" xml:space="preserve">
<style type="text/css">
	.st0{clip-path:url(#SVGID_2_);}
	.st1{fill:url(#SVGID_3_);}
	.st2{fill:#FFFFFF;}
	.st3{opacity:0.8;}
	.st4{fill:none;stroke:url(#SVGID_4_);stroke-width:0.8533;stroke-miterlimit:10;}
	.st5{fill:none;stroke:url(#SVGID_5_);stroke-width:0.8533;stroke-miterlimit:10;}
	.st6{fill:none;stroke:url(#SVGID_6_);stroke-width:0.8;stroke-miterlimit:10;}
	.st7{fill:none;stroke:url(#SVGID_7_);stroke-width:0.7466;stroke-miterlimit:10;}
	.st8{fill:none;stroke:url(#SVGID_8_);stroke-width:0.6933;stroke-miterlimit:10;}
	.st9{fill:none;stroke:url(#SVGID_9_);stroke-width:0.6933;stroke-miterlimit:10;}
	.st10{fill:#1D1D1B;}
</style>
<g>
	<g>
		<g>
			<defs>
				<path id="SVGID_1_" d="M62.4,0.6L62.4,0.6c34.1,0,61.7,27.6,61.7,61.7l0,0c0,34.1-27.6,61.7-61.7,61.7l0,0
					C28.3,124,0.7,96.4,0.7,62.3l0,0C0.7,28.2,28.3,0.6,62.4,0.6z"/>
			</defs>
			<clipPath id="SVGID_2_">
				<use xlink:href="#SVGID_1_"  style="overflow:visible;"/>
			</clipPath>
			<g class="st0">
				
					<radialGradient id="SVGID_3_" cx="114.1837" cy="-112.435" r="0.8391" gradientTransform="matrix(0 82.5756 -82.5756 0 -9222.0264 -9360.1387)" gradientUnits="userSpaceOnUse">
					<stop  offset="0.1667" style="stop-color:#073183"/>
					<stop  offset="1" style="stop-color:#0054F9"/>
				</radialGradient>
				<path class="st1" d="M62.4,0.6L62.4,0.6c34.1,0,61.7,27.6,61.7,61.7l0,0c0,34.1-27.6,61.7-61.7,61.7l0,0
					C28.3,124,0.7,96.4,0.7,62.3l0,0C0.7,28.2,28.3,0.6,62.4,0.6z"/>
				<g>
					<path class="st2" d="M104.3,43c-0.3,1.5-0.6,2.2-0.9,3.1l0,0c-0.4,0.9-0.8,2-1.2,4c-0.2,0.8-0.2,1.4-0.3,2l0,0l0,0
						c-0.1,0.9-0.2,1.4-0.5,2.5c-0.3,0.8-0.8,2.2-1.9,3.7c-0.9,1.2-2.5,3.3-4.5,3.5c-0.2,0-0.6,0-0.7,0c-5.8-3-10.8-5.2-12.6-5.7
						c-2-0.6-1.8-5-1.5-8.8c0.1-1.7,0.2-3.4,0.1-4.8c-0.3-4.9-1.1-10.2-5.4-12.9c-2.5-1.6-5.8-2-9-2c0.6-0.3,1.2-0.7,1.9-1.1l0,0
						c1.8-1.1,4.1-2.4,6.4-2.6c0.7-0.1,1.5-0.2,2.2-0.2c4.6-0.5,8.6-1,12.7,0.5c1.9,0.7,5.8,2.8,6.8,4.8c0.7,1.4,1.9,2.5,4.3,4.7
						c1.2,1.2,2.1,1.8,2.7,2.3l0,0c0.8,0.7,1,0.8,1.3,1.3C105,39,104.7,40.7,104.3,43z"/>
					<path class="st2" d="M83,63.1c0.3,0.1,0.5,0.5,0.3,0.8c-0.6,0.9-1.3,2.2-2.1,3.7c-0.4,0.7-0.8,1.5-1.1,2
						c-1.1,1.9-1.2,3.6-1.3,4.9c-0.1,1.4-0.1,2-1,2.5c-0.7,0.5-1.4,0.6-6.2,1.3c-0.8,0.1-1.2,0.3-1.5,0.4c-0.1,0-0.1,0-0.2,0.1
						c-0.3,0.1-0.7-0.1-0.6-0.5c0-0.7,0.1-1.5,0.1-2.5v-0.2c0-0.9,0-1.7,0-2.3c-0.1-1.2-0.1-1.7,0.3-2.3s0.7-0.8,1.2-1.2
						c0.7-0.5,1.7-1.1,3.2-3.1c0.8-1.1,0.9-1.6,1.1-2.1c0-0.2,0.1-0.3,0.7-0.7c0.6-0.5,2.5-1.9,5-1.5C81.3,62.5,82.2,62.8,83,63.1
						L83,63.1z"/>
					<path class="st2" d="M64.1,85.2c-0.1,0.1-0.2,0.2-0.4,0.2c-0.5,0-0.9-0.1-1.1-0.4c-0.5-0.6-0.4-1.8-0.3-2.5l2-0.5
						C64.4,83.1,64.5,84.6,64.1,85.2z"/>
					<path class="st2" d="M64.2,77.9c0,0.3-0.1,0.6-0.1,1c0,0.1,0,0.3,0,0.4c0,0.3,0,0.9,0,1.1c-0.6,0.2-1.2,0.2-1.9,0.2
						c0-0.2,0-0.5,0-0.7s0-0.3,0-0.5s0-0.3,0-0.5c0-0.4,0-1,0.1-1.2c0.2,0,0.4-0.1,0.6-0.1c0.4-0.1,1-0.2,1.3-0.2
						C64.3,77.5,64.2,77.7,64.2,77.9z"/>
					<path class="st2" d="M60.5,84.6c-0.1,1-0.4,2.3-1.4,2.5c-0.4,0.1-0.7,0-0.8-0.2c-0.7-0.6-0.8-2.5-0.7-3.8c0.4,0,1-0.1,1.7-0.2
						c0.4-0.1,0.8-0.2,1.2-0.2C60.5,83.2,60.5,83.9,60.5,84.6z"/>
					<path class="st2" d="M60,80.9l-2.2,0.7c0.1-0.9,0.3-2.1,0.3-2.9c0-0.6,0.2-0.7,0.2-0.8c0,0,0,0,0.1,0l0,0l0,0l1.4-0.1
						C60,78.6,60,80,60,80.9z"/>
					<path class="st2" d="M56.5,80.2c-0.1,0.3-0.3,1.3-0.4,1.9L53.3,82c0.2-0.9,0.4-1.7,0.6-2.4s0.5-1.2,0.7-1.3
						c0.3-0.2,0.9-0.2,1.3,0.1C56.5,78.9,56.7,79.5,56.5,80.2z"/>
					<path class="st2" d="M55.4,88.6c-0.2,0.3-0.5,0.4-0.7,0.5c-0.3,0-0.5,0-0.7-0.2c-0.9-0.8-0.8-3.4-0.8-4.7
						c1.1-0.3,2.4-0.5,3-0.5C56.3,84.7,56.3,87.5,55.4,88.6z"/>
					<path class="st2" d="M51.8,81.9c-0.1,0.4-0.3,0.7-0.4,1c-0.3,0.1-1.3,0-2.3-0.2l0.7-4.3c1.1-0.3,2.4-0.4,2.8-0.1
						C53,78.8,52.2,81,51.8,81.9z"/>
					<path class="st2" d="M50.6,89.3c-0.5,0.7-1.3,1-2.5,1c-0.8,0-1.1-0.3-1.2-0.5c-0.6-1,0-3.3,0.6-4.8l3.7,0.2
						c0,0.3,0.1,0.6,0.1,0.9C51.4,87.1,51.3,88.4,50.6,89.3z"/>
					<path class="st2" d="M81.4,57.8c-3.4-1-3.1-5.9-2.8-10.6c0.1-1.7,0.2-3.3,0.1-4.6c-0.3-4.4-1-9.3-4.6-11.5
						c-3.8-2.4-10.1-1.8-14-1.3l0,0l0,0c-1.4,0.4-2.8,0.7-3.8,0.7c-2.3-0.1-4.1-1.1-5.6-1.9c-1.2-0.7-2.3-1.2-3.3-1.2
						c-0.1,0-0.1,0-0.2,0c-3,0.2-4.4,0.9-5.6,2.1c-0.3,0.3-0.7,1.1-2,4.7C39,36,38.8,37,38.7,38c-0.1,0.9-0.2,1.8-0.7,3.2
						c-0.3,0.9-0.6,1.8-0.8,2.5c-0.6,2.1-1.1,3.7-2.6,5.7c-0.2,0.2-0.4,0.6-0.6,1c-0.3,0.5-0.7,1.2-1.3,1.9
						c-0.4,0.5-1.3,2.5-1.2,3.1c0.1,1,0.4,1.6,0.7,2.3c0.4,0.7,0.8,1.5,0.8,2.6v0.2c0.1,1.7-0.1,2.6-3.4,5.5c-2.1,1.9-3.6,3.7-4.6,5
						c-0.1,0.1,0,0.3,0.2,0.3h0.1c0.1,0,0.1,0,0.2,0s0.1,0,0.2,0s0.1,0,0.2,0c0.8,0.1,1.6,0.4,2.1,1c0.1,0.1,0.2,0.1,0.4,0.1
						c0.5-0.2,1.1-0.2,1.7-0.1c0.7,0.1,1.3,0.3,1.8,0.7c0.2,0.2,0.4,0.2,0.6,0.2c0.5-0.1,1.1-0.1,1.6,0.1c0.4,0.1,0.7,0.4,1,0.6
						c0.2,0.3,0.7,0.3,1,0.1c0.1-0.1,0.3-0.1,0.4-0.2c0.7-0.2,1.5-0.1,2.2,0.1c0.3,0.1,0.7,0.2,1,0.4c0.5,0.3,0.8,0.8,1.1,1.4
						c0.2,0.4,0.7,0.6,1.1,0.3s0.8-0.4,1.2-0.2c0.1,0.1,0.3,0.2,0.4,0.3c0.3,0.3,0.7,0.6,1.1,0.5c1.1-0.3,2.4-0.1,3.3,0.4
						c0.4,0.2,0.7,0.5,1,0.9l0,0l0,0v-0.2c0-0.1,0.1-0.2,0.2-0.2l0.2-0.1c0.5-0.2,3.3-1,4.4,0.2c0,0,0.1,0.1,0.2,0
						c0.1-0.2,0.3-0.2,0.3-0.3c0.7-0.4,1.9-0.5,2.7,0.2c0.2,0.1,0.4,0.1,0.5-0.1c0.1-0.1,0.2-0.2,0.3-0.3c0.3-0.2,0.6-0.4,1-0.3
						l1.5-0.1c0.4,0,1.6-0.1,2-0.2h0.1c0.2,0,0.3-0.1,0.5-0.1c0.7-0.2,1.6-0.3,2.3,0c0.7,0.3,0.6,1.1,0.5,1.7c0,0.3-0.1,0.6-0.1,0.8
						c0,0.1,0,0.3,0,0.4c0,0.6,0,1.1-0.1,1.5l0,0l0,0l0.1,0.3c0.1,0.3,0.4,0.5,0.7,0.3c0.5-0.3,1-0.7,1.2-1c0,0,0,0,0-0.1
						s0.1-0.2,0.1-0.5c0.1-0.6,0.2-1.7,0.2-4.1c0-0.1,0-0.2,0-0.3c0-0.9,0-1.6,0-2.2c-0.1-1.3-0.1-2.3,0.5-3.3s1.2-1.4,1.8-1.7
						c0.7-0.4,1.4-0.9,2.7-2.6c0.6-0.9,0.7-1.2,0.8-1.5c0.1-0.6,0.3-1,1.3-1.8c0.8-0.6,3.1-2.4,6.3-1.8c1,0.2,2.7,0.7,4.4,1.4l0,0
						l0,0c0.1,0,0.1,0,0.2,0.1h0.1c1.5,0.6,2.9,1.2,3.8,1.7c0.3,0.1,0.6,0.1,0.8-0.2c0.3-0.3,0.6-0.6,0.9-0.8
						c0.1-0.1,0.2-0.1,0.3-0.2c0.3-0.3,0.3-0.8-0.1-1C87,59.5,82.8,58.2,81.4,57.8L81.4,57.8z M49.4,58.8c-1,4.5-8.1,9.6-11.3,9.6
						H38c-0.1,0-0.1,0-0.2,0s-0.1,0-0.2,0h-0.1c-0.6-0.2-1.4-0.6-2-1.2c-0.4-0.4-0.7-0.9-0.9-1.4c0-0.1,0-0.2-0.1-0.3
						c-0.2-0.8-0.4-1.7,0.3-3.3c0.1-0.2,0.2-0.4,0.3-0.6c0-0.1,0.1-0.1,0.1-0.2c0.1-0.2,0.1-0.3,0.2-0.5s0.2-0.4,0.2-0.6
						c0-0.1,0.1-0.1,0.1-0.2c0.2-0.5,0.2-0.8,0.2-1s0-0.4,0.1-0.7c0.2-0.9,0.3-1.6,0.4-2.2c0.2-1.2,0.3-2.2,0.9-3.1
						c0.1-0.2,0.2-0.3,0.4-0.4l0.1-0.1l0.1-0.1c0.2-0.1,0.3-0.2,0.5-0.3c0.1,0,0.1-0.1,0.2-0.1S38.9,52,39,52c0.6-0.1,1.3-0.2,2-0.1
						c0.9,0.1,1.6,0.2,2.3,0.4c0.6,0.2,1.1,0.3,1.5,0.5c0,0,0.1,0,0.1,0.1c0.1,0,0.2,0.1,0.2,0.1c0.1,0.1,0.2,0.1,0.3,0.1
						c0.1,0.1,0.3,0.1,0.4,0.2h0.1c0.5,0.2,0.9,0.5,1.3,0.7c0.2,0.1,0.3,0.3,0.5,0.4c0.1,0,0.1,0.1,0.1,0.1l0.1,0.1
						C49.7,56.2,49.6,57.8,49.4,58.8z M52.7,41.6l-0.1,0.8c-0.3,1.9-1,4.4-3.7,5.1c-2.6,0.6-3.2,0.8-5,0.8h-0.1
						c-1.3,0-3.9-0.8-4.4-2.9c-0.3-1.4,0.3-2.3,1.3-4c0.2-0.3,0.3-0.6,0.5-0.9c1.3-2.2,1.8-3.8,2.2-5c0.4-1.2,0.7-2.3,1.6-3.1
						c0.2-0.2,0.4-0.4,0.7-0.6c0.2-0.1,0.3-0.2,0.5-0.3s0.5-0.2,0.8-0.3c0.6-0.2,1.2-0.3,1.9-0.3c1.2,0,2.5,0.4,3.4,1.1
						c0.4,0.3,1,1,1.3,2.9C53.6,35.8,53.3,37.6,52.7,41.6z M71.8,46.9c-0.9,1.6-1.4,2.5-2.2,3.1c-1.6,1.3-3.4,1.6-4.9,1.6
						c-1.1,0-2-0.2-2.6-0.3c-1.6-0.3-4.5-0.8-5.5-3.1c-0.2-0.5-0.2-0.7-0.2-1.1c0-0.4,0-1-0.2-2.4v-0.1c-0.1-0.7-0.2-1.4,0-2.4v-0.1
						c0.5-2.8,0.7-3.2,0.8-3.5c0.3-0.5,1-0.8,1.5-0.5s0.8,0.9,0.5,1.5c-0.1,0.2-0.2,0.8-0.6,2.9v0.1c-0.1,0.6-0.1,1.1,0,1.7v0.1
						c0.2,1.6,0.2,2.3,0.2,2.7c0,0.1,0,0.1,0,0.2c0,0,0,0,0,0.1c0.2,0.4,0.5,0.7,0.9,0.9s0.8-0.2,0.7-0.6c-0.5-2.4-0.4-5.2,0.5-6.9
						c0.3-0.6,0.9-1.6,1.4-2.5l0,0l0,0c0.1-0.1,0.1-0.2,0.2-0.3c0-0.1,0.1-0.2,0.1-0.2c0.2-0.4,0.5-0.8,0.6-1c0,0,0-0.1,0.1-0.1
						c0,0,0-0.1,0.1-0.1c0-0.1,0.1-0.1,0.1-0.2c0,0,0,0,0-0.1l0,0v-0.1l0.1-0.1l0,0l0,0l0,0c0.1-0.2,0.3-0.4,0.4-0.6
						c0.3-0.4,0-0.9-0.5-0.7c-0.8,0.4-1.3,0.8-1.4,0.8c-0.5,0.4-1.2,0.3-1.6-0.2s-0.3-1.2,0.2-1.6c0.6-0.5,3.6-2.7,7.3-1.6
						c2.6,0.7,4,2.8,4.5,3.5c0.4,0.6,1.7,2.5,1.7,5.1C74.1,42.8,73.3,44.3,71.8,46.9L71.8,46.9z"/>
					<path class="st2" d="M48,33.2c-0.2,0.5-0.4,1-0.7,1.6c-0.6,1.4-1.2,3-1.5,3.6c-0.5,1-0.9,1.6-1.3,2.1c-0.4,0.6-0.7,1-0.9,1.7
						c-0.4,1.1-0.5,2.4-0.2,3.8c-0.7-0.1-1.8-0.6-2-1.2c-0.1-0.5,0.2-0.9,1-2.3c0.2-0.3,0.3-0.6,0.5-0.9c1.4-2.4,2-4.2,2.4-5.5
						c0.5-1.4,0.7-2,1.4-2.5C47.2,33.5,47.6,33.3,48,33.2z"/>
					<path class="st2" d="M46.6,83.6c-0.8,1.6-1.7,3-2.3,3.8c-0.5-1.3-1.4-4.4-1.1-6.9c0-0.1,0-0.1,0-0.2c0.1-0.8,0.3-1.5,0.7-2
						c0.2-0.4,0.9-0.6,1.7-0.6c0.6,0,1.2,0.1,1.7,0.4l0,0c0.3,0.1,0.7,0.5,0.7,1.3C47.9,80.5,47.4,82.1,46.6,83.6z"/>
					<path class="st2" d="M89.2,65.8c0.1,0,0.1,0.1,0.1,0.2c-0.2,0.5-0.5,0.8-0.8,1.2c-0.4,0.5-0.8,1-1.3,1.8
						c-0.6,1.2-0.8,2.3-0.9,5c-0.1,3.2,0,5.1,0.1,6.4c0.1,1.3,0.1,2.1-0.1,3.3c-0.5,2.5-1.5,4.2-2.9,6.3c-1.7,2.6-3.5,5.4-6.4,6.3
						c-0.3,0.1-0.3,0.1-1,0.1s-1.8,0-3.9,0.1c-3.8,0.1-5.8,0.2-7.4,0.5c-1.7,0.3-2.6,0.7-3.5,1.1c-0.8,0.3-1.5,0.6-3,0.9
						c-0.8,0.2-2.1,0.4-6.4,0.4c-4.5,0-7.2,0-10.8-0.4c-4.9-0.6-7.4-0.8-9-1.7c-3.9-2.1-5.5-5.8-8.2-11.9l0,0c0-0.1,0.1-0.2,0.1-0.1
						c0.1,0.1,0.3,0.1,0.4,0.2c0.1,0,0.2,0.1,0.4,0.1c0.2,0,0.5,0,0.8,0h0.1l0,0h0.1c0.2,0.5,0.4,0.9,0.9,1.1c0.5,0.2,1,0.3,1.5,0.3
						s1.1,0,1.6-0.1c0.3,0,0.6,0.1,0.7,0.4c0.5,1.2,1.1,2,2,2.1c0,0,0.1,0,0.2,0c0.2,0,0.4,0,0.8-0.3s1.1-0.1,1.4,0.3
						c0.2,0.2,0.4,0.4,0.6,0.5c0.9,0.9,3.2,1.4,5,1.4c1,0,1.9-0.1,2.5-0.4c0.8-0.4,0.8-1,0.7-1.2c-0.1-0.4-0.1-0.8-0.2-1.2
						c0,0,0.1-0.1,0.1,0c0.1,0.2,0.2,0.6,0.6,0.6h0.1c0.5,0,1.3,0.2,1.5,0.7c0.1,0.3,0.2,0.5,0.3,0.7c0.3,0.5,1,1.1,2.2,1.1h0.1
						c1.5,0,2.6-0.5,3.3-1.4c0-0.1,0.1-0.1,0.1-0.2c0.3-0.4,1.1-0.4,1.4-0.1c0.4,0.4,0.9,0.5,1.4,0.5c0.1,0,0.2,0,0.3,0
						c0.7-0.1,1.2-0.4,1.6-1c0.3-0.4,0.5-0.9,0.6-1.4c0-0.2,0.3-0.2,0.4-0.1c0.3,0.3,0.7,0.5,1.4,0.5c0.2,0,0.3,0,0.5-0.1
						c1.3-0.3,1.9-1.3,2.2-2.5c0,0,0.1-0.1,0.1,0c0.3,0.4,0.9,0.8,1.9,0.8c0.1,0,0.1,0,0.2,0c0.5,0,1-0.3,1.3-0.7
						c0.4-0.5,0.6-1.3,0.6-2c0-0.3,0.2-0.5,0.5-0.6c1.1-0.5,2.3-1.4,2.7-2.1l0,0c0.1-0.2,0.3-0.4,0.5-0.4c0.8-0.2,1.2-0.3,1.5-0.5
						c0.3-0.1,0.5-0.2,1.1-0.3c4.9-0.7,5.8-0.9,6.9-1.6c1.6-1.1,1.7-2.5,1.7-3.9c0.1-1.2,0.1-2.5,1.1-4.1c0.3-0.6,0.7-1.3,1.1-2.1
						c0.7-1.3,1.7-3.1,2.4-4.1c0.2-0.2,0.5-0.3,0.7-0.2C87.5,64.8,88.9,65.5,89.2,65.8L89.2,65.8z"/>
					<path class="st2" d="M41.9,80.3c-0.2,1.7-0.3,3.9,0,6.9c0.1,0.8,0.2,1.7,0.3,2.6c-0.2,0.1-0.9,0.3-2.1,0.3c-1.8,0-3.5-0.5-4-1
						L36,89c-0.4-0.3-0.7-0.6-0.7-1.2c0-0.2,0.1-0.4,0.3-0.7c0.1-0.2,0.2-0.4,0.4-0.6c0.3-0.4,0.7-0.9,1-1.5c1.1-1.9,1.5-2.4,2-3.2
						c0-0.1,0.1-0.1,0.1-0.2c0.3-0.4,0.7-0.9,1.2-1.8c0.4-0.6,0.8-1.1,1-1.5c0.5-0.6,0.8-1,1-1.2c0,0.3-0.1,0.7-0.2,1.1
						C42.1,78.7,42,79.4,41.9,80.3L41.9,80.3z"/>
					<path class="st2" d="M41.1,54.1L41.1,54.1c-0.3,0.4-0.5,0.7-0.8,1.4c-0.8,1.9-0.9,2.9-0.9,3.8c0,0.4,0,0.8-0.1,1.2
						c-0.1,0.3-0.2,0.6-0.4,0.9C38.4,62.5,37.8,64,38,66c-0.4-0.2-1-0.6-1.1-0.9c0-0.1,0-0.2-0.1-0.3c-0.1-0.6-0.2-1,0.2-1.9
						c1-2.4,1.2-3,1.3-3.6c0-0.1,0-0.3,0.1-0.4c0.2-0.9,0.3-1.8,0.4-2.4c0.1-1,0.2-1.6,0.6-2.1c0.1-0.2,0.5-0.3,1-0.3
						C40.6,54.1,40.8,54.1,41.1,54.1L41.1,54.1C41,54.1,41.1,54.1,41.1,54.1z"/>
					<path class="st2" d="M39.7,77.8c-0.1-0.6-0.2-1.2-0.4-1.7l-0.1-0.2c0-0.1-0.1-0.1-0.1-0.2l0,0l0,0c0,0,0-0.1-0.1-0.1l-0.1-0.1
						l0,0c0,0,0,0-0.1,0c0,0-0.1,0-0.1-0.1c0,0,0,0-0.1,0l0,0l0,0l0,0l0,0l0,0l0,0c-0.3-0.1-0.7-0.3-1-0.3l0,0l0,0h-0.1h-0.1
						c0,0,0,0-0.1,0l0,0l0,0l0,0l0,0c-0.1,0-0.2,0-0.2,0.1c0,0-0.1,0-0.1,0.1c0,0-0.1,0-0.1,0.1l0,0l0,0l-0.1,0.1c0,0,0,0.1-0.1,0.1
						l0,0l0,0l0,0l0,0l0,0c-0.1,0.2-0.3,0.4-0.4,0.6c-0.3,0.5-0.7,1-1,1.5c-0.3,0.4-0.6,0.9-0.9,1.3c-0.2,0.2-0.3,0.5-0.5,0.7
						l-0.1,0.1c0.2,0,0.4,0.1,0.6,0.1c0.5,0.1,0.9,0.2,1.4,0.2c0.9,0.1,1.9,0.2,2.9,0.2h0.1c0.2-0.3,0.5-0.7,0.8-1.2
						c0.2-0.3,0.4-0.6,0.5-0.8C39.8,78.1,39.7,78,39.7,77.8L39.7,77.8z"/>
					<path class="st2" d="M36.4,81.7c-0.1,0.7-0.9,2.6-2.2,4.4c-1.1,1.5-1.7,1.9-1.8,1.9c-0.5-0.1-1-1.3-1.4-2.6
						c-0.2-0.5-0.3-1-0.4-1.4c-0.3-1-0.3-2.2-0.3-3c1.1,0.6,2.9,0.8,5.6,0.8l0,0C36,81.7,36.2,81.7,36.4,81.7z"/>
					<path class="st2" d="M34.5,75.7L34.5,75.7C34.5,75.8,34.5,75.8,34.5,75.7c-0.5,0.7-0.9,1.4-1.4,2.1c-0.2,0.3-0.5,0.7-0.7,1
						c-0.1,0.2-0.3,0.4-0.4,0.6c-0.4-0.1-0.8-0.2-1.1-0.3c-0.3-0.1-0.6-0.2-0.9-0.3c-0.1,0-0.1,0-0.2-0.1c0-0.1-0.1-0.2-0.2-0.3l0,0
						c0.1-0.2,0.2-0.4,0.3-0.7c0.2-0.4,0.4-0.8,0.6-1.2c0.4-0.7,0.9-1.4,1.6-1.9c0,0,0.1,0,0.1-0.1c0.3-0.2,0.5-0.3,0.9-0.3
						c0,0,0.3,0,0.4,0l0,0l0,0l0,0c0.1,0,0.2,0,0.2,0.1h0.1c0.1,0,0.1,0.1,0.2,0.1c-0.1-0.1,0.1,0.2,0.1,0.2
						C34.4,75.1,34.4,75.4,34.5,75.7z"/>
					<path class="st2" d="M30.9,73.8c-0.8,0.7-1.4,1.6-2,2.6c-0.3,0.5-0.5,1.1-0.8,1.6c0,0.1-0.1,0.1-0.1,0.2
						c-0.3-0.1-0.5-0.1-0.8-0.2c-0.3-0.1-0.5-0.2-0.8-0.3c-0.1-0.1-0.2-0.1-0.3-0.2c0.3-0.5,0.6-0.9,0.8-1.4
						c0.4-0.6,0.8-1.2,1.3-1.8c0.2-0.2,0.4-0.5,0.6-0.6c0.3-0.2,0.6-0.1,0.9-0.1s0.6,0,0.9,0.1C30.8,73.8,30.9,73.8,30.9,73.8z"/>
					<path class="st2" d="M29.6,85.1l-0.1,0.1h-0.1c-0.2,0-0.4,0-0.6,0c-0.4,0-0.8,0-1.2,0c-0.2,0-0.4,0-0.5-0.2s-0.2-0.6-0.2-0.9
						c-0.3-1.4-0.3-2.9-0.1-4.4c0.7,0.3,1.5,0.5,2.3,0.6c-0.2,1.3,0.1,3.2,0.3,3.8C29.4,84.6,29.5,84.8,29.6,85.1z"/>
					<path class="st2" d="M27.2,73.4c-0.7,0.8-1.3,1.7-1.8,2.6c-0.2,0.4-0.5,0.7-0.6,1.1c-0.3-0.1-0.5-0.2-0.8-0.3
						c-0.2-0.1-0.4-0.3-0.6-0.4c0,0-0.2-0.1-0.2-0.2c0,0,0,0-0.1,0c0.1-0.2,0.2-0.4,0.2-0.5c0.1-0.3,0.3-0.6,0.5-0.9
						c0.3-0.5,0.7-1.1,1-1.6c0.1-0.2,0.3-0.4,0.5-0.5s0.5,0,0.6,0C26.5,72.8,26.8,73,27.2,73.4L27.2,73.4z"/>
					<path class="st2" d="M22.1,76.9L22.1,76.9c0.3,0.2,0.5,0.4,0.8,0.6c0.1,0.1,0.2,0.2,0.3,0.3c0,0,0,0,0,0.1
						c-0.3,1.1-0.5,2.3-0.5,3.4c0,0.1-0.1,0.1-0.1,0C22.3,79.9,21.8,77.7,22.1,76.9z"/>
					<path class="st2" d="M25.3,79.4c-0.1,1-0.2,2-0.2,3c0,0.5,0.1,1.1,0.2,1.6l0,0l0,0c-0.1,0-0.2,0-0.4,0c0,0,0,0-0.1,0l0,0
						c0,0,0,0-0.1,0s-0.2,0-0.3-0.1c-0.1-0.1-0.3-0.3-0.4-0.4c-0.3-0.5-0.3-1-0.3-1.5c0-1,0-2,0.2-3.1c0.2,0.1,0.3,0.1,0.5,0.2
						C24.8,79.2,25.1,79.3,25.3,79.4L25.3,79.4L25.3,79.4z"/>
				</g>
				<g class="st3">
					
						<linearGradient id="SVGID_4_" gradientUnits="userSpaceOnUse" x1="112.8159" y1="169.4473" x2="254.1644" y2="317.8" gradientTransform="matrix(1 0 0 1 -120.9449 -182.6391)">
						<stop  offset="0.2057" style="stop-color:#89D0FF"/>
						<stop  offset="0.3984" style="stop-color:#EBBF9A"/>
						<stop  offset="0.6015" style="stop-color:#EB8280"/>
						<stop  offset="0.8411" style="stop-color:#A281FF"/>
					</linearGradient>
					<path class="st4" d="M51.5,131.2c-4.5,0-8.8-0.3-12.4-0.6l-1-0.1l-1-0.1c-0.4-0.1-1-0.1-1.6-0.2c-3.5-0.4-9.9-1.1-17-4.4
						l-1.1-0.5l-1-0.6C2.8,117.1-2.4,105.5-5.1,99.4c-0.2-0.4-0.4-0.9-0.6-1.3c-1.4-2.8-2.3-5.4-3-7.7l-0.2-0.5L-9,89.4
						c-2-7-2.5-13.1-1.6-19.1s3.1-11.5,7-17.3l2-3.3c0.4-0.7,0.7-1.4,0.9-2.2c1.5-7.6,5-13,6.7-15.6c0.5-3.1,1.2-6.2,2.3-9.1
						l0.2-0.4L8.7,22c0-0.1,0.1-0.2,0.1-0.4c0.8-2.3,2.6-7.7,7.2-13.4l1.7-2.1l1.8-1.6c4.5-4.1,9.9-7.2,15.8-8.9
						c3.3-1,6.7-1.6,10.1-1.8h0.3h0.5c0.6,0,1.2,0,1.8,0c2.1,0,4.3,0.2,6.4,0.5c1.3,0.2,2.7,0.1,3.9-0.4c3.6-1.5,7.5-2.5,11.4-3.1
						c0.3,0,0.6-0.1,0.8-0.1c0.6-0.1,1.6-0.2,2.8-0.3C75.4-9.8,78.5-10,82-10c6.7,0,12.5,0.9,17.7,2.7l0.4,0.2l0.4,0.2
						c11.4,4.3,17.2,10.3,21.4,15.7l0.2,0.3l0.6,0.5c3.8,3,7,6.6,9.5,10.7l0.8,1.3l0.7,1.3c5.6,11.4,3.8,21.9,3.1,25.9V49
						c-0.5,2.9-1.2,5.8-2.3,8.5c-0.4,2.7-1,5.3-1.9,7.8c-1.5,4.5-3.7,8.8-6.5,12.7c-1.6,2.3-3.4,4.4-5.5,6.4
						c-0.7,0.7-1.2,1.6-1.3,2.6c-0.1,0.6-0.2,1.2-0.3,1.8c-1.6,8.8-5.5,14.9-7,17.3l-4.7,6.8c-5.7,7.1-12.5,11.8-20.7,14.3l-2,0.6
						l-2.1,0.4c-2.5,0.4-4.9,0.6-7.4,0.6c-0.3,0-0.7,0-1.1,0h-0.2h-0.4h-0.5l0,0c-0.9,0-1.9,0.2-2.8,0.5
						C64.8,130.4,58.8,131.2,51.5,131.2L51.5,131.2z"/>
					
						<linearGradient id="SVGID_5_" gradientUnits="userSpaceOnUse" x1="118.4444" y1="175.6942" x2="248.751" y2="313.0179" gradientTransform="matrix(1 0 0 1 -120.9449 -182.6391)">
						<stop  offset="0.2057" style="stop-color:#89D0FF"/>
						<stop  offset="0.3984" style="stop-color:#EBBF9A"/>
						<stop  offset="0.6015" style="stop-color:#EB80DA"/>
						<stop  offset="0.8411" style="stop-color:#A281FF"/>
					</linearGradient>
					<path class="st5" d="M51.5,126.5c-4.3,0-8.5-0.3-12-0.6l-0.8-0.1l-0.8-0.1c-0.5-0.1-1.1-0.1-1.8-0.2c-3.4-0.4-9-1-15.2-3.9
						l-0.9-0.4l-0.9-0.5c-12-6.8-16.5-16.8-19.2-22.8c-0.2-0.4-0.4-1-0.6-1.4c-1.2-2.5-2.1-4.9-2.7-7.1L-3.5,89l-0.1-0.4
						C-5.4,82.3-5.8,77-5,71.8s2.8-10,6.2-15.1l2.6-4.2c0.5-0.7,0.8-1.6,0.9-2.4c1.3-7.2,4.7-12.2,6.2-14.5l0.2-0.3l0.1-0.1
						c0-0.1,0.1-0.1,0.1-0.2c0.1-0.3,0.2-0.6,0.3-0.9c0.4-2.9,1.1-5.8,2.1-8.6l0.1-0.4l0-0.5c0-0.1,0.1-0.2,0.2-0.6
						c0.7-2.2,2.3-6.8,6.2-11.7l1.4-1.8l1.5-1.3C27,5.6,31.7,3,36.8,1.5c2.9-0.9,5.9-1.4,8.9-1.6H46h0.4c0.5,0,1,0,1.5,0
						c2.2,0,4.3-0.6,6.4-0.2c1.6,0.3,3.3,0.2,4.9-0.5c2.9-1.3,6.7-1.8,11.1-2.3c0.3,0,0.6-0.1,0.8-0.1c0.6-0.1,1.5-0.2,2.6-0.3
						c1.9-0.2,4.9-0.4,8.2-0.4c6.1,0,11.3,0.8,15.9,2.4l0.4,0.1l0.4,0.1c10.1,3.8,15.1,8.9,19,13.9c0.2,0.3,0.4,0.6,0.5,0.7l0.1,0.1
						l0.7,0.7l0.1,0.1c3.4,2.6,6.2,5.8,8.4,9.4l0.6,1.1l0.6,1.1c4.8,9.8,3.3,18.7,2.7,22.5v0.2c-0.5,2.8-1.2,5.5-2.2,8.1
						c-0.3,2.5-0.9,5-1.7,7.5c-1.3,4-3.2,7.8-5.7,11.2c-1.7,2.4-3.6,4.6-5.8,6.5c-1,0.9-1.6,2.2-1.8,3.5c-0.1,1-0.2,2-0.4,2.9
						c-1.4,7.7-4.8,13.1-6.4,15.5l-3.8,5.6c-5.1,6.6-11.1,10.8-18.5,13.1l-1.7,0.5l-1.8,0.3c-2.1,0.4-4.3,0.6-6.5,0.6
						c-0.3,0-0.6,0-1,0h-0.1h-0.2c0,0-0.1,0-0.2,0h-0.4h-0.4h-0.8c-1,0-2,0.2-3,0.5C64.1,125.8,58.4,126.5,51.5,126.5L51.5,126.5z"
						/>
					
						<linearGradient id="SVGID_6_" gradientUnits="userSpaceOnUse" x1="123.9892" y1="181.2026" x2="243.2529" y2="307.4948" gradientTransform="matrix(1 0 0 1 -120.9449 -182.6391)">
						<stop  offset="0.2057" style="stop-color:#89D0FF"/>
						<stop  offset="0.3984" style="stop-color:#EBBF9A"/>
						<stop  offset="0.6015" style="stop-color:#EB8280"/>
						<stop  offset="0.8411" style="stop-color:#A281FF"/>
					</linearGradient>
					<path class="st6" d="M51.5,121c-4.1,0-8.2-0.3-11.5-0.5l-0.7-0.1l-0.7-0.1c-0.6-0.1-1.3-0.2-1.9-0.2c-3.2-0.3-8.1-0.9-13.5-3.4
						l-0.7-0.3l-0.7-0.4C11.4,110.1,7.5,101.5,5,95.8c-0.2-0.5-0.5-1-0.7-1.6c-1.1-2.2-1.8-4.4-2.5-6.4l-0.1-0.3l-0.1-0.3
						c-1.5-5.5-2-10.1-1.3-14.5c0.7-4.5,2.4-8.6,5.5-13.1l0.4-0.5l0.4-0.5c0.3-0.3,0.5-0.6,0.7-0.9l1.6-2.8c0.5-0.9,0.9-1.9,1-3
						c1-6.4,4.1-11,5.5-13.1l0,0c0.1-0.1,0.2-0.3,0.2-0.4l0.3-0.5c0.1-0.3,0.3-0.6,0.4-1c0.1-0.4,0.3-1,0.5-1.5c0.3-2.7,1-5.4,1.9-8
						l0.1-0.3l0.1-0.3c0.1-0.3,0.2-0.5,0.3-0.9c0.7-2,1.9-5.8,5.3-10l1.2-1.4l1.2-1.1c3.3-3,7.3-5.3,11.6-6.6
						c2.5-0.7,5.1-1.2,7.7-1.3h0.2h0.3c0.4,0,0.8,0,1.2,0c2.2,0,4.5,0.3,6.6,0.8c1.9,0.5,3.9,0.3,5.6-0.6c2.8-1.3,6.5-2.8,10.9-3.3
						c0.3,0,0.6-0.1,0.8-0.1c0.5-0.1,1.4-0.2,2.5-0.3c1.8-0.2,4.6-0.4,7.6-0.4C87.4,1.6,92,2.3,96,3.7l0.3,0.1l0.3,0.1
						c9.3,3.5,13.5,8.1,16.6,12.1c0.7,0.9,0.8,1,1.3,1.5l0.6,0.5l0.2,0.2c1.5,1.2,4.7,3.6,7.4,8.1l0.5,0.9l0.4,0.9
						c4,8.2,2.8,15.6,2.2,19.2v0.2c-0.4,2.6-1.2,5.2-2.2,7.6v0.2c-0.3,2.3-0.8,4.6-1.5,6.9c-1.1,3.5-2.8,6.8-5,9.8
						c-1.8,2.6-4,4.9-6.5,6.9c-0.6,0.5-1.1,1.1-1.4,1.7c-0.3,0.7-0.5,1.4-0.6,2.2c-0.1,1.5-0.2,2.9-0.5,4.4
						c-1.2,6.7-4.2,11.4-5.7,13.7l-3,4.4c-4.5,6-9.8,9.9-16.2,11.8l-1.3,0.4l-1.4,0.2c-1.8,0.3-3.7,0.5-5.5,0.5c-0.3,0-0.6,0-0.9,0
						H74h-0.3c-0.1,0-0.2,0-0.6,0h-0.3h-0.3l-1.5,0.1c-1.1,0-2.1,0.2-3.2,0.6C63.4,120.3,58.1,121,51.5,121L51.5,121z"/>
					
						<linearGradient id="SVGID_7_" gradientUnits="userSpaceOnUse" x1="129.5536" y1="186.707" x2="237.7498" y2="301.935" gradientTransform="matrix(1 0 0 1 -120.9449 -182.6391)">
						<stop  offset="0.2057" style="stop-color:#89D0FF"/>
						<stop  offset="0.3984" style="stop-color:#EBBF9A"/>
						<stop  offset="0.6015" style="stop-color:#EB80E7"/>
						<stop  offset="0.8411" style="stop-color:#A281FF"/>
					</linearGradient>
					<path class="st7" d="M51.5,115.5c-4,0-7.8-0.3-11.1-0.5h-0.5l-0.5-0.1c-0.7-0.1-1.4-0.2-2.1-0.2c-3-0.3-7.1-0.8-11.7-2.9
						l-0.6-0.3l-0.5-0.3c-8.8-5-12.1-12.3-14.5-17.6c-0.2-0.6-0.5-1.1-0.8-1.7c-1-2-1.7-4-2.2-5.7l-0.1-0.3l-0.1-0.3
						c-2.6-9.2-1.6-15.6,3.5-23l0.3-0.4l0.3-0.4c0.3-0.4,0.7-0.8,1-1.2c0.5-0.6,0.9-1.2,1.5-1.9c0.3-0.4,0.6-0.8,0.8-1.3l0.6-1.5
						c0.2-0.6,0.4-1.3,0.5-2c0.5-5.9,3.4-10.2,4.8-12.3l0,0c0.1-0.2,0.3-0.4,0.3-0.5l0.3-0.5l0.1-0.1c0.2-0.4,0.5-1.1,0.8-1.9
						c0.2-0.5,0.4-1.4,0.7-2.1v-0.1c0.3-2.5,0.8-4.9,1.7-7.2l0.1-0.2l0.1-0.2c0.2-0.4,0.3-0.7,0.4-1.2c0.6-1.8,1.6-4.9,4.3-8.2
						l0.9-1.1l0.9-0.8c6.4-5.8,13.6-6.3,16-6.5h0.2h0.3c0.3,0,0.7,0,1,0c2.9,0,5.7,0.6,8.3,1.7c0.5,0.2,1,0.3,1.5,0.3s1-0.2,1.4-0.4
						l0,0c2.4-1.4,6.9-4,12.6-4.7c0.3,0,0.5-0.1,0.7-0.1C73.2,7.7,74,7.6,75,7.5c1.7-0.2,4.3-0.4,7.1-0.4c4.8,0,8.9,0.6,12.3,1.8
						L94.6,9l0.2,0.1c8,3,11.4,6.8,14.2,10.4c0.8,1,1.1,1.4,2,2.2l0.4,0.4l0.4,0.4l0.3,0.2c1.4,1,3.9,3,6.1,6.7l0.4,0.6l0.3,0.7
						c3.2,6.6,2.2,12.6,1.7,15.8v0.2c-0.4,2.3-1.1,4.6-2,6.8l-0.1,0.2c0,0,0,0.1,0,0.2c0,0.2-0.1,0.4-0.1,0.6v0.3
						c-0.2,2-0.7,3.9-1.3,5.8c-1,3-2.4,5.8-4.2,8.3c-1.8,2.6-3.9,4.7-6.1,6.4c-1,0.7-1.8,1.7-2.4,2.8c-0.6,1.1-0.9,2.3-0.9,3.6
						c0,1.6-0.2,3.1-0.5,4.6c-1.1,5.7-3.5,9.5-5,11.9l-2.2,3.2c-3.9,5.4-8.4,8.9-13.9,10.5l-0.3,0.1c-0.5,0.1-0.9,0.3-1.4,0.3
						l-0.3,0.1c-1.5,0.3-3.1,0.4-4.6,0.4c-0.3,0-0.5,0-0.8,0l0,0c-0.1,0-0.3,0-0.4,0s-0.4,0-0.9,0H73h-0.2c-0.7,0-1.7,0.1-2.5,0.1
						c-1.1,0-2.2,0.3-3.3,0.6C62.6,114.8,57.8,115.5,51.5,115.5L51.5,115.5z"/>
					<g>
						
							<linearGradient id="SVGID_8_" gradientUnits="userSpaceOnUse" x1="135.1362" y1="192.1749" x2="232.285" y2="296.3291" gradientTransform="matrix(1 0 0 1 -120.9449 -182.6391)">
							<stop  offset="0.2057" style="stop-color:#89D0FF"/>
							<stop  offset="0.3984" style="stop-color:#EBBF9A"/>
							<stop  offset="0.6015" style="stop-color:#EB80D3"/>
							<stop  offset="0.8411" style="stop-color:#A281FF"/>
						</linearGradient>
						<path class="st8" d="M51.5,110c-3.8,0-7.5-0.3-10.7-0.5h-0.3h-0.3c-0.8-0.1-1.5-0.2-2.2-0.3c-2.8-0.3-6.2-0.7-10-2.4l-0.4-0.2
							l-0.3-0.2c-7.2-4.1-10-10.2-12.1-15.1c-0.3-0.6-0.6-1.2-0.8-1.8c-0.9-1.7-1.4-3.4-1.9-4.9l-0.1-0.2v-0.2
							c-2.1-7.6-1.4-12.4,2.7-18.4l0.2-0.3l0.2-0.3c0.4-0.5,0.7-0.9,1-1.3c1.1-1.4,2.1-2.8,3.7-4.4c0.3-0.4,0.5-0.8,0.6-1.3l0.1-1.8
							v-0.6v-0.6c0.2-4.9,2.6-8.6,3.9-10.5c0.2-0.2,0.3-0.5,0.4-0.6l0.2-0.4l0.2-0.3c0.2-0.4,0.9-1.8,1.4-3.1
							c0.2-0.6,0.5-1.6,0.8-2.4c0.1-0.3,0.1-0.3,0.2-0.9c0.2-2.1,0.7-4.1,1.4-6l0.1-0.2l0.1-0.2c0.2-0.5,0.3-0.9,0.5-1.4
							c0.5-1.6,1.3-3.9,3.4-6.5l0.6-0.7l0.6-0.5c4.5-4.1,9.4-4.9,12.7-5.1h0.1h0.2c0.2,0,0.5,0,0.7,0c2.8,0,6.2,1.4,8,2.2
							c0.4,0.2,0.9,0.3,1.3,0.3c0.5,0,0.9-0.1,1.4-0.2c1.1-0.4,2.2-0.9,3.2-1.4c2.3-1.3,6-3.5,10.7-4c0.3,0,0.5-0.1,0.7-0.1
							c0.5-0.1,1.2-0.1,2.1-0.2c1.6-0.2,4-0.3,6.6-0.3c4.2,0,7.6,0.5,10.5,1.4l0.1,0.1l0.1,0.1c6.7,2.5,9.3,5.4,11.8,8.6
							c0.8,1,1.4,1.8,2.6,2.9l0.3,0.3l0.3,0.3c0.2,0.2,0.5,0.5,0.8,0.7c1.1,0.9,3.1,2.4,4.8,5.2l0.3,0.4l0.2,0.4
							c2.5,5,1.7,9.7,1.2,12.5v0.2c-0.3,1.9-0.9,3.8-1.6,5.6l0,0c-0.2,0.5-0.4,1-0.4,1.5c-0.1,0.4-0.1,0.6-0.1,1v0.3
							c-0.2,1.6-0.5,3.2-1.1,4.7c-0.8,2.5-2,4.8-3.5,6.8c-2.2,3.2-4.8,5.5-8,6.9c-0.8,0.3-1.4,0.9-1.9,1.6c-0.5,0.7-0.7,1.5-0.8,2.3
							c0,0.3,0,0.6,0,0.8c0.2,2.4,0.3,5.1-0.2,8c-0.9,4.7-2.8,7.8-4.3,10.1c0,0-6.8,9.5-13,11.4l-0.7,0.2l-0.7,0.1
							c-1.2,0.2-2.4,0.3-3.6,0.3c-0.2,0-0.5,0-0.7,0l0,0c-0.2,0-0.3,0-0.5,0s-0.6,0-1.3,0h-0.2h-0.1c-2.4,0.1-4.6,0.2-5.2,0.3
							c-0.3,0.1-0.7,0.1-1,0.3C62.4,109.2,57.8,110,51.5,110L51.5,110z"/>
						
							<linearGradient id="SVGID_9_" gradientUnits="userSpaceOnUse" x1="140.6271" y1="197.7267" x2="226.7216" y2="290.8494" gradientTransform="matrix(1 0 0 1 -120.9449 -182.6391)">
							<stop  offset="0.2057" style="stop-color:#89D0FF"/>
							<stop  offset="0.3984" style="stop-color:#EBBF9A"/>
							<stop  offset="0.6015" style="stop-color:#A280EB"/>
							<stop  offset="0.8411" style="stop-color:#A281FF"/>
						</linearGradient>
						<path class="st9" d="M51.5,104.4c-3.6,0-7.2-0.2-10.3-0.5H41h-0.2c-0.8-0.1-1.6-0.2-2.4-0.3c-2.6-0.3-5.3-0.6-8.3-2l-0.2-0.1
							l-0.2-0.1c-5.7-3.2-7.8-7.9-9.8-12.5c-0.3-0.7-0.6-1.3-0.9-2c-0.7-1.4-1.2-2.8-1.6-4.2v-0.1v-0.1c-1.7-6-1.3-9.1,1.9-13.7
							l0.1-0.1l0.1-0.1c0.4-0.5,0.7-0.9,1-1.4c1.5-2,2.9-3.8,5.8-6.5l0,0c0.2-0.2,0.4-0.5,0.4-0.8c0.1-0.3,0.1-0.6,0-0.9l-0.5-1.5
							C26.1,57,26,56.5,26,56l0,0v-0.4v-0.3c0.1-3.3,1.9-5.9,3-7.7c0.2-0.3,0.4-0.5,0.5-0.7l0.1-0.2l0.1-0.2
							c0.6-0.8,1.6-3.1,2.1-4.5c0.1-0.4,0.5-1.6,0.8-2.5c0.2-0.6,0.3-1.3,0.4-2c0.2-1.7,0.6-3.3,1.1-4.9v-0.1v-0.1
							c0.3-0.7,0.4-1.2,0.6-1.7c0.5-1.4,1-3,2.4-4.8l0.3-0.4l0.3-0.3c3.2-2.9,6.7-3.5,9.4-3.7h0.1h0.1c0.2,0,0.3,0,0.5,0
							c2.6,0,4.6,1.1,6,1.8l0.3,0.2l0,0c0.4,0.2,0.7,0.4,1,0.5c0.8,0.4,1.8,0.5,2.7,0.3c1.8-0.5,4.7-1.6,6.6-2.6l0,0
							c2-1.2,5.1-2.9,8.6-3.3c0.2,0,0.4-0.1,0.6-0.1c0.4-0.1,1.1-0.1,1.9-0.2c1.5-0.1,3.7-0.3,6.1-0.3c3.6,0,6.4,0.4,8.7,1.1h0.1
							h0.1c5.3,2,7.3,4.1,9.5,6.9c0.9,1.1,1.7,2.2,3.3,3.6l0.1,0.1l0.1,0.1c0.4,0.4,0.9,0.8,1.4,1.2c0.9,0.7,2.2,1.7,3.4,3.7
							l0.1,0.2l0.1,0.2c1.7,3.4,1.1,6.7,0.7,9.2v0.2c-0.2,1.5-0.7,3-1.3,4.4c-0.4,0.8-0.6,1.7-0.8,2.6c-0.1,0.5-0.2,0.9-0.2,1.3v0.3
							c-0.1,1.2-0.4,2.5-0.8,3.7c-0.6,1.9-1.5,3.7-2.7,5.4c-2,2.9-4.3,4.7-7.3,5.7c-1.4,0.5-2.7,1.4-3.5,2.6l-0.2,0.4L92.1,71
							c-0.8,0.9-0.5,4.2-0.4,6.2c0.1,2.2,0.3,4.5-0.1,6.6c-0.7,3.6-2.2,6.1-3.6,8.3c0,0-5.2,7.5-9.9,8.9l-0.3,0.1l-0.4,0.1
							c-0.9,0.2-1.8,0.2-2.7,0.2c-0.2,0-0.4,0-0.6,0s-0.4,0-0.7,0c-0.3,0-0.8,0-1.6,0.1h-0.1h-0.1c-3.1,0.1-5,0.2-6.1,0.4
							c-0.7,0.1-1.4,0.3-2.1,0.6C61,103.9,57.1,104.4,51.5,104.4L51.5,104.4z"/>
					</g>
				</g>
			</g>
		</g>
	</g>
	<g>
		<path class="st10" d="M140,99.6h11.7l3.8-16.3h27.2l3.8,16.3h12l-18.6-76.7h-21.3L140,99.6z M157.8,73.2l9.4-40.5h3.7l9.4,40.5
			H157.8z"/>
		<path class="st10" d="M205.7,120.7h10.1V101v-6.8c5.7,2.4,10.7,6.4,17,6.4c14.1,0,22.8-10.5,22.8-30.1c0-19.7-8.7-30.1-23-30.1
			c-6.6,0-11.5,4.2-17.1,7.1v-6h-9.8L205.7,120.7z M216.6,78.2V62.9c0-8.1,4.7-12.5,12.8-12.5c10,0,14.6,6.4,14.6,20.1
			c0,13.7-4.6,20.1-14.6,20.1C221.3,90.7,216.6,86.4,216.6,78.2z"/>
		<path class="st10" d="M288.2,100.7c13.8,0,22.9-7.1,24.1-18.1h-10.4c-1.1,6.1-6.4,8.8-13.3,8.8c-10.2,0-15-5.9-15.5-19.1h39.5
			c2.1-21.9-7-31.8-24-31.8c-17.2,0-26.8,10.4-26.8,30.1C261.8,90.2,271.2,100.7,288.2,100.7L288.2,100.7z M273.4,64
			c1.3-9.7,6.1-14.5,14.9-14.5c9.2,0,13.7,5.1,13.7,14.5H273.4z"/>
		<path class="st10" d="M349.5,101.4c17.6,0,26.5-10,27.6-28.7h-11.5c-0.8,12.2-5.9,18-16.1,18c-12,0-16.9-8.3-16.9-29.5
			c0-20.7,5.1-29.5,16.9-29.5c10,0,15.1,6.1,15.9,17.9h11.3C375.5,31,367,21,349.5,21c-19.7,0-28.7,12.6-28.7,40.1
			C320.8,88.8,329.8,101.4,349.5,101.4z"/>
		<path class="st10" d="M409.5,100.7c16.9,0,26.2-10.5,26.2-30.1c0-19.7-9.3-30.1-26.2-30.1c-16.9,0-26.2,10.4-26.2,30.1
			C383.3,90.2,392.6,100.7,409.5,100.7L409.5,100.7z M394.9,70.6c0-14,4.6-20.3,14.6-20.3s14.6,6.3,14.6,20.3s-4.6,20.3-14.6,20.3
			S394.9,84.6,394.9,70.6z"/>
		<path class="st10" d="M447.6,99.6h10.9V90V41.5h-19.6v9.6h8.7V90V99.6z"/>
		<path class="st10" d="M467.7,99.6h10.9V63c0-8,4.7-12.3,13.5-12.3c8.4,0,12.3,3.9,12.3,12.3v36.6h10.9V60.1
			c0-13-6.2-19.7-19.1-19.7c-7.4,0-12.4,3.9-18.7,7.1v-6h-9.8L467.7,99.6z"/>
		<path class="st10" d="M445.5,21.5h11.7v10.9h-11.7V21.5z"/>
	</g>
</g>
</svg>
