<svg width="50" height="50" viewBox="0 0 50 51" fill="none" xmlns="http://www.w3.org/2000/svg">
                            <path fill-rule="evenodd" clip-rule="evenodd" d="M25.0001 0.379272C38.8071 0.379272 50 11.5722 50 25.3793C50 39.1864 38.8071 50.3793 25.0001 50.3793C11.1929 50.3793 0 39.1864 0 25.3793C0 11.5722 11.1929 0.379272 25.0001 0.379272Z" fill="#285E69" />
                            <path d="M7.43047 29.5393V26.7393H28.9505V29.5393H7.43047ZM7.43047 24.0193V21.2193H28.9505V24.0193H7.43047ZM26.3905 39.7793C24.2305 39.7793 22.2305 39.4326 20.3905 38.7393C18.5771 38.0193 17.0038 37.0193 15.6705 35.7393C14.3371 34.4326 13.2971 32.8993 12.5505 31.1393C11.8038 29.3793 11.4305 27.4593 11.4305 25.3793C11.4305 23.2993 11.8038 21.3793 12.5505 19.6193C13.2971 17.8593 14.3371 16.3393 15.6705 15.0593C17.0038 13.7526 18.5771 12.7526 20.3905 12.0593C22.2305 11.3393 24.2305 10.9793 26.3905 10.9793C28.6838 10.9793 30.7771 11.3793 32.6705 12.1793C34.5905 12.9526 36.1905 14.1126 37.4705 15.6593L34.1505 18.8193C33.1371 17.7259 32.0038 16.9126 30.7505 16.3793C29.4971 15.8193 28.1371 15.5393 26.6705 15.5393C25.2038 15.5393 23.8571 15.7793 22.6305 16.2593C21.4305 16.7393 20.3771 17.4193 19.4705 18.2993C18.5905 19.1793 17.8971 20.2193 17.3905 21.4193C16.8838 22.6193 16.6305 23.9393 16.6305 25.3793C16.6305 26.8193 16.8838 28.1393 17.3905 29.3393C17.8971 30.5393 18.5905 31.5793 19.4705 32.4593C20.3771 33.3393 21.4305 34.0193 22.6305 34.4993C23.8571 34.9793 25.2038 35.2193 26.6705 35.2193C28.1371 35.2193 29.4971 34.9526 30.7505 34.4193C32.0038 33.8593 33.1371 33.0193 34.1505 31.8993L37.4705 35.0993C36.1905 36.6193 34.5905 37.7793 32.6705 38.5793C30.7771 39.3793 28.6838 39.7793 26.3905 39.7793Z" fill="white" />
                        </svg>