<svg width="71" height="45" viewBox="0 0 71 45" fill="none" xmlns="http://www.w3.org/2000/svg">
    <g clip-path="url(#clip0_853_6520)">
        <path d="M0 22.5V45H71V0H0V22.5ZM70.584 22.5V44.5807H0.416016V0.419255H70.584V22.5Z" fill="black"/>
        <path d="M20.7564 0.410889H0.416016V44.5724H20.7564V0.410889Z" fill="#FFF5F5"/>
        <path d="M70.5839 0.41925H35.0354V44.5807H70.5839V0.41925Z" fill="#F2A963"/>
        <path d="M35.0354 0.41925H20.7563V44.5807H35.0354V0.41925Z" fill="#F8E0A2"/>
        <path d="M44.4027 7.12734C42.6964 7.58181 41.1532 8.51527 39.9528 9.81909C38.7523 11.1229 37.9439 12.7435 37.6217 14.4922L37.3721 15.7919H32.4492V20.264H37.3721L37.3305 22.5L37.2889 24.736H32.4492V29.2081H37.3721L37.6217 30.5078C38.3428 34.2252 41.1162 37.132 44.7217 37.9426C46.2332 38.2919 49.8941 38.1801 51.1699 37.7609C53.3332 37.0481 55.3439 35.3152 56.3008 33.3447C56.9387 32.045 57.2715 30.8432 57.2715 29.8789V29.2081H52.8756L52.7924 29.8929C52.626 31.2624 51.6691 32.5761 50.3656 33.219C49.6168 33.5963 49.4781 33.6103 47.6338 33.6103C45.7479 33.6103 45.6646 33.5963 44.7633 33.1631C43.2656 32.4503 42.2395 31.1646 42.0592 29.7671L41.976 29.2081H46.8711V24.736H41.865L41.9066 22.528L41.9482 20.3339L44.4166 20.2919L46.8711 20.264V15.7919H41.976L42.0592 15.2329C42.2395 13.8354 43.2795 12.5497 44.791 11.823C45.6646 11.4037 45.7479 11.3898 47.6338 11.3898C49.4088 11.3898 49.6307 11.4177 50.2686 11.7391C51.6691 12.4239 52.834 14.087 52.834 15.3727V15.7919H57.2715V15.1211C57.2715 13.7096 56.5227 11.6832 55.5103 10.3556C54.291 8.78139 52.5975 7.64855 50.6846 7.12734C49.1869 6.73604 45.8727 6.73604 44.4027 7.12734Z" fill="#3A3A3A"/>
        <path d="M14.5148 35.4787H6.24854V39.4826H14.5148V35.4787Z" fill="#F2A963"/>
    </g>
    <defs>
        <clipPath id="clip0_853_6520">
            <rect width="71" height="45" fill="white"/>
        </clipPath>
    </defs>
</svg>
