<svg xmlns="http://www.w3.org/2000/svg" viewBox="0 0 1024 1024"><path fill="transparent" d="M1023.89 455q0 282.06.11 564.11c0 4-.74 4.88-4.83 4.88q-239.1-.19-478.19-.11a1.38 1.38 0 0 0 .07-.85 112.2 112.2 0 0 0 38-9.64c53.43-24.94 81.72-67.15 82.66-126.17 1.09-67.71-.05-135.43.62-203.16.6-60.61.09-121.24.1-181.86 0-2 .29-4 .45-5.94q153.52 0 307 .11c12.65 0 23.73-4.26 34.09-11 11.13-7.13 17.12-17.72 19.92-30.37Z"/><path fill="#6666cb" d="M1023.89 455c-2.8 12.64-8.79 23.23-19.88 30.41-10.36 6.7-21.44 11-34.09 11q-153.52-.17-307-.11a3.78 3.78 0 0 1-1.06-2.71c-1.23-11.52-2.33-23-5.7-34.23-8.28-27.62-23.58-50.4-46.13-68.19-25.76-20.32-55.54-28.93-88-29L494 362a4.54 4.54 0 0 1 1.2-2.66q22-27.93 43.85-55.9 36.33-46.64 72.46-93.44c3.79-4.94 7.4-7.17 14.14-7.15q199.14.47 398.26.23ZM811 277c-3.58-2.95-6.93-6.28-10.79-8.8-26.42-17.24-69-20.39-96.62 4.76-28.62 26-36.83 60-24.29 95.27 10 28 32.25 43.65 60.11 50.55 24.61 6.09 47.85.68 68.76-13.85 2.18-1.51 4-3 6.48-.72 10.18 9 22.4 14 35.26 17.76 5.58 1.62 11.1 3.63 17.06 3.07 1.07-.1 3.44.65 2.71-1.52-1.6-4.71 2-4.1 4.27-4.4 3.28-.43 6.73.19 9.95-.44 22.4-4.41 40.24-15.84 53.06-34.91 4.93-7.34 9.24-15.35 11.58-23.5 2.13-7.39 2.34-15.82 1.91-24-1.14-21.47-10.12-39.4-24.31-54.95-18.61-20.38-42.42-27.78-69.28-26.31-13.66.75-25.35 7.31-36.36 14.9-2.87 2-6.62 3.28-7.91 7.13Z"/><path fill="transparent" d="M.08 481Q.08 242.72 0 4.44C0 1.05.43 0 4.25 0Q129.14.22 254 .11a5.46 5.46 0 0 1-1.2.79c-23.33 7-36.64 24.85-36.69 49.19q-.06 20.47-.08 41c-1.67.79-.95 2.32-1 3.51q-.06 51.2 0 102.39c0 1.41-.56 3.05 1.05 4.09q-.06 80.49-.1 161c-1.82.08-3.64.23-5.47.23-24.3 0-48.59.07-72.89 0a134.63 134.63 0 0 0-22.38 1.52c-22.78 3.75-43.75 12.13-62.08 26.41C26.73 410.74 9.85 437.38 3 470.32c-.76 3.58-.52 7.52-2.92 10.68Z"/><path fill="#7070da" d="m216 362 .09-161c1.5 0 3-.11 4.49-.11h394.47c1.66 0 3.32-.07 5-.11s3.33.17 5 .17h392.85c1.66 0 3.33-.09 5-.14l1 .24v2q-199.12 0-398.26-.23c-6.74 0-10.35 2.21-14.14 7.15q-36 46.9-72.46 93.44-21.82 28-43.85 55.9A4.54 4.54 0 0 0 494 362q-82.59 0-165.18.08-56.42.01-112.82-.08ZM216 91q0-20.48.08-40.95c0-24.34 13.36-42.17 36.69-49.19A5.46 5.46 0 0 0 254 .11h501.94a9.39 9.39 0 0 1-2 4.5q-9.75 14.76-19.45 29.54-18.85 28.73-37.68 57.47l.08.42c-2.32-.06-4.65-.16-7-.16H222.24c-2.04-.04-4.3.73-6.24-.88Z"/><path fill="#333" d="M1022.89 200.83c-1.66 0-3.33.14-5 .14H625c-1.66 0-3.32-.11-5-.17.5-1.21.74-2.64 1.53-3.61 9.51-11.71 18.5-23.82 27.69-35.77 15-19.46 29.72-39.06 43.15-59.61 1.92-2.94 4.78-5.71 4.51-9.77l-.08-.42c1.48.11 3 .33 4.46.33h316.22a20.51 20.51 0 0 0 6.38-.89v109Z"/><path fill="#6565ca" d="M1023.89 91.09a20.51 20.51 0 0 1-6.38.89L701.29 92c-1.49 0-3-.22-4.46-.33q18.84-28.74 37.68-57.47Q744.22 19.38 754 4.61a9.39 9.39 0 0 0 2-4.5h230c10.61 3.32 19.91 8.6 27.08 17.37 5.93 7.25 8.71 15.78 10.91 24.63Z"/><path fill="#6a6a6b" d="M216 362q56.4 0 112.79.07 82.59 0 165.18-.08l28 .11c32.51.11 62.29 8.72 88 29 22.55 17.79 37.85 40.57 46.13 68.19 3.37 11.23 4.47 22.71 5.7 34.23a3.78 3.78 0 0 0 1.06 2.71c-.17 2-.46 4-.46 5.94 0 60.62.5 121.25-.1 181.86-.67 67.73.47 135.45-.62 203.16-.94 59-29.23 101.23-82.66 126.17a112.2 112.2 0 0 1-38 9.64c-1.74-1.56-3.26-2.06-4.07.85h-2a4.45 4.45 0 0 0-6 0H133.06c-4.31-1-8.53-3.25-13.06-.88-3.11-.48-6.27-.78-9.34-1.45q-82.72-18.11-106.35-99.45c-1.73-6-1.93-12.31-4.23-18.16V481c2.4-3.17 2.16-7.11 2.9-10.69 6.87-32.94 23.75-59.58 50.21-80.18 18.33-14.28 39.3-22.66 62.08-26.41a134.63 134.63 0 0 1 22.38-1.52c24.3.09 48.59 0 72.89 0 1.83.03 3.65-.12 5.46-.2Zm435.32 131.72c-.12-2.31-.08-4.65-.4-6.94-3-21-10.29-40.3-22.68-57.49-24.09-33.42-56.45-52.87-97.75-56.78-12.63-1.2-25.3-.58-38-.58-117.62 0-235.25-.23-352.88.14-34.49.11-64.38 13.42-89 37.26-27 26.09-40.84 58.3-40.85 96.05q-.07 187.93 0 375.86a131.88 131.88 0 0 0 3.82 31.63C28 971.29 79.9 1013.74 140 1014q189.69.87 379.37.09c49.52-.18 87.32-23 113.64-64.58a117 117 0 0 0 18.27-56.34c.95-2.75.61-5.61.61-8.42q.06-191.29 0-382.61c.11-2.8.35-5.66-.57-8.42Z"/><path fill="#fdfdfd" d="M.08 903.91c2.3 5.85 2.5 12.17 4.23 18.16q23.52 81.46 106.35 99.49c3.07.67 6.23 1 9.34 1.45a1.65 1.65 0 0 0 .06.88c-38.75 0-77.49 0-116.24.08-3.12 0-3.83-.71-3.82-3.83.12-38.74.08-77.48.08-116.23ZM1023.89 42.11c-2.2-8.85-5-17.38-10.91-24.63-7.17-8.77-16.47-14-27.08-17.37 11.83 0 23.66.08 35.49-.06 2.15 0 2.59.41 2.57 2.56-.13 13.17-.07 26.33-.07 39.5Z"/><path fill="#7a7a7a" d="M120.06 1023.89a1.65 1.65 0 0 1-.06-.88c4.53-2.37 8.75-.08 13.06.88ZM537 1023.89c.81-2.91 2.33-2.41 4.07-.85a1.38 1.38 0 0 1-.07.85ZM529 1023.89a4.45 4.45 0 0 1 6 0Z"/><path fill="#4d4d4d" d="m1022.89 200.83 1-.76v1Z"/><path fill="#ed7f1c" d="M812.61 277.09c1.29-3.85 5-5.15 7.91-7.13 11-7.59 22.7-14.15 36.36-14.9 26.86-1.47 50.67 5.93 69.28 26.31 14.19 15.55 23.17 33.48 24.31 54.95.43 8.15.22 16.58-1.91 24-2.34 8.15-6.65 16.16-11.58 23.5-12.82 19.07-30.66 30.5-53.06 34.91-3.22.63-6.67 0-9.95.44-2.22.3-5.87-.31-4.27 4.4.73 2.17-1.64 1.42-2.71 1.52-6 .56-11.48-1.45-17.06-3.07-12.86-3.73-25.08-8.72-35.26-17.76.4-1.52 2.7-2 2.23-4.2h-4c-2.46 0-6.17.45-6.14-2.51s3.67-1.11 5.68-1.46c3.45-.6 7.43 1.33 10.23-2.27.87-1.13 2.62-2 1.85-3.72-.67-1.56-2.33-.94-3.57-1q-9.24-.08-18.47 0c-2.59 0-4.64-.45-4.6-3.88 1.22 0 2.37-.14 3.51-.14 7.33 0 14.65-.15 22 .05 3.39.09 4.68-1.85 4.69-4.49 0-3.08-2.73-1.5-4.13-1.52-9-.16-18-.06-27-.1-1.91 0-4.67.51-4.63-2.31s2.81-1.61 4.35-1.63c10.32-.12 20.64-.17 31 0 3.76.06 4.78-2.65 4.91-5.07.17-3.2-2.94-1.83-4.57-1.85-12.15-.13-24.3-.19-36.45 0-3.47 0-4.94-1.1-4.73-4.48l.08.27 13.37.05c5.46 2.08 10.92 3.12 16.37 0 5.3 0 10.61-.11 15.9.13 3.34.15 4.06-2.09 4.12-4.35.07-2.65-2.39-1.5-3.82-1.7a44 44 0 0 0-4.46-.22l.72-7.34c2.43-4.3 6.54-2.33 10-2.67.27 1.35.53 2.71.79 4.06-2.28.05-4.56.08-6.85.16a1.76 1.76 0 0 0-2 1.73 1.82 1.82 0 0 0 2 2.19c2.94 0 5.87 0 8.81.08 2.18 6 7.55 6.37 12.62 6.86 4.73.46 9.59-1.35 14.19 1.68 1.87 1.23 4.73.53 6.78-.49 3.23-1.6 6.35-2.9 10-2.08 1.43.32 2.19-.53 2.13-2-.25-6.06 1.92-11.81 2.27-17.78.18-3.1-.21-6-3-8s-13.24-1.77-16 0c-2 1.29-2.34 3.27-2 5.27.44 2.69 2.62 1.3 4 1.22 2.31-.13 4.58-.95 6.93-.46 1.67.35 3.4.86 3.4 3 0 2.76-2.25 1.94-3.69 1.93-6.58-.05-12.6 1.14-16.83 6.83-4.41 1.37-8.75 1.91-12.8-1.06h.05c0-.72-.32-1.11-1.08-1h.09l-.9-2.55c-.64-11.54 5.18-16.28 16.52-13.27 1.72.45 2.11 0 2.13-1.41s-.07-3-.12-4.44c.31-2.13-1.19-2.81-2.72-3.64-4.29-2.33-15.25-1-17.93 4.32-.71 0-1 .38-1 1h.05a1.52 1.52 0 0 0-1.1 2v-.06c-1.42.19-2.61.15-2.75-1.77-.1-1.38-1.21-1.32-2.24-1.2-11.66.29-23.33-.72-35 .55l-3 .1c-3.17-1.44-6.52-.29-9.76-.71-.34-1.26.12-3.16-2.24-2.81.92-2.51 3.09-1.46 4.7-1.47 13.6-.09 27.21 0 40.82-.12 1.63 0 4.51 1.35 4.5-2.09 0-2.5-.94-4.63-4.13-4.35-14.4 0-28.81 0-43.21-.11-1.77 0-4.21 1-4.8-2 .92-2.64 3.18-1.95 5.08-2h43.19c-1.48-3.1-.76-6.93-5.32-6h-35.37c-1.83 0-4.22.78-4.65-2.27 1.11-2.26 3.17-2 5.18-2 10.32 0 20.65.07 31-.06 1.49 0 4.31 1.31 4.3-1.41 0-2.28-.34-5.71-4.44-5.13-8.49 0-17 0-25.48-.08-1.64 0-3.88.89-4.44-1.87 1.65-2 3.88-2.15 6.27-2.13 7.81.07 15.63 0 24.43 0-2.32-2.95-2.14-6.83-6.54-6l-14.41-.01c-1.67 0-3.49.22-3.65-2.25 4.54-4.19 10.49-.63 15.6-2.66a15.91 15.91 0 0 0-4.88-5Zm123.18 87.15c1.45-.46 4 1.08 4.21-1.94.8-11.34 3.56-22.32 5.82-33.39.36-1.76-.44-2.34-2.13-2.45-3.57-.25-6.75-.18-6.8 4.7 0 1.13-.64 2.24-.78 3.39-.38 3.12-1.84 3.1-4 1.52-5.09-3.75-10.62-3.18-14.83 1.61-3.36 3.82-4.48 8.42-4.5 13.42 0 10.54 6.73 15.15 16.45 11.16.74-.3 1.93-1.81 2.25-.18.58 2.92 2.6 1.92 4.31 2.16ZM892 361.66c9.81 1.51 10.12 1.3 11.81-7.86.09-.49.09-1 .2-1.48 1.08-4.75 1.08-9.86 7.63-11.48 2.15-.53 3.64-4.9 2.65-7.13-.86-1.93-3.88-.51-5.61.88-1.12.9-1.35 1-2.4-.43-1.65-2.27-8.14-1.73-8.26.37-.51 9.38-4.02 18.09-6.02 27.13Z"/><path fill="#e43d25" d="M786.86 316c.59 3.05 3 2 4.8 2 14.4.1 28.81.09 43.21.11.63 3.34-.86 4.17-4.07 4.14-15.32-.14-30.64-.06-45.95-.06-8.24 0-8.24 0-9.94 7.92-2.16-.06-4.33 0-6.48-.21-5-.41-9.1 1-11.59 5.72-2.13 1.37-1.52 4.06-2.83 5.82 0-4-1.19-7.18-5.28-8.69-4.87-1.8-9.83-1.46-14.74-.46-3.1.64-3.08 3.82-3.52 6s1.6 2.9 3.68 2.63l10.79.12h-.05c0 .76.53 1 1.06 1.24 1.17 1.88 1.12 2.95-1.57 3-4.34.05-8.59.66-12.19 3.42a10.1 10.1 0 0 0-4 10.53c.81 4.28 4.3 5.26 7.83 5.55 5.07.41 9.14-4.5 14.62-3 .77.21.88-1.92 1-3 .8-5.4 1.54-10.81 2.3-16.21 1.07 3.65 3.69 5.69 7.09 7.06 2.48 1 5 2.18 4.8 5.57-2.7 1.57-5.36.49-8-.17-1.24-.31-2.53-1.1-2.88 1-2.42 2.19-2.8 7.76-.53 7.9 4.32.28 8.83 1.46 13-.89h-.08a2.34 2.34 0 0 0 2.42-.84 8.11 8.11 0 0 0 3.81-2.2c1.31-1.16 2.9-1.54 3.73.21 2.07 4.34 5.79 3.6 9.39 3.46-.21 3.38 1.26 4.53 4.73 4.48 12.15-.2 24.3-.14 36.45 0 1.63 0 4.74-1.35 4.57 1.85-.13 2.42-1.15 5.13-4.91 5.07-10.31-.17-20.63-.12-31 0-1.54 0-4.32-1.18-4.35 1.63s2.82 2.3 4.74 2.3c9 0 18-.06 27 .1 1.4 0 4.14-1.56 4.13 1.52 0 2.64-1.3 4.58-4.69 4.49-7.32-.2-14.64-.07-22-.05-1.14 0-2.29.09-3.51.14 0 3.43 2 3.9 4.6 3.88q9.22-.06 18.47 0c1.24 0 2.9-.6 3.57 1 .77 1.76-1 2.59-1.85 3.72-2.8 3.6-6.78 1.67-10.23 2.27-2 .35-5.66-1.38-5.68 1.46s3.68 2.49 6.14 2.51h4c.47 2.19-1.83 2.68-2.23 4.2-2.45-2.26-4.3-.79-6.48.72-20.91 14.53-44.15 19.94-68.76 13.85-27.86-6.9-50.13-22.51-60.11-50.55C666.78 333 675 299 703.61 273c27.63-25.15 70.2-22 96.62-4.76 3.86 2.52 7.21 5.85 10.79 8.8.88 1.52 3.13 3.45-1.15 3.21a74.35 74.35 0 0 0-7.9 0c-2.15.12-4.37 1.34-4.22 3.37.16 2.2 2.7.74 4.14 1.12.16 2.47 2 2.24 3.65 2.25l14.49.06c1.76 2.71 1.89 4.12-2.21 4-7.08-.28-14.18-.06-21.27-.08-2.64 0-4.77.6-5.29 4l4.61.22c.56 2.76 2.8 1.86 4.44 1.87 8.49.09 17 .07 25.49.08.72 3.24-.54 4.23-3.84 4.17-10.41-.19-20.83 0-31.25-.11-3.08 0-5.15.66-5.35 4.12 1.45.86 3 .4 4.42.43.43 3.05 2.82 2.27 4.65 2.27 11.79.06 23.58 0 35.37 0 1.25 3.26.05 4.08-3.28 4-13.24-.17-26.48-.08-39.72-.06-1.79 0-4.08-.33-3.86 2.45s2.53 1.24 3.92 1.59Zm-66.92 44.26c1.37-.69 3.85 1 4.1-2.17.79-10.31 3.6-20.27 5.55-30.39.22-1.17 1.08-3.24-.92-3.16-4.29.16-9-1.95-12.77 1.89-2.22-.17-2.59 1.24-3 3.05a26.59 26.59 0 0 1-5.68 12c-.05-4.59-.09-9.19-.17-13.78 0-1.09.32-2.33-.91-3.1-1.83-1.15-10.57.19-12.23 1.89-1.88-.08-3.8-.22-3.83 2.52-.1 10-3.6 19.38-5.23 29.1-.21 1.27-1.82 3.24.29 3.8 1.9.5 4.67 1.65 5.83-1.61 2.84.2 4-1 4.07-4 .1-2.82.17-5.82 1.91-8.35 1.94 3.17.6 6.77 1.36 10.09.33 1.46-.37 3.75 2 4 2 .18 4.44 1.15 5.55-1.73 2.69.22 4.09-1.1 5-3.6 1.18-3.22 2.78-6.29 4.2-9.41.5 3.83-.95 7.44-1.16 11.19-.07 1.24-1.47 3.33.92 3.54 1.68.1 4.4 1.65 5.12-1.78Z"/><path fill="#7367c0" d="M801.89 284.76c-1.44-.38-4 1.08-4.14-1.12-.15-2 2.07-3.25 4.22-3.37a74.35 74.35 0 0 1 7.9 0c4.28.24 2-1.69 1.15-3.21l1.59.07a15.91 15.91 0 0 1 4.88 5c-5.11 2-11.06-1.56-15.6 2.63Z"/><path fill="#4d4d4d" d="M696.91 92c.27 4.06-2.59 6.83-4.51 9.77-13.4 20.59-28.2 40.23-43.15 59.65-9.19 12-18.18 24.06-27.69 35.77-.79 1-1 2.4-1.53 3.61-1.66 0-3.32.11-5 .11H220.59c-1.49 0-3 .07-4.49.11-1.6-1-1-2.68-1-4.09V94.54c0-1.19-.71-2.72 1-3.51 1.91 1.57 4.17.8 6.25.8q233.82.06 467.65 0c2.26.05 4.59.17 6.91.17Z"/><path fill="#e5e5e5" d="M651.32 893.18a117 117 0 0 1-18.27 56.34c-26.32 41.62-64.12 64.4-113.64 64.58q-189.67.69-379.37-.09C79.9 1013.74 28 971.29 13.59 912.87a131.88 131.88 0 0 1-3.82-31.63V505.38c0-37.75 13.88-70 40.85-96.05 24.64-23.84 54.53-37.15 89-37.26 117.63-.37 235.26-.18 352.88-.14 12.66 0 25.33-.62 38 .58 41.3 3.91 73.66 23.36 97.75 56.78 12.39 17.19 19.7 36.53 22.68 57.49.32 2.29.28 4.63.4 7-1.89 1.29-1.34 3.27-1.34 5v389.39c.01 1.74-.57 3.72 1.33 5.01ZM435.51 643.92c-.47-3.6-3.3-1.85-4.91-1.85q-110.16-.18-220.32-.15c.07-1.14-.18-2.43.25-3.42 10.38-23.82 24.18-45.14 45.38-60.87 35.43-26.3 74.92-34.33 117.7-24.64 30.6 6.93 56.16 23 76.57 46.92 2.48 2.92 3.41 1.83 4.8-.78 3.61-6.75 7.17-13.54 11.19-20 2.16-3.5 1.77-5.62-1.08-8.54-25.13-25.74-55-42.78-90.38-49.92a160.44 160.44 0 0 0-28.71-3.28c-1.47 0-4.12-.5-2.67 2.37 2.38 4.71-.87 4-3.54 4.12-28.27.85-54.94 7.77-79.7 21.49-39.61 22-66.5 54.64-81.15 97.4-1.21 3.54-2.83 4.54-6.36 4.46-9.49-.22-19 .08-28.48-.16-3.26-.08-5.2.84-6.73 3.74q-7.2 13.7-14.84 27.17c-1.88 3.34-1.2 4.11 2.52 4.07 13.83-.17 27.66 0 41.49-.14 3.55 0 4.66 1.11 4.57 4.57q-.28 11.49 0 23c.09 3.3-1 4.37-4.29 4.31-8.82-.17-17.66 0-26.49-.13-2.84 0-4.6.78-6 3.35-4.74 9-9.69 17.84-14.53 26.76-2.55 4.72-2.52 4.77 2.69 4.77 16.16 0 32.33.18 48.49-.1 4.66-.08 6.88 1.11 8.52 5.81A170.52 170.52 0 0 0 233.25 831c38.37 31.45 82.36 45.43 132 39.63a168 168 0 0 0 86.43-36c3.14-2.5 4.72-5.13 4.11-9.31-.8-5.59-1.1-11.26-1.57-16.9s-.9-11.43-1.34-17c-.8-.06-1-.14-1.1-.07a6.66 6.66 0 0 0-1.11.94c-36.89 41.58-83.28 56.3-136.65 44-47.18-10.86-80.32-40.69-99.61-85.37-2.43-5.62-2.31-5.67 3.72-5.67q84.72 0 169.46.07c3.6 0 5.71-.78 7.2-4.39 3.48-8.46 7.5-16.69 11.26-25 2.45-5.43 2.42-5.45-3.51-5.45H210.58c-1.82 0-3.65-.18-5.47-.27-.31-.72-.66-.9-1.1-.09-2.25-.89-1.24-2.86-1.26-4.32-.11-7 .26-14-.16-21-.29-4.87 1.3-6 6.08-6q103.22.24 206.45.11a30 30 0 0 1 3 0 3.84 3.84 0 0 0 4.32-2.59q6.58-15.06 13.19-30.12a2.05 2.05 0 0 0-.12-2.28Z"/><path fill="#faf4f6" d="M651.32 893.18c-1.9-1.29-1.34-3.27-1.34-5V498.79c0-1.76-.55-3.74 1.34-5 .92 2.75.63 5.61.63 8.42v382.61c-.02 2.75.32 5.61-.63 8.36ZM862.69 352.09c4.23-5.69 10.25-6.88 16.83-6.83 1.44 0 3.7.83 3.69-1.93 0-2.13-1.73-2.64-3.4-3-2.35-.49-4.62.33-6.93.46-1.41.08-3.59 1.47-4-1.22-.33-2 0-4 2-5.27 2.78-1.81 13.37-1.91 16 0s3.19 4.91 3 8c-.35 6-2.52 11.72-2.27 17.78.06 1.44-.7 2.29-2.13 2-3.7-.82-6.82.48-10 2.08-2.05 1-4.91 1.72-6.78.49-4.6-3-9.46-1.22-14.19-1.68-5.07-.49-10.44-.86-12.62-6.86 1.57-2.46.54-3.67-2-4.16-.26-1.35-.52-2.71-.79-4.06.08-5.76.28-11.47 4.86-15.85v.06c1-.34 1.56-.89 1.1-2h-.05c.91.21 1.3-.1 1-1 1.31.62 2.18-.41 3.15-.91 5.89-3.05 11.71-3.37 17.5.23 0 1.48.15 3 .12 4.44s-.41 1.86-2.13 1.41c-11.34-3-17.16 1.73-16.52 13.26.05.94-.33 2 .9 2.56h-.09c.09.63.22 1.21 1.08 1h-.05c3.19 5.85 8.94 6.33 12.72 1Zm20.42-.39c.31-2.81-1.65-2.55-3.26-2.47-3.37.17-6.53 1-6.62 5.14-.05 2.22 1.24 4.53 3.9 4.21 3.87-.47 5.39-3.44 5.98-6.88ZM767.4 363.05h.08c-1.65 0-3.29.08-4.93 0-6.9-.25-7.12-.46-7.55-7 .35-2.11 1.64-1.32 2.88-1 2.65.66 5.31 1.74 8 .17 3.13-2.76 2.91-5.43-1.43-7-6.16-2.27-8.6-6.19-7.62-12.51 2.49-4.68 6.56-6.13 11.59-5.72 2.15.18 4.32.15 6.48.21 2.39.58 3.4 1.44 2.43 4.36-.88 2.63-3.1 2.46-4.65 3.61-2.3.06-5.68-1.37-6.33 1.63-.59 2.68 2.82 3.47 4.94 4.56a2.44 2.44 0 0 0 .46.14c3.46 2 5.61 4.8 5.69 9 1.33-6.48 2.74-12.81 3.56-19.22.63-5 2.36-8.28 8-8.05 2.36-.35 1.9 1.55 2.24 2.82-.85 3.15.3 4.45 3.54 3.83 0 2.21 1.84 5.66-1.6 6.07-4.36.52-5 3.35-6 6.43L787 350c-1.85 5.64-1.77 5.77 3.87 6.12-.86 2.88-1.32 6-4.07 7.88l-.08-.27c-3.6.14-7.32.88-9.39-3.46-.83-1.75-2.42-1.37-3.73-.21a8.11 8.11 0 0 1-3.81 2.2c-.9-.14-1.79-.19-2.39.79ZM829 350.51l-.72 7.34c-.77 3.38-2.67 4.78-6.31 4.45-1.76-.17-4.49-1.53-5.43 1.69-5.45 3.13-10.91 2.09-16.37 0l-5.31-6.25c-.1-.51-.23-1-.94-.8h.08c-.39-2.46-.77-4.91-1.16-7.37.13-.51.25-1 .37-1.52 2.11 1.45 2.26-.14 2.89-1.63 4.07-9.51 8.78-11.86 18.88-9.58 2.75 2.24 4.8 2.69 4.93-1.9a14.38 14.38 0 0 1 .32-1.93h8.5c1.24 2.12 2 .27 3-.3 1.92-1.09 4.63-1.39 4.79 1 .18 2.57.31 6.14-3 7.65a5.55 5.55 0 0 0-3.47 3.83c-1.3 1.56-1.33 3.41-1.05 5.32Zm-24 8.85c1.84 1.11 3.87.7 5.81.64 2.63-.07 5.91 0 5.62-3.79s-3.46-1.59-5.39-2a33.19 33.19 0 0 0-5-.18c-1.43.15-3.69-1.18-4.08 1.36-.31 2.06.98 3.44 3.04 3.97Zm2.07-13.44c1.3-1.35 4.36 1.26 4.66-1.87.25-2.63-1.82-4.13-4.57-4.05s-5.39 1.36-5.18 4.17 3.25.69 5.07 1.75ZM935.79 364.24c-1.71-.26-3.73.75-4.3-2.16-.32-1.63-1.51-.12-2.25.18-9.72 4-16.5-.62-16.45-11.16 0-5 1.14-9.6 4.5-13.42 4.21-4.79 9.74-5.36 14.83-1.61 2.15 1.58 3.61 1.6 4-1.52.14-1.15.77-2.26.78-3.39.05-4.88 3.23-5 6.8-4.7 1.69.11 2.49.69 2.13 2.45-2.26 11.07-5 22-5.82 33.39-.22 3.02-2.77 1.48-4.22 1.94Zm-16.86-14.84c0 4.42 1.89 7 5.26 6.92 4-.06 7.58-4.83 7.6-10.15 0-3.41-1.36-5.86-5.08-6-4.08-.17-7.71 4.27-7.78 9.23Z"/><path fill="#7367c0" d="M789 326.15c-5.61-.23-7.34 3.06-8 8.05-.82 6.41-2.23 12.74-3.56 19.22-.08-4.2-2.23-7-5.69-9l.93-6.33c1.55-1.15 3.77-1 4.65-3.61 1-2.92 0-3.78-2.43-4.36 1.7-7.92 1.7-7.92 9.94-7.92 15.31 0 30.63-.08 45.95.06 3.21 0 4.7-.8 4.07-4.14 3.19-.28 4.13 1.85 4.13 4.35 0 3.44-2.87 2.08-4.5 2.09-13.61.12-27.22 0-40.82.12-1.6.01-3.77-1.04-4.67 1.47Z"/><path fill="#faf4f6" d="M892 361.66c2-9 5.51-17.75 6-27.13.12-2.1 6.61-2.64 8.26-.37 1.05 1.44 1.28 1.33 2.4.43 1.73-1.39 4.75-2.81 5.61-.88 1 2.23-.5 6.6-2.65 7.13-6.55 1.62-6.55 6.73-7.63 11.48-.11.49-.11 1-.2 1.48-1.67 9.2-1.98 9.37-11.79 7.86Z"/><path fill="#6666cb" d="M815 336.89c-10.1-2.28-14.81.07-18.88 9.58-.63 1.49-.78 3.08-2.89 1.63-.39-4.56-4-2.18-6.13-2.8 1-3.08 1.69-5.91 6-6.43 3.44-.41 1.55-3.86 1.6-6.07 1.63-1.93 4-2.47 6.22-3.13l3-.1c4.66 1.02 9.08 2.31 11.08 7.32Z"/><path fill="#e43d25" d="M815 336.89c-2-5-6.43-6.3-11.06-7.32 11.65-1.27 23.32-.26 35-.55.49 3.65-.75 7.12-1 10.65-.46 5.54-3.36 6.26-7.78 5.5a5.55 5.55 0 0 1 3.47-3.83c3.31-1.51 3.18-5.08 3-7.65-.16-2.35-2.87-2.05-4.79-1-1 .57-1.79 2.42-3 .3a5 5 0 0 0-8.5 0 14.38 14.38 0 0 0-.32 1.93c-.21 4.66-2.26 4.21-5.02 1.97Z"/><path fill="#7367c0" d="M789.78 305.71c-1.46 0-3 .43-4.42-.43.2-3.46 2.27-4.16 5.35-4.12 10.42.12 20.84-.08 31.25.11 3.3.06 4.56-.93 3.84-4.17 4.09-.58 4.41 2.85 4.43 5.13 0 2.72-2.81 1.39-4.3 1.41-10.32.13-20.65.07-31 .06-1.93 0-4.04-.25-5.15 2.01Z"/><path fill="#6565ca" d="M786.86 316c-1.39-.34-3.71 1.12-3.92-1.55S785 312 786.8 312c13.24 0 26.48-.11 39.72.06 3.33.05 4.53-.77 3.28-4 4.56-.94 3.84 2.89 5.32 6h-43.19c-1.93-.06-4.15-.71-5.07 1.94Z"/><path fill="#7367c0" d="m795.87 295.15-4.61-.22c.52-3.38 2.65-4 5.29-4 7.09 0 14.19-.2 21.27.08 4.1.16 4-1.25 2.21-4 4.4-.85 4.22 3 6.54 6h-24.43c-2.39-.01-4.62.13-6.27 2.14Z"/><path fill="#e43d25" d="M816.57 364c.94-3.22 3.67-1.86 5.43-1.69 3.64.33 5.54-1.07 6.31-4.45a44 44 0 0 1 4.46.22c1.43.2 3.89-.95 3.82 1.7-.06 2.26-.78 4.5-4.12 4.35-5.29-.25-10.6-.13-15.9-.13Z"/><path fill="#7367c0" d="M830.11 345.17c4.42.76 7.32 0 7.78-5.5.29-3.53 1.53-7 1-10.65 1-.12 2.14-.18 2.24 1.2.14 1.92 1.33 2 2.75 1.77-4.58 4.38-4.78 10.09-4.86 15.85-3.49.34-7.6-1.63-10 2.67-.3-1.91-.27-3.76 1.09-5.34Z"/><path fill="#e43d25" d="m794.89 357.75 5.31 6.25h-13.37c2.75-1.91 3.21-5 4.07-7.88l.1-.12 3.07 1h-.08Z"/><path fill="#7367c0" d="M866.58 328.41c-5.79-3.6-11.61-3.28-17.5-.23-1 .5-1.84 1.53-3.15.91 2.68-5.35 13.64-6.65 17.93-4.32 1.53.83 3.03 1.51 2.72 3.64Z"/><path fill="#e43d25" d="M839.85 351.9c2.54.49 3.57 1.7 2 4.16-2.94 0-5.87 0-8.81-.08a1.82 1.82 0 0 1-2-2.19 1.76 1.76 0 0 1 2-1.73c2.25-.06 4.53-.06 6.81-.16Z"/><path fill="#7367c0" d="M862.69 352.09c-3.78 5.33-9.53 4.85-12.8-1.06 4.05 2.97 8.39 2.43 12.8 1.06Z"/><path fill="#e43d25" d="M801 329.67c-2.27.66-4.59 1.2-6.22 3.13-3.24.62-4.39-.68-3.54-3.83 3.22.41 6.57-.74 9.76.7Z"/><path fill="#7367c0" d="M849 350.08c-1.23-.53-.85-1.62-.9-2.56ZM845 330c.46 1.12-.13 1.67-1.1 2a1.52 1.52 0 0 1 1.1-2Z"/><path fill="#7367c0" d="M849.94 351.07c-.86.18-1-.4-1.08-1 .76-.07 1.08.28 1.08 1ZM846 329.05c.26.94-.13 1.25-1 1 0-.62.26-1.05 1-1Z"/><path fill="#faf4f6" d="M696.94 347.93c-1.74 2.53-1.81 5.53-1.91 8.35-.11 3-1.23 4.17-4.07 4-4-.7-2-3.64-1.73-5.47 1.57-9.44 3.7-18.79 4.67-28.34 1.66-1.7 10.4-3 12.23-1.89 1.23.77.89 2 .91 3.1.08 4.59.12 9.19.17 13.78-.14 1.74-.54 3.51.57 5.84 6-6 5.87-13.9 8.12-20.85 3.76-3.84 8.48-1.73 12.77-1.89 2-.08 1.14 2 .92 3.16-2 10.12-4.76 20.08-5.55 30.39-.25 3.2-2.73 1.48-4.1 2.17-3.85-.88-2-3.73-1.62-5.61a198.21 198.21 0 0 0 2.61-20.6l.6-.67-.37-.21c-.06.31-.11.62-.17.93-3 3.92-4.25 8.64-6 13.15-1.42 3.13-3 6.2-4.2 9.42-.91 2.5-2.31 3.82-5 3.6-2.87.23-3-1.66-3.11-3.79-.57-8.08-1.28-16.15-1.93-24.22-2.09 5.09-4.26 10.08-3.81 15.65ZM754 342.54c-.76 5.4-1.5 10.81-2.3 16.21-.16 1.1-.27 3.23-1 3-5.48-1.5-9.55 3.41-14.62 3-3.53-.29-7-1.27-7.83-5.55a10.1 10.1 0 0 1 4-10.53c3.6-2.76 7.85-3.37 12.19-3.42 2.69 0 2.74-1.1 1.57-3-.05-.67-.32-1.16-1.06-1.24h.05c-3.55-3.57-7.18-1.2-10.79-.12-2.08.27-4.13-.33-3.68-2.63s.42-5.4 3.52-6c4.91-1 9.87-1.34 14.74.46 4.09 1.51 5.26 4.73 5.28 8.68-.07.4-.07.77-.07 1.14Zm-15.32 14.7c3.75-.19 6.5-2.16 6.78-5.55.27-3.22-3.31-2.88-5.32-2.95-2.95-.11-5.81 1.2-6.06 4.63-.22 2.97 2.2 3.72 4.6 3.87Z"/><path fill="#7367c0" d="M693.9 326.44c-1 9.55-3.1 18.9-4.67 28.34-.3 1.83-2.28 4.77 1.73 5.47-1.16 3.26-3.93 2.11-5.83 1.61-2.11-.56-.5-2.53-.29-3.8 1.63-9.72 5.13-19.1 5.23-29.1.03-2.74 1.93-2.6 3.83-2.52Z"/><path fill="#6666cb" d="M696.94 347.93c-.45-5.57 1.72-10.56 3.84-15.68.65 8.07 1.36 16.14 1.93 24.22.15 2.13.24 4 3.11 3.79-1.11 2.88-3.6 1.91-5.55 1.73-2.34-.22-1.64-2.51-2-4-.73-3.29.61-6.89-1.33-10.06Z"/><path fill="#7367c0" d="M720.93 334a198.21 198.21 0 0 1-2.61 20.6c-.33 1.88-2.23 4.73 1.62 5.61-.72 3.43-3.44 1.88-5.16 1.73-2.39-.21-1-2.3-.92-3.54.21-3.75 1.66-7.36 1.16-11.19 1.72-4.52 3-9.24 6-13.16ZM754 342.54v-1.1c1.31-1.75.7-4.44 2.83-5.81-1 6.32 1.46 10.24 7.62 12.51 4.34 1.6 4.56 4.27 1.43 7 .18-3.39-2.32-4.57-4.8-5.57-3.39-1.34-6.01-3.38-7.08-7.03ZM715.9 326.42c-2.25 6.95-2.17 14.86-8.12 20.85-1.11-2.33-.71-4.1-.57-5.84a26.59 26.59 0 0 0 5.68-12c.42-1.77.79-3.18 3.01-3.01ZM755 356c.43 6.57.65 6.78 7.55 7 1.64.06 3.28 0 4.93 0-4.18 2.35-8.69 1.17-13 .89-2.28-.12-1.9-5.69.52-7.89ZM734.15 341c3.61-1.08 7.24-3.45 10.79.12Z"/><path fill="#7367c0" d="M767.4 363.05c.57-1 1.49-.93 2.42-.84a2.34 2.34 0 0 1-2.42.84ZM744.89 341.05c.74.08 1 .57 1.06 1.24-.53-.29-1.11-.48-1.06-1.24Z"/><path fill="#4e4e4e" d="M205.11 710.15c1.82.09 3.65.27 5.47.27h191.95c5.93 0 6 0 3.51 5.45-3.76 8.34-7.78 16.57-11.26 25-1.49 3.61-3.6 4.39-7.2 4.39q-84.74-.15-169.46-.07c-6 0-6.15 0-3.72 5.67 19.29 44.68 52.43 74.51 99.61 85.37 53.37 12.29 99.76-2.43 136.65-44a6.66 6.66 0 0 1 1.11-.94c.09-.07.3 0 1.1.07.44 5.6.86 11.32 1.34 17s.77 11.31 1.57 16.9c.61 4.18-1 6.81-4.11 9.31a168 168 0 0 1-86.43 36c-49.63 5.8-93.62-8.18-132-39.63a170.52 170.52 0 0 1-53.75-76.76c-1.64-4.7-3.86-5.89-8.52-5.81-16.16.28-32.33.12-48.49.1-5.21 0-5.24 0-2.69-4.77 4.84-8.92 9.79-17.79 14.53-26.76 1.36-2.57 3.12-3.4 6-3.35 8.83.17 17.67 0 26.49.13 3.27.06 4.38-1 4.29-4.31q-.3-11.49 0-23c.09-3.46-1-4.62-4.57-4.57-13.83.18-27.66 0-41.49.14-3.72 0-4.4-.73-2.52-4.07q7.62-13.47 14.84-27.17c1.53-2.9 3.47-3.82 6.73-3.74 9.49.24 19-.06 28.48.16 3.53.08 5.15-.92 6.36-4.46 14.65-42.76 41.54-75.45 81.15-97.4 24.76-13.72 51.43-20.64 79.7-21.49 2.67-.08 5.92.59 3.54-4.12-1.45-2.87 1.2-2.4 2.67-2.37a160.44 160.44 0 0 1 28.75 3.24c35.36 7.14 65.25 24.18 90.38 49.92 2.85 2.92 3.24 5 1.08 8.54-4 6.5-7.58 13.29-11.19 20-1.39 2.61-2.32 3.7-4.8.78-20.41-24-46-40-76.57-46.92-42.78-9.69-82.27-1.66-117.7 24.64-21.2 15.73-35 37-45.38 60.87-.43 1-.18 2.28-.24 3.42a2.2 2.2 0 0 0 .2 2.36c.55 3.43 3.23 1.57 4.71 1.57q106.49.18 213 .11c2.5 0 5 .13 7.49.19l-13.2 30.12a3.84 3.84 0 0 1-4.32 2.59 30 30 0 0 0-3 0q-103.23 0-206.45-.11c-4.78 0-6.37 1.15-6.08 6 .42 7 0 14 .16 21 0 1.46-1 3.43 1.26 4.32Z"/><path fill="#faf4f6" d="M210.49 644.28a2.2 2.2 0 0 1-.2-2.36q110.15 0 220.31.15c1.61 0 4.44-1.75 4.91 1.85-2.16 0-4.32.13-6.48.13H217.46c-2.32.02-4.64.16-6.97.23Z"/><path fill="#333" d="M210.49 644.28c2.33-.07 4.65-.21 7-.21h211.57c2.16 0 4.32-.09 6.48-.13a2.07 2.07 0 0 1 .13 2.23c-2.5-.06-5-.19-7.49-.19q-106.47 0-212.95-.11c-1.51-.02-4.23 1.84-4.74-1.59Z"/><path fill="#faf4f6" d="m205.11 710.15-1.1-.09c.44-.81.79-.63 1.1.09Z"/><path fill="#ed7f1c" d="M883.11 351.7c-.59 3.44-2.13 6.41-6 6.88-2.66.32-4-2-3.9-4.21.09-4.09 3.25-5 6.62-5.14 1.63-.08 3.59-.34 3.28 2.47Z"/><path fill="#e43d25" d="m772.69 338.09-.93 6.33a2.44 2.44 0 0 1-.46-.14c-2.12-1.09-5.53-1.88-4.94-4.56.64-3 4.03-1.57 6.33-1.63Z"/><path fill="#ed7f1c" d="M787.11 345.3c2.18.62 5.74-1.76 6.13 2.8-.12.51-.24 1-.37 1.52l-5 .37h-.81Z"/><path fill="#e43d25" d="M787 350h.81l3.12 6-.06.06c-5.61-.34-5.69-.47-3.87-6.06ZM807.05 345.92c-1.82-1.06-4.89 1.14-5.09-1.75s2.41-4.09 5.18-4.17 4.82 1.42 4.57 4.05c-.3 3.13-3.36.52-4.66 1.87ZM811 354.23c1.93.39 5.12-1.71 5.39 2s-3 3.72-5.62 3.79c-1.94.06-4 .47-5.81-.64 3.36-.17 5.73-1.46 6.04-5.15Z"/><path fill="#6666cb" d="M811 354.23c-.33 3.69-2.7 5-6 5.13-2-.53-3.33-1.91-3-3.95.39-2.54 2.65-1.21 4.08-1.36a33.19 33.19 0 0 1 4.92.18Z"/><path fill="#7367c0" d="m791 356-3.12-6 5-.37c.39 2.46.77 4.91 1.16 7.37ZM820.26 333.06a5 5 0 0 1 8.5 0Z"/><path fill="#7367c0" d="M794.89 357.75 794 357c.66-.24.79.24.89.75Z"/><path fill="#ed7f1c" d="M918.93 349.4c.05-5 3.7-9.43 7.78-9.26 3.72.17 5.1 2.62 5.08 6 0 5.32-3.63 10.09-7.6 10.15-3.37.08-5.31-2.47-5.26-6.89Z"/><path fill="#7367c0" d="M721 334.09c.06-.31.11-.62.17-.93l.37.21-.6.67Z"/><path fill="#e43d25" d="M738.68 357.24c-2.4-.15-4.82-.9-4.6-3.87.25-3.43 3.11-4.74 6.06-4.63 2 .07 5.59-.27 5.32 2.95-.28 3.39-3.03 5.36-6.78 5.55Z"/></svg>