<?xml version="1.0" encoding="UTF-8"?>
<svg xmlns:xodm="http://www.corel.com/coreldraw/odm/2003" xmlns="http://www.w3.org/2000/svg" xmlns:xlink="http://www.w3.org/1999/xlink" version="1.1" id="Layer_1" x="0px" y="0px" viewBox="0 0 2500 2500" style="enable-background:new 0 0 2500 2500;" xml:space="preserve">
<style type="text/css">
	.st0{fill-rule:evenodd;clip-rule:evenodd;fill:#268AEF;}
	.st1{fill:#FFFFFF;}
</style>
<g id="Layer_x0020_1">
	<g id="_2234256279056">
		<circle class="st0" cx="1250" cy="1250" r="1250"></circle>
		<g>
			<g>
				<polygon class="st1" points="1250,383 525,776 1251,1195 1528,1035 1411,968 1251,1060 764,780 1251,516 1298,542 1858,845       1976,776     "></polygon>
				<polygon class="st1" points="933,1096 933,1231 1097,1326 1097,1908 596,1599 596,901 479,834 479,1665 1214,2117 1214,1258           "></polygon>
				<polygon class="st1" points="1933,885 1287,1258 1287,1586 1403,1519 1403,1326 1905,1036 1905,1600 1403,1908 1287,1979       1287,2116 2021,1664 2021,833     "></polygon>
			</g>
		</g>
	</g>
</g>
</svg>
