<svg width="50" height="50" viewBox="0 0 50 50" fill="none" xmlns="http://www.w3.org/2000/svg"><path fill-rule="evenodd" clip-rule="evenodd" d="M42.396 42.955A24.926 24.926 0 0050 25c0-4.837-1.374-9.353-3.752-13.18a5.98 5.98 0 01-.59 1.475 5.718 5.718 0 01-4.301 2.905 5.702 5.702 0 00-1.676.66c-2.723 1.614-3.679 5.167-2.162 7.98.162.256.259.563.259.893 0 .92-.725 1.664-1.622 1.664a1.627 1.627 0 01-1.4-.823c-.97-1.7-2.766-2.846-4.823-2.846-3.089 0-5.593 2.567-5.593 5.735 0 3.167 2.504 5.733 5.593 5.733 2.212 0 4.13-1.322 5.032-3.242H30.96c-.894 0-1.62-.744-1.62-1.664 0-.917.726-1.664 1.625-1.664h6.142c.888.009 1.608.752 1.608 1.664 0 .03-.004.062-.009.092h.009c0 .011-.003.024-.006.037a.306.306 0 00-.008.049l-.002.018a9.105 9.105 0 01-1.056 3.38l-.005.008a.063.063 0 01-.01.018c-.018.03-.034.06-.051.091l-.061.109c-1.514 2.813-.558 6.36 2.165 7.974a5.663 5.663 0 001.676.664c.352.042.7.117 1.039.225zm-7.413 4.972c.063-.579.209-1.145.434-1.68.181-.574.28-1.184.28-1.825 0-3.221-2.52-5.848-5.652-5.91a.815.815 0 01-.222 0c-3.136.062-5.657 2.687-5.657 5.91 0 .64.1 1.251.278 1.825a6.015 6.015 0 01.3 3.752L25 50a24.859 24.859 0 009.983-2.073zm-21.401-.681a25.074 25.074 0 01-6.52-4.833A24.918 24.918 0 010 25C0 11.193 11.193 0 25 0a24.886 24.886 0 0114.458 4.602 5.735 5.735 0 00-3.739 2.806 6.022 6.022 0 00-.302 5.276c.181.572.28 1.18.28 1.817 0 3.234-2.533 5.862-5.672 5.912l-.047-.001-.045-.001c-.038 0-.072 0-.11.002-3.136-.059-5.657-2.682-5.657-5.912 0-.638.1-1.245.278-1.816a6.01 6.01 0 00-.3-5.277C22.56 4.592 19.05 3.63 16.302 5.254c-2.745 1.626-3.685 5.227-2.096 8.041a5.712 5.712 0 004.303 2.905 5.71 5.71 0 011.67.66c2.702 1.604 3.665 5.107 2.203 7.909-.05.082-.096.167-.142.252l-.038.07c-1.63 2.708-5.075 3.618-7.787 2.01a5.831 5.831 0 01-1.443-1.213c-1.05-1.406-2.7-2.31-4.552-2.31-3.172 0-5.741 2.632-5.741 5.885 0 3.255 2.569 5.887 5.74 5.887 1.856 0 3.507-.904 4.556-2.306a5.7 5.7 0 011.44-1.22c2.712-1.603 6.157-.699 7.787 2.015l.013.024c.055.102.108.201.167.296 1.461 2.802.498 6.309-2.202 7.907a5.67 5.67 0 01-1.67.664c-1.742.207-3.362 1.227-4.304 2.901a5.974 5.974 0 00-.624 1.615z" fill="url(#paint0_linear)"/><defs><linearGradient id="paint0_linear" x1="75" y1="25" x2="25" y2="-25" gradientUnits="userSpaceOnUse"><stop stop-color="#00AEEF"/><stop offset="1" stop-color="#72BF44"/></linearGradient></defs></svg>
