<svg width="56" height="50" viewBox="0 0 56 50" fill="none" xmlns="http://www.w3.org/2000/svg">
<path d="M55.0723 22.0779L44.0125 2.92105C43.0662 1.28304 40.8434 0 38.952 0H16.8303C14.9388 0 12.716 1.28304 11.7697 2.92105L0.708879 22.0779C-0.236293 23.7159 -0.236293 26.283 0.708879 27.921L11.7697 47.0789C12.716 48.717 14.9388 50 16.8303 50H38.9509C40.8423 50 43.0652 48.717 44.0114 47.0789L55.0712 27.921C56.0185 26.283 56.0185 23.717 55.0723 22.0779ZM53.4054 26.9588L42.3456 46.1167C41.7426 47.1613 40.157 48.0765 38.9509 48.0765H16.8303C15.6253 48.0765 14.0386 47.1613 13.4366 46.1167L2.37576 26.9588C1.7738 25.9152 1.7738 24.0848 2.37576 23.0402L13.4366 3.8844C14.0386 2.83979 15.6253 1.92456 16.8303 1.92456H38.9509C40.1559 1.92456 41.7426 2.83979 42.3445 3.8844L53.4043 23.0402C54.0084 24.0837 54.0084 25.9152 53.4054 26.9588ZM35.3691 15.5718C35.7818 15.3334 36.2159 15.1709 36.6575 15.0768C37.995 14.9196 39.2439 14.1551 39.9688 12.8988C41.1877 10.7871 40.4638 8.08635 38.3521 6.86746C36.2394 5.64751 33.5408 6.37135 32.3197 8.48409C31.5948 9.73933 31.5574 11.2031 32.0888 12.4401C32.2278 12.8699 32.3037 13.3276 32.3037 13.8023C32.3037 16.2283 30.3567 18.1967 27.9403 18.2362C27.9168 18.2352 27.8933 18.2341 27.8687 18.2341C27.8409 18.2341 27.8131 18.2352 27.7853 18.2352C25.3753 18.1903 23.4336 16.224 23.4336 13.8023C23.4336 13.3276 23.5095 12.8689 23.6485 12.4401C24.181 11.2041 24.1425 9.73933 23.4176 8.48409C22.1987 6.37135 19.4979 5.64858 17.3862 6.86746C15.2746 8.08635 14.5507 10.7871 15.7707 12.8988C16.4956 14.1551 17.7444 14.9196 19.0809 15.0768C19.5225 15.1709 19.9566 15.3344 20.3682 15.5718C22.4468 16.7714 23.1856 19.4006 22.0629 21.5016C22.0148 21.5807 21.9688 21.6609 21.9239 21.7422C20.6697 23.7758 18.0171 24.4568 15.9332 23.254C15.5023 23.0059 15.1334 22.6927 14.8223 22.3398C14.0151 21.2888 12.7459 20.6088 11.3185 20.6088C8.87969 20.6088 6.90381 22.5868 6.90381 25.0246C6.90381 27.4624 8.88076 29.4404 11.3185 29.4404C12.747 29.4404 14.0172 28.7593 14.8234 27.7072C15.1345 27.3544 15.5023 27.0432 15.9332 26.7941C18.016 25.5913 20.6687 26.2723 21.9228 28.3049C21.9678 28.3872 22.0137 28.4674 22.0618 28.5465C23.1845 30.6486 22.4457 33.2756 20.3682 34.4752C19.9566 34.7137 19.5214 34.8773 19.0798 34.9724C17.7433 35.1285 16.4945 35.893 15.7707 37.1493C14.5507 39.262 15.2746 41.9618 17.3862 43.1807C19.4979 44.4017 22.1976 43.6768 23.4176 41.564C24.1425 40.3088 24.181 38.8461 23.6485 37.6091C23.5095 37.1803 23.4336 36.7206 23.4336 36.2458C23.4336 33.8241 25.3742 31.8578 27.7853 31.8129C27.8131 31.8129 27.8409 31.8151 27.8687 31.8151C27.8975 31.8151 27.9253 31.8129 27.9553 31.8129C30.3652 31.8589 32.3037 33.8262 32.3037 36.2458C32.3037 36.7206 32.2278 37.1803 32.0888 37.6091C31.5563 38.8461 31.5948 40.3088 32.3197 41.564C33.5397 43.6768 36.2394 44.4006 38.3521 43.1817C40.4638 41.9618 41.1866 39.262 39.9688 37.1493C39.2439 35.893 37.995 35.1296 36.6585 34.9724C36.217 34.8773 35.7829 34.7137 35.3691 34.4752C33.2735 33.2649 32.54 30.6037 33.7043 28.4941C33.7343 28.445 33.7621 28.3958 33.7909 28.3445C33.7952 28.337 33.7995 28.3306 33.8038 28.3252L33.8027 28.3241C34.2293 27.5575 34.5148 26.7011 34.6164 25.7912C34.6174 25.7805 34.6185 25.772 34.6196 25.7623C34.6217 25.7452 34.6239 25.7292 34.626 25.7121H34.6206C34.6217 25.6896 34.6239 25.6661 34.6239 25.6437C34.6239 24.9572 34.0711 24.4034 33.3879 24.3959L28.6631 24.3948C28.6631 24.3948 28.662 24.3948 28.6609 24.3948C27.9713 24.3948 27.4132 24.954 27.4132 25.6437C27.4132 26.3333 27.9713 26.8925 28.6609 26.8925H31.7424C31.0474 28.3316 29.5751 29.3249 27.8687 29.3249C25.4929 29.3249 23.5683 27.3993 23.5683 25.0246C23.5683 22.6499 25.4929 20.7243 27.8687 20.7243C29.4532 20.7243 30.8346 21.5828 31.582 22.8573C31.799 23.2262 32.1989 23.4743 32.6576 23.4743C33.3472 23.4743 33.9054 22.9172 33.9054 22.2265C33.9054 21.9795 33.8294 21.7496 33.7043 21.5561C32.54 19.4466 33.2735 16.7821 35.3691 15.5718Z" fill="#3A5E66"/>
</svg>

