<svg xmlns="http://www.w3.org/2000/svg" viewBox="0 0 2500 2500"><title>GmtIcon</title><path d="M2500,1250C2500,560,1940,0,1250,0S0,560,0,1250,560,2500,1250,2500,2500,1940,2500,1250Z" fill="#e6bc7b"/><path d="M2500,1250C2500,560,1940,0,1250,0S0,560,0,1250,560,2500,1250,2500,2500,1940,2500,1250Z" fill="none"/><polyline points="1403.4 572.7 1403.4 885.5 1094.6 885.5 1094.6 572.7" fill="none" stroke="#000" stroke-linecap="round" stroke-linejoin="round" stroke-width="68.41"/><polyline points="1094.6 1923.4 1094.6 1610.6 1403.4 1610.6 1403.4 1923.4" fill="none" stroke="#000" stroke-linecap="round" stroke-linejoin="round" stroke-width="68.41"/><polyline points="1094.6 1239.2 1752.3 1239.2 1752.3 1610.6 746.7 1610.6 746.7 885.5 1752.3 885.5" fill="none" stroke="#000" stroke-linecap="round" stroke-linejoin="round" stroke-width="68.41"/><circle cx="1249" cy="1248" r="1001.8" fill="none" stroke="#000" stroke-linecap="round" stroke-linejoin="round" stroke-width="68.41"/></svg>