<svg width="34" height="34" viewBox="0 0 34 34" fill="none" xmlns="http://www.w3.org/2000/svg">
<path fill-rule="evenodd" clip-rule="evenodd" d="M17 0C26.3888 0 34 7.61121 34 17.0001C34 26.3889 26.3888 34 17 34C7.61116 34 0 26.3889 0 17.0001C0 7.61121 7.61116 0 17 0Z" fill="url(#paint0_linear_159_1502)"/>
<path d="M5.95828 19.2094V17.5294H18.8703V19.2094H5.95828ZM5.95828 15.8974V14.2174H18.8703V15.8974H5.95828ZM17.3343 25.3534C16.0383 25.3534 14.8383 25.1454 13.7343 24.7294C12.6463 24.2974 11.7023 23.6974 10.9023 22.9294C10.1023 22.1454 9.47828 21.2254 9.03028 20.1694C8.58228 19.1134 8.35828 17.9614 8.35828 16.7134C8.35828 15.4654 8.58228 14.3134 9.03028 13.2574C9.47828 12.2014 10.1023 11.2894 10.9023 10.5214C11.7023 9.7374 12.6463 9.1374 13.7343 8.7214C14.8383 8.2894 16.0383 8.0734 17.3343 8.0734C18.7103 8.0734 19.9663 8.3134 21.1023 8.7934C22.2543 9.2574 23.2143 9.9534 23.9823 10.8814L21.9903 12.7774C21.3823 12.1214 20.7023 11.6334 19.9503 11.3134C19.1983 10.9774 18.3823 10.8094 17.5023 10.8094C16.6223 10.8094 15.8143 10.9534 15.0783 11.2414C14.3583 11.5294 13.7263 11.9374 13.1823 12.4654C12.6543 12.9934 12.2383 13.6174 11.9343 14.3374C11.6303 15.0574 11.4783 15.8494 11.4783 16.7134C11.4783 17.5774 11.6303 18.3694 11.9343 19.0894C12.2383 19.8094 12.6543 20.4334 13.1823 20.9614C13.7263 21.4894 14.3583 21.8974 15.0783 22.1854C15.8143 22.4734 16.6223 22.6174 17.5023 22.6174C18.3823 22.6174 19.1983 22.4574 19.9503 22.1374C20.7023 21.8014 21.3823 21.2974 21.9903 20.6254L23.9823 22.5454C23.2143 23.4574 22.2543 24.1534 21.1023 24.6334C19.9663 25.1134 18.7103 25.3534 17.3343 25.3534Z" fill="white"/>
<defs>
<linearGradient id="paint0_linear_159_1502" x1="52.7709" y1="16.646" x2="16.6459" y2="-19.479" gradientUnits="userSpaceOnUse">
<stop stop-color="#00AEEF"/>
<stop offset="1" stop-color="#72BF44"/>
</linearGradient>
</defs>
</svg>
